<svg width="83" height="90" viewBox="0 0 83 90" fill="none" xmlns="http://www.w3.org/2000/svg">
<path d="M38.7445 26.9351C39.3537 26.9849 39.7471 26.7234 39.9248 26.1507C42.476 17.6537 46.1886 10.0905 53.2329 4.49737C58.4748 0.326676 64.1515 -0.943209 70.2629 0.687719C79.1063 3.04074 82.7999 11.211 81.905 19.5772C81.4164 24.2148 80.1567 30.172 78.1259 37.449C75.6445 46.363 71.9351 57.7422 66.9978 71.5864C65.8364 74.8358 64.38 78.0354 62.6284 81.1852C47.0167 109.272 11.4145 62.2957 3.57057 50.54C-2.05534 42.1083 -0.86542 31.2116 5.95993 23.7977C11.2336 18.0646 19.8201 19.0917 26.2266 22.173C29.8058 23.9004 34.8796 26.6083 38.7445 26.9351Z" fill="#FAF3EC"/>
</svg>
