<svg width="210" height="231" viewBox="0 0 210 231" fill="none" xmlns="http://www.w3.org/2000/svg">
<path d="M99.1808 68.9504C100.74 69.0778 101.748 68.4085 102.202 66.9425C108.733 45.1912 118.237 25.8303 136.269 11.5127C149.688 0.836248 164.22 -2.41449 179.864 1.76047C202.502 7.7839 211.957 28.6986 209.666 50.1152C208.415 61.9868 205.191 77.2365 199.992 95.8645C193.64 118.683 184.145 147.813 171.506 183.252C168.533 191.57 164.804 199.761 160.321 207.824C120.357 279.722 29.2196 159.469 9.1402 129.376C-5.26141 107.792 -2.21536 79.8976 15.2566 60.9191C28.7566 46.243 50.7368 48.8723 67.1366 56.7601C76.2991 61.182 89.2873 68.1138 99.1808 68.9504Z" fill="#4B2C5E" fill-opacity="0.13"/>
</svg>
