<svg width="30" height="28" viewBox="0 0 30 28" fill="none" xmlns="http://www.w3.org/2000/svg">
<path d="M15.2764 0.875C16.0012 0.875 16.5889 1.46263 16.5889 2.1875V3.9834C19.0817 5.12315 22.3484 6.12489 24.4639 6.125H27.0889C27.8137 6.125 28.4014 6.71263 28.4014 7.4375C28.4014 8.16237 27.8137 8.75 27.0889 8.75H25.8652L29.6299 18.7891C29.8349 19.3357 29.6542 19.9524 29.1865 20.3018C27.8193 21.323 26.166 21.875 24.4639 21.875C22.7618 21.8749 21.1084 21.3231 19.7412 20.3018C19.2737 19.9523 19.093 19.3356 19.2979 18.7891L23.0957 8.65918C21.0335 8.4125 18.6315 7.67881 16.5889 6.8418V24.5H21.8389C22.5637 24.5 23.1514 25.0876 23.1514 25.8125C23.1514 26.5374 22.5637 27.125 21.8389 27.125H8.71387C7.98915 27.1248 7.40137 26.5373 7.40137 25.8125C7.40137 25.0877 7.98915 24.5002 8.71387 24.5H13.9639V6.8418C11.9208 7.67894 9.51843 8.41272 7.45605 8.65918L11.2549 18.7891C11.4599 19.3357 11.2792 19.9524 10.8115 20.3018C9.44429 21.323 7.79096 21.875 6.08887 21.875C4.3868 21.8749 2.73339 21.3231 1.36621 20.3018C0.898739 19.9523 0.717972 19.3356 0.922852 18.7891L4.6875 8.75H3.46387C2.73915 8.74982 2.15137 8.16226 2.15137 7.4375C2.15137 6.71274 2.73915 6.12518 3.46387 6.125H6.08887C8.20421 6.125 11.471 5.12311 13.9639 3.9834V2.1875C13.9639 1.46274 14.5516 0.875181 15.2764 0.875ZM3.75781 18.7012C4.48124 19.06 5.27718 19.2499 6.08887 19.25C6.90027 19.25 7.6957 19.0597 8.41895 18.7012L6.08887 12.4863L3.75781 18.7012ZM22.1328 18.7012C22.8562 19.06 23.6522 19.2499 24.4639 19.25C25.2753 19.25 26.0707 19.0597 26.7939 18.7012L24.4639 12.4863L22.1328 18.7012Z" fill="#C49A6C"/>
</svg>
