<svg width="435" height="197" viewBox="0 0 435 197" fill="none" xmlns="http://www.w3.org/2000/svg">
<path d="M98.4727 62.3542C95.6171 61.2826 92.788 60.144 89.9929 58.9404C89.2729 58.6307 88.5572 58.3074 87.8402 57.9877L88.53 53.6354C92.0327 55.2156 95.5744 56.6905 99.1523 58.0623L98.4727 62.3542Z" fill="#F3E2C8"/>
<path d="M94.3451 88.426C91.4338 87.4124 88.5493 86.3247 85.6955 85.1666L86.3793 80.8486C89.2342 82.0251 92.116 83.1281 95.0195 84.1684L94.3451 88.426Z" fill="#F3E2C8"/>
<path d="M95.2444 117.491C92.3331 116.477 89.4484 115.39 86.5946 114.232L87.2786 109.914C90.1335 111.09 93.015 112.193 95.918 113.234L95.2444 117.491Z" fill="#F3E2C8"/>
<path d="M12.8817 55.5737C19.8575 68.009 30.4853 77.8333 41.952 86.0909C53.2286 94.2112 65.3595 101.33 77.8984 107.343L77.204 111.726C66.3951 106.632 55.9723 100.675 45.9976 94.12C34.2776 86.4124 22.9974 77.4733 14.5539 66.1594C12.4668 63.366 10.5792 60.4328 8.87341 57.3979C7.48085 54.926 11.5022 53.1184 12.8817 55.5737Z" fill="#F3E2C8"/>
<path d="M6.42471 87.7747C13.3999 100.21 24.0283 110.034 35.4944 118.292C46.771 126.412 58.9019 133.531 71.4414 139.544L70.747 143.927C59.9381 138.833 49.5152 132.876 39.5406 126.321C27.8205 118.613 16.5401 109.674 8.09599 98.3604C6.00953 95.567 4.12215 92.6338 2.41579 89.5989C1.02383 87.127 5.04459 85.32 6.42471 87.7747Z" fill="#F3E2C8"/>
<path d="M4.2964 117.803C11.2716 130.238 21.8997 140.063 33.3658 148.32C44.6424 156.441 56.7736 163.559 69.3125 169.573L68.6184 173.955C57.8095 168.861 47.3866 162.905 37.412 156.349C25.6919 148.642 14.4118 139.703 5.96767 128.389C3.88121 125.595 1.99324 122.662 0.287483 119.627C-1.10448 117.156 2.91628 115.348 4.2964 117.803Z" fill="#F3E2C8"/>
<path d="M12.8817 26.1426C19.8575 38.5779 30.4853 48.4022 41.952 56.6598C53.2286 64.7801 65.3595 71.8986 77.8984 77.9122L77.204 82.2948C66.3951 77.2006 55.9723 71.2443 45.9976 64.6889C34.2776 56.9813 22.9974 48.0422 14.5539 36.7283C12.4668 33.9349 10.5792 31.0018 8.87341 27.9668C7.48085 25.4955 11.5022 23.6879 12.8817 26.1426Z" fill="#F3E2C8"/>
<path d="M20.3818 1.16754C27.3576 13.6028 37.9853 23.4271 49.452 31.6847C60.7286 39.805 72.8595 46.9235 85.3984 52.9372L84.704 57.3197C73.8951 52.2255 63.4729 46.2693 53.4976 39.7139C41.7776 32.0062 30.4974 23.0671 22.0539 11.7532C19.9674 8.9598 18.0792 6.02667 16.3734 2.99171C14.9815 0.519804 19.0022 -1.2872 20.3818 1.16754Z" fill="#F3E2C8"/>
<path d="M85.3984 144.838L84.7237 149.1C81.8136 148.076 78.9302 146.978 76.0788 145.811L76.7631 141.49C79.6163 142.676 82.4967 143.789 85.3984 144.838Z" fill="#F3E2C8"/>
<path d="M80.7578 174.207L80.081 178.478C77.1757 177.417 74.2978 176.285 71.4535 175.084L72.1398 170.752C74.9877 171.972 77.8608 173.123 80.7578 174.207Z" fill="#F3E2C8"/>
<path d="M412.64 58.8911C418.247 62.8414 423.52 67.2642 428.36 72.1423C430.633 74.4366 432.745 76.9037 434.785 79.4053C435.526 80.3153 434.176 81.3905 433.393 80.5479C426.963 73.6083 419.809 67.3625 412.088 61.945L412.64 58.8911Z" fill="#F3E2C8"/>
<path d="M101.003 58.7663C109.313 61.8563 117.822 64.3815 126.518 66.2927C142.301 69.7593 158.407 69.9458 174.469 68.8279C207.92 66.4958 240.875 59.7533 272.92 50.0226C288.543 45.2735 304.174 40.2285 320.347 37.676C333.997 35.5215 347.864 35.4457 361.493 37.8116C377.072 40.515 392.193 46.138 405.719 54.3553L405.168 57.4027C393.276 50.1303 380.235 44.7679 366.529 41.7779C353.273 38.8827 339.652 38.2439 326.189 39.8774C309.558 41.8963 293.496 46.8656 277.534 51.7496C245.633 61.5099 213.19 68.6503 179.9 71.4947C163.896 72.8617 147.804 72.9973 131.851 70.9233C121.089 69.523 110.532 66.7486 100.325 63.0458L101.003 58.7663Z" fill="#F3E2C8"/>
<path d="M87.27 145.499C94.4643 148.019 101.802 150.124 109.281 151.766C125.064 155.232 141.169 155.423 157.232 154.301C190.683 151.973 223.638 145.231 255.683 135.496C271.306 130.751 286.937 125.706 303.11 123.153C316.76 120.999 330.622 120.918 344.256 123.289C360.452 126.1 376.154 132.068 390.082 140.825L389.53 143.878C377.211 136.097 363.614 130.378 349.292 127.251C336.036 124.36 322.415 123.721 308.951 125.355C292.321 127.37 276.258 132.343 260.293 137.227C228.392 146.987 195.953 154.128 162.663 156.972C146.66 158.339 130.568 158.471 114.614 156.397C105.081 155.157 95.7098 152.834 86.5978 149.745L87.27 145.499Z" fill="#F3E2C8"/>
<path d="M396.98 145.496C402.001 149.155 406.739 153.201 411.123 157.62C413.396 159.915 415.508 162.382 417.549 164.883C418.285 165.789 416.939 166.868 416.156 166.026C410.165 159.561 403.547 153.699 396.428 148.547L396.98 145.496Z" fill="#F3E2C8"/>
<path d="M97.7892 113.891C104.815 116.328 111.975 118.371 119.267 119.971C135.051 123.438 151.156 123.624 167.223 122.507C200.669 120.174 233.624 113.436 265.669 103.701C281.297 98.9562 296.927 93.907 313.096 91.3587C326.751 89.2042 340.613 89.1237 354.242 91.4902C368.976 94.0491 383.299 99.2185 396.25 106.721L395.701 109.755C384.413 103.155 372.138 98.2611 359.279 95.4559C346.022 92.5648 332.406 91.9218 318.937 93.5553C302.311 95.5743 286.244 100.548 270.283 105.428C238.381 115.188 205.938 122.328 172.648 125.177C156.649 126.544 140.553 126.675 124.604 124.601C115.254 123.386 106.062 121.129 97.117 118.129L97.7892 113.891Z" fill="#F3E2C8"/>
<path d="M403.207 111.067C409.633 115.388 415.647 120.317 421.11 125.825C423.387 128.119 425.495 130.582 427.535 133.088C428.276 133.994 426.926 135.073 426.143 134.231C419.111 126.639 411.214 119.878 402.654 114.125L403.207 111.067Z" fill="#F3E2C8"/>
<path d="M407.768 85.8953C412.16 89.2168 416.322 92.842 420.208 96.7592C422.485 99.0535 424.593 101.516 426.633 104.022C427.373 104.928 426.024 106.007 425.24 105.165C419.731 99.2169 413.691 93.7781 407.218 88.9338L407.768 85.8953Z" fill="#F3E2C8"/>
<path d="M96.8881 84.8239C103.913 87.2614 111.073 89.3041 118.366 90.9045C134.15 94.3711 150.255 94.557 166.322 93.4397C199.768 91.1075 232.724 84.3692 264.769 74.6343C280.396 69.8895 296.027 64.8403 312.196 62.292C325.85 60.1374 339.712 60.0569 353.341 62.4234C370.215 65.3542 386.548 71.7089 400.898 81.0713L400.346 84.1252C387.576 75.777 373.376 69.6615 358.378 66.3891C345.122 63.498 331.505 62.855 318.037 64.4885C301.411 66.5075 285.344 71.4809 269.383 76.3608C237.481 86.1211 205.038 93.2615 171.749 96.1105C155.75 97.4776 139.652 97.6091 123.704 95.5351C114.354 94.3201 105.162 92.0626 96.2168 89.0631L96.8881 84.8239Z" fill="#F3E2C8"/>
<path d="M82.6168 174.893C90.4452 177.731 98.4478 180.065 106.614 181.856C122.397 185.322 138.502 185.513 154.565 184.391C188.015 182.063 220.971 175.32 253.016 165.586C268.638 160.841 284.27 155.791 300.443 153.243C314.097 151.089 327.959 151.008 341.588 153.379C356.825 156.023 371.621 161.462 384.918 169.387L384.368 172.428C372.718 165.43 359.989 160.256 346.625 157.341C333.369 154.45 319.752 153.807 306.284 155.44C289.654 157.459 273.591 162.433 257.63 167.317C225.729 177.078 193.285 184.214 159.996 187.062C143.997 188.429 127.9 188.561 111.947 186.487C101.718 185.159 91.6769 182.583 81.9432 179.149L82.6168 174.893Z" fill="#F3E2C8"/>
<path d="M391.849 173.838C397.787 177.942 403.357 182.575 408.45 187.709C410.723 190.003 412.835 192.47 414.875 194.972C415.616 195.878 414.266 196.957 413.482 196.114C406.808 188.909 399.357 182.448 391.297 176.889L391.849 173.838Z" fill="#F3E2C8"/>
</svg>
