<svg width="101" height="91" viewBox="0 0 101 91" fill="none" xmlns="http://www.w3.org/2000/svg">
<path d="M31.8783 2.37031C47.816 -2.76398 65.3581 1.40719 77.3383 12.9592L82.0453 8.25313C82.6871 7.61133 83.6496 7.61133 84.2914 8.25313C100.978 24.6189 105.043 49.6487 94.56 70.507C92.3137 74.6786 89.6399 78.6364 86.431 82.1662C86.1102 82.4871 85.6821 82.7013 85.2543 82.7014C84.8265 82.7014 84.3984 82.5944 84.0775 82.2736L78.3012 76.4973C73.1669 81.7385 66.8559 85.8028 59.7963 88.049C55.1968 89.5465 50.4901 90.2961 45.7836 90.2961C38.7241 90.2961 31.7717 88.691 25.3539 85.3752C14.6575 79.92 6.63434 70.6143 2.99745 59.1691C-4.70406 35.5298 8.23899 10.0719 31.8783 2.37031ZM74.9857 15.3127C63.9683 4.61617 47.6024 0.658505 32.8412 5.47187C10.9132 12.5316 -1.17413 36.2783 5.99257 58.2062C9.41548 68.7957 16.9029 77.4601 26.7435 82.4875C36.7983 87.6218 48.1373 88.4768 58.7269 85.0539C65.3587 82.9146 71.2422 79.1715 76.1625 74.2512L72.8461 70.9348C72.2044 70.3999 72.2048 69.4369 72.7396 68.7951C74.5579 66.656 76.1622 64.3029 77.4457 61.843C84.2914 48.4725 81.7244 32.3207 70.9213 21.8381C70.6005 21.5173 70.3862 21.0891 70.3861 20.6613C70.3861 20.2335 70.493 19.8055 70.8139 19.4846L74.9857 15.3127ZM74.2367 20.5539C85.0402 32.1062 87.5006 49.0072 80.2269 63.2336C79.0504 65.5867 77.6595 67.7257 76.0551 69.758L85.0404 78.7434C87.6074 75.7485 89.7465 72.5396 91.5648 69.01C101.299 49.9701 97.8764 27.0786 83.2221 11.5686L74.2367 20.5539ZM36.0473 15.0988C44.0697 12.4247 52.6275 13.1734 60.2221 16.9172C67.7097 20.768 73.3785 27.4006 75.9457 35.423C78.6197 43.5523 77.9781 52.1098 74.1273 59.7043C70.2766 67.1917 63.6447 72.8608 55.6225 75.4279C52.4135 76.4976 49.097 77.0324 45.8881 77.0324C32.5176 77.0323 20.1096 68.4751 15.724 55.1047C10.2688 38.4181 19.3607 20.5542 36.0473 15.0988ZM45.8881 16.8107C42.8932 16.8108 39.8981 17.2387 37.0101 18.2014C22.0351 23.1219 13.9057 39.1667 18.7191 54.1418C23.6396 69.1169 39.6844 77.2462 54.6596 72.4328C61.8263 70.0796 67.8167 64.9451 71.2396 58.2062C74.6624 51.4675 75.3038 43.766 72.9506 36.4924C70.5973 29.2187 65.5703 23.3352 58.8314 19.9123C54.7667 17.88 50.2737 16.8107 45.8881 16.8107ZM54.0189 56.6008C56.5861 54.7824 60.1161 55.3168 61.8275 57.884C63.6459 60.4512 63.0035 63.9806 60.5434 65.799C59.5807 66.5478 58.4045 66.8693 57.2279 66.8693C57.0141 66.8693 56.6932 66.762 56.3725 66.7619C54.8749 66.548 53.5905 65.6924 52.7348 64.5158C50.9166 61.9487 51.4519 58.4191 54.0189 56.6008ZM33.3744 55.6398C34.8718 55.3191 36.3688 55.7471 37.5453 56.6027C38.8289 57.4585 39.5784 58.8489 39.7924 60.2395C40.1132 61.7369 39.6852 63.2348 38.8295 64.4113C37.9738 65.5878 36.6901 66.4434 35.1928 66.6574C34.9788 66.7644 34.6572 66.7639 34.3363 66.7639C33.1599 66.7638 31.9835 66.4432 31.0209 65.6945C29.8443 64.8388 28.9888 63.5552 28.7748 62.0578C28.4539 60.5604 28.8811 59.0625 29.7367 57.8859C30.5924 56.7093 31.8769 55.8538 33.3744 55.6398ZM34.2299 58.7414C33.4811 58.7414 32.732 59.0625 32.3041 59.7043C31.5554 60.7739 31.7696 62.3784 32.8392 63.1271C33.3741 63.555 34.0158 63.6618 34.6576 63.5549C35.2994 63.4479 35.8342 63.1268 36.2621 62.592C37.0106 61.5224 36.797 60.0248 35.6205 59.1691C35.1927 58.8483 34.7646 58.7414 34.2299 58.7414ZM57.3344 58.7395C56.9066 58.7395 56.3715 58.8464 55.9437 59.1672C54.8742 60.0229 54.661 61.5204 55.4096 62.59C55.8374 63.1249 56.3723 63.446 57.0141 63.5529C57.6558 63.6599 58.2976 63.553 58.8324 63.1252C59.9019 62.3764 60.1158 60.7719 59.2601 59.7023C58.8323 59.0606 58.0831 58.7395 57.3344 58.7395ZM45.7807 35.5295C51.1289 35.5295 55.5149 39.9147 55.515 45.2629C55.515 50.6112 51.1289 54.9973 45.7807 54.9973C40.4324 54.9972 36.0473 50.6111 36.0473 45.2629C36.0474 39.9147 40.4325 35.5295 45.7807 35.5295ZM45.7807 38.7385C42.1439 38.7385 39.2564 41.6262 39.2562 45.2629C39.2562 48.8997 42.1439 51.7882 45.7807 51.7883C49.4175 51.7883 52.306 48.8997 52.306 45.2629C52.3059 41.6262 49.4174 38.7385 45.7807 38.7385ZM62.7914 33.8186C64.1819 33.2838 65.6792 33.4981 67.0697 34.1398C68.4602 34.8885 69.4231 36.0649 69.851 37.4553C70.3858 38.8458 70.1724 40.344 69.5307 41.7346C68.7819 43.0181 67.6047 44.087 66.2142 44.5148C65.6795 44.7287 65.0381 44.8361 64.5033 44.8361C63.6476 44.8361 62.7916 44.6223 61.9359 44.1945C60.6523 43.4458 59.5825 42.2687 59.1547 40.8781C58.62 39.4877 58.8342 37.9903 59.476 36.5998C60.2247 35.3163 61.4009 34.2464 62.7914 33.8186ZM21.8226 37.4553C22.7853 34.4602 25.8882 32.8559 28.8832 33.8186C30.3804 34.2464 31.5569 35.2086 32.1986 36.5988C32.8404 37.8824 32.9478 39.4876 32.5199 40.8781C31.6641 43.3382 29.5245 44.8352 27.1713 44.8352C26.6366 44.8351 25.9951 44.7287 25.4603 44.5148C23.9628 44.087 22.7857 43.1241 22.1439 41.7336C21.5022 40.4501 21.3949 38.8457 21.8226 37.4553ZM64.5033 36.9211C64.2894 36.9211 63.9682 36.9206 63.7543 37.0275C63.1125 37.2415 62.6846 37.6695 62.3637 38.2043C62.1498 38.7391 62.0424 39.3809 62.2562 40.0227C62.4701 40.6644 62.8983 41.0924 63.433 41.4133C63.9677 41.6272 64.6097 41.7344 65.2514 41.5207C65.893 41.3068 66.3211 40.8786 66.642 40.3439C66.9628 39.7023 67.07 39.0603 66.7494 38.5256C66.5355 37.8839 66.1074 37.4558 65.5726 37.135C65.2518 37.028 64.931 36.9212 64.5033 36.9211ZM26.9574 36.8127C26.6365 36.8127 26.209 36.8136 25.8881 37.0275C25.3534 37.3484 24.9253 37.7756 24.7113 38.4172C24.3904 39.7008 25.0322 41.0919 26.3158 41.5197C27.5993 41.8405 28.9895 41.1987 29.4174 39.9152C29.8452 38.6317 29.0969 37.2411 27.7064 36.9201C27.4925 36.8132 27.1713 36.8127 26.9574 36.8127ZM45.7846 19.9123C48.8865 19.9124 51.4535 22.4793 51.4535 25.5812C51.4535 28.6832 48.8865 31.2501 45.7846 31.2502C42.6826 31.2502 40.1156 28.6833 40.1156 25.5812C40.1156 22.4792 42.6826 19.9123 45.7846 19.9123ZM45.7846 23.2277C44.501 23.2277 43.3246 24.2981 43.3246 25.6887C43.3248 27.079 44.3942 28.1486 45.7846 28.1486C47.1749 28.1486 48.2443 27.079 48.2445 25.6887C48.2445 24.2982 47.175 23.2278 45.7846 23.2277Z" fill="#C49A6C"/>
</svg>
