<svg width="94" height="93" viewBox="0 0 94 93" fill="none" xmlns="http://www.w3.org/2000/svg">
<path d="M88.6271 64.4977C84.048 59.9186 77.2789 58.4254 71.2066 60.6154L57.1707 46.4799L71.3062 32.3445C77.3785 34.5345 84.1476 33.1408 88.7266 28.4622C93.2062 23.9827 94.7989 17.114 92.6089 11.1413C92.4098 10.6436 92.0116 10.3449 91.5139 10.1458C91.0162 10.0463 90.5185 10.1458 90.1203 10.544L81.5594 19.1049L74.4916 12.0372L83.0526 3.67538C83.4507 3.2772 83.5503 2.77947 83.4507 2.28174C83.3512 1.78402 82.953 1.38583 82.4553 1.18674C76.4826 -1.00326 69.6139 0.589472 65.1344 5.06902C60.5553 9.64811 59.0621 16.4172 61.2521 22.4895L47.2162 36.6249L33.0807 22.4895C35.3703 16.4172 33.8771 9.74765 29.298 5.06902C24.8185 0.589472 17.9498 -1.00326 11.9771 1.18674C11.4794 1.38583 11.1807 1.78402 10.9816 2.28174C10.7826 2.77947 10.9816 3.2772 11.3798 3.67538L19.9407 12.2363L12.873 19.304L4.3121 10.7431C3.91392 10.3449 3.41619 10.2454 2.91846 10.3449C2.42074 10.4445 2.02255 10.8427 1.82346 11.3404C-0.366537 17.3131 1.22619 24.1817 5.70574 28.6613C10.2848 33.2404 17.0539 34.7336 23.1262 32.5436L37.2616 46.4799L23.2257 60.6154C17.1535 58.4254 10.3844 59.819 5.80528 64.4977C1.32573 68.9772 -0.266992 75.8458 1.92301 81.8186C2.1221 82.3163 2.52028 82.6149 3.01801 82.814C3.51574 82.9136 4.01346 82.814 4.41164 82.4158L12.9726 73.8549L20.0403 80.9227L11.3798 89.384C10.9816 89.7822 10.8821 90.2799 10.9816 90.7776C11.0812 91.2754 11.4794 91.6736 11.9771 91.8727C13.7689 92.4699 15.6603 92.8681 17.5516 92.8681C21.9316 92.8681 26.2121 91.1758 29.298 87.9904C33.8771 83.4113 35.3703 76.6422 33.1803 70.5699L47.2162 56.4345L61.3516 70.5699C59.1616 76.6422 60.5553 83.4113 65.2339 87.9904C68.4194 91.1758 72.6998 92.8681 76.9803 92.8681C78.8716 92.8681 80.763 92.5695 82.5548 91.8727C83.0526 91.6736 83.3512 91.2754 83.5503 90.7776C83.6498 90.2799 83.5503 89.7822 83.1521 89.384L74.5912 80.8231L81.6589 73.7554L90.2198 82.3163C90.618 82.7145 91.1157 82.814 91.6135 82.7145C92.1112 82.6149 92.5094 82.2167 92.7085 81.719C94.6994 75.7463 93.2062 68.9772 88.6271 64.4977ZM24.6194 29.6567C24.3207 29.3581 23.9226 29.2586 23.5244 29.2586C23.3253 29.2586 23.1262 29.2586 22.9271 29.3581C17.7507 31.6477 11.8776 30.4531 7.89574 26.4713C4.80983 23.3854 3.41619 18.9058 4.11301 14.6254L11.8776 22.3899C12.4748 22.9872 13.3707 22.9872 13.968 22.3899L23.1262 13.2317C23.7235 12.6345 23.7235 11.7386 23.1262 11.1413L15.3616 3.37674C19.6421 2.67993 24.0221 4.07356 27.2076 7.15947C31.1894 11.1413 32.2844 17.0145 30.0944 22.1908C29.8953 22.7881 29.9948 23.3854 30.393 23.8831L45.2253 38.7154L39.5512 44.3895L24.6194 29.6567ZM29.9948 70.769C32.2844 75.9454 31.0898 81.8186 27.108 85.8004C24.0221 88.8863 19.5426 90.2799 15.2621 89.5831L23.0266 81.8186C23.6239 81.2213 23.6239 80.3254 23.0266 79.7281L13.8685 70.5699C13.2712 69.9726 12.2757 69.9726 11.778 70.5699L4.01346 78.3345C3.41619 74.1536 4.80983 69.674 7.89574 66.5881C11.8776 62.6063 17.7507 61.5113 22.9271 63.7013C23.5244 63.9004 24.1216 63.8008 24.6194 63.4027L64.1389 23.8831C64.5371 23.4849 64.7362 22.7881 64.4376 22.1908C62.148 17.0145 63.3426 11.1413 67.3244 7.15947C70.4103 4.07356 74.8898 2.67993 79.1703 3.37674L71.4057 11.1413C70.8085 11.7386 70.8085 12.6345 71.4057 13.2317L80.5639 22.3899C81.1612 22.9872 82.0571 22.9872 82.6544 22.3899L90.4189 14.6254C91.1157 18.9058 89.7221 23.2858 86.6362 26.4713C82.6544 30.4531 76.7812 31.5481 71.6048 29.3581C71.0076 29.159 70.4103 29.2586 69.9126 29.6567L30.2935 69.0767C29.8953 69.5745 29.7957 70.1717 29.9948 70.769ZM90.3194 78.434L82.5548 70.6695C81.9576 70.0722 80.9621 70.0722 80.4644 70.6695L71.3062 79.8276C70.7089 80.4249 70.7089 81.3208 71.3062 81.9181L79.0707 89.6826C74.7903 90.3795 70.4103 88.9858 67.2248 85.8999C63.243 81.9181 62.148 76.0449 64.338 70.8686C64.5371 70.2713 64.4376 69.674 64.0394 69.1763L49.3066 54.344L54.9807 48.6699L69.813 63.5022C70.2112 63.9004 70.908 64.0995 71.5053 63.8008C76.6816 61.5113 82.5548 62.7058 86.5366 66.6877C89.6226 69.674 91.0162 74.1536 90.3194 78.434Z" fill="#C49A6C"/>
</svg>
