<svg width="101" height="100" viewBox="0 0 101 100" fill="none" xmlns="http://www.w3.org/2000/svg">
<path d="M50.7275 0.225586C78.2161 0.225825 100.5 22.5105 100.5 49.999C100.5 77.4874 78.2159 99.7712 50.7275 99.7715C23.239 99.7715 0.954341 77.4875 0.954102 49.999C0.954102 22.5103 23.2388 0.225586 50.7275 0.225586ZM58.3564 77.75C56.347 78.3012 54.2504 78.6414 52.0908 78.7422C52.0718 78.7768 52.0532 78.812 52.0312 78.8457L41.0664 95.6553C44.1837 96.3116 47.415 96.6602 50.7275 96.6602C51.8304 96.6601 52.9241 96.6202 54.0078 96.5449L58.3564 77.75ZM67.3682 73.4775C65.6496 74.6979 63.7908 75.7329 61.8213 76.5566C61.8166 76.5828 61.8137 76.6095 61.8076 76.6357L57.2812 96.1992C61.6411 95.5863 65.8072 94.3726 69.6934 92.6416L67.3682 73.4775ZM42.0957 77.5293L26.0195 89.5859C29.6632 91.8648 33.643 93.6553 37.8691 94.8643L48.4219 78.6826C46.2574 78.511 44.1604 78.1007 42.1572 77.4766L42.0957 77.5293ZM74.4248 66.3232C73.2044 68.0917 71.7915 69.7165 70.2158 71.168L70.2354 71.2773L72.6514 91.1953C76.5035 89.141 80.0327 86.5626 83.1455 83.5547L74.4248 66.3232ZM33.2148 72.9531L14.0088 78.7949C16.6737 82.1882 19.8007 85.2001 23.292 87.7422L38.7334 76.1621C36.8054 75.2768 34.9925 74.1847 33.3223 72.9141C33.287 72.9277 33.2516 72.9419 33.2148 72.9531ZM78.5781 57.2539C78.0392 59.3293 77.2744 61.3132 76.3115 63.1787L76.3799 63.2979L85.4326 81.1846C88.3194 77.9741 90.7665 74.3617 92.6807 70.4404L78.5781 57.2539ZM6.35156 64.4541C7.7135 68.6378 9.64753 72.5627 12.0664 76.1338L30.5488 70.5117C29.0283 69.0157 27.6721 67.3533 26.5127 65.5518H26.3779L6.35156 64.4541ZM50.7275 24.3369C36.5537 24.3369 25.0635 35.8271 25.0635 50.001C25.0636 64.1747 36.5538 75.665 50.7275 75.665C64.9012 75.6649 76.3915 64.1746 76.3916 50.001C76.3916 35.8272 64.9013 24.3371 50.7275 24.3369ZM61.9287 57.2549C62.6101 56.8581 63.4953 57.0349 63.9688 57.6865L67.1689 62.0908C67.6732 62.7856 67.5187 63.7579 66.8242 64.2627L59.2744 69.748C58.5796 70.2529 57.6066 70.0998 57.1016 69.4053L53.9014 65L53.8145 64.8672C53.4179 64.1859 53.5946 63.3005 54.2461 62.8271L61.7949 57.3418L61.9287 57.2549ZM37.5859 57.5264C38.1114 56.9385 39.0076 56.8332 39.6592 57.3066L47.209 62.792C47.9034 63.2968 48.0579 64.2691 47.5537 64.9639L44.3535 69.3682C43.8486 70.0631 42.8746 70.2178 42.1797 69.7129L34.6309 64.2275L34.5059 64.127C33.9188 63.6015 33.8132 62.706 34.2861 62.0547L37.4863 57.6494L37.5859 57.5264ZM79.3691 47.2363C79.4559 48.1462 79.502 49.0683 79.502 50.001C79.5019 51.2389 79.4232 52.4585 79.2715 53.6553C79.2731 53.6565 79.2747 53.6579 79.2764 53.6592L79.3984 53.7627L94.0186 67.4326C95.6126 63.4781 96.6825 59.2564 97.1377 54.8516L79.3691 47.2363ZM57.333 64.4297L58.7041 66.3174L63.7373 62.6602L62.3662 60.7725L57.333 64.4297ZM37.7178 62.625L42.751 66.2822L44.1221 64.3945L39.0889 60.7373L37.7178 62.625ZM4.0918 48.4365C4.07473 48.9553 4.06543 49.4761 4.06543 49.999C4.06547 53.8927 4.54473 57.6744 5.44336 61.29L24.7285 62.3457C23.8329 60.463 23.1366 58.4677 22.665 56.3867C22.6119 56.3704 22.5591 56.3515 22.5068 56.3291L4.0918 48.4365ZM50.7275 42.2217C55.0226 42.2217 58.5049 45.7039 58.5049 49.999C58.5048 54.2941 55.0226 57.7763 50.7275 57.7764C46.4325 57.7764 42.9502 54.2941 42.9502 49.999C42.9502 45.7039 46.4324 42.2217 50.7275 42.2217ZM50.7275 45.333C48.1505 45.333 46.0615 47.422 46.0615 49.999C46.0616 52.576 48.1505 54.665 50.7275 54.665C53.3045 54.665 55.3935 52.576 55.3936 49.999C55.3936 47.422 53.3046 45.3331 50.7275 45.333ZM7.43359 32.5654C5.83963 36.5201 4.7705 40.7425 4.31543 45.1475L22.084 52.7627C21.9974 51.8538 21.9522 50.9326 21.9521 50.001C21.9521 48.762 22.0307 47.5414 22.1826 46.3438C22.1811 46.3426 22.1792 46.342 22.1777 46.3408L22.0557 46.2373L7.43359 32.5654ZM67.4287 38.082C68.1993 37.9153 68.9864 38.3562 69.2354 39.1221L72.1182 47.998C72.3836 48.8149 71.9369 49.6924 71.1201 49.958L65.9424 51.6406C65.1254 51.906 64.2479 51.4585 63.9824 50.6416L61.0986 41.7656L61.0566 41.6123C60.8901 40.8418 61.3317 40.0545 62.0977 39.8057L67.2754 38.123L67.4287 38.082ZM32.3008 38.8965C32.619 38.1753 33.4383 37.7981 34.2041 38.0469L39.3818 39.7295C40.1986 39.9951 40.6453 40.8726 40.3799 41.6895L37.4971 50.5654C37.2316 51.3822 36.3539 51.8296 35.5371 51.5645L30.3594 49.8818L30.21 49.8252C29.4889 49.507 29.1117 48.6877 29.3604 47.9219L32.2441 39.0459L32.3008 38.8965ZM76.7227 37.6514C77.6191 39.535 78.3161 41.5312 78.7881 43.6133C78.7916 43.6144 78.7953 43.6151 78.7988 43.6162L78.9482 43.6719L97.3613 51.5625C97.3784 51.0434 97.3887 50.5223 97.3887 49.999C97.3887 46.1053 96.9084 42.3238 96.0098 38.708L76.7227 37.6514ZM64.5381 42.2842L66.4609 48.2012L68.6797 47.4805L66.7578 41.5635L64.5381 42.2842ZM32.7998 47.4033L35.0195 48.124L36.9414 42.207L34.7227 41.4863L32.7998 47.4033ZM16.0205 18.8125C13.1336 22.0232 10.6857 25.636 8.77148 29.5576L22.875 42.7451C23.4141 40.6701 24.1798 38.6865 25.1426 36.8213L25.0762 36.7051L16.0205 18.8125ZM55.5518 29.0107C56.3362 29.0903 56.9482 29.7532 56.9482 30.5586V36.0029C56.948 36.8617 56.2515 37.5576 55.3926 37.5576H46.0605C45.2017 37.5576 44.5051 36.8617 44.5049 36.0029V30.5586L44.5127 30.3994C44.5924 29.6151 45.2552 29.0029 46.0605 29.0029H55.3926L55.5518 29.0107ZM70.9023 29.4873C72.4229 30.983 73.7789 32.6451 74.9385 34.4463L75.0771 34.4473L95.1025 35.543C93.7407 31.3596 91.8063 27.4352 89.3877 23.8643L70.9023 29.4873ZM47.6162 34.4473H53.8379V32.1143H47.6162V34.4473ZM28.8008 8.80176C24.9489 10.8562 21.4193 13.4345 18.3066 16.4424L27.0293 33.6758C28.2491 31.9085 29.6617 30.2847 31.2363 28.834L31.2178 28.7236L28.8008 8.80176ZM62.7207 23.8379C64.6478 24.7228 66.4594 25.8151 68.1289 27.085C68.1647 27.0711 68.2009 27.0573 68.2383 27.0459L87.4463 21.2031C84.7815 17.8098 81.6543 14.7981 78.1631 12.2559L62.7207 23.8379ZM44.1729 3.79688C39.8123 4.40992 35.6455 5.62398 31.7588 7.35547L34.084 26.5244C35.8026 25.3038 37.6614 24.2683 39.6309 23.4443C39.6356 23.4174 39.6403 23.3903 39.6465 23.3633L44.1729 3.79688ZM53.0303 21.3174C55.195 21.4888 57.2925 21.8984 59.2959 22.5225C59.3167 22.5051 59.3374 22.4872 59.3594 22.4707L75.4355 10.4121C71.7921 8.13314 67.8129 6.34086 63.5869 5.13184L53.0303 21.3174ZM50.7275 3.33691C49.6241 3.33691 48.5296 3.37582 47.4453 3.45117L43.0967 22.25C45.1063 21.6986 47.2035 21.3586 49.3633 21.2578C49.3824 21.223 49.4018 21.1881 49.4238 21.1543L60.3887 4.34082C57.2714 3.68446 54.04 3.33694 50.7275 3.33691Z" fill="#C49A6C"/>
</svg>
