<svg width="449" height="279" viewBox="0 0 449 279" fill="none" xmlns="http://www.w3.org/2000/svg">
<path d="M370.04 63.0343C373.18 61.8559 376.291 60.604 379.364 59.2805C380.156 58.94 380.943 58.5845 381.731 58.233L380.973 53.4473C377.121 55.1849 373.227 56.8065 369.293 58.315L370.04 63.0343Z" fill="#F3E2C8" fill-opacity="0.57"/>
<path d="M374.581 91.702C377.783 90.5874 380.954 89.3915 384.092 88.1181L383.34 83.3701C380.201 84.6637 377.032 85.8766 373.84 87.0204L374.581 91.702Z" fill="#F3E2C8" fill-opacity="0.57"/>
<path d="M373.588 123.661C376.789 122.546 379.961 121.35 383.099 120.077L382.347 115.329C379.208 116.623 376.04 117.836 372.848 118.98L373.588 123.661Z" fill="#F3E2C8" fill-opacity="0.57"/>
<path d="M464.154 55.5789C456.484 69.2523 444.798 80.0548 432.19 89.1347C419.79 98.0635 406.451 105.891 392.664 112.503L393.428 117.322C405.313 111.721 416.773 105.171 427.741 97.9632C440.628 89.4881 453.032 79.659 462.316 67.2186C464.611 64.147 466.686 60.9218 468.562 57.5847C470.093 54.8666 465.671 52.8791 464.154 55.5789Z" fill="#F3E2C8" fill-opacity="0.57"/>
<path d="M471.248 90.9858C463.578 104.659 451.892 115.462 439.284 124.542C426.885 133.47 413.546 141.298 399.758 147.91L400.521 152.729C412.406 147.128 423.867 140.578 434.835 133.37C447.722 124.895 460.126 115.066 469.41 102.625C471.705 99.5539 473.78 96.3288 475.656 92.9916C477.187 90.2736 472.766 88.2867 471.248 90.9858Z" fill="#F3E2C8" fill-opacity="0.57"/>
<path d="M473.587 124.004C465.918 137.678 454.231 148.48 441.624 157.56C429.224 166.489 415.885 174.316 402.098 180.929L402.861 185.747C414.746 180.146 426.207 173.597 437.174 166.389C450.062 157.913 462.465 148.084 471.75 135.644C474.044 132.572 476.12 129.347 477.995 126.01C479.526 123.293 475.105 121.305 473.587 124.004Z" fill="#F3E2C8" fill-opacity="0.57"/>
<path d="M464.154 23.2171C456.484 36.8906 444.798 47.693 432.19 56.7729C419.79 65.7017 406.451 73.5289 392.664 80.1414L393.428 84.9603C405.313 79.3589 416.773 72.8095 427.741 65.6014C440.628 57.1264 453.032 47.2972 462.316 34.8568C464.611 31.7852 466.686 28.5601 468.562 25.2229C470.093 22.5055 465.671 20.518 464.154 23.2171Z" fill="#F3E2C8" fill-opacity="0.57"/>
<path d="M455.904 -4.24467C448.234 9.42881 436.548 20.2313 423.94 29.3111C411.54 38.2399 398.201 46.0672 384.414 52.6797L385.178 57.4985C397.063 51.8971 408.523 45.3478 419.491 38.1397C432.378 29.6646 444.782 19.8354 454.066 7.395C456.36 4.32347 458.436 1.09829 460.312 -2.23886C461.842 -4.95689 457.421 -6.94382 455.904 -4.24467Z" fill="#F3E2C8" fill-opacity="0.57"/>
<path d="M384.414 153.731L385.156 158.417C388.356 157.291 391.526 156.084 394.662 154.8L393.909 150.05C390.772 151.354 387.605 152.577 384.414 153.731Z" fill="#F3E2C8" fill-opacity="0.57"/>
<path d="M389.523 186.024L390.268 190.721C393.462 189.554 396.627 188.309 399.754 186.989L399 182.226C395.868 183.567 392.709 184.832 389.523 186.024Z" fill="#F3E2C8" fill-opacity="0.57"/>
<path d="M24.5859 59.2263C18.4207 63.57 12.6227 68.4332 7.30119 73.797C4.80191 76.3197 2.47967 79.0325 0.236239 81.7831C-0.578193 82.7837 0.906176 83.9659 1.76748 83.0395C8.83761 75.4089 16.7039 68.5412 25.1932 62.5843L24.5859 59.2263Z" fill="#F3E2C8" fill-opacity="0.57"/>
<path d="M367.251 59.0891C358.114 62.4868 348.758 65.2634 339.196 67.3649C321.841 71.1766 304.132 71.3817 286.47 70.1525C249.689 67.5882 213.452 60.1743 178.216 49.4747C161.038 44.2528 143.851 38.7054 126.067 35.8989C111.058 33.5298 95.8109 33.4465 80.8249 36.048C63.6945 39.0205 47.068 45.2033 32.1953 54.2389L32.8014 57.5897C45.8765 49.5932 60.216 43.6969 75.2866 40.4092C89.8631 37.2257 104.84 36.5232 119.644 38.3194C137.93 40.5394 155.592 46.0034 173.143 51.3738C208.221 62.1059 243.894 69.9573 280.499 73.0848C298.096 74.588 315.791 74.7371 333.332 72.4565C345.165 70.9169 356.773 67.8662 367.997 63.7946L367.251 59.0891Z" fill="#F3E2C8" fill-opacity="0.57"/>
<path d="M382.361 154.457C374.451 157.228 366.383 159.543 358.159 161.349C340.804 165.16 323.095 165.37 305.433 164.136C268.652 161.576 232.415 154.163 197.179 143.458C180.001 138.241 162.814 132.694 145.03 129.887C130.021 127.518 114.778 127.43 99.7879 130.036C81.9784 133.127 64.7138 139.69 49.3984 149.318L50.0059 152.675C63.5511 144.12 78.5019 137.832 94.2495 134.393C108.826 131.214 123.803 130.511 138.607 132.308C156.893 134.523 174.555 139.992 192.11 145.362C227.188 156.094 262.857 163.946 299.461 167.073C317.058 168.576 334.752 168.721 352.294 166.44C362.776 165.078 373.081 162.523 383.1 159.127L382.361 154.457Z" fill="#F3E2C8" fill-opacity="0.57"/>
<path d="M41.8119 154.454C36.2913 158.478 31.0811 162.927 26.2603 167.786C23.761 170.308 21.4388 173.021 19.1953 175.772C18.3855 176.768 19.8659 177.955 20.7266 177.028C27.3137 169.92 34.5909 163.474 42.4188 157.809L41.8119 154.454Z" fill="#F3E2C8" fill-opacity="0.57"/>
<path d="M370.788 119.702C363.063 122.382 355.19 124.628 347.171 126.388C329.816 130.2 312.108 130.404 294.441 129.176C257.664 126.612 221.428 119.202 186.192 108.498C169.009 103.281 151.821 97.7288 134.043 94.9268C119.029 92.5577 103.786 92.4691 88.8004 95.0713C72.5989 97.885 56.8499 103.569 42.6094 111.819L43.2129 115.155C55.6253 107.897 69.1224 102.516 83.262 99.4319C97.8385 96.2529 112.811 95.5459 127.62 97.3421C145.902 99.5621 163.569 105.031 181.119 110.396C216.197 121.129 251.87 128.98 288.475 132.112C306.067 133.615 323.766 133.76 341.303 131.479C351.584 130.143 361.691 127.661 371.527 124.363L370.788 119.702Z" fill="#F3E2C8" fill-opacity="0.57"/>
<path d="M34.9594 116.598C27.8932 121.348 21.2807 126.768 15.2737 132.824C12.7699 135.347 10.4523 138.055 8.20891 140.811C7.39448 141.807 8.87869 142.994 9.74 142.068C17.4722 133.72 26.1557 126.286 35.5669 119.96L34.9594 116.598Z" fill="#F3E2C8" fill-opacity="0.57"/>
<path d="M29.9525 88.9191C25.1232 92.5714 20.5459 96.5576 16.2738 100.865C13.77 103.388 11.4523 106.096 9.2089 108.851C8.39446 109.847 9.87883 111.034 10.7401 110.107C16.7979 103.567 23.439 97.5868 30.5567 92.2602L29.9525 88.9191Z" fill="#F3E2C8" fill-opacity="0.57"/>
<path d="M371.78 87.7412C364.056 90.4215 356.183 92.6675 348.164 94.4273C330.809 98.239 313.1 98.4434 295.433 97.2149C258.656 94.6505 222.42 87.2413 187.184 76.5371C170 71.3198 152.813 65.7678 135.035 62.9658C120.021 60.5968 104.778 60.5082 89.7923 63.1104C71.2387 66.3329 53.2795 73.3204 37.5 83.615L38.1073 86.973C52.1493 77.7936 67.7628 71.0691 84.2539 67.4709C98.8304 64.292 113.803 63.5849 128.612 65.3811C146.894 67.6011 164.56 73.0697 182.111 78.4355C217.189 89.1676 252.862 97.019 289.466 100.152C307.058 101.655 324.758 101.799 342.294 99.5189C352.576 98.183 362.682 95.7007 372.519 92.4026L371.78 87.7412Z" fill="#F3E2C8" fill-opacity="0.57"/>
<path d="M387.471 186.779C378.864 189.899 370.064 192.465 361.085 194.435C343.73 198.246 326.022 198.456 308.359 197.222C271.578 194.662 235.342 187.248 200.106 176.544C182.928 171.327 165.74 165.775 147.957 162.973C132.943 160.604 117.7 160.515 102.714 163.122C85.9609 166.03 69.691 172.011 55.0703 180.725L55.6752 184.068C68.4855 176.374 82.4817 170.684 97.176 167.479C111.752 164.3 126.725 163.593 141.534 165.389C159.82 167.609 177.482 173.078 195.032 178.449C230.11 189.181 265.784 197.028 302.388 200.16C319.98 201.663 337.679 201.807 355.221 199.527C366.468 198.067 377.509 195.234 388.212 191.459L387.471 186.779Z" fill="#F3E2C8" fill-opacity="0.57"/>
<path d="M47.4492 185.618C40.9207 190.131 34.7958 195.225 29.1957 200.87C26.6964 203.393 24.3742 206.106 22.1308 208.857C21.3163 209.853 22.8007 211.039 23.662 210.113C31.001 202.19 39.1941 195.085 48.0565 188.974L47.4492 185.618Z" fill="#F3E2C8" fill-opacity="0.57"/>
<path d="M483.726 264.434C440.21 249.206 401.312 219.825 374.703 177.996C348.094 136.166 337.97 88.4824 342.62 42.6138L340.72 39.6269C338.433 59.5567 338.954 79.6193 342.297 99.5205C347.06 127.876 357.366 154.658 372.929 179.124C388.492 203.589 408.383 224.276 432.047 240.607C448.655 252.07 466.606 261.045 485.626 267.42L483.726 264.434Z" fill="#F3E2C8" fill-opacity="0.57"/>
<path d="M515.707 220.19C476.809 210.632 441.388 186.684 418.243 150.299C395.098 113.915 388.42 71.6831 396.248 32.4009L391.616 25.1191C391.423 25.9316 391.233 26.7454 391.052 27.5624C386.341 48.7455 385.767 70.2898 389.346 91.5959C393.051 113.656 401.069 134.492 413.176 153.524C425.283 172.556 440.755 188.649 459.166 201.355C476.948 213.627 496.704 222.238 517.887 226.949C518.704 227.13 519.521 227.303 520.339 227.473L515.707 220.19Z" fill="#F3E2C8" fill-opacity="0.57"/>
<path d="M566.216 261.015C496.859 265.139 427.311 232.549 387.449 169.886C347.587 107.223 347.546 30.4182 380.677 -30.6538L376.96 -36.498C367.063 -19.0154 359.839 -0.202755 355.426 19.6392C349.686 45.4491 348.987 71.6984 353.347 97.6574C357.862 124.535 367.63 149.921 382.381 173.11C397.133 196.299 415.985 215.906 438.416 231.387C460.081 246.338 484.152 256.83 509.962 262.57C529.803 266.983 549.905 268.413 569.934 266.859L566.216 261.015Z" fill="#F3E2C8" fill-opacity="0.57"/>
<path d="M606.649 -88.3899L601.551 -96.404C597.895 -97.4808 594.191 -98.4391 590.443 -99.2724C569.259 -103.983 547.716 -104.557 526.409 -100.979C504.349 -97.2731 483.513 -89.2557 464.481 -77.1493C445.449 -65.0422 429.356 -49.5693 416.65 -31.1583C407.078 -17.2889 399.734 -2.21764 394.73 13.795L399.066 20.6099C409.362 -16.4028 432.815 -49.887 467.706 -72.0817C510.694 -99.4274 561.845 -103.786 606.649 -88.3899Z" fill="#F3E2C8" fill-opacity="0.57"/>
<path d="M440.007 -115.619C492.509 -149.017 554.233 -156.448 610.015 -141.285L608.269 -144.03C605.794 -144.673 603.303 -145.274 600.796 -145.831C573.565 -151.887 545.871 -152.626 518.483 -148.025C490.127 -143.262 463.345 -132.956 438.88 -117.393C414.414 -101.829 393.728 -81.9393 377.396 -58.2759C361.622 -35.4197 350.553 -10.0232 344.497 17.2078C344.225 18.4337 343.966 19.6609 343.715 20.8887L345.425 23.5781C356.135 -31.8723 388.709 -82.9868 440.007 -115.619Z" fill="#F3E2C8" fill-opacity="0.57"/>
<path d="M446.469 46.5008C448.284 46.7306 450.236 46.9533 452.183 46.9721L445.193 35.9842C441.792 36.0499 438.412 36.6729 435.198 37.8109C433.66 38.3552 433.048 40.4098 434.366 41.5543C437.772 44.5119 442.047 45.9409 446.469 46.5008Z" fill="#F3E2C8" fill-opacity="0.57"/>
<path d="M489.458 106.628C489.617 106.526 489.775 106.423 489.933 106.32L485.997 100.132C483.548 99.3693 480.695 99.23 478.699 99.3751C473.813 99.73 469.115 102.164 465.06 104.769C463.926 105.497 464.312 107.152 465.539 107.495C469.286 108.542 473.191 109.384 477.106 109.109C477.766 109.063 478.418 108.976 479.062 108.854C478.868 108.982 478.673 109.11 478.479 109.238C475.707 111.064 472.924 112.876 470.155 114.71C466.098 113.32 461.725 114.841 458.135 117.006C453.449 119.832 449.708 123.998 447.266 128.88C446.877 129.656 447.295 130.814 448.235 130.947C452.577 131.564 457.428 130.867 461.282 128.733C463.414 127.552 465.189 125.908 466.916 124.21C468.435 122.719 470.625 120.897 471.234 118.774C471.274 118.636 471.282 118.503 471.267 118.378C473.517 116.952 475.736 115.472 477.973 114.031C478.826 113.482 479.679 112.932 480.532 112.383C479.893 113.344 479.311 114.344 478.821 115.38C477.038 119.147 476.137 123.244 476.034 127.402C476.001 128.736 477.613 129.421 478.656 128.778C486.066 124.219 490.274 115.224 489.458 106.628ZM476.372 106.242C474.126 106.311 471.907 105.988 469.724 105.493C472.482 103.992 475.476 102.762 478.539 102.51C480.261 102.368 482.022 102.499 483.691 102.958C484.411 103.156 485.086 103.478 485.755 103.808C482.755 105.088 479.695 106.14 476.372 106.242ZM484.837 117.218C483.663 119.914 481.952 122.039 479.811 123.806C480.182 121.643 480.82 119.529 481.734 117.528C482.372 116.133 483.085 114.757 483.914 113.465C484.407 112.696 484.948 111.962 485.527 111.256C485.763 110.967 486.01 110.688 486.24 110.395C486.234 112.725 485.79 115.032 484.837 117.218Z" fill="#F3E2C8" fill-opacity="0.57"/>
</svg>
