<svg width="448" height="156" viewBox="0 0 448 156" fill="none" xmlns="http://www.w3.org/2000/svg">
<path d="M211.588 -37.9262C214.914 -37.6543 217.063 -39.082 218.033 -42.2091C231.963 -88.6054 252.235 -129.903 290.699 -160.443C319.322 -183.216 350.318 -190.15 383.688 -181.245C431.976 -168.397 452.143 -123.785 447.257 -78.1024C444.589 -52.7799 437.711 -20.2516 426.622 19.4826C413.073 68.1562 392.819 130.29 365.859 205.883C359.518 223.626 351.565 241.097 342.001 258.296C256.757 411.658 62.3578 155.154 19.5277 90.9635C-11.1915 44.9242 -4.6942 -14.5753 32.5743 -55.0573C61.3703 -86.362 108.255 -80.7536 143.236 -63.9286C162.78 -54.4964 190.484 -39.7107 211.588 -37.9262Z" fill="#4B2C5E" fill-opacity="0.3"/>
</svg>
