<svg width="25" height="25" viewBox="0 0 25 25" fill="none" xmlns="http://www.w3.org/2000/svg">
<g clip-path="url(#clip0_1075_97)">
<path d="M7.82358 1.50063C8.54793 1.49586 9.24972 1.75286 9.79916 2.22524C10.282 2.64044 10.6191 3.19684 10.764 3.81215L10.8138 4.07973L10.8148 4.08852L10.8636 4.42055C10.9874 5.19053 11.1866 5.94714 11.4593 6.67836L11.5277 6.88149C11.6695 7.36038 11.6899 7.86834 11.5853 8.35903C11.4657 8.9199 11.1877 9.43462 10.7845 9.84243L10.7806 9.84731L10.0648 10.5622C11.2406 12.407 12.8061 13.9711 14.6507 15.1471L15.3665 14.4323L15.3705 14.4284L15.5287 14.2838C15.908 13.9589 16.3632 13.7323 16.8538 13.6276C17.4137 13.5082 17.9966 13.5518 18.5326 13.7526H18.5335C19.2655 14.0257 20.0225 14.2263 20.7933 14.3502L21.1244 14.3981L21.1331 14.3991L20.9935 15.3893L21.1331 14.4C21.8616 14.5028 22.5276 14.8691 23.0033 15.4303C23.4735 15.9853 23.7242 16.6928 23.7122 17.4196H23.7132V20.4157L23.7103 20.5719C23.6928 20.9361 23.6087 21.2946 23.4622 21.6295C23.2949 22.0123 23.0494 22.3559 22.7415 22.6383C22.4338 22.9207 22.0708 23.1363 21.6751 23.2702C21.329 23.3872 20.9642 23.4393 20.5999 23.4254L20.4437 23.4157C20.4377 23.4151 20.4311 23.4144 20.4251 23.4137C17.1929 23.0624 14.0877 21.9581 11.3597 20.1891V20.1881C8.82332 18.5747 6.67221 16.4236 5.0599 13.8864V13.8854C3.28758 11.1468 2.18375 8.02967 1.8392 4.78579L1.83725 4.77016C1.79982 4.35555 1.84992 3.93715 1.98275 3.54262C2.11569 3.14801 2.32899 2.78474 2.60971 2.47719C2.89047 2.16963 3.23268 1.92379 3.61361 1.75551C3.99444 1.58733 4.40629 1.50009 4.8226 1.49965H7.82358V1.50063ZM4.72104 3.50551C4.61793 3.51637 4.51645 3.54255 4.42123 3.58461C4.29431 3.6407 4.1808 3.72334 4.08725 3.82582C3.99377 3.92823 3.92259 4.04895 3.87826 4.18032C3.83567 4.30677 3.81861 4.44091 3.82846 4.57387L3.89486 5.1227C4.24239 7.67736 5.11208 10.1334 6.44955 12.3375L6.74252 12.8063L6.7474 12.8131L7.0267 13.2389C8.35393 15.2059 10.047 16.8999 12.014 18.2272L12.4398 18.5055L12.4476 18.5104L12.9144 18.8034C15.2606 20.229 17.8929 21.1242 20.6263 21.4235C20.7641 21.4356 20.9035 21.4199 21.0345 21.3756C21.1663 21.331 21.2874 21.2588 21.39 21.1647C21.4925 21.0706 21.5745 20.9562 21.6302 20.8288C21.686 20.7012 21.7138 20.5627 21.7132 20.4235V17.4196L21.7142 17.3952C21.7202 17.15 21.6354 16.9104 21.4769 16.7233C21.3202 16.5387 21.1019 16.4164 20.8626 16.3805V16.3815C19.828 16.245 18.812 15.9914 17.8343 15.6266L17.8314 15.6256C17.6528 15.5586 17.4584 15.5439 17.2718 15.5836C17.0849 15.6235 16.9126 15.7168 16.7767 15.8512L15.5111 17.1168C15.1928 17.4352 14.7003 17.5015 14.3089 17.2789C11.6492 15.7664 9.44634 13.5638 7.93393 10.9039C7.71177 10.5127 7.77884 10.0209 8.09701 9.70278L9.36166 8.43618C9.49607 8.30025 9.58936 8.12899 9.62924 7.94204C9.66907 7.75511 9.6545 7.56039 9.58725 7.38149L9.58627 7.37954C9.22252 6.40468 8.97011 5.39147 8.83334 4.36L8.81674 4.27016C8.7684 4.06536 8.65612 3.8801 8.49545 3.74184C8.33453 3.60353 8.13413 3.5196 7.92416 3.50258L7.83334 3.49965H4.82455L4.72104 3.50551ZM23.0833 0.724262C23.4761 0.404218 24.0552 0.426655 24.4212 0.792621C24.7872 1.15863 24.8096 1.73774 24.4896 2.13051L24.4212 2.20668L19.1283 7.49965H22.7142C23.2662 7.4998 23.714 7.94763 23.7142 8.49965C23.7142 9.05185 23.2664 9.4995 22.7142 9.49965H16.7142C16.6488 9.49967 16.5833 9.49384 16.5189 9.4811C16.5004 9.47744 16.4823 9.47209 16.4642 9.46743C16.4501 9.46381 16.4361 9.45995 16.4222 9.45571C16.4026 9.44973 16.3837 9.44232 16.3646 9.4352C16.3546 9.43146 16.3442 9.42853 16.3343 9.42446C16.2905 9.40645 16.2488 9.38478 16.2083 9.36098C16.1643 9.3351 16.1209 9.30725 16.0804 9.27407C16.0301 9.23284 15.9841 9.18652 15.9427 9.13637C15.9275 9.11798 15.9134 9.09891 15.8997 9.07973C15.8748 9.04478 15.8517 9.00844 15.8314 8.97036C15.8251 8.95851 15.8196 8.94626 15.8138 8.93422C15.7917 8.88841 15.7722 8.84102 15.7572 8.79165C15.7521 8.77492 15.7487 8.75778 15.7445 8.74086C15.7333 8.69567 15.7239 8.64958 15.7191 8.60219C15.7156 8.56811 15.7142 8.53388 15.7142 8.49965V2.49965C15.7144 1.94754 16.162 1.49965 16.7142 1.49965C17.2662 1.4998 17.714 1.94763 17.7142 2.49965V6.08559L23.0072 0.792621L23.0833 0.724262Z" fill="white"/>
</g>
<defs>
<clipPath id="clip0_1075_97">
<rect width="24" height="24" fill="white" transform="translate(0.713867 0.5)"/>
</clipPath>
</defs>
</svg>
