<svg width="14" height="15" viewBox="0 0 14 15" fill="none" xmlns="http://www.w3.org/2000/svg">
<path d="M12.3574 0C12.7104 0 13 0.31497 13 0.700195V1.5H14V2.76367L13.4805 3.75H14V4.5H13V6.2998C13 6.63178 12.785 6.9102 12.5 6.98145V15H9.65625L11.8438 14.25L9.65625 13.5V15H9V6.98145C8.71527 6.90994 8.50002 6.63178 8.5 6.2998V4.5H2.53125V6.5H2.69824L3.53125 7.5L2.69824 8.5H2.51562V8.81641C2.8941 8.89699 3.20625 9.1698 3.35645 9.5332C3.75132 9.89855 4 10.4196 4 11C4 12.1046 3.10457 13 2 13C0.895431 13 0 12.1046 0 11C0 9.89543 0.895431 9 2 9C2.01568 9 2.03128 9.00159 2.04688 9.00195V8.5H1.86426L1.03125 7.5L1.86426 6.5H2.03125V4.5H1L2.48535 1.5H8.5V0.700195C8.50003 0.31497 8.78962 0 9.1416 0H12.3574ZM9.65625 12.75L11.8438 13.5V12L9.65625 12.75ZM9.65625 12L11.8438 11.251L9.65625 10.5V12ZM9.65625 9.75L11.8438 10.5V9L9.65625 9.75ZM9.65625 9L11.8438 8.25L9.65625 7.50098V9ZM10.3848 7L11.8438 7.50098V7H10.3848ZM2.16113 3.75H3.37598L2.74512 2.5498L2.16113 3.75ZM4.19434 3.75H5.2334L4.71387 2.76367L4.19434 3.75ZM6.05273 3.75H7.08984L6.57129 2.76367L6.05273 3.75ZM7.90918 3.75H8.5V2.90039L8.42871 2.76367L7.90918 3.75ZM9.59277 0.75C9.387 0.750304 9.21877 0.947411 9.21875 1.18945V3.31152C9.21875 3.55209 9.38699 3.7497 9.59277 3.75H11.8438C12.0498 3.75 12.2188 3.55227 12.2188 3.31152V1.18945C12.2187 0.947225 12.0497 0.75 11.8438 0.75H9.59277ZM3.2666 2.25L3.78516 3.23633L4.30469 2.25H3.2666ZM5.12305 2.25L5.64258 3.23633L6.16211 2.25H5.12305ZM6.98047 2.25L7.5 3.23633L8.01855 2.25H6.98047ZM13 2.25V3.10059L13.0713 3.23633L13.5898 2.25H13Z" fill="#F5F5F5"/>
</svg>
