<svg width="14" height="14" viewBox="0 0 14 14" fill="none" xmlns="http://www.w3.org/2000/svg">
<path d="M8.53611 0.700003C8.36759 2.77408 7.55093 4.54689 6.08611 6.01845C4.6213 7.49 2.85834 8.32274 0.79723 8.51667C0.57686 8.54259 0.388897 8.48115 0.233342 8.33233C0.0777862 8.18352 8.5003e-06 7.99867 8.5003e-06 7.77778C8.5003e-06 7.55689 0.0713048 7.3723 0.213897 7.224C0.35649 7.0757 0.537971 6.98807 0.758341 6.96111C2.40464 6.77963 3.80801 6.10219 4.96845 4.92878C6.12889 3.75537 6.79311 2.3393 6.96111 0.680559C6.98704 0.473151 7.07778 0.307744 7.23334 0.184336C7.38889 0.0609291 7.57037 -0.000515264 7.77778 3.2543e-06C7.99815 3.2543e-06 8.18611 0.0681884 8.34167 0.204559C8.49722 0.340929 8.56204 0.506077 8.53611 0.700003ZM5.40556 0.700003C5.25 1.91852 4.73797 2.96204 3.86945 3.83056C3.00093 4.69908 1.95741 5.21759 0.738897 5.38611C0.53149 5.41204 0.35649 5.3537 0.213897 5.21111C0.0713048 5.06852 8.5003e-06 4.88704 8.5003e-06 4.66667C8.5003e-06 4.45926 0.0614529 4.27778 0.184342 4.12222C0.30723 3.96667 0.472638 3.86945 0.680563 3.83056C1.49723 3.68796 2.19075 3.32189 2.76112 2.73234C3.33149 2.14278 3.68797 1.43941 3.83056 0.622225C3.85649 0.427781 3.9506 0.275596 4.11289 0.16567C4.27519 0.055744 4.45978 0.000521773 4.66667 3.2543e-06C4.88704 3.2543e-06 5.07189 0.0681884 5.22123 0.204559C5.37056 0.340929 5.432 0.506077 5.40556 0.700003ZM6.22223 14C6.00185 14 5.81726 13.9222 5.66845 13.7667C5.51963 13.6111 5.45793 13.4231 5.48334 13.2028C5.67778 11.1417 6.51078 9.3787 7.98233 7.91389C9.45389 6.44907 11.2264 5.63241 13.3 5.46389C13.4944 5.43796 13.6599 5.50278 13.7962 5.65833C13.9326 5.81389 14.0005 6.00185 14 6.22222C14 6.42963 13.9383 6.61111 13.8149 6.76667C13.6915 6.92222 13.5263 7.01296 13.3194 7.03889C11.6602 7.20741 10.2441 7.87189 9.07122 9.03233C7.89833 10.1928 7.22089 11.5959 7.03889 13.2417C7.01297 13.462 6.9256 13.6435 6.77678 13.7861C6.62797 13.9287 6.44311 14 6.22223 14ZM9.33333 14C9.11296 14 8.93148 13.9287 8.78889 13.7861C8.6463 13.6435 8.58796 13.4685 8.61389 13.2611C8.78241 12.0426 9.30093 10.9991 10.1694 10.1306C11.038 9.26204 12.0815 8.75 13.3 8.59444C13.4944 8.56852 13.6599 8.62996 13.7962 8.77878C13.9326 8.92759 14.0005 9.11244 14 9.33333C14 9.54074 13.9448 9.72559 13.8343 9.88789C13.7239 10.0502 13.5717 10.144 13.3778 10.1694C12.5611 10.312 11.858 10.6685 11.2684 11.2389C10.6789 11.8093 10.3126 12.5028 10.1694 13.3194C10.1306 13.5268 10.0333 13.6923 9.87778 13.8157C9.72222 13.9391 9.54074 14.0005 9.33333 14ZM1.94445 0.972225C1.94445 1.24445 1.85034 1.47467 1.66212 1.66289C1.4739 1.85111 1.24393 1.94497 0.97223 1.94445C0.700526 1.94393 0.470304 1.84982 0.281564 1.66211C0.0928232 1.47441 -0.00102854 1.24445 8.5003e-06 0.972225C0.00104554 0.700003 0.0951565 0.469781 0.282342 0.281559C0.469527 0.0933365 0.699489 -0.000515264 0.97223 3.2543e-06C1.24497 0.000521773 1.47519 0.0946328 1.6629 0.282336C1.8506 0.47004 1.94445 0.700003 1.94445 0.972225ZM14 13.0278C14 13.3 13.9059 13.5302 13.7177 13.7184C13.5294 13.9067 13.2995 14.0005 13.0278 14C12.7561 13.9995 12.5258 13.9054 12.3371 13.7177C12.1484 13.53 12.0545 13.3 12.0556 13.0278C12.0566 12.7556 12.1507 12.5253 12.3379 12.3371C12.5251 12.1489 12.755 12.055 13.0278 12.0556C13.3005 12.0561 13.5307 12.1502 13.7184 12.3379C13.9061 12.5256 14 12.7556 14 13.0278Z" fill="#F5F5F5"/>
</svg>
