<svg width="14" height="15" viewBox="0 0 14 15" fill="none" xmlns="http://www.w3.org/2000/svg">
<path d="M13.67 8.03C13.5734 7.99509 13.4685 7.99076 13.3693 8.01759C13.2702 8.04443 13.1818 8.10114 13.116 8.18L11.23 10.443L8.5125 9.949L6.7115 5.473C6.60357 5.1874 6.41133 4.94137 6.1603 4.76758C5.90927 4.5938 5.61132 4.50047 5.306 4.5H3.276C3.00419 4.50012 2.73753 4.57409 2.5045 4.714L0 6.217V9.417L2.5 9.872V15H3.5V10.0535L5.2825 10.3775L6 12.1V15H7V11.9L6.4545 10.591L10.495 11.3255L8.116 14.18C8.0552 14.253 8.01645 14.3418 8.0043 14.436C7.99214 14.5303 8.00709 14.626 8.04738 14.712C8.08767 14.7981 8.15164 14.8709 8.2318 14.9219C8.31196 14.9729 8.40499 15 8.5 15H13.5C13.6326 15 13.7598 14.9473 13.8536 14.8536C13.9473 14.7598 14 14.6326 14 14.5V8.5C14 8.39724 13.9683 8.297 13.9092 8.2129C13.8502 8.1288 13.7666 8.06494 13.67 8.03ZM1 8.583V6.783L2.5 5.883V8.8555L1 8.583ZM3.5 9.0375V5.5H5.307C5.41061 5.50062 5.51153 5.5331 5.59605 5.59303C5.68058 5.65296 5.74462 5.73743 5.7795 5.835L7.3495 9.7375L3.5 9.0375ZM13 14H9.5675L13 9.881V14ZM5.25 4C4.90388 4 4.56554 3.89737 4.27775 3.70507C3.98997 3.51278 3.76566 3.23947 3.63321 2.9197C3.50076 2.59993 3.4661 2.24806 3.53363 1.90859C3.60115 1.56913 3.76782 1.25731 4.01256 1.01256C4.25731 0.767822 4.56913 0.601151 4.90859 0.533627C5.24806 0.466102 5.59993 0.500758 5.9197 0.633212C6.23947 0.765665 6.51278 0.989967 6.70507 1.27775C6.89736 1.56554 7 1.90388 7 2.25C6.99947 2.71397 6.81493 3.15878 6.48685 3.48685C6.15878 3.81493 5.71397 3.99947 5.25 4ZM5.25 1.5C5.10166 1.5 4.95666 1.54399 4.83332 1.6264C4.70999 1.70881 4.61386 1.82594 4.55709 1.96299C4.50032 2.10003 4.48547 2.25083 4.51441 2.39632C4.54335 2.5418 4.61478 2.67544 4.71967 2.78033C4.82456 2.88522 4.9582 2.95665 5.10368 2.98559C5.24917 3.01453 5.39997 2.99968 5.53701 2.94291C5.67406 2.88614 5.79119 2.79002 5.8736 2.66668C5.95601 2.54334 6 2.39834 6 2.25C6 2.05109 5.92098 1.86032 5.78033 1.71967C5.63968 1.57902 5.44891 1.5 5.25 1.5Z" fill="#F5F5F5"/>
</svg>
