<svg width="20" height="15" viewBox="0 0 20 15" fill="none" xmlns="http://www.w3.org/2000/svg">
<path d="M15.8711 0.75C16.1186 0.75 16.3134 0.952936 16.3135 1.19531V7.47754L16.3115 7.49609C16.3119 7.50175 16.3135 7.50796 16.3135 7.51465V10.208H18.8223L18.8369 10.21H18.8379L18.8369 10.2109C19.0702 10.2264 19.25 10.4207 19.25 10.6533V13.8047C19.25 14.047 19.055 14.2499 18.8076 14.25H1.19238C0.944981 14.2499 0.75004 14.047 0.75 13.8047V10.6533C0.750018 10.411 0.944962 10.2082 1.19238 10.208H3.68457V7.51562C3.68462 7.27338 3.8796 7.07051 4.12695 7.07031H6.62109V4.32715C6.6212 4.08483 6.81599 3.88184 7.06348 3.88184H9.55664V1.19531C9.55668 0.952941 9.75247 0.75 10 0.75H15.8711ZM15.9707 11.0977C15.94 11.1051 15.9067 11.1103 15.8711 11.1104H13.3779V13.3594H18.3643V11.0977H15.9707ZM7.50586 13.3594H12.4932V11.1104H7.50586V13.3594ZM1.63477 13.3594H6.62109V11.1104H4.12695C4.09046 11.1103 4.05727 11.1049 4.02734 11.0977H1.63477V13.3594ZM10.4414 10.208H15.4287V7.95996H10.4414V10.208ZM4.57031 10.209H9.55762V7.95996H4.57031V10.209ZM13.3779 7.0332H15.4287V4.79199H13.3779V7.0332ZM7.50586 7.0332H12.4932V4.79199H9.99902C9.95297 4.79194 9.91143 4.78295 9.87402 4.77148H7.50586V7.0332ZM10.4424 3.88184H15.4287V1.64062H10.4424V3.88184Z" fill="#F5F5F5" stroke="#C49A6C" stroke-width="0.5"/>
</svg>
