<svg width="14" height="11" viewBox="0 0 14 11" fill="none" xmlns="http://www.w3.org/2000/svg">
<path d="M13.72 4.87127H11.9112C11.7572 4.87127 11.6312 4.99646 11.6312 5.14947V5.72534H9.3436C9.1616 5.72534 9.016 5.5779 9.016 5.39985V4.40946H9.4472C9.6012 4.40946 9.7272 4.28427 9.7272 4.13126V2.81259C9.7272 2.65959 9.6012 2.5344 9.4472 2.5344H7.28V1.26303H9.4472C9.6012 1.26303 9.7272 1.13784 9.7272 0.984826C9.7272 0.831816 9.6012 0.706626 9.4472 0.706626H7.28V0.278199C7.28 0.12519 7.154 0 7 0C6.846 0 6.72 0.12519 6.72 0.278199V0.706626H4.5528C4.3988 0.706626 4.2728 0.831816 4.2728 0.984826C4.2728 1.13784 4.3988 1.26303 4.5528 1.26303H6.72V2.5344H4.5528C4.3988 2.5344 4.2728 2.65959 4.2728 2.81259V4.13126C4.2728 4.28427 4.3988 4.40946 4.5528 4.40946H4.984V5.39985C4.984 5.58068 4.8356 5.72534 4.6564 5.72534H2.3688V5.14947C2.3688 4.99646 2.2428 4.87127 2.0888 4.87127H0.28C0.126 4.87127 0 4.99646 0 5.14947V10.3963C0 10.5493 0.126 10.6745 0.28 10.6745H2.0888C2.2428 10.6745 2.3688 10.5493 2.3688 10.3963V9.82043H4.1076C4.508 9.82043 4.8832 9.9651 5.1296 10.2183C5.6252 10.7218 6.2888 11 6.9972 11C7.7056 11 8.3692 10.7218 8.8648 10.2183C9.114 9.9651 9.4864 9.82043 9.8868 9.82043H11.6256V10.3963C11.6256 10.5493 11.7516 10.6745 11.9056 10.6745H13.72C13.874 10.6745 14 10.5493 14 10.3963V5.14947C14 4.99646 13.874 4.87127 13.72 4.87127ZM4.8328 3.09079H9.1672V3.85306H8.736H5.264H4.8328V3.09079ZM1.8088 10.1181H0.56V5.42767H1.8088V6.00354V9.54224V10.1181ZM9.8924 9.26404C9.3408 9.26404 8.8228 9.4699 8.47 9.82878C8.0808 10.2238 7.56 10.4436 7.0028 10.4436C6.4456 10.4436 5.9248 10.2266 5.5356 9.82878C5.1828 9.4699 4.662 9.26404 4.1132 9.26404H2.3744V6.28452H4.662C5.152 6.28452 5.5496 5.88948 5.5496 5.40263V4.41224H8.4616V5.40263C8.4616 5.88948 8.8592 6.28452 9.3492 6.28452H11.6368V9.26682H9.8924V9.26404ZM13.44 10.1181H12.1912V9.54224V6.00632V5.43045H13.44V10.1181Z" fill="#F5F5F5"/>
</svg>
