<svg width="21" height="19" viewBox="0 0 21 19" fill="none" xmlns="http://www.w3.org/2000/svg">
<path d="M6.3201 0.44033C9.5585 -0.602901 13.1232 0.244403 15.5574 2.5917L16.5135 1.63564C16.6438 1.50527 16.8391 1.50534 16.9695 1.63564C20.3601 4.96099 21.1864 10.0469 19.0564 14.2851C18.6 15.1327 18.0561 15.937 17.4041 16.6542C17.339 16.7191 17.2525 16.7625 17.1658 16.7626C17.0789 16.7626 16.9917 16.7408 16.9265 16.6757L15.7527 15.5019C14.7095 16.5668 13.4273 17.3931 11.993 17.8495C11.0584 18.1538 10.1016 18.3056 9.1453 18.3056C7.7109 18.3055 6.29793 17.9793 4.99393 17.3056C2.8208 16.1971 1.1909 14.3066 0.451938 11.9813C-1.11293 7.17807 1.51683 2.0052 6.3201 0.44033ZM15.0789 3.07021C12.8403 0.896786 9.51474 0.0921708 6.51541 1.07021C2.06009 2.50468 -0.395594 7.32967 1.06034 11.7851C1.75583 13.9367 3.27758 15.6981 5.27713 16.7196C7.31996 17.7626 9.62372 17.9365 11.7752 17.2411C13.1227 16.8064 14.3184 16.0456 15.3181 15.0458L14.6443 14.372C14.5139 14.2633 14.5142 14.0678 14.6228 13.9374C14.9923 13.5027 15.3181 13.0242 15.5789 12.5243C16.9698 9.80755 16.4478 6.52534 14.2527 4.39541C14.1878 4.33034 14.1445 4.24377 14.1443 4.15713C14.1443 4.07025 14.1661 3.98306 14.2312 3.91787L15.0789 3.07021ZM14.9265 4.13467C17.1216 6.48183 17.6219 9.91599 16.1443 12.8065C15.9053 13.2846 15.6226 13.7198 15.2967 14.1327L17.1219 15.9589C17.6435 15.3503 18.0786 14.6976 18.448 13.9804C20.4256 10.1118 19.7301 5.46085 16.7527 2.30947L14.9265 4.13467ZM7.16678 3.02627C8.79683 2.48292 10.5358 2.63571 12.0789 3.39638C13.6003 4.17882 14.7526 5.52608 15.2742 7.15615C15.8175 8.80794 15.6865 10.5466 14.9041 12.0897C14.1216 13.6111 12.7743 14.7634 11.1443 15.2851C10.4924 15.5023 9.8187 15.6112 9.16678 15.6112C6.45 15.6112 3.92898 13.872 3.03788 11.1552C1.92945 7.76471 3.77639 4.13481 7.16678 3.02627ZM9.16678 3.37392C8.55829 3.37392 7.94983 3.46157 7.36307 3.65713C4.32027 4.6569 2.66823 7.91706 3.64627 10.9599C4.64613 14.0025 7.9063 15.6546 10.949 14.6767C12.4052 14.1985 13.6227 13.1543 14.3181 11.7851C15.0133 10.4161 15.1437 8.85151 14.6658 7.37392C14.1877 5.89604 13.1659 4.70029 11.7967 4.00478C10.9708 3.59184 10.0579 3.37393 9.16678 3.37392ZM10.8191 11.4589C11.3406 11.0899 12.0573 11.1985 12.4051 11.7196C12.7745 12.2412 12.6442 12.9585 12.1443 13.328C11.9487 13.4802 11.7096 13.5458 11.4705 13.5458C11.427 13.5457 11.3617 13.5243 11.2967 13.5243C10.9925 13.4808 10.7322 13.3063 10.5584 13.0673C10.1889 12.5457 10.2975 11.8284 10.8191 11.4589ZM6.62381 11.2636C6.92809 11.1984 7.23239 11.286 7.47147 11.4599C7.7321 11.6336 7.88395 11.9158 7.92752 12.1981C7.99271 12.5023 7.90599 12.8068 7.73221 13.0458C7.55834 13.2849 7.29723 13.4594 6.99295 13.5028C6.94949 13.5243 6.88411 13.5243 6.81913 13.5243C6.58019 13.5242 6.34079 13.4596 6.1453 13.3075C5.90631 13.1337 5.73274 12.8724 5.68924 12.5683C5.62407 12.2641 5.71083 11.9596 5.88456 11.7206C6.05842 11.4815 6.31955 11.3071 6.62381 11.2636ZM6.79764 11.8944C6.64568 11.8945 6.49396 11.9596 6.40702 12.0897C6.25489 12.3071 6.29813 12.6329 6.51541 12.7851C6.62405 12.872 6.75419 12.8937 6.88456 12.872C7.01496 12.8502 7.12379 12.7853 7.21073 12.6767C7.36283 12.4593 7.31893 12.1552 7.07987 11.9813C6.99302 11.9163 6.9062 11.8944 6.79764 11.8944ZM11.493 11.8935C11.4061 11.8935 11.2967 11.9152 11.2098 11.9804C10.9924 12.1542 10.9492 12.4593 11.1014 12.6767C11.1883 12.7852 11.2972 12.8503 11.4275 12.872C11.5578 12.8936 11.6881 12.8719 11.7967 12.7851C12.014 12.6329 12.0574 12.3071 11.8836 12.0897C11.7967 11.9595 11.6449 11.8936 11.493 11.8935ZM9.1453 7.17763C10.2317 7.17789 11.1226 8.06881 11.1228 9.15517C11.1228 10.2417 10.2318 11.1334 9.1453 11.1337C8.05858 11.1337 7.16678 10.2419 7.16678 9.15517C7.16702 8.06866 8.05873 7.17763 9.1453 7.17763ZM9.1453 7.82998C8.40648 7.82998 7.81936 8.41642 7.81913 9.15517C7.81913 9.89414 8.40633 10.4813 9.1453 10.4813C9.88405 10.4811 10.4705 9.89399 10.4705 9.15517C10.4703 8.41657 9.8839 7.83022 9.1453 7.82998ZM12.6014 6.82998C12.8838 6.72141 13.188 6.76507 13.4705 6.89541C13.753 7.04755 13.949 7.28669 14.0359 7.56924C14.1445 7.8517 14.1008 8.15591 13.9705 8.43838C13.8184 8.69919 13.5792 8.91687 13.2967 9.00381C13.188 9.04724 13.0576 9.06923 12.949 9.06924C12.7752 9.06924 12.6014 9.02528 12.4275 8.93838C12.1667 8.78624 11.949 8.54709 11.8621 8.26455C11.7535 7.98207 11.7972 7.67788 11.9275 7.39541C12.0797 7.1346 12.3188 6.91692 12.6014 6.82998ZM4.27713 7.56924C4.47274 6.96068 5.10314 6.63437 5.7117 6.82998C6.01585 6.91695 6.25517 7.11295 6.38553 7.39541C6.51579 7.65616 6.53689 7.98212 6.44999 8.26455C6.27614 8.76423 5.842 9.06808 5.36405 9.06826C5.25538 9.06826 5.12409 9.04727 5.01541 9.00381C4.71135 8.91683 4.47293 8.72075 4.34256 8.43838C4.21217 8.17759 4.19023 7.85176 4.27713 7.56924ZM12.949 7.46084C12.9055 7.46084 12.8401 7.46059 12.7967 7.48232C12.6664 7.52581 12.5796 7.61296 12.5144 7.72158C12.471 7.83022 12.4495 7.96038 12.493 8.09072C12.5364 8.22092 12.6228 8.30778 12.7312 8.37295C12.8399 8.41642 12.9709 8.43888 13.1014 8.39541C13.2316 8.35195 13.3184 8.26473 13.3836 8.15615C13.4487 8.02582 13.4701 7.89564 13.4051 7.78701C13.3616 7.6567 13.2753 7.56899 13.1668 7.50381C13.1016 7.48207 13.0359 7.46084 12.949 7.46084ZM5.3201 7.43838C5.25491 7.43838 5.16751 7.43886 5.10233 7.48232C4.99392 7.54746 4.90748 7.63444 4.86405 7.76455C4.79884 8.02536 4.92941 8.30847 5.19022 8.39541C5.4508 8.46027 5.73314 8.32971 5.8201 8.06924C5.90701 7.8085 5.75484 7.52615 5.47245 7.46084C5.42898 7.4391 5.36357 7.43838 5.3201 7.43838ZM9.1453 4.00478C9.77549 4.00478 10.2975 4.526 10.2976 5.15615C10.2976 5.78644 9.77559 6.30849 9.1453 6.30849C8.51513 6.30834 7.99393 5.78635 7.99393 5.15615C7.99411 4.5261 8.51524 4.00494 9.1453 4.00478ZM9.1453 4.67861C8.8846 4.67877 8.6453 4.89617 8.6453 5.17861C8.64551 5.46086 8.86303 5.67749 9.1453 5.67763C9.42771 5.67763 9.64509 5.46096 9.6453 5.17861C9.6453 4.89607 9.42784 4.67861 9.1453 4.67861Z" fill="#F5F5F5"/>
</svg>
