<svg width="16" height="16" viewBox="0 0 16 16" fill="none" xmlns="http://www.w3.org/2000/svg">
<path d="M2.5 7.5H2C1.724 7.5 1.5 7.276 1.5 7V5.5C1.5 5.224 1.724 5 2 5H2.5V7.5ZM10.5 5.5H5.5V7H10.5V5.5ZM11.5 5V7.5C11.5 7.7755 11.2755 8 11 8H5C4.7245 8 4.5 7.7755 4.5 7.5V5C4.5 4.7245 4.7245 4.5 5 4.5H11C11.2755 4.5 11.5 4.7245 11.5 5ZM11 5H5V7.5H11V5ZM13 9.01C13 9.6685 12.935 10.3255 12.806 10.971L12.2415 13.794C12.101 14.4955 11.4855 15 10.7705 15H5.2295C4.5145 15 3.899 14.4955 3.7585 13.794L3.194 10.971C3.065 10.325 3 9.6685 3 9.01V3.5C3 2.1195 4.1195 1 5.5 1H10.5C11.8805 1 13 2.1195 13 3.5V9.01ZM12 5C12 4.4485 11.5515 4 11 4H5C4.4485 4 4 4.4485 4 5V7.5C4 8.0515 4.4485 8.5 5 8.5H11C11.5515 8.5 12 8.0515 12 7.5V5ZM14 5H13.5V7.5H14C14.276 7.5 14.5 7.276 14.5 7V5.5C14.5 5.224 14.276 5 14 5Z" fill="white"/>
</svg>
