<svg width="16" height="21" viewBox="0 0 16 21" fill="none" xmlns="http://www.w3.org/2000/svg">
<path d="M14.3031 16.2882C14.5123 16.2882 14.6818 16.1414 14.6818 15.9601V15.3038C14.6818 15.1225 14.5123 14.9757 14.3031 14.9757H13.0303L13.6023 13.6632L11.625 3.49121L10.4366 1.52246H10.2766V2.67418L10.8419 3.61097C10.8788 3.67168 10.9044 3.73812 10.9177 3.80621L11.5654 7.1366V7.13906L12.5038 11.9592C12.5038 11.9592 12.5048 11.9616 12.5048 11.9625L12.7889 13.4226C12.8163 13.5645 12.7889 13.7106 12.7122 13.8377L11.322 16.1223V18.913H5.16299V16.1223L3.77283 13.8377C3.69518 13.7106 3.66866 13.5645 3.69612 13.4226L3.98022 11.9625C3.98022 11.9625 3.98117 11.96 3.98117 11.9592L4.91962 7.13906V7.1366L5.56735 3.80621C5.58061 3.73812 5.60618 3.6725 5.64311 3.61097L6.20844 2.67418V1.52246H6.0484L4.85997 3.49121L2.8827 13.6632L4.45468 17.2727H4.07589C3.86661 17.2727 3.6971 17.4195 3.6971 17.6008H1.80317C1.59389 17.6008 1.42438 17.7476 1.42438 17.9289V18.5852C1.42438 18.7665 1.59389 18.9133 1.80317 18.9133H3.6971V19.5695C3.6971 19.7508 3.86661 19.8977 4.07589 19.8977H12.4092C12.6185 19.8977 12.788 19.7508 12.788 19.5695V17.6008C12.788 17.4195 12.6185 17.2727 12.4092 17.2727H12.0304L12.4594 16.2883L14.3031 16.2882Z" fill="white"/>
<path d="M10.5644 18.2569V15.9599L12.0417 13.5319L11.7576 12.0718H4.72727L4.44318 13.5319L5.92046 15.9599V18.2569H10.5644ZM10.3542 12.8322C10.5634 12.8322 10.7329 12.979 10.7329 13.1603C10.7329 13.3416 10.5634 13.4885 10.3542 13.4885C10.1449 13.4885 9.97537 13.3416 9.97537 13.1603C9.97537 12.979 10.1449 12.8322 10.3542 12.8322ZM9.37879 14.4876C9.58807 14.4876 9.75758 14.6344 9.75758 14.8157C9.75758 14.997 9.58807 15.1438 9.37879 15.1438C9.16951 15.1438 9 14.997 9 14.8157C9 14.6344 9.16951 14.4876 9.37879 14.4876ZM9.21781 16.7976C9.42709 16.7976 9.59659 16.9444 9.59659 17.1257C9.59659 17.307 9.42709 17.4538 9.21781 17.4538C9.00853 17.4538 8.83902 17.307 8.83902 17.1257C8.83902 16.9444 9.00853 16.7976 9.21781 16.7976ZM8.42426 13.3145C8.63354 13.3145 8.80304 13.4614 8.80304 13.6427C8.80304 13.824 8.63354 13.9708 8.42426 13.9708C8.21498 13.9708 8.04547 13.824 8.04547 13.6427C8.04547 13.4614 8.21498 13.3145 8.42426 13.3145ZM8.24244 15.6319C8.45172 15.6319 8.62123 15.7787 8.62123 15.96C8.62123 16.1413 8.45172 16.2881 8.24244 16.2881C8.03316 16.2881 7.86365 16.1413 7.86365 15.96C7.86365 15.7787 8.03316 15.6319 8.24244 15.6319ZM7.86365 17.517C7.86365 17.6983 7.69414 17.8451 7.48486 17.8451C7.27558 17.8451 7.10607 17.6983 7.10607 17.517C7.10607 17.3357 7.27558 17.1888 7.48486 17.1888C7.69414 17.1888 7.86365 17.3357 7.86365 17.517ZM7.25097 14.4875C7.46025 14.4875 7.62976 14.6343 7.62976 14.8156C7.62976 14.9969 7.46025 15.1438 7.25097 15.1438C7.04169 15.1438 6.87218 14.9969 6.87218 14.8156C6.87218 14.6343 7.04169 14.4875 7.25097 14.4875ZM6.49339 13.1602C6.70267 13.1602 6.87218 13.3071 6.87218 13.4884C6.87218 13.6697 6.70267 13.8165 6.49339 13.8165C6.28411 13.8165 6.11461 13.6697 6.11461 13.4884C6.11461 13.3071 6.28411 13.1602 6.49339 13.1602Z" fill="white"/>
<path d="M10.6904 6.58863L10.1706 3.91449L9.51904 2.83496V1.52246H6.96607V2.83496L6.31456 3.91449L5.79468 6.58863H10.6904Z" fill="white"/>
<path d="M5.66667 7.24512L4.8551 11.4155H11.6296L10.8181 7.24512H5.66667Z" fill="white"/>
</svg>
