<svg width="16" height="16" viewBox="0 0 16 16" fill="none" xmlns="http://www.w3.org/2000/svg">
<path d="M9.415 4.57129H8.585C8.4 4.57129 8.25 4.72367 8.25 4.91161V6.0951H6.8025C6.4975 6.0951 6.25 6.34653 6.25 6.65637V8.28177L8.84 7.39034C8.8925 7.37256 8.945 7.3624 9 7.3624C9.055 7.3624 9.1075 7.37256 9.16 7.39034L11.75 8.28177V6.65637C11.75 6.34653 11.5025 6.0951 11.1975 6.0951H9.75V4.91161C9.75 4.72367 9.6 4.57129 9.415 4.57129ZM7.75 7.11097H7.25C7.1125 7.11097 7 6.99669 7 6.857C7 6.71732 7.1125 6.60303 7.25 6.60303H7.75C7.8875 6.60303 8 6.71732 8 6.857C8 6.99669 7.8875 7.11097 7.75 7.11097ZM10.25 6.60303H10.75C10.8875 6.60303 11 6.71732 11 6.857C11 6.99669 10.8875 7.11097 10.75 7.11097H10.25C10.1125 7.11097 10 6.99669 10 6.857C10 6.71732 10.1125 6.60303 10.25 6.60303ZM9.25 7.11097H8.75C8.6125 7.11097 8.5 6.99669 8.5 6.857C8.5 6.71732 8.6125 6.60303 8.75 6.60303H9.25C9.3875 6.60303 9.5 6.71732 9.5 6.857C9.5 6.99669 9.3875 7.11097 9.25 7.11097Z" fill="white"/>
<path d="M6.03 9.90987L9 8.88892L11.97 9.90987L12.25 8.99051L9 7.87305L5.75 8.99051L6.03 9.90987Z" fill="white"/>
<path d="M14.75 1.52393H3.75V3.04774H13.5V4.82551H13.25C13.1125 4.82551 13 4.9398 13 5.07948V5.84139C13 5.90996 13.0275 5.97345 13.0725 6.0217L13.3225 6.27567C13.37 6.32139 13.4325 6.34932 13.5 6.34932H13.5175V6.63631C13.5175 6.89535 13.6675 7.12901 13.89 7.22043C14.0125 7.26869 14.1275 7.40837 14.095 7.59885C14.0725 7.73345 13.9575 7.84774 13.8225 7.87059C13.7 7.89091 13.5825 7.84266 13.5075 7.74869C13.4225 7.63948 13.265 7.6217 13.155 7.70805C13.0475 7.7944 13.03 7.9544 13.115 8.06615C13.275 8.27186 13.5125 8.38361 13.765 8.38361C13.81 8.38361 13.8525 8.38107 13.8975 8.37345C14.2425 8.32012 14.525 8.03821 14.585 7.68774C14.655 7.28647 14.445 6.90043 14.075 6.75059C14.04 6.73789 14.015 6.68964 14.015 6.63885V6.35186C14.015 6.35186 14.015 6.35186 14.015 6.34932C14.075 6.34424 14.1325 6.32139 14.175 6.27821L14.425 6.02424C14.47 5.97599 14.4975 5.9125 14.4975 5.84393V5.08202C14.4975 4.94234 14.385 4.82805 14.2475 4.82805H13.9975V3.05028H14.7475C14.885 3.05028 14.9975 2.93599 14.9975 2.79631V1.78043C14.9975 1.64075 14.885 1.52647 14.7475 1.52647L14.75 1.52393Z" fill="white"/>
<path d="M6.18999 10.3899C6.18999 10.3899 6.18249 10.3899 6.17749 10.3899L6.81999 12.4877C7.12749 12.5131 7.32249 12.5918 7.48249 12.6553C7.63999 12.7188 7.74249 12.7619 7.99749 12.7619C8.25249 12.7619 8.35499 12.7188 8.51249 12.6553C8.70749 12.5766 8.95249 12.4775 9.39749 12.4775C9.84249 12.4775 10.0875 12.5766 10.2825 12.6553C10.44 12.7188 10.5425 12.7619 10.7975 12.7619C10.935 12.7619 11.025 12.7492 11.1075 12.7289L11.8225 10.3899C11.8225 10.3899 11.815 10.3899 11.81 10.3899L8.99999 9.4248L6.18999 10.3899Z" fill="white"/>
<path d="M12.1975 12.9883C11.4975 12.9883 11.4975 13.2727 10.7975 13.2727C10.0975 13.2727 10.0975 12.9883 9.3975 12.9883C8.6975 12.9883 8.6975 13.2727 7.9975 13.2727C7.2975 13.2727 7.2975 12.9883 6.5975 12.9883C5.8975 12.9883 5.8975 13.2727 5.1975 13.2727C4.85 13.2727 4.675 13.2016 4.5 13.1305V14.6543C4.675 14.7254 4.85 14.7965 5.1975 14.7965C5.8975 14.7965 5.8975 14.5121 6.5975 14.5121C7.2975 14.5121 7.2975 14.7965 7.9975 14.7965C8.6975 14.7965 8.6975 14.5121 9.3975 14.5121C10.0975 14.5121 10.0975 14.7965 10.7975 14.7965C11.4975 14.7965 11.4975 14.5121 12.1975 14.5121C12.8975 14.5121 12.8975 14.7965 13.6 14.7965C14.3025 14.7965 14.3 14.5121 15.0025 14.5121V12.9883C14.3025 12.9883 14.3025 13.2727 13.6 13.2727C12.8975 13.2727 12.9 12.9883 12.1975 12.9883Z" fill="white"/>
<path d="M1 13.2062V14.984H4V12.4443H1V13.2062Z" fill="white"/>
<path d="M4.5 10.9207H4V9.90479H1V10.9207V11.9365H4.5V10.9207Z" fill="white"/>
<path d="M3.25 1.18627C3.25 1.0923 3.1375 1.01611 3 1.01611H2C1.8625 1.01611 1.75 1.0923 1.75 1.18627V9.39707H3.25V1.18627Z" fill="white"/>
</svg>
