<svg width="16" height="16" viewBox="0 0 16 16" fill="none" xmlns="http://www.w3.org/2000/svg">
<path d="M5.43107 7.75005C6.60201 7.75005 7.52025 6.62664 7.52025 5.19046C7.4445 1.79616 3.4144 1.79951 3.33936 5.19049C3.33936 6.62664 4.25761 7.75005 5.43107 7.75005ZM5.43107 3.06875C6.3443 3.06875 7.0849 4.02202 7.0849 5.19046C7.00258 8.00469 3.85929 8.00415 3.77721 5.19043C3.77722 4.02202 4.51782 3.06875 5.43107 3.06875Z" fill="white"/>
<path d="M5.43106 6.81399C6.95342 6.74846 6.9551 3.63484 5.43103 3.56885C3.9064 3.63529 3.90926 6.74892 5.43106 6.81399Z" fill="white"/>
<path d="M8.02069 5.19037C8.03523 5.67656 7.93893 6.15969 7.73909 6.60315C7.53925 7.04661 7.24111 7.43878 6.86725 7.74995H10.5802C11.7537 7.74995 12.672 6.62654 12.672 5.19037C12.672 3.75671 11.7537 2.6333 10.5802 2.6333H6.86725C7.24106 2.94395 7.53921 3.33567 7.73906 3.77872C7.93892 4.22178 8.03523 4.70454 8.02069 5.19037Z" fill="white"/>
<path d="M12.9222 8.25H9.20917C9.58259 8.56153 9.88043 8.95377 10.0802 9.39714C10.28 9.84052 10.3766 10.3235 10.3626 10.8096C10.3766 11.2953 10.28 11.7779 10.0802 12.2209C9.88039 12.6638 9.58255 13.0556 9.20917 13.3667H12.9222C15.6938 13.2781 15.6915 8.33768 12.9222 8.25Z" fill="white"/>
<path d="M7.77052 8.25C6.59958 8.25 5.68134 9.37341 5.68134 10.8096C5.75709 14.2039 9.78718 14.2005 9.86222 10.8095C9.8622 9.37341 8.94396 8.25 7.77052 8.25ZM7.77052 12.9313C6.85977 12.9313 6.11669 11.978 6.11669 10.8096C6.20065 7.99432 9.34353 7.99761 9.42687 10.8096C9.42685 11.978 8.68376 12.9313 7.77052 12.9313Z" fill="white"/>
<path d="M7.77051 9.18604C6.24814 9.25156 6.24647 12.3652 7.77054 12.4312C9.29865 12.3656 9.2958 9.25019 7.77051 9.18604Z" fill="white"/>
<path d="M5.43108 9.4835C5.61647 8.99898 5.92838 8.57303 6.3343 8.25H4.52783C4.93376 8.57303 5.24567 8.99898 5.43108 9.4835Z" fill="white"/>
<path d="M5.43108 12.1333C5.24567 12.6178 4.93376 13.0438 4.52783 13.3668H6.33431C5.92839 13.0438 5.61648 12.6178 5.43108 12.1333Z" fill="white"/>
<path d="M3.08919 8.25C1.91825 8.25 1 9.37341 1 10.8096C1.07575 14.2039 5.10585 14.2005 5.18089 10.8095C5.18089 9.37341 4.26264 8.25 3.08919 8.25ZM3.08919 12.9313C2.17846 12.9313 1.43535 11.978 1.43535 10.8096C1.51933 7.99432 4.66219 7.99761 4.74553 10.8096C4.74553 11.978 4.00243 12.9313 3.08919 12.9313Z" fill="white"/>
<path d="M3.08918 9.18604C1.56681 9.25156 1.56514 12.3652 3.08921 12.4312C4.61732 12.3657 4.61449 9.25017 3.08918 9.18604Z" fill="white"/>
</svg>
