<svg width="17" height="16" viewBox="0 0 17 16" fill="none" xmlns="http://www.w3.org/2000/svg">
<path d="M9.68393 5.95915C9.3954 4.66341 7.74819 5.07522 7.24458 5.75981C6.4236 5.61554 6.2295 6.33686 6.24786 6.93489C6.26119 7.23131 6.36973 7.51553 6.55737 7.74538L6.60721 7.81095C7.11274 7.392 7.45753 6.81085 7.58294 6.16636C7.81993 6.50071 8.13875 6.76865 8.5089 6.94455C8.87905 7.12044 9.28815 7.19839 9.69704 7.17095C9.72081 7.30593 9.78409 7.43082 9.87887 7.52981C9.97366 7.62879 10.0957 7.69743 10.2295 7.72702L10.4708 7.33358C10.8564 6.49423 10.2741 5.34276 9.68393 5.95915Z" fill="white"/>
<path d="M10.1404 8.24379C9.97968 8.21024 9.8273 8.14493 9.69217 8.05169C9.55705 7.95846 9.4419 7.83917 9.3535 7.70083C8.79454 7.65801 8.25818 7.46198 7.80334 7.13428C7.59492 7.55119 7.30086 7.91943 6.94039 8.21493C6.8467 8.29256 6.72894 8.33522 6.60727 8.33559C6.50623 8.32751 6.40864 8.29515 6.32278 8.24127C6.23693 8.18738 6.16536 8.11356 6.11416 8.02608C6.06761 8.09793 6.043 8.18178 6.04334 8.26739C6.04334 8.38844 6.09142 8.50452 6.17701 8.59011C6.2626 8.6757 6.37869 8.72379 6.49973 8.72379H6.61514C6.69548 9.14318 6.91949 9.52145 7.24861 9.79352C7.57774 10.0656 7.9914 10.2144 8.41842 10.2144C8.84544 10.2144 9.2591 10.0656 9.58823 9.79352C9.91736 9.52145 10.1414 9.14318 10.2217 8.72379H10.3371C10.4582 8.72379 10.5742 8.6757 10.6598 8.59011C10.7454 8.50452 10.7935 8.38844 10.7935 8.26739C10.7943 8.16708 10.7599 8.06966 10.6965 7.99198C10.6361 8.0813 10.5522 8.15213 10.4541 8.19659C10.3559 8.24104 10.2473 8.25738 10.1404 8.24379Z" fill="white"/>
<path d="M13.6394 13.5082H10.9482V12.0053C10.9482 11.4623 10.5364 10.9745 9.89903 10.7594L9.67083 10.6833C9.60321 10.6582 9.52933 10.6553 9.45996 10.6751C9.3906 10.6949 9.32939 10.7364 9.28525 10.7935L8.40657 12.1627L7.5305 10.7935C7.48611 10.7367 7.42489 10.6955 7.35562 10.6757C7.28635 10.6559 7.21259 10.6586 7.14493 10.6833L6.91411 10.7594C6.27935 10.9745 5.86493 11.4623 5.86493 12.0053V13.5082H3.14755C3.07798 13.5082 3.01127 13.5359 2.96208 13.5851C2.91289 13.6343 2.88525 13.701 2.88525 13.7705C2.88525 13.8401 2.91289 13.9068 2.96208 13.956C3.01127 14.0052 3.07798 14.0328 3.14755 14.0328H13.6394C13.7089 14.0328 13.7756 14.0052 13.8248 13.956C13.874 13.9068 13.9016 13.8401 13.9016 13.7705C13.9016 13.701 13.874 13.6343 13.8248 13.5851C13.7756 13.5359 13.7089 13.5082 13.6394 13.5082Z" fill="white"/>
<path d="M2.09835 6.95063H5.72327C5.70137 6.70492 5.72808 6.45731 5.80189 6.22193C5.8757 5.98656 5.99516 5.76803 6.15344 5.57882C6.26737 5.46235 6.40376 5.37021 6.55435 5.30799C6.70493 5.24578 6.86658 5.21477 7.0295 5.21686C7.27175 4.99501 7.55762 4.82617 7.86885 4.72112V3.0162C7.86885 2.94664 7.84121 2.87992 7.79202 2.83073C7.74283 2.78154 7.67612 2.75391 7.60655 2.75391H2.09835C2.02879 2.75391 1.96207 2.78154 1.91288 2.83073C1.86369 2.87992 1.83606 2.94664 1.83606 3.0162V6.68833C1.83606 6.7579 1.86369 6.82461 1.91288 6.8738C1.96207 6.92299 2.02879 6.95063 2.09835 6.95063ZM2.88524 3.54079H5.2459C5.31546 3.54079 5.38218 3.56843 5.43137 3.61762C5.48056 3.66681 5.50819 3.73352 5.50819 3.80309C5.50819 3.87265 5.48056 3.93937 5.43137 3.98856C5.38218 4.03775 5.31546 4.06538 5.2459 4.06538H2.88524C2.81567 4.06538 2.74896 4.03775 2.69977 3.98856C2.65058 3.93937 2.62294 3.87265 2.62294 3.80309C2.62294 3.73352 2.65058 3.66681 2.69977 3.61762C2.74896 3.56843 2.81567 3.54079 2.88524 3.54079ZM2.88524 4.58997H6.03278C6.10235 4.58997 6.16906 4.61761 6.21825 4.6668C6.26744 4.71599 6.29508 4.7827 6.29508 4.85227C6.29508 4.92183 6.26744 4.98855 6.21825 5.03774C6.16906 5.08693 6.10235 5.11456 6.03278 5.11456H2.88524C2.81567 5.11456 2.74896 5.08693 2.69977 5.03774C2.65058 4.98855 2.62294 4.92183 2.62294 4.85227C2.62294 4.7827 2.65058 4.71599 2.69977 4.6668C2.74896 4.61761 2.81567 4.58997 2.88524 4.58997ZM2.88524 5.63915H4.19672C4.26628 5.63915 4.333 5.66679 4.38219 5.71598C4.43138 5.76517 4.45901 5.83188 4.45901 5.90145C4.45901 5.97101 4.43138 6.03773 4.38219 6.08692C4.333 6.13611 4.26628 6.16374 4.19672 6.16374H2.88524C2.81567 6.16374 2.74896 6.13611 2.69977 6.08692C2.65058 6.03773 2.62294 5.97101 2.62294 5.90145C2.62294 5.83188 2.65058 5.76517 2.69977 5.71598C2.74896 5.66679 2.81567 5.63915 2.88524 5.63915Z" fill="white"/>
<path d="M14.6886 2.75391H9.18039C9.11082 2.75391 9.0441 2.78154 8.99492 2.83073C8.94573 2.87992 8.91809 2.94664 8.91809 3.0162V4.61358C9.12965 4.63955 9.33304 4.71117 9.51419 4.82348C9.69535 4.9358 9.84994 5.08613 9.96727 5.26407V4.85227C9.96727 4.7827 9.99491 4.71599 10.0441 4.6668C10.0933 4.61761 10.16 4.58997 10.2296 4.58997C10.2991 4.58997 10.3658 4.61761 10.415 4.6668C10.4642 4.71599 10.4919 4.7827 10.4919 4.85227V5.39784C10.6377 5.49307 10.7597 5.62049 10.8486 5.7703C11.067 6.1276 11.1593 6.54779 11.1109 6.96374H14.6886C14.7581 6.96374 14.8249 6.93611 14.8741 6.88692C14.9232 6.83773 14.9509 6.77101 14.9509 6.70145V3.02932C14.9527 2.99378 14.9472 2.95826 14.9348 2.92491C14.9224 2.89156 14.9034 2.86107 14.8788 2.83531C14.8543 2.80955 14.8248 2.78904 14.7921 2.77505C14.7594 2.76106 14.7242 2.75386 14.6886 2.75391ZM11.541 5.90145C11.541 5.97101 11.5134 6.03773 11.4642 6.08692C11.415 6.13611 11.3483 6.16374 11.2787 6.16374C11.2092 6.16374 11.1425 6.13611 11.0933 6.08692C11.0441 6.03773 11.0165 5.97101 11.0165 5.90145V3.54079C11.0165 3.47123 11.0441 3.40451 11.0933 3.35532C11.1425 3.30613 11.2092 3.2785 11.2787 3.2785C11.3483 3.2785 11.415 3.30613 11.4642 3.35532C11.5134 3.40451 11.541 3.47123 11.541 3.54079V5.90145ZM12.5902 5.90145C12.5902 5.97101 12.5626 6.03773 12.5134 6.08692C12.4642 6.13611 12.3975 6.16374 12.3279 6.16374C12.2584 6.16374 12.1916 6.13611 12.1425 6.08692C12.0933 6.03773 12.0656 5.97101 12.0656 5.90145V4.32768C12.0656 4.25811 12.0933 4.1914 12.1425 4.14221C12.1916 4.09302 12.2584 4.06538 12.3279 4.06538C12.3975 4.06538 12.4642 4.09302 12.5134 4.14221C12.5626 4.1914 12.5902 4.25811 12.5902 4.32768V5.90145ZM13.6394 5.90145C13.6394 5.97101 13.6118 6.03773 13.5626 6.08692C13.5134 6.13611 13.4467 6.16374 13.3771 6.16374C13.3075 6.16374 13.2408 6.13611 13.1916 6.08692C13.1424 6.03773 13.1148 5.97101 13.1148 5.90145V3.80309C13.1148 3.73352 13.1424 3.66681 13.1916 3.61762C13.2408 3.56843 13.3075 3.54079 13.3771 3.54079C13.4467 3.54079 13.5134 3.56843 13.5626 3.61762C13.6118 3.66681 13.6394 3.73352 13.6394 3.80309V5.90145Z" fill="white"/>
<path d="M5.34032 12.0049C5.32721 11.3282 5.93835 10.4678 6.87213 10.2213C6.55322 9.94956 6.31467 9.59582 6.18229 9.19833C5.98647 9.13341 5.81603 9.00858 5.69506 8.84148C5.57408 8.67438 5.50871 8.47347 5.50819 8.26718C5.50889 8.17852 5.52124 8.09033 5.54491 8.00488H2.09835C2.02879 8.00488 1.96207 8.03252 1.91288 8.08171C1.86369 8.1309 1.83606 8.19761 1.83606 8.26718V11.9393C1.83606 12.0089 1.86369 12.0756 1.91288 12.1248C1.96207 12.174 2.02879 12.2016 2.09835 12.2016H5.34032V12.0049ZM4.72131 9.04882H5.50819C5.57776 9.04882 5.64447 9.07645 5.69366 9.12564C5.74285 9.17483 5.77049 9.24155 5.77049 9.31111C5.77049 9.38068 5.74285 9.44739 5.69366 9.49658C5.64447 9.54577 5.57776 9.57341 5.50819 9.57341H4.72131C4.65174 9.57341 4.58502 9.54577 4.53583 9.49658C4.48664 9.44739 4.45901 9.38068 4.45901 9.31111C4.45901 9.24155 4.48664 9.17483 4.53583 9.12564C4.58502 9.07645 4.65174 9.04882 4.72131 9.04882ZM3.93442 11.4095C3.5866 11.4095 3.25302 11.2713 3.00707 11.0254C2.76112 10.7794 2.62294 10.4458 2.62294 10.098C2.62294 9.75017 2.76112 9.41659 3.00707 9.17064C3.25302 8.92469 3.5866 8.78652 3.93442 8.78652C4.00399 8.78652 4.0707 8.81416 4.11989 8.86335C4.16908 8.91254 4.19672 8.97925 4.19672 9.04882C4.19672 9.11838 4.16908 9.1851 4.11989 9.23429C4.0707 9.28348 4.00399 9.31111 3.93442 9.31111C3.77879 9.31111 3.62665 9.35726 3.49725 9.44373C3.36785 9.53019 3.26699 9.65309 3.20743 9.79687C3.14788 9.94065 3.13229 10.0989 3.16265 10.2515C3.19302 10.4042 3.26796 10.5444 3.37801 10.6544C3.48806 10.7645 3.62827 10.8394 3.78091 10.8698C3.93355 10.9001 4.09176 10.8845 4.23555 10.825C4.37933 10.7654 4.50223 10.6646 4.58869 10.5352C4.67516 10.4058 4.72131 10.2536 4.72131 10.098C4.72131 10.0284 4.74894 9.96172 4.79813 9.91253C4.84732 9.86334 4.91404 9.8357 4.9836 9.8357C5.05317 9.8357 5.11988 9.86334 5.16907 9.91253C5.21826 9.96172 5.2459 10.0284 5.2459 10.098C5.2459 10.2702 5.21197 10.4408 5.14607 10.5999C5.08016 10.759 4.98355 10.9036 4.86177 11.0254C4.73999 11.1471 4.59542 11.2437 4.4363 11.3096C4.27718 11.3756 4.10665 11.4095 3.93442 11.4095Z" fill="white"/>
<path d="M14.6886 8H11.2787C11.3024 8.08545 11.3148 8.17363 11.3155 8.2623C11.3149 8.46859 11.2496 8.66949 11.1286 8.83659C11.0076 9.00369 10.8372 9.12853 10.6414 9.19344C10.509 9.59727 10.2664 9.9561 9.94104 10.2295L10.0669 10.2715C10.922 10.56 11.4728 11.2446 11.4728 12.0157V12.2072H14.6886C14.7581 12.2072 14.8249 12.1796 14.8741 12.1304C14.9232 12.0812 14.9509 12.0145 14.9509 11.9449V8.27279C14.9523 8.23747 14.9466 8.20223 14.934 8.16919C14.9215 8.13614 14.9024 8.10597 14.8779 8.0805C14.8534 8.05502 14.824 8.03475 14.7914 8.02092C14.7589 8.00709 14.7239 7.99997 14.6886 8ZM14.046 9.79148L13.2591 10.3161C13.2206 10.3415 13.1761 10.3564 13.13 10.3591C13.084 10.3619 13.038 10.3525 12.9968 10.3318L12.6427 10.1561L11.7273 11.0715C11.7029 11.0961 11.6739 11.1156 11.6419 11.1289C11.6099 11.1422 11.5757 11.1491 11.541 11.1491C11.5064 11.1491 11.4721 11.1422 11.4402 11.1289C11.4082 11.1156 11.3792 11.0961 11.3548 11.0715C11.3302 11.0471 11.3107 11.0181 11.2974 10.9861C11.2841 10.9542 11.2772 10.9199 11.2772 10.8852C11.2772 10.8506 11.2841 10.8163 11.2974 10.7844C11.3107 10.7524 11.3302 10.7234 11.3548 10.699L12.404 9.64984C12.4433 9.6109 12.4938 9.58537 12.5485 9.57689C12.6031 9.56841 12.659 9.57742 12.7083 9.60262L13.0964 9.79672L13.7574 9.35607C13.815 9.32517 13.8821 9.31689 13.9455 9.33285C14.0088 9.3488 14.064 9.38784 14.1001 9.44232C14.1362 9.4968 14.1506 9.56279 14.1406 9.62738C14.1306 9.69196 14.0969 9.75048 14.046 9.79148Z" fill="white"/>
</svg>
