<svg width="17" height="21" viewBox="0 0 17 21" fill="none" xmlns="http://www.w3.org/2000/svg">
<path fill-rule="evenodd" clip-rule="evenodd" d="M11.0882 8.65655C13.1619 9.72913 14.5803 11.8937 14.5803 14.39H11.5037C11.4419 14.2392 11.3705 14.0927 11.2894 13.9516L11.3537 13.8625C11.4181 13.7734 11.4543 13.6685 11.4614 13.5591L11.4675 13.4691L11.4146 13.3959C11.1606 13.0449 10.8518 12.7361 10.5008 12.4821L10.4276 12.4292L10.3376 12.4353C10.2282 12.4424 10.1224 12.4786 10.0333 12.543L9.9442 12.6073C9.67253 12.4512 9.38144 12.3304 9.07891 12.2484L9.06215 12.1399C9.04451 12.0305 8.996 11.9308 8.92279 11.8479L8.86281 11.78L8.77372 11.7659C8.56026 11.7315 8.34417 11.7147 8.12805 11.7147C7.91194 11.7147 7.69583 11.7324 7.48238 11.7659L7.39329 11.78L7.33419 11.8479C7.26098 11.9308 7.21247 12.0305 7.19483 12.1399L7.17807 12.2484C6.87553 12.3304 6.58444 12.4504 6.31278 12.6073L6.22369 12.543C6.1346 12.4786 6.02964 12.4424 5.92025 12.4353L5.83028 12.4292L5.75707 12.4821C5.40601 12.7361 5.09729 13.0449 4.84325 13.3959L4.79033 13.4691L4.7965 13.5591C4.80356 13.6685 4.83972 13.7743 4.90411 13.8634L4.9685 13.9525C4.88735 14.0936 4.81591 14.24 4.75416 14.3909L1.67755 14.39C1.67755 11.8937 3.09501 9.72913 5.16965 8.65655C5.91411 9.44423 6.96815 9.93199 8.12884 9.93199C9.28953 9.93199 10.3439 9.44421 11.0882 8.65655ZM6.30044 12.908L6.07639 12.7457C6.02611 12.7096 5.96702 12.6893 5.90351 12.6858C5.57363 12.9239 5.2843 13.2141 5.04615 13.5431C5.05056 13.6057 5.06996 13.6657 5.10612 13.716L5.26842 13.94C5.05585 14.2717 4.89973 14.6431 4.81329 15.04L4.53986 15.0832C4.47811 15.0929 4.42255 15.1211 4.37491 15.1626C4.34316 15.3602 4.3264 15.5621 4.3264 15.7686C4.3264 15.975 4.34316 16.1769 4.37491 16.3745C4.42255 16.416 4.47811 16.4442 4.53986 16.4539L4.81329 16.4971C4.90061 16.8941 5.05673 17.2654 5.26842 17.5971L5.10612 17.8211C5.06996 17.8714 5.04967 17.9305 5.04615 17.994C5.2843 18.3239 5.57449 18.6132 5.90351 18.8513C5.96614 18.8469 6.02612 18.8275 6.07639 18.7914L6.30044 18.6291C6.6321 18.8416 7.00344 18.9978 7.40036 19.0842L7.44358 19.3576C7.45329 19.4194 7.48151 19.4749 7.52297 19.5226C7.72055 19.5543 7.92253 19.5711 8.12894 19.5711C8.33535 19.5711 8.53733 19.5543 8.73492 19.5226C8.77637 19.4749 8.8046 19.4194 8.8143 19.3576L8.85752 19.0842C9.25444 18.9969 9.62578 18.8408 9.95745 18.6291L10.1815 18.7914C10.2318 18.8275 10.2909 18.8478 10.3544 18.8513C10.6843 18.6132 10.9736 18.323 11.2117 17.994C11.2073 17.9314 11.1879 17.8714 11.1518 17.8211L10.9895 17.5971C11.202 17.2654 11.3582 16.8941 11.4446 16.4971L11.718 16.4539C11.7798 16.4442 11.8353 16.416 11.883 16.3745C11.9147 16.1769 11.9315 15.975 11.9315 15.7686C11.9315 15.5622 11.9147 15.3602 11.883 15.1626C11.8353 15.1211 11.7798 15.0929 11.718 15.0832L11.4446 15.04C11.3573 14.6431 11.2012 14.2717 10.9895 13.94L11.1518 13.716C11.1879 13.6657 11.2082 13.6066 11.2117 13.5431C10.9736 13.2132 10.6834 12.9239 10.3544 12.6858C10.2917 12.6902 10.2318 12.7096 10.1815 12.7457L9.95745 12.908C9.62578 12.6955 9.25444 12.5393 8.85752 12.4529L8.8143 12.1795C8.8046 12.1177 8.77637 12.0622 8.73492 12.0145C8.53733 11.9828 8.33535 11.966 8.12894 11.966C7.92253 11.966 7.72055 11.9828 7.52297 12.0145C7.48151 12.0622 7.45329 12.1177 7.44358 12.1795L7.40036 12.4529C7.00256 12.5393 6.6321 12.6963 6.30044 12.908ZM7.99046 14.8988C7.99046 14.8292 8.04691 14.7736 8.11571 14.7736C8.1854 14.7736 8.24097 14.83 8.24097 14.8988V15.8347C8.24097 15.8814 8.21539 15.922 8.17746 15.9441L7.42331 16.4451C7.36597 16.483 7.28835 16.4671 7.24955 16.4098C7.21162 16.3525 7.22749 16.2748 7.28483 16.236L7.98959 15.7677L7.99046 14.8988ZM8.12894 13.6754C7.5512 13.6754 7.02814 13.91 6.64973 14.2884C6.27132 14.6668 6.03671 15.1899 6.03671 15.7685C6.03671 16.3463 6.27135 16.8693 6.64973 17.2486C7.02814 17.627 7.5512 17.8616 8.12894 17.8616C8.70669 17.8616 9.22975 17.627 9.60904 17.2486C9.98744 16.8702 10.2221 16.3472 10.2221 15.7685C10.2221 15.1908 9.98742 14.6677 9.60904 14.2884C9.22975 13.91 8.70669 13.6754 8.12894 13.6754ZM6.47157 14.1112C6.0473 14.5354 5.78532 15.1211 5.78532 15.7685C5.78532 16.416 6.0473 17.0016 6.47157 17.4259C6.89584 17.8502 7.48153 18.1121 8.12894 18.1121C8.77635 18.1121 9.36205 17.8502 9.78632 17.4259C10.2106 17.0016 10.4726 16.4159 10.4726 15.7685C10.4726 15.1211 10.2106 14.5354 9.78632 14.1112C9.36205 13.6869 8.77635 13.4249 8.12894 13.4249C7.48153 13.4249 6.89584 13.6869 6.47157 14.1112ZM7.70027 0.752441H8.55764C8.60615 0.752441 8.64672 0.770082 8.68024 0.805366C8.71288 0.840648 8.72787 0.882987 8.72523 0.931499L8.60968 2.58799C8.60439 2.65679 8.65554 2.71766 8.72435 2.72295C8.79315 2.72824 8.85401 2.67708 8.8593 2.60828L8.98632 1.06998C10.7954 1.46249 12.1503 3.07225 12.1512 4.99788V5.00052H12.1415C12.3779 5.00052 12.5711 5.1937 12.5711 5.43008V5.85963L3.68513 5.86139V5.43184C3.68513 5.19544 3.8783 5.00229 4.11469 5.00229H4.10498V4.99082C4.11028 3.06883 5.46422 1.4635 7.26989 1.07105L7.3969 2.60935C7.40219 2.67815 7.46306 2.72931 7.53186 2.72402C7.60066 2.71873 7.65182 2.65787 7.64652 2.58907L7.53097 0.932572C7.52745 0.88494 7.54244 0.841721 7.57596 0.806438C7.61036 0.771156 7.65176 0.752441 7.70027 0.752441ZM11.9402 6.11264H4.31747C4.44625 8.1052 6.10364 9.68151 8.12885 9.68151C10.1541 9.68151 11.8115 8.10526 11.9402 6.11264Z" fill="white"/>
</svg>
