<svg width="16" height="16" viewBox="0 0 16 16" fill="none" xmlns="http://www.w3.org/2000/svg">
<g clip-path="url(#clip0_192_256)">
<path d="M13.8428 8.03682C13.7445 7.94711 13.6433 7.86599 13.5417 7.7869C13.3367 7.63105 13.1263 7.49112 12.9107 7.36647C12.4814 7.11609 12.0324 6.91703 11.5706 6.75728C11.1082 6.59816 10.633 6.47803 10.1398 6.4097C9.89312 6.3746 9.6418 6.35495 9.38549 6.35042C9.2947 6.3498 9.20343 6.35167 9.11155 6.35495C9.08706 5.87664 8.74213 5.4818 8.28645 5.38258C8.31936 5.29771 8.34994 5.21363 8.37833 5.12923C8.45821 4.88493 8.52217 4.64047 8.56975 4.39679C8.66647 3.90804 8.7075 3.41928 8.70859 2.93099C8.70922 2.44223 8.66756 1.95347 8.57147 1.46549C8.52388 1.22104 8.46039 0.976736 8.3802 0.732279C8.33793 0.610285 8.29487 0.487978 8.24214 0.365984C8.19066 0.244145 8.13481 0.121995 8.06227 0C7.98988 0.121995 7.9331 0.244145 7.88177 0.366296C7.82983 0.48829 7.78599 0.610441 7.74465 0.732591C7.66431 0.977048 7.60035 1.22135 7.55276 1.46581C7.45635 1.95425 7.41548 2.44254 7.4161 2.9313C7.41657 3.41943 7.45869 3.90819 7.55542 4.39711C7.60237 4.64125 7.66633 4.88586 7.74621 5.12954C7.7746 5.21394 7.8058 5.29849 7.83809 5.38289C7.38163 5.48211 7.0353 5.87914 7.01253 6.3601C7.00987 6.3601 7.00769 6.36009 7.00504 6.35963C6.87259 6.35027 6.74264 6.34871 6.61347 6.3498C6.35669 6.3537 6.10474 6.3732 5.85857 6.40846C5.3656 6.47725 4.89041 6.598 4.42864 6.75759C3.96719 6.91827 3.51837 7.11687 3.0892 7.36834C2.87329 7.49361 2.66347 7.63339 2.45895 7.78877C2.35677 7.86833 2.25505 7.94883 2.15708 8.0376C2.05755 8.12667 1.96145 8.21965 1.86957 8.32636C2.00841 8.35428 2.14242 8.36817 2.27455 8.37659C2.407 8.38564 2.53648 8.3872 2.66503 8.38626C2.92228 8.38143 3.17438 8.36224 3.41993 8.32745C3.91352 8.25912 4.38855 8.13791 4.85063 7.97956C5.3124 7.82028 5.76091 7.62154 6.19086 7.37068C6.40676 7.24604 6.6169 7.1061 6.82142 6.95025C6.90442 6.88567 6.98647 6.81921 7.06728 6.74854C7.1612 7.02529 7.36806 7.24978 7.63264 7.36912L6.82984 16.0005H9.29563L8.46164 7.38332C8.71468 7.27942 8.91873 7.07927 9.02746 6.82826C9.0777 6.86945 9.12793 6.90938 9.17925 6.94869C9.38409 7.10407 9.59391 7.24448 9.80919 7.36912C10.2395 7.61998 10.6873 7.81826 11.1491 7.97972C11.6115 8.13978 12.0856 8.26053 12.5793 8.3287C12.8261 8.36411 13.0775 8.38377 13.3349 8.38798C13.4636 8.38861 13.5932 8.38751 13.7257 8.378C13.8581 8.36942 13.9921 8.35553 14.131 8.32667C14.0383 8.21825 13.9417 8.12449 13.8428 8.03682ZM8.06274 6.81594C7.83903 6.81594 7.65697 6.63388 7.65697 6.41033C7.65697 6.18662 7.83903 6.00519 8.06274 6.00519C8.28629 6.00519 8.46803 6.18678 8.46803 6.41033C8.46788 6.63326 8.28613 6.81594 8.06274 6.81594Z" fill="white"/>
</g>
<defs>
<clipPath id="clip0_192_256">
<rect width="16" height="16" fill="white"/>
</clipPath>
</defs>
</svg>
