<svg width="15" height="16" viewBox="0 0 15 16" fill="none" xmlns="http://www.w3.org/2000/svg">
<path d="M11.464 6.10085L10.3705 5.09296C10.227 4.96068 9.99327 4.95886 9.85108 5.08992L9.6134 5.3108L11.2264 6.79745L11.4634 6.57657C11.6062 6.4455 11.6063 6.23191 11.464 6.10085Z" fill="white"/>
<path d="M13.2408 4.94486C13.352 4.84413 13.3896 4.69485 13.3395 4.55348C13.0736 3.7792 12.2407 2.72699 11.383 1.88785C11.3823 1.88785 11.3823 1.88724 11.3823 1.88724C11.3823 1.88724 11.3823 1.88664 11.3816 1.88664C11.0755 1.58748 10.7667 1.31443 10.4784 1.09173C10.3085 0.96127 10.0676 0.968551 9.91811 1.10872L7.48541 3.3509L8.65005 4.42433L9.55201 3.59301C9.87987 3.29083 10.4513 3.29083 10.7785 3.59301L12.4547 5.13791C12.6147 5.28536 12.8754 5.28475 13.0347 5.13791L13.2408 4.94486Z" fill="white"/>
<path d="M1.26339 13.5302C1.26142 13.7717 1.37597 13.9999 1.57677 14.1589C1.92767 14.4368 2.47543 14.4016 2.82304 14.0812L6.65798 10.5466C7.36637 9.89368 8.17944 9.35423 9.07551 8.94348L9.95705 8.53874C10.0479 8.4987 10.1309 8.44348 10.2053 8.37491L11.127 7.52539C11.1849 7.47199 11.2172 7.40038 11.2172 7.32393C11.2172 7.24747 11.1849 7.17587 11.127 7.12247L8.53837 4.7366C8.53837 4.7366 8.53772 4.7366 8.53772 4.73599C8.53772 4.73599 8.53772 4.73539 8.53706 4.73539L7.25985 3.55821C7.00901 3.32701 6.67655 3.2002 6.32235 3.2002C5.96486 3.2002 5.6291 3.33005 5.3776 3.56489C5.26239 3.6729 5.26568 3.85068 5.3855 3.96113L5.99053 4.51877C5.99118 4.51937 5.99184 4.51937 5.9925 4.51998C5.99316 4.52059 5.99316 4.52119 5.99382 4.5218L7.38032 5.79972C7.38098 5.80033 7.38164 5.80033 7.3823 5.80093C7.38296 5.80154 7.38296 5.80215 7.38362 5.80275L7.80694 6.19292C8.09595 6.4593 8.09595 6.89195 7.80694 7.15833L1.5243 12.9489C1.35444 13.1055 1.26227 13.3118 1.26358 13.5302L1.26339 13.5302ZM2.00931 13.239L2.41947 12.8609C2.54719 12.7432 2.75392 12.7432 2.88361 12.8627C3.01133 12.9805 3.01133 13.171 2.88361 13.2887L2.47345 13.6667C2.34573 13.7845 2.139 13.7845 2.01129 13.6667C1.88159 13.5472 1.88159 13.3561 2.00931 13.239Z" fill="white"/>
<path d="M13.576 5.63532L13.7867 5.44418C13.8953 5.34588 13.9335 5.19357 13.8841 5.05522C13.8301 4.89867 13.7538 4.73302 13.6623 4.5625C13.7024 4.77912 13.6359 4.99818 13.4654 5.15231L13.2613 5.34406C13.1533 5.44357 13.0197 5.50487 12.8801 5.52853L12.996 5.63532C13.152 5.77913 13.4206 5.77853 13.576 5.63532Z" fill="white"/>
<path d="M5.63159 5.05945L5.88046 4.83008L7.0451 5.90351L6.79623 6.13288L5.63159 5.05945Z" fill="white"/>
<path d="M12.0045 7.07815C12.0756 7.01262 12.1138 6.92766 12.1138 6.83725C12.1138 6.74866 12.0756 6.66552 12.0065 6.60303L11.8709 6.47803C11.8432 6.59029 11.784 6.69647 11.6898 6.78386L11.4397 7.01626C11.5016 7.10728 11.5364 7.21226 11.5364 7.3227C11.5364 7.47744 11.4713 7.62246 11.3534 7.73168L10.4317 8.5812C10.331 8.67404 10.2191 8.74807 10.0979 8.80148L9.21903 9.20561C8.35461 9.60245 7.56918 10.1237 6.8851 10.7542L3.04813 14.2881C2.79598 14.5205 2.46483 14.6389 2.13763 14.6389C2.12381 14.6389 2.11064 14.6364 2.09747 14.6358C2.10537 14.6425 2.11196 14.6516 2.11986 14.6583C2.4701 14.9368 3.01588 14.9022 3.36415 14.5812L7.2023 11.0466C7.90937 10.3955 8.72178 9.85547 9.61915 9.44227L10.5 9.03753C10.5955 8.99627 10.6771 8.94226 10.7456 8.87672L11.6699 8.02478C11.7884 7.91374 11.7891 7.7323 11.6699 7.62248C11.6344 7.59639 11.6113 7.55755 11.6087 7.51629C11.6061 7.47442 11.6219 7.43377 11.6535 7.40403L12.0045 7.07815Z" fill="white"/>
<path d="M5.0444 6.948C4.95026 6.86123 4.80278 6.85152 4.70338 6.92616C4.7014 6.92798 4.67046 6.95164 4.66849 6.95347L4.63623 6.97956C4.18065 7.40006 4.09242 8.05662 4.42818 8.57055C4.49204 8.66642 4.56512 8.75198 4.64214 8.82358L5.09641 9.24227L6.31503 8.11908L5.0444 6.948Z" fill="white"/>
<path d="M2.91319 8.09829L3.49715 8.63651C3.65713 8.78396 3.91784 8.78336 4.07716 8.63651L4.09889 8.61649C3.76312 8.00363 3.88228 7.25969 4.41753 6.76639L4.45571 6.73423C4.46559 6.72452 4.48797 6.70389 4.52023 6.68569C4.73025 6.52914 5.05942 6.54673 5.26878 6.73969L5.70263 7.13957L5.9752 6.88653L4.8099 5.8125L2.91248 7.56318C2.75514 7.71063 2.75519 7.95024 2.91319 8.09829Z" fill="white"/>
<path d="M4.7309 4.98324C4.62819 5.0779 4.62819 5.23143 4.7309 5.32668L6.47562 6.93414C6.57437 7.02576 6.74884 7.02576 6.84824 6.93414C6.94963 6.84069 6.94831 6.68779 6.84626 6.59312L5.10222 4.98566C5.05021 4.93773 4.9824 4.91406 4.91524 4.91406C4.84743 4.91406 4.78094 4.93713 4.7309 4.98324Z" fill="white"/>
</svg>
