<svg width="17" height="21" viewBox="0 0 17 21" fill="none" xmlns="http://www.w3.org/2000/svg">
<path d="M5.34863 7.2578H10.0957C10.39 7.2578 10.6289 7.0189 10.6289 6.7246C10.6289 6.43031 10.39 6.19141 10.0957 6.19141H5.34863C5.05431 6.19141 4.81543 6.43031 4.81543 6.7246C4.81543 7.0189 5.05433 7.2578 5.34863 7.2578Z" fill="white"/>
<path d="M8.18525 10.5979C9.34377 10.5979 10.2829 9.65884 10.2829 8.50028V7.54541H5.16162V8.50028C5.16162 9.6588 6.10067 10.5979 7.25923 10.5979H8.18525Z" fill="white"/>
<path d="M6.54522 3.56641C5.72202 3.99239 5.16077 4.85013 5.16077 5.8403V5.90362H6.54522V3.56641Z" fill="white"/>
<path d="M10.2841 5.8403C10.2841 4.85017 9.72284 3.99249 8.89966 3.56641V5.90367H10.2841V5.8403Z" fill="white"/>
<path d="M4.03816 12.2007C4.00362 12.1776 3.97196 12.1488 3.95181 12.1172C3.01637 12.8396 2.41479 13.968 2.41479 15.2431V17.4939H4.37498V14.9697C4.37498 14.4717 4.69735 14.0515 5.1406 13.8932C4.80959 12.952 4.1677 12.2812 4.03816 12.2007Z" fill="white"/>
<path d="M5.72484 13.8245H6.2487C5.93497 12.5552 5.01967 11.7291 4.97938 11.6917C4.93908 11.6571 4.91318 11.614 4.89879 11.5708C4.74336 11.6341 4.5908 11.7061 4.4469 11.7896C4.77791 12.0687 5.41111 12.8343 5.72484 13.8245Z" fill="white"/>
<path d="M8.701 13.8243C8.96293 12.5953 9.73431 11.7059 10.048 11.3865C9.76885 11.3232 9.47525 11.2915 9.17591 11.2915H6.3667C6.06736 11.2915 5.77376 11.3232 5.4917 11.3865C5.80255 11.7031 6.57681 12.5925 6.84161 13.8243H8.701Z" fill="white"/>
<path d="M10.0164 14.3999H6.60282H6.59707H5.52347C5.20685 14.3999 4.95068 14.6561 4.95068 14.9698V17.4941H10.5892V14.9698C10.5892 14.6561 10.333 14.3999 10.0164 14.3999ZM8.45351 16.1384L7.73106 16.9443C7.67925 17.0019 7.60729 17.0307 7.53821 17.0307C7.47488 17.0307 7.41444 17.0076 7.36263 16.9645C7.25614 16.8666 7.2475 16.7025 7.34536 16.596L7.77135 16.124L7.48065 16.0607C7.39142 16.0405 7.31946 15.9743 7.29069 15.888C7.2619 15.7988 7.28205 15.7038 7.3425 15.6347L7.93831 14.9525C8.03041 14.846 8.19734 14.8345 8.30385 14.9295C8.41323 15.0216 8.42186 15.1857 8.32976 15.2951L8.02178 15.6462L8.31825 15.7124C8.40747 15.7326 8.47943 15.7988 8.5082 15.888C8.53699 15.9743 8.51683 16.0722 8.45351 16.1384Z" fill="white"/>
<path d="M9.29126 13.8245H9.81799C10.1317 12.8344 10.7649 12.0688 11.096 11.7896C10.9492 11.709 10.7966 11.6341 10.6412 11.5708C10.6268 11.614 10.6009 11.6571 10.5606 11.6917C10.5203 11.7291 9.60499 12.5552 9.29126 13.8245Z" fill="white"/>
<path d="M11.5938 12.1201C11.5708 12.1547 11.5391 12.1834 11.4988 12.2036C11.3722 12.2813 10.7303 12.9519 10.4022 13.8931C10.8455 14.0515 11.165 14.4717 11.165 14.9696V17.4939H12.1148C12.0572 17.3442 12.0256 17.1801 12.0256 17.0103V13.3348H12.3882V12.9462C12.1666 12.6325 11.8989 12.3561 11.5938 12.1201Z" fill="white"/>
<path d="M8.32406 3.44261C8.32406 3.11016 8.05423 2.84033 7.72178 2.84033C7.38934 2.84033 7.11951 3.11016 7.11951 3.44261V5.90348H8.32408L8.32406 3.44261Z" fill="white"/>
<path d="M13.8023 13.9117V11.3565L14.0757 10.9031L13.3828 9.88135L12.6898 10.9003L12.9633 11.3572V13.9124L12.6006 13.9117V17.0093C12.6006 17.4411 12.951 17.7915 13.3828 17.7915C13.8145 17.7915 14.1649 17.4411 14.1649 17.0093L14.1642 13.9117H13.8023Z" fill="white"/>
</svg>
