<svg width="16" height="14" viewBox="0 0 16 14" fill="none" xmlns="http://www.w3.org/2000/svg">
<g clip-path="url(#clip0_192_295)">
<path d="M4.73861 13.3905V10.5998L3.34845 8.31525C3.2708 8.1881 3.24428 8.04208 3.27175 7.90016L3.55584 6.44001L3.55679 6.43673L3.55584 6.44247V6.44001L5.14297 2.28375C5.15623 2.21566 5.1818 2.15004 5.21873 2.08851L5.78406 1.15172V0H5.62402L4.43559 1.96875L2.45833 8.14073L4.0303 11.7502H3.65152C3.44224 11.7502 3.27273 11.897 3.27273 12.0783H1.37879C1.16951 12.0783 1 12.2252 1 12.4065V13.0627C1 13.244 1.16951 13.3908 1.37879 13.3908H3.27273V14.0471C3.27273 14.2284 3.44224 14.3752 3.65152 14.3752C7.65609 14.3752 9.79994 14.1143 9.92134 13.861C10.0358 13.6224 8.35333 13.3905 4.73861 13.3905Z" fill="white"/>
<path d="M10.4447 13V10.4004L12 7.65251L11.7009 6H4.29911L4 7.65251L5.55534 10.4004V13H10.4447ZM10.2233 6.86061C10.4437 6.86061 10.6221 7.02679 10.6221 7.23196C10.6221 7.43714 10.4437 7.60332 10.2233 7.60332C10.003 7.60332 9.82452 7.43714 9.82452 7.23196C9.82452 7.02679 10.003 6.86061 10.2233 6.86061ZM9.19641 8.73409C9.41675 8.73409 9.59521 8.90027 9.59521 9.10544C9.59521 9.31061 9.41675 9.47679 9.19641 9.47679C8.97607 9.47679 8.79761 9.31061 8.79761 9.10544C8.79761 8.90027 8.97607 8.73409 9.19641 8.73409ZM9.02692 11.3484C9.24726 11.3484 9.42572 11.5146 9.42572 11.7198C9.42572 11.9249 9.24726 12.0911 9.02692 12.0911C8.80658 12.0911 8.62812 11.9249 8.62812 11.7198C8.62812 11.5146 8.80658 11.3484 9.02692 11.3484ZM8.19144 7.40648C8.41178 7.40648 8.59024 7.57266 8.59024 7.77784C8.59024 7.98301 8.41178 8.14919 8.19144 8.14919C7.9711 8.14919 7.79264 7.98301 7.79264 7.77784C7.79264 7.57266 7.9711 7.40648 8.19144 7.40648ZM8.00001 10.0291C8.22035 10.0291 8.39882 10.1953 8.39882 10.4005C8.39882 10.6057 8.22035 10.7718 8.00001 10.7718C7.77967 10.7718 7.60121 10.6057 7.60121 10.4005C7.60121 10.1953 7.77967 10.0291 8.00001 10.0291ZM7.60121 12.1626C7.60121 12.3677 7.42275 12.5339 7.20241 12.5339C6.98207 12.5339 6.8036 12.3677 6.8036 12.1626C6.8036 11.9574 6.98207 11.7912 7.20241 11.7912C7.42275 11.7912 7.60121 11.9574 7.60121 12.1626ZM6.95616 8.73399C7.1765 8.73399 7.35496 8.90017 7.35496 9.10534C7.35496 9.31052 7.1765 9.4767 6.95616 9.4767C6.73582 9.4767 6.55735 9.31052 6.55735 9.10534C6.55735 8.90017 6.73582 8.73399 6.95616 8.73399ZM6.15855 7.23187C6.37889 7.23187 6.55735 7.39805 6.55735 7.60322C6.55735 7.80839 6.37889 7.97458 6.15855 7.97458C5.93821 7.97458 5.75975 7.80839 5.75975 7.60322C5.75975 7.39805 5.93821 7.23187 6.15855 7.23187Z" fill="white"/>
<path d="M11 5L10.2567 2.36079L9.32513 1.29536V0H6.67487V1.29536L5.74333 2.36079L5 5H11Z" fill="white"/>
<path d="M11.1882 13.3905V10.5998L12.5784 8.31525C12.656 8.1881 12.6825 8.04208 12.6551 7.90016L12.371 6.44001L12.37 6.43673L12.371 6.44247V6.44001L10.7838 2.28375C10.7706 2.21566 10.745 2.15004 10.7081 2.08851L10.1428 1.15172V0H10.3028L11.4912 1.96875L13.4685 8.14073L11.8965 11.7502H12.2753C12.4846 11.7502 12.6541 11.897 12.6541 12.0783H14.548C14.7573 12.0783 14.9268 12.2252 14.9268 12.4065V13.0627C14.9268 13.244 14.7573 13.3908 14.548 13.3908H12.6541V14.0471C12.6541 14.2284 12.4846 14.3752 12.2753 14.3752C11.3631 14.3752 6.06435 14.388 5.18641 14.3752C3.58696 14.3752 4.09374 14.1955 4 14C3.90892 13.81 3.22719 13.5363 6 13.4325C6.71052 13.406 10.4509 13.3905 11.1882 13.3905Z" fill="white"/>
</g>
<defs>
<clipPath id="clip0_192_295">
<rect width="16" height="14" fill="white"/>
</clipPath>
</defs>
</svg>
