<svg width="16" height="16" viewBox="0 0 16 16" fill="none" xmlns="http://www.w3.org/2000/svg">
<path d="M9.68171 7.56066C9.9266 7.56066 10.1251 7.36071 10.1251 7.11407C10.1251 6.86743 9.9266 6.66748 9.68171 6.66748C9.43681 6.66748 9.23828 6.86743 9.23828 7.11407C9.23828 7.36071 9.43681 7.56066 9.68171 7.56066Z" fill="white"/>
<path d="M15.1365 8.80084C14.6064 8.26023 13.8695 7.92781 13.0527 7.92781V4.92592C13.0527 4.77146 12.9227 4.64386 12.7726 4.64386C12.6226 4.64386 12.5026 4.76474 12.4959 4.91249H9.56198C9.55531 4.76138 9.43195 4.64386 9.28525 4.64386C9.13522 4.64386 9.0152 4.76474 9.00853 4.91249H7.93497C7.93831 4.46254 7.97165 3.96894 7.99165 3.49213H8.43508C8.7118 3.49213 8.93518 3.26716 8.93518 2.98846V2.52508H10.9223C11.2357 2.52508 11.489 2.26988 11.489 1.95425V0.570829C11.489 0.255194 11.2357 0 10.9223 0H3.94081C3.62742 0 3.37403 0.255194 3.37403 0.570829V1.95761C3.37403 2.11542 3.43738 2.25645 3.54073 2.36055H1.40696C1.29027 2.10535 1.03688 1.92403 0.740153 1.92403C0.330068 1.92403 0 2.25645 0 2.66611C0 2.97838 0.193373 3.24701 0.466763 3.35782V6.77608C0.193373 6.88688 0 7.15215 0 7.46778C0 7.87744 0.330068 8.20986 0.736819 8.20986C0.92019 8.20986 1.08689 8.13935 1.21692 8.02518L2.02375 8.64302V11.5274C2.02375 11.6818 2.15044 11.8094 2.30381 11.8094C2.45051 11.8094 2.57387 11.6886 2.58053 11.5408H5.51447C5.52114 11.6919 5.64117 11.8094 5.7912 11.8094C5.93789 11.8094 6.06125 11.6886 6.06792 11.5408H9.00186C9.00853 11.6919 9.12855 11.8094 9.27858 11.8094C9.42528 11.8094 9.54864 11.6886 9.55531 11.5408H12.4892C12.4959 11.6919 12.6159 11.8094 12.766 11.8094C12.916 11.8094 13.046 11.6852 13.046 11.5274V15.5568C13.046 15.8019 13.2427 16 13.4861 16H14.5963L14.5463 12.4038C14.543 12.2258 14.533 12.0546 14.4863 11.8934C14.3996 11.571 14.2063 11.289 13.9429 11.0942C13.6862 10.9028 13.3661 10.8055 13.0494 10.8155V10.3018C13.4795 10.3152 13.8929 10.473 14.2163 10.7484C14.5363 11.0204 14.7631 11.3964 14.8464 11.8027C14.8897 12.0076 14.8897 12.2191 14.8797 12.4071L14.8631 12.9645L14.8297 16H15.2532L15.2031 11.7456C15.2031 11.4938 15.1931 11.252 15.1298 11.017C15.0064 10.5536 14.7297 10.144 14.3496 9.85519C13.9796 9.57314 13.5195 9.42539 13.0527 9.43547V8.92172C13.6295 8.93515 14.1863 9.14334 14.6197 9.50934C15.0598 9.87534 15.3665 10.3757 15.4832 10.9263C15.5499 11.1983 15.5432 11.4938 15.5332 11.7456L15.5165 12.5213L15.4832 15.9966H15.5599C15.8033 15.9966 16 15.7985 16 15.5534V10.8961C16.0033 10.0802 15.6732 9.33473 15.1365 8.80084ZM8.60511 2.98846C8.60511 3.08583 8.52843 3.16306 8.43174 3.16306H6.428C6.33131 3.16306 6.25463 3.08583 6.25463 2.98846V2.52508H8.60511V2.98846ZM10.9223 2.19601H8.77848C8.77515 2.19601 8.77181 2.19265 8.76848 2.19265C8.76515 2.19265 8.76181 2.19265 8.75848 2.19601H6.10126C6.09793 2.19601 6.09459 2.19265 6.09126 2.19265C6.08792 2.19265 6.08459 2.19265 6.08126 2.19601H3.93748C3.80745 2.19601 3.70076 2.08856 3.70076 1.95761V1.16516H11.159V1.95761C11.159 2.08856 11.0523 2.19601 10.9223 2.19601ZM3.94081 0.332424H10.9223C11.0523 0.332424 11.159 0.439874 11.159 0.570829V0.832739H3.70076V0.570829C3.70076 0.439874 3.80745 0.332424 3.94081 0.332424ZM0.326734 2.66611C0.326734 2.43778 0.510105 2.2531 0.736819 2.2531C0.963533 2.2531 1.14357 2.43778 1.14357 2.66611C1.14357 2.89444 0.960199 3.07912 0.736819 3.07912C0.513439 3.08248 0.326734 2.89444 0.326734 2.66611ZM0.740153 7.8808C0.510105 7.8808 0.330068 7.69947 0.330068 7.46778C0.330068 7.23945 0.513439 7.05477 0.740153 7.05477C0.963532 7.05477 1.1469 7.23945 1.1469 7.46778C1.1469 7.69612 0.963532 7.8808 0.740153 7.8808ZM1.42363 7.20588C1.35028 7.01112 1.20025 6.8533 1.00687 6.77608V3.35782C1.20692 3.27723 1.36362 3.10934 1.43363 2.90115H5.92789V2.98846C5.92789 3.26716 6.15127 3.49213 6.428 3.49213H6.86809C6.89476 3.95887 6.90476 4.41889 6.94143 4.91249H6.07125C6.06459 4.76138 5.94123 4.64386 5.79453 4.64386C5.6445 4.64386 5.52448 4.76474 5.51781 4.91249H2.58387C2.5772 4.76138 2.45384 4.64386 2.30714 4.64386C2.15378 4.64386 2.02709 4.77146 2.02709 4.92592V7.20588H1.42363Z" fill="white"/>
</svg>
