<svg width="16" height="16" viewBox="0 0 16 16" fill="none" xmlns="http://www.w3.org/2000/svg">
<path fill-rule="evenodd" clip-rule="evenodd" d="M7.09934 5.2072C7.19347 5.10954 7.34632 5.10954 7.44045 5.2072C7.53458 5.30485 7.53458 5.46344 7.44045 5.56032L5.99091 7.065C5.89678 7.16265 5.74393 7.16265 5.6498 7.065C5.55567 6.96734 5.55567 6.80876 5.6498 6.7111L7.09934 5.2072ZM14.2778 7.4642H14.3787C14.6829 7.4642 14.9314 7.2056 14.9314 6.89076V5.35872C14.9314 5.0431 14.6829 4.78528 14.3787 4.78528H13.8259V7.46428L14.2778 7.4642ZM1.81394 7.4642H2.36666V4.7852H1.81394C1.50973 4.7852 1.26123 5.04302 1.26123 5.35864V6.89068C1.26123 7.20552 1.50973 7.4642 1.81394 7.4642ZM12.634 1.7876H3.55871C3.36369 1.7876 3.18597 1.87041 3.0572 2.004C2.92843 2.13759 2.84862 2.32118 2.84862 2.52432V11.7555L4.57678 13.5485C4.66262 13.6375 4.75599 13.7039 4.85614 13.7469C4.95629 13.7899 5.0685 13.8118 5.19048 13.8118H11.0016C11.1236 13.8118 11.235 13.7899 11.3359 13.7469C11.4368 13.7039 11.5302 13.6375 11.6153 13.5485L13.3434 11.7555V2.52432C13.3434 2.32198 13.2636 2.1376 13.1348 2.004C13.0068 1.8704 12.8298 1.7876 12.634 1.7876ZM4.71534 4.0938C4.41263 4.0938 4.16488 4.35084 4.16488 4.6649V8.7415C4.16488 9.05556 4.41263 9.3126 4.71534 9.3126H11.561C11.8637 9.3126 12.1115 9.05556 12.1115 8.7415V4.6649C12.1115 4.35006 11.8637 4.0938 11.561 4.0938H4.71534ZM4.17618 10.6126C4.37799 10.6126 4.54214 10.7829 4.54214 10.9923C4.54214 11.2024 4.37798 11.372 4.17618 11.372C3.97362 11.372 3.81022 11.2016 3.81022 10.9923C3.80947 10.7829 3.97363 10.6126 4.17618 10.6126ZM4.17618 2.4258C4.37799 2.4258 4.54214 2.59611 4.54214 2.80548C4.54214 3.01485 4.37798 3.18516 4.17618 3.18516C3.97362 3.18516 3.81022 3.01485 3.81022 2.80548C3.80947 2.5961 3.97363 2.4258 4.17618 2.4258ZM12.1008 10.6126C12.3034 10.6126 12.4668 10.7829 12.4668 10.9923C12.4668 11.2024 12.3026 11.372 12.1008 11.372C11.8982 11.372 11.7348 11.2016 11.7348 10.9923C11.7348 10.7829 11.8983 10.6126 12.1008 10.6126ZM11.7348 2.8064C11.7348 2.59624 11.899 2.42672 12.1008 2.42672C12.3034 2.42672 12.4668 2.59703 12.4668 2.8064C12.4668 3.01577 12.3026 3.18608 12.1008 3.18608C11.8982 3.18608 11.7348 3.01577 11.7348 2.8064ZM8.35904 5.3524L6.04887 7.7492C5.95475 7.84685 5.95475 8.00544 6.04887 8.1031C6.143 8.20075 6.29585 8.20075 6.38998 8.1031L8.70015 5.7063C8.79428 5.60864 8.79428 5.45006 8.70015 5.3524C8.60602 5.25474 8.45317 5.25474 8.35904 5.3524Z" fill="white"/>
</svg>
