<svg width="16" height="16" viewBox="0 0 16 16" fill="none" xmlns="http://www.w3.org/2000/svg">
<g clip-path="url(#clip0_193_480)">
<path d="M13.7246 3.36706C13.6851 3.40656 13.6547 3.45314 13.6334 3.50276C13.6122 3.55339 13.6021 3.60706 13.6021 3.66377C13.6021 3.77618 13.6456 3.88149 13.7246 3.96048C13.8036 4.03947 13.9089 4.08301 14.0213 4.08301C14.1337 4.08301 14.239 4.03947 14.318 3.96048C14.6056 3.67288 14.8922 3.03288 15.0542 2.63086C14.6522 2.79288 14.0122 3.07845 13.7246 3.36706Z" fill="white"/>
<path d="M10.39 2.31718C10.39 1.92933 10.1156 1.60528 9.75 1.52832V3.10705C10.1146 3.02908 10.39 2.70503 10.39 2.31718Z" fill="white"/>
<path d="M3.85118 3.10604V1.52832C3.48662 1.60528 3.21118 1.93035 3.21118 2.31718C3.21118 2.70503 3.48561 3.02908 3.85118 3.10604Z" fill="white"/>
<path d="M8.83441 0.222656H4.76656C4.4496 0.222656 4.19238 0.479871 4.19238 0.795821V5.12088C4.19238 6.12139 5.00656 6.93456 6.00605 6.93456H7.5939C8.59441 6.93456 9.40757 6.12038 9.40757 5.12088V0.795821C9.40859 0.479871 9.15036 0.222656 8.83441 0.222656ZM5.08859 5.73152C4.97922 5.73152 4.8901 5.6424 4.8901 5.53304C4.8901 5.42367 4.97922 5.33455 5.08859 5.33455C5.19795 5.33455 5.28707 5.42367 5.28707 5.53304C5.28605 5.6424 5.19795 5.73152 5.08859 5.73152ZM5.08859 1.12392C4.97922 1.12392 4.8901 1.03481 4.8901 0.925441C4.8901 0.816074 4.97922 0.72696 5.08859 0.72696C5.19795 0.72696 5.28707 0.816074 5.28707 0.925441C5.28707 1.03481 5.19795 1.12392 5.08859 1.12392ZM8.29264 3.29405H5.30833V1.96747H8.29365L8.29264 3.29405ZM8.51238 5.73152C8.40302 5.73152 8.3139 5.6424 8.3139 5.53304C8.3139 5.42367 8.40302 5.33455 8.51238 5.33455C8.62175 5.33455 8.71086 5.42367 8.71086 5.53304C8.71086 5.6424 8.62276 5.73152 8.51238 5.73152ZM8.51238 1.12392C8.40302 1.12392 8.3139 1.03481 8.3139 0.925441C8.3139 0.816074 8.40302 0.72696 8.51238 0.72696C8.62175 0.72696 8.71086 0.816074 8.71086 0.925441C8.71086 1.03481 8.62276 1.12392 8.51238 1.12392Z" fill="white"/>
<path d="M2.62475 8.64404V15.7772H0.946777V10.0466C0.946777 9.46733 1.33969 8.96506 1.90171 8.8243L2.62475 8.64404Z" fill="white"/>
<path d="M13.2506 7.854V15.2616C13.2506 15.5462 13.0197 15.777 12.7352 15.777C12.4506 15.777 12.2197 15.5462 12.2197 15.2616V7.854H13.2506Z" fill="white"/>
<path d="M11.8774 8.92759C11.7913 8.88303 11.6991 8.8486 11.6039 8.8243L10.8799 8.64404V15.7772H12.0505C11.9422 15.6334 11.8774 15.4552 11.8774 15.2618V8.92759Z" fill="white"/>
<path d="M10.5377 8.55905V15.7773H2.96704V8.55905L3.89767 8.32715V12.6198C3.89767 12.714 3.97362 12.7909 4.06881 12.7909H9.43793C9.5321 12.7909 9.60907 12.714 9.60907 12.6198V8.32715L10.5377 8.55905Z" fill="white"/>
<path d="M8.33311 8.27318C8.1883 7.91976 8.1002 7.56736 8.0688 7.22305C7.91589 7.25748 7.75691 7.27571 7.59387 7.27571H6.00703C5.82779 7.27571 5.65362 7.25343 5.48754 7.21191C5.45919 7.65951 5.33767 8.05748 5.23438 8.32381C5.65868 8.66812 6.18729 8.85748 6.75336 8.85748C7.34577 8.8585 7.89868 8.64989 8.33311 8.27318Z" fill="white"/>
<path d="M9.26585 8.24191V12.4485H4.23901V8.2409L4.58838 8.15381C4.84458 8.47786 5.15952 8.73406 5.52711 8.91533C5.90484 9.10166 6.32813 9.19988 6.75344 9.19988C7.17775 9.19988 7.60205 9.10166 7.97876 8.91533C8.34636 8.73406 8.66129 8.47786 8.91749 8.15381L9.26585 8.24191Z" fill="white"/>
<path d="M13.4379 4.41813C13.3559 4.37053 13.2516 4.39889 13.204 4.48091L12.5863 5.55332C12.5711 5.57965 12.563 5.60901 12.563 5.63838V7.5118H12.9053V5.68496L13.5007 4.65205C13.5483 4.57003 13.52 4.46572 13.4379 4.41813Z" fill="white"/>
</g>
<defs>
<clipPath id="clip0_193_480">
<rect width="16" height="16" fill="white"/>
</clipPath>
</defs>
</svg>
