<svg width="16" height="16" viewBox="0 0 16 16" fill="none" xmlns="http://www.w3.org/2000/svg">
<g clip-path="url(#clip0_193_452)">
<path d="M8.0004 14.8582C8.94729 14.8582 9.7149 14.0906 9.7149 13.1437C9.7149 12.1968 8.94729 11.4292 8.0004 11.4292C7.0535 11.4292 6.28589 12.1968 6.28589 13.1437C6.28589 14.0906 7.0535 14.8582 8.0004 14.8582Z" fill="white"/>
<path d="M8.00021 3.42816C8.31585 3.42816 8.57172 3.17229 8.57172 2.85666C8.57172 2.54103 8.31585 2.28516 8.00021 2.28516C7.68458 2.28516 7.42871 2.54103 7.42871 2.85666C7.42871 3.17229 7.68458 3.42816 8.00021 3.42816Z" fill="white"/>
<path fill-rule="evenodd" clip-rule="evenodd" d="M3.10183 12.2292C3.8917 12.4415 4.72155 12.0663 5.08392 11.333C5.44629 10.5998 5.24029 9.71269 4.59188 9.21416C3.94346 8.71566 3.03318 8.74456 2.41771 9.28322C1.80224 9.82189 1.65294 10.7203 2.06112 11.4291C2.2872 11.8241 2.66196 12.1122 3.10183 12.2292Z" fill="white"/>
<path d="M8.00032 8.85709C8.47377 8.85709 8.85757 8.47328 8.85757 7.99983C8.85757 7.52638 8.47377 7.14258 8.00032 7.14258C7.52687 7.14258 7.14307 7.52638 7.14307 7.99983C7.14307 8.47328 7.52687 8.85709 8.00032 8.85709Z" fill="white"/>
<path fill-rule="evenodd" clip-rule="evenodd" d="M2.68835 6.91426C3.50859 7.38685 4.55665 7.10527 5.02956 6.28519C5.50247 5.46511 5.22126 4.41697 4.40136 3.94374C3.58146 3.47052 2.53321 3.75136 2.0597 4.57108C1.82815 4.96419 1.76432 5.43387 1.88254 5.87452C2.00077 6.31519 2.29112 6.68985 2.68835 6.91426Z" fill="white"/>
<path fill-rule="evenodd" clip-rule="evenodd" d="M13.3122 9.08568C12.492 8.61308 11.4439 8.89466 10.971 9.71475C10.4981 10.5348 10.7793 11.583 11.5992 12.0562C12.4191 12.5294 13.4674 12.2486 13.9409 11.4288C14.1706 11.0353 14.2334 10.5662 14.1153 10.1261C13.9972 9.68598 13.7081 9.3114 13.3122 9.08568Z" fill="white"/>
<path fill-rule="evenodd" clip-rule="evenodd" d="M12.0108 7.08562C12.8006 7.29792 13.6305 6.92274 13.9929 6.18949C14.3552 5.45623 14.1492 4.56914 13.5008 4.07061C12.8524 3.5721 11.9421 3.601 11.3266 4.13967C10.7112 4.67833 10.5619 5.57672 10.9701 6.28548C11.1961 6.68056 11.5709 6.9687 12.0108 7.08562Z" fill="white"/>
<path d="M0.292866 10.1111C0.653691 11.4396 1.35292 12.6518 2.32229 13.6293C2.39537 13.6981 2.49994 13.7222 2.59575 13.6922C2.82418 13.6275 3.06045 13.5946 3.29785 13.5944C4.47154 13.5978 5.49361 14.3964 5.78076 15.5344C5.80238 15.6332 5.87607 15.7125 5.97306 15.7413C7.30257 16.0862 8.69809 16.0862 10.0276 15.7413C10.1245 15.7124 10.198 15.6331 10.2196 15.5344C10.3889 14.8623 10.8229 14.2873 11.4229 13.9403C12.0228 13.5933 12.7376 13.5038 13.4046 13.6922C13.5004 13.7222 13.605 13.6982 13.6781 13.6293C14.6472 12.6518 15.3462 11.4397 15.7069 10.1114C15.7284 10.0089 15.6934 9.90271 15.6152 9.83307C15.1246 9.34937 14.8484 8.6892 14.8484 8.00026C14.8484 7.31131 15.1246 6.65111 15.6152 6.16744C15.6933 6.0977 15.7282 5.99157 15.7067 5.88912C15.3461 4.56061 14.6472 3.34831 13.6781 2.37065C13.6051 2.30169 13.5005 2.27764 13.4046 2.30778C12.7384 2.49816 12.0234 2.40892 11.4244 2.06061C10.8223 1.7152 10.3872 1.13913 10.2196 0.46554C10.198 0.366685 10.1243 0.287438 10.0273 0.258668C8.69783 -0.0862228 7.3023 -0.0862228 5.9728 0.258668C5.87591 0.287543 5.80236 0.36679 5.78078 0.46554C5.61331 1.13902 5.1783 1.71501 4.57633 2.06032C3.97745 2.40926 3.2621 2.49864 2.59578 2.30778C2.5 2.2772 2.39513 2.30129 2.32231 2.37065C1.35321 3.3481 0.654163 4.56019 0.29347 5.88854C0.271971 5.99104 0.306962 6.09722 0.385185 6.16686C0.877546 6.64943 1.15385 7.31058 1.15127 7.99997C1.15364 8.68941 0.876994 9.3505 0.384319 9.83278C0.306227 9.9025 0.271368 10.0087 0.292866 10.1111ZM8.0002 15.4295C6.73765 15.4295 5.71419 14.406 5.71419 13.1435C5.71419 11.881 6.73768 10.8575 8.0002 10.8575C9.26272 10.8575 10.2862 11.881 10.2862 13.1435C10.2848 14.4054 9.26214 15.4281 8.0002 15.4295ZM6.57141 7.99994C6.57141 7.21086 7.21109 6.57118 8.00017 6.57118C8.78926 6.57118 9.42893 7.21086 9.42893 7.99994C9.42893 8.78902 8.78926 9.4287 8.00017 9.4287C7.21151 9.42778 6.57236 8.78863 6.57141 7.99994ZM14.4345 11.7147C14.1325 12.2409 13.6327 12.6245 13.0463 12.7803C12.8522 12.8319 12.6522 12.858 12.4514 12.8577C11.417 12.8562 10.5126 12.1603 10.246 11.1609C9.97935 10.1616 10.417 9.10764 11.3132 8.59113C12.2093 8.07462 13.3407 8.22419 14.0718 8.95587C14.8029 9.68752 14.9516 10.8189 14.4345 11.7147ZM11.3118 3.44847C12.1437 2.96808 13.1872 3.05911 13.9235 3.67627C14.6597 4.29342 14.9315 5.30504 14.6037 6.20808C14.276 7.11111 13.4186 7.7129 12.4579 7.71416C12.257 7.71403 12.057 7.68762 11.863 7.63557C10.9697 7.39636 10.3085 6.6425 10.1878 5.72564C10.0671 4.80874 10.5108 3.90949 11.3118 3.44729V3.44847ZM8.0002 0.57038C9.26274 0.57038 10.2862 1.59387 10.2862 2.85639C10.2862 4.11891 9.26272 5.1424 8.0002 5.1424C6.73768 5.1424 5.71419 4.11891 5.71419 2.85639C5.71558 1.59445 6.73823 0.571798 8.0002 0.57038ZM1.56588 4.28517C2.08342 3.38946 3.13796 2.95291 4.13717 3.22079C5.13638 3.48866 5.83118 4.39411 5.83129 5.4286C5.83139 6.46309 5.1368 7.36872 4.13767 7.63678C3.94351 7.68847 3.74338 7.7145 3.54244 7.71422C2.72674 7.71201 1.97393 7.27567 1.56657 6.56898C1.1592 5.86229 1.15897 4.99212 1.56588 4.28517ZM2.40259 8.59202C3.23451 8.11166 4.278 8.20266 5.01422 8.81976C5.75044 9.43686 6.0223 10.4484 5.69463 11.3515C5.36696 12.2545 4.50968 12.8563 3.54903 12.8577C3.34814 12.8576 3.14812 12.8312 2.95409 12.7791C2.06074 12.54 1.39946 11.7862 1.27872 10.8693C1.15797 9.95243 1.60158 9.05312 2.40259 8.59089V8.59202Z" fill="white"/>
<path d="M8.0004 4.57111C8.94729 4.57111 9.7149 3.80349 9.7149 2.8566C9.7149 1.9097 8.94729 1.14209 8.0004 1.14209C7.0535 1.14209 6.28589 1.9097 6.28589 2.8566C6.28681 3.8031 7.05387 4.57016 8.0004 4.57111ZM8.0004 1.71357C8.63167 1.71357 9.1434 2.2253 9.1434 2.85657C9.1434 3.48784 8.63167 3.99958 8.0004 3.99958C7.36912 3.99958 6.85739 3.48784 6.85739 2.85657C6.85739 2.2253 7.36912 1.71357 8.0004 1.71357Z" fill="white"/>
</g>
<defs>
<clipPath id="clip0_193_452">
<rect width="16" height="16" fill="white"/>
</clipPath>
</defs>
</svg>
