<svg width="14" height="16" viewBox="0 0 14 16" fill="none" xmlns="http://www.w3.org/2000/svg">
<path d="M12.8429 8.03682C12.7446 7.94711 12.6433 7.86599 12.5418 7.7869C12.3368 7.63105 12.1264 7.49112 11.9108 7.36647C11.4814 7.11609 11.0325 6.91703 10.5707 6.75728C10.1083 6.59816 9.63311 6.47803 9.13983 6.4097C8.89319 6.3746 8.64186 6.35495 8.38555 6.35042C8.29476 6.3498 8.20349 6.35167 8.11161 6.35495C8.08712 5.87664 7.74219 5.4818 7.28651 5.38258C7.31942 5.29771 7.35 5.21363 7.37839 5.12923C7.45827 4.88493 7.52223 4.64047 7.56981 4.39679C7.66653 3.90804 7.70756 3.41928 7.70865 2.93099C7.70928 2.44223 7.66762 1.95347 7.57153 1.46549C7.52394 1.22104 7.46045 0.976736 7.38027 0.732279C7.33799 0.610285 7.29493 0.487978 7.2422 0.365984C7.19072 0.244145 7.13487 0.121995 7.06233 0C6.98995 0.121995 6.93316 0.244145 6.88184 0.366296C6.82989 0.48829 6.78605 0.610441 6.74471 0.732591C6.66437 0.977048 6.60041 1.22135 6.55283 1.46581C6.45642 1.95425 6.41554 2.44254 6.41617 2.9313C6.41663 3.41943 6.45876 3.90819 6.55548 4.39711C6.60243 4.64125 6.6664 4.88586 6.74627 5.12954C6.77466 5.21394 6.80586 5.29849 6.83815 5.38289C6.38169 5.48211 6.03536 5.87914 6.01259 6.3601C6.00993 6.3601 6.00775 6.36009 6.0051 6.35963C5.87265 6.35027 5.7427 6.34871 5.61353 6.3498C5.35675 6.3537 5.1048 6.3732 4.85863 6.40846C4.36566 6.47725 3.89047 6.598 3.42871 6.75759C2.96725 6.91827 2.51843 7.11687 2.08926 7.36834C1.87335 7.49361 1.66353 7.63339 1.45901 7.78877C1.35683 7.86833 1.25511 7.94883 1.15714 8.0376C1.05761 8.12667 0.961515 8.21965 0.869629 8.32636C1.00847 8.35428 1.14248 8.36817 1.27461 8.37659C1.40706 8.38564 1.53654 8.3872 1.66509 8.38626C1.92234 8.38143 2.17444 8.36224 2.41999 8.32745C2.91358 8.25912 3.38861 8.13791 3.85069 7.97956C4.31246 7.82028 4.76097 7.62154 5.19092 7.37068C5.40683 7.24604 5.61696 7.1061 5.82148 6.95025C5.90448 6.88567 5.98653 6.81921 6.06734 6.74854C6.16126 7.02529 6.36812 7.24978 6.6327 7.36912L5.82991 16.0005H8.29569L7.4617 7.38332C7.71474 7.27942 7.91879 7.07927 8.02752 6.82826C8.07776 6.86945 8.12799 6.90938 8.17931 6.94869C8.38415 7.10407 8.59397 7.24448 8.80926 7.36912C9.23951 7.61998 9.6874 7.81826 10.1492 7.97972C10.6116 8.13978 11.0857 8.26053 11.5794 8.3287C11.8262 8.36411 12.0775 8.38377 12.3349 8.38798C12.4636 8.38861 12.5933 8.38751 12.7257 8.378C12.8582 8.36942 12.9922 8.35553 13.131 8.32667C13.0383 8.21825 12.9418 8.12449 12.8429 8.03682ZM7.0628 6.81594C6.83909 6.81594 6.65704 6.63388 6.65704 6.41033C6.65704 6.18662 6.83909 6.00519 7.0628 6.00519C7.28635 6.00519 7.4681 6.18678 7.4681 6.41033C7.46794 6.63326 7.2862 6.81594 7.0628 6.81594Z" fill="white"/>
</svg>
