<svg width="10" height="15" viewBox="0 0 10 15" fill="none" xmlns="http://www.w3.org/2000/svg">
<path fill-rule="evenodd" clip-rule="evenodd" d="M0.481428 1.3335C-1.70299e-07 2.09025 0 3.1425 0 5.25V9.75C0 11.8568 -1.70299e-07 12.9097 0.481428 13.6665C0.689936 13.9942 0.957897 14.2756 1.27 14.4945C1.99071 15 2.99286 15 5 15C7.00714 15 8.00929 15 8.73 14.4945C9.0421 14.2756 9.31006 13.9942 9.51857 13.6665C10 12.9097 10 11.8575 10 9.75V5.25C10 3.14325 10 2.09025 9.51857 1.3335C9.31006 1.00579 9.0421 0.724433 8.73 0.5055C8.00929 0 7.00714 0 5 0C2.99286 0 1.99071 0 1.27 0.5055C0.957897 0.724433 0.689936 1.00579 0.481428 1.3335ZM5 7.3125C4.64824 7.3125 4.29993 7.38525 3.97495 7.52659C3.64998 7.66793 3.35469 7.8751 3.10596 8.13626C2.85724 8.39743 2.65993 8.70747 2.52532 9.0487C2.39071 9.38993 2.32143 9.75566 2.32143 10.125C2.32143 10.4943 2.39071 10.8601 2.52532 11.2013C2.65993 11.5425 2.85724 11.8526 3.10596 12.1137C3.35469 12.3749 3.64998 12.5821 3.97495 12.7234C4.29993 12.8648 4.64824 12.9375 5 12.9375C5.7104 12.9375 6.39171 12.6412 6.89404 12.1137C7.39637 11.5863 7.67857 10.8709 7.67857 10.125C7.67857 9.37908 7.39637 8.66371 6.89404 8.13626C6.39171 7.60882 5.7104 7.3125 5 7.3125ZM4.28571 5.625C4.28571 5.82391 4.21046 6.01468 4.0765 6.15533C3.94255 6.29598 3.76087 6.375 3.57143 6.375C3.38199 6.375 3.20031 6.29598 3.06635 6.15533C2.9324 6.01468 2.85714 5.82391 2.85714 5.625C2.85714 5.42609 2.9324 5.23532 3.06635 5.09467C3.20031 4.95402 3.38199 4.875 3.57143 4.875C3.76087 4.875 3.94255 4.95402 4.0765 5.09467C4.21046 5.23532 4.28571 5.42609 4.28571 5.625ZM3.57143 3.75C3.76087 3.75 3.94255 3.67098 4.0765 3.53033C4.21046 3.38968 4.28571 3.19891 4.28571 3C4.28571 2.80109 4.21046 2.61032 4.0765 2.46967C3.94255 2.32902 3.76087 2.25 3.57143 2.25C3.38199 2.25 3.20031 2.32902 3.06635 2.46967C2.9324 2.61032 2.85714 2.80109 2.85714 3C2.85714 3.19891 2.9324 3.38968 3.06635 3.53033C3.20031 3.67098 3.38199 3.75 3.57143 3.75ZM7.14286 5.625C7.14286 5.82391 7.0676 6.01468 6.93365 6.15533C6.79969 6.29598 6.61801 6.375 6.42857 6.375C6.23913 6.375 6.05745 6.29598 5.9235 6.15533C5.78954 6.01468 5.71429 5.82391 5.71429 5.625C5.71429 5.42609 5.78954 5.23532 5.9235 5.09467C6.05745 4.95402 6.23913 4.875 6.42857 4.875C6.61801 4.875 6.79969 4.95402 6.93365 5.09467C7.0676 5.23532 7.14286 5.42609 7.14286 5.625ZM6.42857 3.75C6.61801 3.75 6.79969 3.67098 6.93365 3.53033C7.0676 3.38968 7.14286 3.19891 7.14286 3C7.14286 2.80109 7.0676 2.61032 6.93365 2.46967C6.79969 2.32902 6.61801 2.25 6.42857 2.25C6.23913 2.25 6.05745 2.32902 5.9235 2.46967C5.78954 2.61032 5.71429 2.80109 5.71429 3C5.71429 3.19891 5.78954 3.38968 5.9235 3.53033C6.05745 3.67098 6.23913 3.75 6.42857 3.75Z" fill="#4B2C5E"/>
</svg>
