<svg width="18" height="12" viewBox="0 0 18 12" fill="none" xmlns="http://www.w3.org/2000/svg">
<path d="M17.424 3.88617C17.424 3.88617 17.245 3.49715 17.0237 3.49715H14.9584C14.7371 3.49715 14.5573 3.67112 14.5573 3.88617V4.26391H13.9946C13.9946 3.891 13.9946 3.65743 13.9946 3.63407C13.9946 3.49715 13.847 3.50923 13.847 3.50923H12.5923C12.5923 1.59957 11.5994 1.60521 11.5994 1.60521H9.37999V0.956843H11.5994V0H4.23915V0.956843H6.65915V1.60521C6.65915 1.60521 5.42594 1.60521 4.43142 1.60521L3.0913 2.60071H2.05286C1.83158 2.60071 1.65256 2.77549 1.65256 2.99054V5.48816H0.984576V2.81979H0V9.51849H0.984576V6.76153H1.65256V9.34855C1.65256 9.5636 1.83158 9.73757 2.05286 9.73757H3.0913L6.35085 12C6.35085 12 12.2417 12 13.1683 12C14.0948 12 13.9946 11.234 13.9946 11.234C13.9946 11.234 13.9946 10.7693 13.9946 10.0702H14.5573V10.9296C14.5573 11.1446 14.7371 11.3194 14.9584 11.3194H17.0237C17.245 11.3194 17.424 10.9296 17.424 10.9296L18 9.29942V5.51634L17.424 3.88617ZM4.53833 7.66522C4.79193 7.66522 5.05051 7.61689 5.21792 7.54198L5.30328 7.85046C5.15079 7.91651 4.84415 7.99222 4.44717 7.99222C3.54381 7.99222 2.86008 7.45741 2.86008 6.48285C2.86008 5.55178 3.54381 4.92517 4.5433 4.92517C4.94028 4.92517 5.19886 5.00087 5.30826 5.05322L5.20797 5.36654C5.05051 5.29566 4.82591 5.2425 4.55739 5.2425C3.80239 5.2425 3.29932 5.68871 3.29932 6.46997C3.29932 7.19807 3.75432 7.66522 4.53833 7.66522ZM8.2164 7.94308H7.80036V6.5489H6.24145V7.94308H5.82043V4.96946H6.24145V6.21787H7.80036V4.96946H8.2164V7.94308ZM10.7557 7.94308H8.93826V4.96946H10.6836V5.28761H9.35927V6.23156H10.6074V6.5489H9.35927V7.62575H10.7557V7.94308ZM12.7788 7.66522C13.0324 7.66522 13.2901 7.61689 13.4575 7.54198L13.5437 7.85046C13.3904 7.91651 13.0846 7.99222 12.6876 7.99222C11.7834 7.99222 11.0997 7.45741 11.0997 6.48285C11.0997 5.55178 11.7834 4.92517 12.7837 4.92517C13.1807 4.92517 13.4385 5.00087 13.5487 5.05322L13.4484 5.36654C13.2901 5.29566 13.0655 5.2425 12.7978 5.2425C12.042 5.2425 11.5398 5.68871 11.5398 6.46997C11.5398 7.19807 11.9939 7.66522 12.7788 7.66522ZM15.8485 7.94308L14.7869 6.48285L14.4811 6.80985V7.94308H14.06V4.96946H14.4811V6.40311H14.4951C14.5813 6.28874 14.6667 6.18243 14.7487 6.08578L15.7333 4.96946H16.2455L15.0836 6.23156L16.3416 7.94308H15.8485Z" fill="#4B2C5E"/>
</svg>
