<svg width="15" height="15" viewBox="0 0 15 15" fill="none" xmlns="http://www.w3.org/2000/svg">
<path d="M7.08301 10.9258V12.457C7.16842 12.4791 7.30209 12.5 7.5 12.5C7.63993 12.5033 7.77969 12.4887 7.91602 12.457V10.833L8.75 10.208V15H0V12.5C0 10.9743 2.71624 9.88662 5.14648 9.41992L7.08301 10.9258ZM11.0703 8.1875C11.3111 7.9417 11.6455 8.1892 11.5723 8.52539L11.5615 8.57422C11.5241 8.74559 11.5252 8.92398 11.5654 9.09473C11.6057 9.26539 11.684 9.42494 11.7939 9.56152C11.9039 9.69805 12.0431 9.80806 12.2012 9.88379C12.3593 9.95951 12.5327 9.99899 12.708 9.99902C12.8834 9.99902 13.0566 9.95951 13.2148 9.88379C13.3729 9.80809 13.5121 9.69803 13.6221 9.56152C13.732 9.42496 13.8104 9.26536 13.8506 9.09473C13.8908 8.92398 13.892 8.74559 13.8545 8.57422L13.8438 8.52539C13.7706 8.18927 14.1049 7.94181 14.3457 8.1875C14.7658 8.61531 15.0009 9.19142 15 9.79102C15.0001 10.1795 14.9011 10.5615 14.7129 10.9014C14.5246 11.2413 14.2532 11.5283 13.9238 11.7344C13.8076 11.8069 13.75 11.9459 13.75 12.083V14.166C13.75 14.387 13.6621 14.5996 13.5059 14.7559C13.3497 14.9119 13.1378 14.9999 12.917 15H12.5C12.2792 15 12.0674 14.9119 11.9111 14.7559C11.7549 14.5996 11.667 14.387 11.667 14.166V12.083C11.667 11.9461 11.6092 11.8069 11.4932 11.7344C11.1637 11.5283 10.8914 11.2413 10.7031 10.9014C10.515 10.5616 10.4169 10.1794 10.417 9.79102C10.417 9.16705 10.666 8.60037 11.0703 8.1875ZM2.05273 11.2988C1.60952 11.5338 1.28523 11.7737 1.08105 11.999C0.88106 12.2207 0.833008 12.3846 0.833008 12.5V14.167H2.08301V11.2832L2.05273 11.2988ZM4.3125 10.4629C3.8393 10.5849 3.37334 10.7334 2.91699 10.9082V14.167H6.25V12.1582L3.53125 12.6113L4.3125 10.4629ZM3.35547 3.65234C3.58208 3.82772 3.89239 3.98639 4.25977 4.12012C4.99759 4.38967 6.03422 4.58297 7.28027 4.58301C8.95012 4.58301 10.1009 4.39397 10.8496 4.12109C11.2182 3.98614 11.5092 3.82443 11.7158 3.63867C11.952 3.86487 12.083 4.11339 12.083 4.375C12.083 4.87414 11.6065 5.32824 10.8291 5.66406C10.8319 5.71996 10.833 5.77628 10.833 5.83301C10.8326 6.27762 10.7433 6.71837 10.5703 7.12793C10.3973 7.53737 10.1436 7.90762 9.8252 8.21777C9.50675 8.52793 9.1297 8.77141 8.71582 8.93359C8.30186 9.09577 7.85949 9.17439 7.41504 9.16309C6.97067 9.15178 6.53305 9.05112 6.12793 8.86816C5.72274 8.68513 5.35797 8.4227 5.05566 8.09668C4.75338 7.77067 4.51915 7.38753 4.36719 6.96973C4.21526 6.55198 4.14871 6.10803 4.1709 5.66406C3.39342 5.32824 2.91699 4.87415 2.91699 4.375C2.91704 4.10425 3.05661 3.84725 3.30859 3.61523L3.35547 3.65234ZM9.99707 5.94727C9.27882 6.1389 8.4207 6.24999 7.5 6.25C6.57919 6.25 5.72027 6.13851 5.00195 5.94727C5.03073 6.5903 5.30725 7.19772 5.77246 7.64258C6.23765 8.08732 6.85641 8.33594 7.5 8.33594C8.14361 8.33589 8.76237 8.08739 9.22754 7.64258C9.69275 7.19772 9.96829 6.59029 9.99707 5.94727ZM7.91602 0C8.02652 0 8.1328 0.0439321 8.21094 0.12207C8.28901 0.200198 8.33301 0.306541 8.33301 0.416992V2.08301C8.33301 2.19351 8.37694 2.29979 8.45508 2.37793C8.5331 2.45588 8.63874 2.49989 8.74902 2.5C8.85949 2.5 8.96581 2.45602 9.04395 2.37793C9.12208 2.29979 9.16602 2.19351 9.16602 2.08301V0.961914C10.126 1.37399 10.8527 2.13079 11.1289 3.04492C11.0219 3.13154 10.843 3.23627 10.5645 3.33789C9.9428 3.56455 8.8994 3.75 7.28027 3.75C6.11414 3.75 5.17698 3.5687 4.54492 3.33789C4.23956 3.22666 4.02031 3.10835 3.88281 3.00586C4.16747 2.10939 4.88692 1.3681 5.83301 0.961914V2.08301C5.83301 2.19351 5.87694 2.29979 5.95508 2.37793C6.03309 2.45588 6.13874 2.49987 6.24902 2.5C6.35948 2.5 6.46582 2.456 6.54395 2.37793C6.62208 2.29979 6.66602 2.19351 6.66602 2.08301V0.416992C6.66602 0.306521 6.70999 0.200202 6.78809 0.12207C6.86622 0.0439321 6.9725 0 7.08301 0H7.91602Z" fill="#4B2C5E"/>
</svg>
