<svg width="20" height="18" viewBox="0 0 20 18" fill="none" xmlns="http://www.w3.org/2000/svg">
<path d="M9.61039 0V0.753488H10.3896V0H9.61039ZM3.09827 1.50698C3.08874 1.51619 3.06494 1.54256 3.03983 1.59698C2.98615 1.7146 2.94372 1.92558 2.94372 2.13488C2.94372 2.34419 2.98615 2.55349 3.03983 2.6707C3.06494 2.72512 3.08874 2.75442 3.09827 2.76279H16.9004C16.9091 2.75442 16.9351 2.72512 16.961 2.6707C17.013 2.55349 17.0563 2.34419 17.0563 2.13488C17.0563 1.92558 17.013 1.7146 16.961 1.59698C16.9351 1.54256 16.9091 1.51619 16.9004 1.50698H3.09827ZM9.00433 3.51628V4.77209H10.9957V3.51628H9.00433ZM6.23377 5.52558V6.7814H13.7662V5.52558H6.23377ZM7.61905 7.53488V15.4884H12.381V7.53488H7.61905ZM0 8.87442V12.7256H6.83983V8.87442H0ZM13.1602 8.87442V12.7256H20V8.87442H13.1602ZM10 9.16744C10 9.16744 11.671 11.4823 11.342 12.6837C11.1991 13.2195 10.6277 13.8558 10 13.8558C9.36797 13.8558 8.80087 13.2195 8.65801 12.6837C8.329 11.4823 10 9.16744 10 9.16744ZM0 13.4791V14.1488H6.83983V13.4791H0ZM13.1602 13.4791V14.1488H20V13.4791H13.1602ZM8.4632 16.2419L8.94805 17.6526C9.20779 17.8702 9.5974 18 10 18C10.4026 18 10.7922 17.8702 11.0519 17.6526L11.5368 16.2419H8.4632Z" fill="#4B2C5E"/>
</svg>
