<svg width="15" height="15" viewBox="0 0 15 15" fill="none" xmlns="http://www.w3.org/2000/svg">
<path d="M1.5 8.9502C2.05211 8.95041 2.5 9.39804 2.5 9.9502V12.2002H4.75L4.85254 12.2051C5.35645 12.2566 5.75 12.6827 5.75 13.2002C5.7497 13.7175 5.35632 14.1438 4.85254 14.1953L4.75 14.2002H2.15039C1.71302 14.2002 1.29279 14.0259 0.983398 13.7168C0.712693 13.4461 0.545358 13.0905 0.507812 12.7129L0.5 12.5498V9.9502C0.5 9.39791 0.947715 8.9502 1.5 8.9502ZM13.2002 8.9502C13.7522 8.95051 14.2002 9.39811 14.2002 9.9502V12.5498C14.2001 12.9873 14.0261 13.4075 13.7168 13.7168C13.4075 14.0261 12.9873 14.2001 12.5498 14.2002H9.9502C9.39811 14.2002 8.95051 13.7522 8.9502 13.2002C8.9502 12.6479 9.39791 12.2002 9.9502 12.2002H12.2002V9.9502C12.2002 9.39791 12.6479 8.9502 13.2002 8.9502ZM7.34961 2.69922C7.76369 2.69922 8.0994 3.03518 8.09961 3.44922V4.64941H8.97461L9.05176 4.65332C9.42966 4.69194 9.72451 5.01134 9.72461 5.39941V9.2998C9.7244 9.71384 9.38869 10.0498 8.97461 10.0498H8.09961V11.249C8.09961 11.6632 7.76382 11.999 7.34961 11.999C6.9354 11.999 6.59961 11.6632 6.59961 11.249V10.0498H5.72461C5.31053 10.0498 4.97482 9.71384 4.97461 9.2998V5.39941L4.97852 5.32227C5.01723 4.94439 5.33651 4.64941 5.72461 4.64941H6.59961V3.44922C6.59982 3.03518 6.93553 2.69922 7.34961 2.69922ZM4.75 0.5C5.3021 0.500211 5.75 0.947846 5.75 1.5C5.74979 2.05198 5.30198 2.49979 4.75 2.5H2.5V4.75C2.49979 5.30198 2.05198 5.74979 1.5 5.75C0.947846 5.75 0.500211 5.3021 0.5 4.75V2.15039C0.5 1.71278 0.673963 1.29283 0.983398 0.983398L1.10449 0.874023C1.39811 0.633443 1.76748 0.5 2.15039 0.5H4.75ZM12.7129 0.507812C13.0367 0.540001 13.3441 0.667779 13.5957 0.874023L13.7168 0.983398L13.8262 1.10449C14.0665 1.39803 14.2002 1.76769 14.2002 2.15039V4.75C14.2 5.30191 13.7521 5.74968 13.2002 5.75C12.648 5.75 12.2004 5.3021 12.2002 4.75V2.5H9.9502C9.39804 2.5 8.95041 2.05211 8.9502 1.5C8.9502 0.947715 9.39791 0.5 9.9502 0.5H12.5498L12.7129 0.507812Z" fill="#4B2C5E"/>
</svg>
