<svg width="13" height="13" viewBox="0 0 13 13" fill="none" xmlns="http://www.w3.org/2000/svg">
<path d="M1.08744 0L0 12.8788H13L11.9119 0H1.08744ZM2.18272 2.28139H10.8166V4.04762H11.9582V8.24242H10.8166V10.0087H2.18272V2.28139ZM2.82491 2.94372V9.34632H10.1744V8.24242H9.60355V4.04762H10.1744V2.94372H2.82491ZM3.89522 3.53247H9.10407V7.65368H3.89522V3.53247ZM6.54246 3.92619C6.31056 4.73571 5.66837 5.53052 6.05725 6.35844C5.4222 6.00887 5.33657 5.43485 5.22241 4.8645C5.14392 5.43485 4.89061 5.99784 4.9798 6.53506C4.75504 6.3658 4.56595 6.13398 4.33048 5.87273C4.58022 6.91039 4.61233 7.19004 5.46501 7.24892H7.30238C8.44761 7.11645 8.25852 6.46515 8.76514 5.84329C8.31204 5.85801 8.09084 6.00887 7.84467 6.29589C8.21214 5.60779 7.79115 5.60043 7.74834 5.03377C7.56639 5.39437 7.1454 5.79545 6.91707 5.71818C6.61381 5.62251 6.58527 4.58853 6.54246 3.92619ZM10.2457 4.70996V7.58009H11.316V4.70996H10.2457ZM3.89522 10.855H4.53741V12.0325H3.89522V10.855ZM6.17855 10.855H6.82074V12.0325H6.17855V10.855ZM8.46188 10.855H9.10407V12.0325H8.46188V10.855Z" fill="#4B2C5E"/>
</svg>
