<svg width="32" height="32" viewBox="0 0 32 32" fill="none" xmlns="http://www.w3.org/2000/svg">
<path d="M29 9V23C29 23.7956 28.6839 24.5587 28.1213 25.1213C27.5587 25.6839 26.7957 26 26 26H6C5.20435 26 4.44129 25.6839 3.87868 25.1213C3.31607 24.5587 3 23.7956 3 23V9M29 9C29 8.20435 28.6839 7.44129 28.1213 6.87868C27.5587 6.31607 26.7957 6 26 6H6C5.20435 6 4.44129 6.31607 3.87868 6.87868C3.31607 7.44129 3 8.20435 3 9M29 9V9.324C29.0001 9.83619 28.869 10.3399 28.6192 10.7871C28.3695 11.2342 28.0094 11.61 27.5733 11.8787L17.5733 18.032C17.1003 18.3234 16.5556 18.4777 16 18.4777C15.4444 18.4777 14.8997 18.3234 14.4267 18.032L4.42667 11.88C3.99056 11.6114 3.63049 11.2356 3.38076 10.7884C3.13102 10.3412 2.99994 9.83753 3 9.32533V9" stroke="#4B2C5E" stroke-width="2" stroke-linecap="round" stroke-linejoin="round"/>
</svg>
