<svg width="34" height="34" viewBox="0 0 34 34" fill="none" xmlns="http://www.w3.org/2000/svg">
<path d="M18.6465 1.70527C19.1935 1.25907 20.0007 1.2913 20.5107 1.80097C21.0546 2.345 21.0547 3.22772 20.5107 3.77168L20.1035 4.17793L29.2783 13.3518L29.6855 12.9455L29.791 12.8498C30.338 12.4036 31.1452 12.4358 31.6553 12.9455C32.1991 13.4895 32.1992 14.3722 31.6553 14.9162L25.5303 21.0402C25.5592 21.4304 25.4254 21.8307 25.127 22.1291C24.8287 22.4273 24.429 22.5601 24.0391 22.5314L23.2979 23.2736L23.1914 23.3693C22.6443 23.8154 21.8371 23.7834 21.3271 23.2736C20.7836 22.7297 20.7835 21.8478 21.3271 21.3039L21.8291 20.801L20.3164 19.2893L10.0635 29.5422C8.36329 31.2422 5.61425 31.2422 3.91406 29.5422L3.91504 29.5412C3.51154 29.1379 3.19024 28.66 2.97168 28.133C2.78029 27.6713 2.67007 27.1799 2.64551 26.6818L2.64062 26.468C2.64064 25.897 2.75306 25.3314 2.97168 24.8039C3.19041 24.2763 3.51095 23.7964 3.91504 23.3928L14.167 13.1398L12.6543 11.6271L12.1533 12.1291L12.0469 12.2248C11.4998 12.6709 10.6926 12.6389 10.1826 12.1291C9.63906 11.5851 9.639 10.7033 10.1826 10.1594L18.541 1.80097L18.6465 1.70527ZM5.88379 25.3645C5.7389 25.5092 5.62339 25.6811 5.54492 25.8703C5.46648 26.0596 5.4258 26.2631 5.42578 26.468L5.43359 26.6213C5.44866 26.7737 5.48607 26.9237 5.54492 27.0656C5.62345 27.2549 5.73877 27.4276 5.88379 27.5725H5.88477L6.00391 27.6799C6.6187 28.1818 7.51988 28.1462 8.09375 27.5725L18.3467 17.3186L16.1377 15.1096L5.88379 25.3645ZM14.625 9.65644L23.7988 18.8312L27.3076 15.3215L18.1328 6.14765L14.625 9.65644Z" fill="#C49A6C"/>
</svg>
