<svg width="34" height="33" viewBox="0 0 34 33" fill="none" xmlns="http://www.w3.org/2000/svg">
<path d="M26.9627 18.9192C29.0383 16.9462 31.1418 14.5813 31.1418 11.4867C31.1418 9.51546 30.3346 7.62498 28.8977 6.23112C27.4609 4.83726 25.5121 4.0542 23.4801 4.0542C21.0284 4.0542 19.3011 4.72988 17.2115 6.75692C15.122 4.72988 13.3946 4.0542 10.9429 4.0542C8.9109 4.0542 6.96213 4.83726 5.52529 6.23112C4.08846 7.62498 3.28125 9.51546 3.28125 11.4867C3.28125 14.5948 5.37079 16.9597 7.46033 18.9192L17.2115 28.3787L26.9627 18.9192Z" stroke="#C49A6C" stroke-width="2.78605" stroke-linecap="round" stroke-linejoin="round"/>
<path d="M17.2118 6.75684L13.0885 10.7569C12.8055 11.0294 12.5808 11.3537 12.4275 11.7108C12.2742 12.068 12.1953 12.4511 12.1953 12.838C12.1953 13.2248 12.2742 13.6079 12.4275 13.9651C12.5808 14.3223 12.8055 14.6465 13.0885 14.919C14.2308 16.0272 16.0556 16.0677 17.2676 15.0136L20.1511 12.4461C20.8739 11.8098 21.8149 11.4574 22.7909 11.4574C23.7669 11.4574 24.7079 11.8098 25.4307 12.4461L29.5541 16.0407" stroke="#C49A6C" stroke-width="2.78605" stroke-linecap="round" stroke-linejoin="round"/>
<path d="M25.5712 20.2706L22.7852 17.5679" stroke="#C49A6C" stroke-width="2.78605" stroke-linecap="round" stroke-linejoin="round"/>
<path d="M21.3915 24.3243L18.6055 21.6216" stroke="#C49A6C" stroke-width="2.78605" stroke-linecap="round" stroke-linejoin="round"/>
</svg>
