<svg width="29" height="29" viewBox="0 0 29 29" fill="none" xmlns="http://www.w3.org/2000/svg">
<path d="M0.0839844 14.0833C0.0839844 6.30532 6.38931 0 14.1673 0C21.9453 0 28.2507 6.30532 28.2507 14.0833C28.2507 21.8613 21.9453 28.1667 14.1673 28.1667C6.38931 28.1667 0.0839844 21.8613 0.0839844 14.0833Z" fill="#C49A6C"/>
<path d="M15.1921 9.97711V15.3889C15.5836 15.615 15.8896 15.9639 16.0626 16.3816C16.2356 16.7993 16.266 17.2624 16.149 17.6991C16.032 18.1359 15.7741 18.5218 15.4154 18.797C15.0567 19.0722 14.6173 19.2214 14.1651 19.2214C13.713 19.2214 13.2736 19.0722 12.9149 18.797C12.5562 18.5218 12.2983 18.1359 12.1813 17.6991C12.0643 17.2624 12.0946 16.7993 12.2677 16.3816C12.4407 15.9639 12.7467 15.615 13.1382 15.3889V9.97711C13.1382 9.70475 13.2464 9.44355 13.439 9.25097C13.6316 9.05839 13.8928 8.9502 14.1651 8.9502C14.4375 8.9502 14.6987 9.05839 14.8913 9.25097C15.0839 9.44355 15.1921 9.70475 15.1921 9.97711Z" stroke="#FAF3EC" stroke-width="1.02691" stroke-linecap="round" stroke-linejoin="round"/>
</svg>
