<svg width="13" height="14" viewBox="0 0 13 14" fill="none" xmlns="http://www.w3.org/2000/svg">
<path d="M4.3674 8.36762C4.70785 8.36762 5.03434 8.23238 5.27507 7.99165C5.5158 7.75092 5.65104 7.42443 5.65104 7.08398C5.65104 6.37542 5.39431 6.05707 5.13759 5.54362C4.58716 4.44329 5.02257 3.46207 6.1645 2.46289C6.42122 3.74653 7.19141 4.97882 8.21832 5.80035C9.24522 6.62187 9.75868 7.59744 9.75868 8.62435C9.75868 9.09634 9.66571 9.56372 9.48509 9.99978C9.30446 10.4358 9.03972 10.8321 8.70597 11.1658C8.37222 11.4996 7.976 11.7643 7.53993 11.9449C7.10386 12.1256 6.63649 12.2185 6.1645 12.2185C5.6925 12.2185 5.22513 12.1256 4.78906 11.9449C4.35299 11.7643 3.95678 11.4996 3.62302 11.1658C3.28927 10.8321 3.02453 10.4358 2.8439 9.99978C2.66328 9.56372 2.57031 9.09634 2.57031 8.62435C2.57031 8.03234 2.79264 7.44648 3.08377 7.08398C3.08377 7.42443 3.21901 7.75092 3.45974 7.99165C3.70046 8.23238 4.02696 8.36762 4.3674 8.36762Z" stroke="#FAF3EC" stroke-width="1.02691" stroke-linecap="round" stroke-linejoin="round"/>
</svg>
