<svg width="29" height="29" viewBox="0 0 29 29" fill="none" xmlns="http://www.w3.org/2000/svg">
<path d="M0.0839844 14.0833C0.0839844 6.30532 6.38931 0 14.1673 0C21.9453 0 28.2507 6.30532 28.2507 14.0833C28.2507 21.8613 21.9453 28.1667 14.1673 28.1667C6.38931 28.1667 0.0839844 21.8613 0.0839844 14.0833Z" fill="#C49A6C"/>
<path d="M14.2802 8.9502H14.0543C13.7819 8.9502 13.5207 9.05839 13.3281 9.25097C13.1356 9.44355 13.0274 9.70475 13.0274 9.97711V10.0695C13.0272 10.2496 12.9796 10.4265 12.8895 10.5824C12.7994 10.7383 12.6699 10.8678 12.5139 10.9578L12.2931 11.0862C12.137 11.1763 11.9599 11.2237 11.7797 11.2237C11.5994 11.2237 11.4223 11.1763 11.2662 11.0862L11.1892 11.0451C10.9535 10.9092 10.6736 10.8723 10.4108 10.9426C10.148 11.0128 9.92381 11.1845 9.78746 11.4199L9.6745 11.615C9.53857 11.8507 9.50169 12.1306 9.57197 12.3934C9.64224 12.6562 9.81392 12.8804 10.0493 13.0168L10.1263 13.0681C10.2815 13.1577 10.4106 13.2864 10.5007 13.4413C10.5908 13.5962 10.6387 13.772 10.6398 13.9512V14.2131C10.6405 14.3941 10.5934 14.572 10.5032 14.7289C10.4131 14.8858 10.2831 15.016 10.1263 15.1065L10.0493 15.1527C9.81392 15.2891 9.64224 15.5133 9.57197 15.7761C9.50169 16.0389 9.53857 16.3188 9.6745 16.5545L9.78746 16.7496C9.92381 16.985 10.148 17.1567 10.4108 17.2269C10.6736 17.2972 10.9535 17.2603 11.1892 17.1244L11.2662 17.0833C11.4223 16.9932 11.5994 16.9457 11.7797 16.9457C11.9599 16.9457 12.137 16.9932 12.2931 17.0833L12.5139 17.2117C12.6699 17.3017 12.7994 17.4312 12.8895 17.5871C12.9796 17.743 13.0272 17.9199 13.0274 18.1V18.1924C13.0274 18.4647 13.1356 18.7259 13.3281 18.9185C13.5207 19.1111 13.7819 19.2193 14.0543 19.2193H14.2802C14.5525 19.2193 14.8137 19.1111 15.0063 18.9185C15.1989 18.7259 15.3071 18.4647 15.3071 18.1924V18.1C15.3073 17.9199 15.3548 17.743 15.4449 17.5871C15.5351 17.4312 15.6646 17.3017 15.8206 17.2117L16.0413 17.0833C16.1974 16.9932 16.3745 16.9457 16.5548 16.9457C16.7351 16.9457 16.9121 16.9932 17.0682 17.0833L17.1453 17.1244C17.3809 17.2603 17.6609 17.2972 17.9237 17.2269C18.1865 17.1567 18.4107 16.985 18.547 16.7496L18.66 16.5493C18.7959 16.3137 18.8328 16.0337 18.7625 15.7709C18.6922 15.5081 18.5205 15.2839 18.2851 15.1476L18.2081 15.1065C18.0514 15.016 17.9214 14.8858 17.8312 14.7289C17.7411 14.572 17.6939 14.3941 17.6947 14.2131V13.9564C17.6939 13.7754 17.7411 13.5975 17.8312 13.4406C17.9214 13.2837 18.0514 13.1534 18.2081 13.063L18.2851 13.0168C18.5205 12.8804 18.6922 12.6562 18.7625 12.3934C18.8328 12.1306 18.7959 11.8507 18.66 11.615L18.547 11.4199C18.4107 11.1845 18.1865 11.0128 17.9237 10.9426C17.6609 10.8723 17.3809 10.9092 17.1453 11.0451L17.0682 11.0862C16.9121 11.1763 16.7351 11.2237 16.5548 11.2237C16.3745 11.2237 16.1974 11.1763 16.0413 11.0862L15.8206 10.9578C15.6646 10.8678 15.5351 10.7383 15.4449 10.5824C15.3548 10.4265 15.3073 10.2496 15.3071 10.0695V9.97711C15.3071 9.70475 15.1989 9.44355 15.0063 9.25097C14.8137 9.05839 14.5525 8.9502 14.2802 8.9502Z" stroke="#FAF3EC" stroke-width="1.02691" stroke-linecap="round" stroke-linejoin="round"/>
<path d="M14.1673 15.6237C15.018 15.6237 15.7077 14.9341 15.7077 14.0833C15.7077 13.2326 15.018 12.543 14.1673 12.543C13.3166 12.543 12.627 13.2326 12.627 14.0833C12.627 14.9341 13.3166 15.6237 14.1673 15.6237Z" stroke="#FAF3EC" stroke-width="1.02691" stroke-linecap="round" stroke-linejoin="round"/>
</svg>
