<svg width="21" height="19" viewBox="0 0 21 19" fill="none" xmlns="http://www.w3.org/2000/svg">
<path d="M6.32031 0.44043C9.55871 -0.602801 13.1234 0.244503 15.5576 2.5918L16.5137 1.63574C16.644 1.50537 16.8393 1.50544 16.9697 1.63574C20.3603 4.96108 21.1866 10.047 19.0566 14.2852C18.6002 15.1328 18.0563 15.9371 17.4043 16.6543C17.3392 16.7192 17.2527 16.7626 17.166 16.7627C17.0791 16.7627 16.9919 16.7409 16.9268 16.6758L15.7529 15.502C14.7097 16.5669 13.4275 17.3932 11.9932 17.8496C11.0586 18.1539 10.1018 18.3057 9.14551 18.3057C7.71111 18.3056 6.29814 17.9794 4.99414 17.3057C2.82101 16.1972 1.19111 14.3067 0.452148 11.9814C-1.11272 7.17817 1.51704 2.0053 6.32031 0.44043ZM15.0791 3.07031C12.8405 0.896886 9.51495 0.0922705 6.51562 1.07031C2.0603 2.50478 -0.395384 7.32977 1.06055 11.7852C1.75604 13.9368 3.27779 15.6982 5.27734 16.7197C7.32017 17.7627 9.62393 17.9366 11.7754 17.2412C13.1229 16.8065 14.3186 16.0457 15.3184 15.0459L14.6445 14.3721C14.5141 14.2634 14.5144 14.0679 14.623 13.9375C14.9925 13.5028 15.3183 13.0243 15.5791 12.5244C16.97 9.80765 16.4481 6.52543 14.2529 4.39551C14.188 4.33044 14.1447 4.24387 14.1445 4.15723C14.1445 4.07035 14.1663 3.98316 14.2314 3.91797L15.0791 3.07031ZM14.9268 4.13477C17.1218 6.48193 17.6221 9.91609 16.1445 12.8066C15.9055 13.2847 15.6228 13.7199 15.2969 14.1328L17.1221 15.959C17.6437 15.3504 18.0788 14.6977 18.4482 13.9805C20.4258 10.1119 19.7303 5.46095 16.7529 2.30957L14.9268 4.13477ZM7.16699 3.02637C8.79704 2.48302 10.536 2.63581 12.0791 3.39648C13.6005 4.17892 14.7528 5.52618 15.2744 7.15625C15.8177 8.80804 15.6867 10.5467 14.9043 12.0898C14.1219 13.6112 12.7746 14.7635 11.1445 15.2852C10.4926 15.5024 9.81891 15.6113 9.16699 15.6113C6.45021 15.6113 3.92919 13.8721 3.03809 11.1553C1.92967 7.76481 3.7766 4.13491 7.16699 3.02637ZM9.16699 3.37402C8.5585 3.37402 7.95004 3.46167 7.36328 3.65723C4.32048 4.657 2.66844 7.91716 3.64648 10.96C4.64634 14.0026 7.90651 15.6547 10.9492 14.6768C12.4054 14.1986 13.6229 13.1544 14.3184 11.7852C15.0135 10.4162 15.1439 8.85161 14.666 7.37402C14.1879 5.89614 13.1661 4.70039 11.7969 4.00488C10.971 3.59194 10.0581 3.37403 9.16699 3.37402ZM10.8193 11.459C11.3408 11.09 12.0575 11.1986 12.4053 11.7197C12.7747 12.2413 12.6444 12.9586 12.1445 13.3281C11.9489 13.4803 11.7098 13.5459 11.4707 13.5459C11.4272 13.5458 11.3619 13.5244 11.2969 13.5244C10.9927 13.4809 10.7324 13.3064 10.5586 13.0674C10.1891 12.5458 10.2977 11.8285 10.8193 11.459ZM6.62402 11.2637C6.9283 11.1985 7.2326 11.2861 7.47168 11.46C7.73231 11.6337 7.88416 11.9159 7.92773 12.1982C7.99292 12.5024 7.9062 12.8069 7.73242 13.0459C7.55855 13.285 7.29744 13.4595 6.99316 13.5029C6.9497 13.5244 6.88432 13.5244 6.81934 13.5244C6.5804 13.5243 6.341 13.4597 6.14551 13.3076C5.90652 13.1338 5.73295 12.8725 5.68945 12.5684C5.62428 12.2642 5.71104 11.9597 5.88477 11.7207C6.05863 11.4816 6.31977 11.3072 6.62402 11.2637ZM6.79785 11.8945C6.64589 11.8946 6.49417 11.9597 6.40723 12.0898C6.2551 12.3072 6.29834 12.633 6.51562 12.7852C6.62426 12.8721 6.7544 12.8938 6.88477 12.8721C7.01517 12.8503 7.124 12.7854 7.21094 12.6768C7.36304 12.4594 7.31914 12.1553 7.08008 11.9814C6.99323 11.9164 6.90641 11.8945 6.79785 11.8945ZM11.4932 11.8936C11.4063 11.8936 11.2969 11.9153 11.21 11.9805C10.9926 12.1543 10.9494 12.4594 11.1016 12.6768C11.1885 12.7853 11.2974 12.8504 11.4277 12.8721C11.558 12.8937 11.6883 12.872 11.7969 12.7852C12.0142 12.633 12.0576 12.3072 11.8838 12.0898C11.7969 11.9596 11.6451 11.8937 11.4932 11.8936ZM9.14551 7.17773C10.2319 7.17798 11.1228 8.06891 11.123 9.15527C11.123 10.2418 10.232 11.1335 9.14551 11.1338C8.05879 11.1338 7.16699 10.242 7.16699 9.15527C7.16723 8.06876 8.05894 7.17773 9.14551 7.17773ZM9.14551 7.83008C8.40669 7.83008 7.81957 8.41652 7.81934 9.15527C7.81934 9.89424 8.40654 10.4814 9.14551 10.4814C9.88426 10.4812 10.4707 9.89409 10.4707 9.15527C10.4705 8.41667 9.88411 7.83032 9.14551 7.83008ZM12.6016 6.83008C12.884 6.72151 13.1882 6.76517 13.4707 6.89551C13.7532 7.04765 13.9492 7.28679 14.0361 7.56934C14.1447 7.8518 14.101 8.15601 13.9707 8.43848C13.8186 8.69929 13.5794 8.91697 13.2969 9.00391C13.1882 9.04734 13.0578 9.06933 12.9492 9.06934C12.7754 9.06934 12.6016 9.02538 12.4277 8.93848C12.1669 8.78634 11.9492 8.54719 11.8623 8.26465C11.7537 7.98217 11.7974 7.67798 11.9277 7.39551C12.0799 7.1347 12.319 6.91702 12.6016 6.83008ZM4.27734 7.56934C4.47295 6.96078 5.10335 6.63447 5.71191 6.83008C6.01606 6.91705 6.25538 7.11305 6.38574 7.39551C6.516 7.65626 6.5371 7.98222 6.4502 8.26465C6.27635 8.76433 5.84221 9.06818 5.36426 9.06836C5.25559 9.06836 5.1243 9.04737 5.01562 9.00391C4.71156 8.91693 4.47314 8.72085 4.34277 8.43848C4.21238 8.17769 4.19044 7.85186 4.27734 7.56934ZM12.9492 7.46094C12.9058 7.46094 12.8403 7.46069 12.7969 7.48242C12.6666 7.52591 12.5798 7.61306 12.5146 7.72168C12.4712 7.83032 12.4497 7.96048 12.4932 8.09082C12.5366 8.22102 12.623 8.30788 12.7314 8.37305C12.8401 8.41652 12.9712 8.43898 13.1016 8.39551C13.2319 8.35205 13.3186 8.26483 13.3838 8.15625C13.449 8.02592 13.4703 7.89574 13.4053 7.78711C13.3618 7.6568 13.2755 7.56909 13.167 7.50391C13.1018 7.48217 13.0361 7.46094 12.9492 7.46094ZM5.32031 7.43848C5.25512 7.43848 5.16772 7.43896 5.10254 7.48242C4.99413 7.54756 4.90769 7.63453 4.86426 7.76465C4.79906 8.02546 4.92962 8.30857 5.19043 8.39551C5.45101 8.46037 5.73335 8.32981 5.82031 8.06934C5.90722 7.8086 5.75505 7.52625 5.47266 7.46094C5.42919 7.4392 5.36378 7.43848 5.32031 7.43848ZM9.14551 4.00488C9.7757 4.00488 10.2977 4.5261 10.2979 5.15625C10.2979 5.78654 9.7758 6.30859 9.14551 6.30859C8.51534 6.30844 7.99414 5.78645 7.99414 5.15625C7.99432 4.52619 8.51545 4.00504 9.14551 4.00488ZM9.14551 4.67871C8.88481 4.67887 8.64551 4.89627 8.64551 5.17871C8.64572 5.46096 8.86324 5.67759 9.14551 5.67773C9.42792 5.67773 9.6453 5.46106 9.64551 5.17871C9.64551 4.89617 9.42805 4.67871 9.14551 4.67871Z" fill="#F5F5F5"/>
</svg>
