<svg width="29" height="29" viewBox="0 0 29 29" fill="none" xmlns="http://www.w3.org/2000/svg">
<path d="M0.0839844 14.0833C0.0839844 6.30532 6.38931 0 14.1673 0C21.9453 0 28.2507 6.30532 28.2507 14.0833C28.2507 21.8613 21.9453 28.1667 14.1673 28.1667C6.38931 28.1667 0.0839844 21.8613 0.0839844 14.0833Z" fill="#C49A6C"/>
<path d="M22 9.33333V18.6667C22 19.0333 21.8666 19.3473 21.5998 19.6087C21.333 19.87 21.0118 20.0004 20.6364 20H18.5909C18.3977 20 18.2359 19.936 18.1055 19.808C17.975 19.68 17.9095 19.5218 17.9091 19.3333C17.9086 19.1449 17.9741 18.9867 18.1055 18.8587C18.2368 18.7307 18.3986 18.6667 18.5909 18.6667H20.6364V9.33333H14.5V9.66667C14.5 9.85556 14.4345 10.014 14.3036 10.142C14.1727 10.27 14.0109 10.3338 13.8182 10.3333C13.6255 10.3329 13.4636 10.2689 13.3327 10.1413C13.2018 10.0138 13.1364 9.85556 13.1364 9.66667V9.3C13.1364 8.94444 13.267 8.63889 13.5284 8.38333C13.7898 8.12778 14.1023 8 14.4659 8H20.6364C21.0114 8 21.3325 8.13067 21.5998 8.392C21.867 8.65333 22.0005 8.96711 22 9.33333ZM7 14.0167C7 13.7944 7.05114 13.5889 7.15341 13.4C7.25568 13.2111 7.39773 13.0556 7.57955 12.9333L10.9886 10.55C11.1136 10.4611 11.2416 10.3971 11.3725 10.358C11.5034 10.3189 11.6368 10.2996 11.7727 10.3C11.9086 10.3004 12.0423 10.32 12.1736 10.3587C12.305 10.3973 12.4327 10.4611 12.5568 10.55L15.9659 12.9333C16.1477 13.0556 16.2898 13.2111 16.392 13.4C16.4943 13.5889 16.5455 13.7944 16.5455 14.0167V18.6667C16.5455 19.0333 16.412 19.3473 16.1452 19.6087C15.8784 19.87 15.5573 20.0004 15.1818 20H13.8182C13.4432 20 13.1223 19.8696 12.8555 19.6087C12.5886 19.3478 12.455 19.0338 12.4545 18.6667V16.6667H11.0909V18.6667C11.0909 19.0333 10.9575 19.3473 10.6907 19.6087C10.4239 19.87 10.1027 20.0004 9.72727 20H8.36364C7.98864 20 7.66773 19.8696 7.40091 19.6087C7.13409 19.3478 7.00045 19.0338 7 18.6667V14.0167ZM8.36364 14V18.6667H9.72727V16.6667C9.72727 16.3 9.86091 15.9862 10.1282 15.7253C10.3955 15.4644 10.7164 15.3338 11.0909 15.3333H12.4545C12.8295 15.3333 13.1507 15.464 13.418 15.7253C13.6852 15.9867 13.8186 16.3004 13.8182 16.6667V18.6667H15.1818V14L11.7727 11.6333L8.36364 14ZM18.25 12H18.9318C19.0227 12 19.1023 11.9667 19.1705 11.9C19.2386 11.8333 19.2727 11.7556 19.2727 11.6667V11C19.2727 10.9111 19.2386 10.8333 19.1705 10.7667C19.1023 10.7 19.0227 10.6667 18.9318 10.6667H18.25C18.1591 10.6667 18.0795 10.7 18.0114 10.7667C17.9432 10.8333 17.9091 10.9111 17.9091 11V11.6667C17.9091 11.7556 17.9432 11.8333 18.0114 11.9C18.0795 11.9667 18.1591 12 18.25 12ZM18.25 14.6667H18.9318C19.0227 14.6667 19.1023 14.6333 19.1705 14.5667C19.2386 14.5 19.2727 14.4222 19.2727 14.3333V13.6667C19.2727 13.5778 19.2386 13.5 19.1705 13.4333C19.1023 13.3667 19.0227 13.3333 18.9318 13.3333H18.25C18.1591 13.3333 18.0795 13.3667 18.0114 13.4333C17.9432 13.5 17.9091 13.5778 17.9091 13.6667V14.3333C17.9091 14.4222 17.9432 14.5 18.0114 14.5667C18.0795 14.6333 18.1591 14.6667 18.25 14.6667ZM18.25 17.3333H18.9318C19.0227 17.3333 19.1023 17.3 19.1705 17.2333C19.2386 17.1667 19.2727 17.0889 19.2727 17V16.3333C19.2727 16.2444 19.2386 16.1667 19.1705 16.1C19.1023 16.0333 19.0227 16 18.9318 16H18.25C18.1591 16 18.0795 16.0333 18.0114 16.1C17.9432 16.1667 17.9091 16.2444 17.9091 16.3333V17C17.9091 17.0889 17.9432 17.1667 18.0114 17.2333C18.0795 17.3 18.1591 17.3333 18.25 17.3333Z" fill="white"/>
</svg>
