<svg width="29" height="29" viewBox="0 0 29 29" fill="none" xmlns="http://www.w3.org/2000/svg">
<path d="M0.0839844 14.0833C0.0839844 6.30532 6.38931 0 14.1673 0C21.9453 0 28.2507 6.30532 28.2507 14.0833C28.2507 21.8613 21.9453 28.1667 14.1673 28.1667C6.38931 28.1667 0.0839844 21.8613 0.0839844 14.0833Z" fill="#C49A6C"/>
<path d="M11.3203 5.44043C14.5587 4.3972 18.1234 5.2445 20.5576 7.5918L21.5137 6.63574C21.644 6.50537 21.8393 6.50544 21.9697 6.63574C25.3603 9.96108 26.1866 15.047 24.0566 19.2852C23.6002 20.1328 23.0563 20.9371 22.4043 21.6543C22.3392 21.7192 22.2527 21.7626 22.166 21.7627C22.0791 21.7627 21.9919 21.7409 21.9268 21.6758L20.7529 20.502C19.7097 21.5669 18.4275 22.3932 16.9932 22.8496C16.0586 23.1539 15.1018 23.3057 14.1455 23.3057C12.7111 23.3056 11.2981 22.9794 9.99414 22.3057C7.82101 21.1972 6.19111 19.3067 5.45215 16.9814C3.88728 12.1782 6.51704 7.0053 11.3203 5.44043ZM20.0791 8.07031C17.8405 5.89689 14.515 5.09227 11.5156 6.07031C7.0603 7.50478 4.60462 12.3298 6.06055 16.7852C6.75604 18.9368 8.27779 20.6982 10.2773 21.7197C12.3202 22.7627 14.6239 22.9366 16.7754 22.2412C18.1229 21.8065 19.3186 21.0457 20.3184 20.0459L19.6445 19.3721C19.5141 19.2634 19.5144 19.0679 19.623 18.9375C19.9925 18.5028 20.3183 18.0243 20.5791 17.5244C21.97 14.8077 21.4481 11.5254 19.2529 9.39551C19.188 9.33044 19.1447 9.24387 19.1445 9.15723C19.1445 9.07035 19.1663 8.98316 19.2314 8.91797L20.0791 8.07031ZM19.9268 9.13477C22.1218 11.4819 22.6221 14.9161 21.1445 17.8066C20.9055 18.2847 20.6228 18.7199 20.2969 19.1328L22.1221 20.959C22.6437 20.3504 23.0788 19.6977 23.4482 18.9805C25.4258 15.1119 24.7303 10.4609 21.7529 7.30957L19.9268 9.13477ZM12.167 8.02637C13.797 7.48302 15.536 7.63581 17.0791 8.39648C18.6005 9.17892 19.7528 10.5262 20.2744 12.1562C20.8177 13.808 20.6867 15.5467 19.9043 17.0898C19.1219 18.6112 17.7746 19.7635 16.1445 20.2852C15.4926 20.5024 14.8189 20.6113 14.167 20.6113C11.4502 20.6113 8.92919 18.8721 8.03809 16.1553C6.92967 12.7648 8.7766 9.13491 12.167 8.02637ZM14.167 8.37402C13.5585 8.37402 12.95 8.46167 12.3633 8.65723C9.32048 9.657 7.66844 12.9172 8.64648 15.96C9.64634 19.0026 12.9065 20.6547 15.9492 19.6768C17.4054 19.1986 18.6229 18.1544 19.3184 16.7852C20.0135 15.4162 20.1439 13.8516 19.666 12.374C19.1879 10.8961 18.1661 9.70039 16.7969 9.00488C15.971 8.59194 15.0581 8.37403 14.167 8.37402ZM15.8193 16.459C16.3408 16.09 17.0575 16.1986 17.4053 16.7197C17.7747 17.2413 17.6444 17.9586 17.1445 18.3281C16.9489 18.4803 16.7098 18.5459 16.4707 18.5459C16.4272 18.5458 16.3619 18.5244 16.2969 18.5244C15.9927 18.4809 15.7324 18.3064 15.5586 18.0674C15.1891 17.5458 15.2977 16.8285 15.8193 16.459ZM11.624 16.2637C11.9283 16.1985 12.2326 16.2861 12.4717 16.46C12.7323 16.6337 12.8842 16.9159 12.9277 17.1982C12.9929 17.5024 12.9062 17.8069 12.7324 18.0459C12.5585 18.285 12.2974 18.4595 11.9932 18.5029C11.9497 18.5244 11.8843 18.5244 11.8193 18.5244C11.5804 18.5243 11.341 18.4597 11.1455 18.3076C10.9065 18.1338 10.733 17.8725 10.6895 17.5684C10.6243 17.2642 10.711 16.9597 10.8848 16.7207C11.0586 16.4816 11.3198 16.3072 11.624 16.2637ZM11.7979 16.8945C11.6459 16.8946 11.4942 16.9597 11.4072 17.0898C11.2551 17.3072 11.2983 17.633 11.5156 17.7852C11.6243 17.8721 11.7544 17.8938 11.8848 17.8721C12.0152 17.8503 12.124 17.7854 12.2109 17.6768C12.363 17.4594 12.3191 17.1553 12.0801 16.9814C11.9932 16.9164 11.9064 16.8945 11.7979 16.8945ZM16.4932 16.8936C16.4063 16.8936 16.2969 16.9153 16.21 16.9805C15.9926 17.1543 15.9494 17.4594 16.1016 17.6768C16.1885 17.7853 16.2974 17.8504 16.4277 17.8721C16.558 17.8937 16.6883 17.872 16.7969 17.7852C17.0142 17.633 17.0576 17.3072 16.8838 17.0898C16.7969 16.9596 16.6451 16.8937 16.4932 16.8936ZM14.1455 12.1777C15.2319 12.178 16.1228 13.0689 16.123 14.1553C16.123 15.2418 15.232 16.1335 14.1455 16.1338C13.0588 16.1338 12.167 15.242 12.167 14.1553C12.1672 13.0688 13.0589 12.1777 14.1455 12.1777ZM14.1455 12.8301C13.4067 12.8301 12.8196 13.4165 12.8193 14.1553C12.8193 14.8942 13.4065 15.4814 14.1455 15.4814C14.8843 15.4812 15.4707 14.8941 15.4707 14.1553C15.4705 13.4167 14.8841 12.8303 14.1455 12.8301ZM17.6016 11.8301C17.884 11.7215 18.1882 11.7652 18.4707 11.8955C18.7532 12.0476 18.9492 12.2868 19.0361 12.5693C19.1447 12.8518 19.101 13.156 18.9707 13.4385C18.8186 13.6993 18.5794 13.917 18.2969 14.0039C18.1882 14.0473 18.0578 14.0693 17.9492 14.0693C17.7754 14.0693 17.6016 14.0254 17.4277 13.9385C17.1669 13.7863 16.9492 13.5472 16.8623 13.2646C16.7537 12.9822 16.7974 12.678 16.9277 12.3955C17.0799 12.1347 17.319 11.917 17.6016 11.8301ZM9.27734 12.5693C9.47295 11.9608 10.1034 11.6345 10.7119 11.8301C11.0161 11.9171 11.2554 12.113 11.3857 12.3955C11.516 12.6563 11.5371 12.9822 11.4502 13.2646C11.2764 13.7643 10.8422 14.0682 10.3643 14.0684C10.2556 14.0684 10.1243 14.0474 10.0156 14.0039C9.71156 13.9169 9.47314 13.7208 9.34277 13.4385C9.21238 13.1777 9.19044 12.8519 9.27734 12.5693ZM17.9492 12.4609C17.9058 12.4609 17.8403 12.4607 17.7969 12.4824C17.6666 12.5259 17.5798 12.6131 17.5146 12.7217C17.4712 12.8303 17.4497 12.9605 17.4932 13.0908C17.5366 13.221 17.623 13.3079 17.7314 13.373C17.8401 13.4165 17.9712 13.439 18.1016 13.3955C18.2319 13.352 18.3186 13.2648 18.3838 13.1562C18.449 13.0259 18.4703 12.8957 18.4053 12.7871C18.3618 12.6568 18.2755 12.5691 18.167 12.5039C18.1018 12.4822 18.0361 12.4609 17.9492 12.4609ZM10.3203 12.4385C10.2551 12.4385 10.1677 12.439 10.1025 12.4824C9.99413 12.5476 9.90769 12.6345 9.86426 12.7646C9.79906 13.0255 9.92962 13.3086 10.1904 13.3955C10.451 13.4604 10.7333 13.3298 10.8203 13.0693C10.9072 12.8086 10.755 12.5262 10.4727 12.4609C10.4292 12.4392 10.3638 12.4385 10.3203 12.4385ZM14.1455 9.00488C14.7757 9.00488 15.2977 9.5261 15.2979 10.1562C15.2979 10.7865 14.7758 11.3086 14.1455 11.3086C13.5153 11.3084 12.9941 10.7864 12.9941 10.1562C12.9943 9.52619 13.5154 9.00504 14.1455 9.00488ZM14.1455 9.67871C13.8848 9.67887 13.6455 9.89627 13.6455 10.1787C13.6457 10.461 13.8632 10.6776 14.1455 10.6777C14.4279 10.6777 14.6453 10.4611 14.6455 10.1787C14.6455 9.89617 14.4281 9.67871 14.1455 9.67871Z" fill="#F5F5F5"/>
</svg>
