<svg width="12" height="12" viewBox="0 0 12 12" fill="none" xmlns="http://www.w3.org/2000/svg">
<path d="M0.708738 4.8144V5.2032C0.708738 8.5656 3.4733 11.3016 6.87379 11.3016H7.52184C7.53641 11.688 7.8568 12 8.25243 12H9.06311C9.45874 12 9.77913 11.688 9.79369 11.3016H11.7573C11.8908 11.3016 12 11.1936 12 11.0616V8.3832C12 8.2512 11.8908 8.1432 11.7573 8.1432H9.79369C9.77913 7.7568 9.45874 7.4448 9.06311 7.4448H8.25243C7.8568 7.4448 7.53641 7.7568 7.52184 8.1432H6.87379C5.23544 8.1432 3.90291 6.8256 3.90291 5.2032V4.8144C4.29369 4.8 4.60922 4.4832 4.60922 4.092V3.2904C4.60922 2.8992 4.29369 2.5824 3.90291 2.5704V0.24C3.90291 0.108 3.79369 0 3.66019 0H0.951456C0.817961 0 0.708738 0.108 0.708738 0.24V2.568C0.315534 2.58 0 2.8992 0 3.2904V4.092C0.00242718 4.4832 0.317961 4.8 0.708738 4.8144ZM11.5121 10.8216H9.79369V8.6232H11.5121V10.8216ZM8.00485 8.1672C8.00485 8.0328 8.1165 7.9224 8.25243 7.9224H9.06311C9.19903 7.9224 9.31068 8.0328 9.31068 8.1672V11.2776C9.31068 11.412 9.19903 11.5224 9.06311 11.5224H8.25243C8.1165 11.5224 8.00485 11.412 8.00485 11.2776V8.1672ZM6.87379 8.6232H7.51942V10.8216H6.87379C3.74272 10.8216 1.19417 8.3016 1.19417 5.2032V4.8168H3.41748V5.2032C3.41748 7.0872 4.96845 8.6232 6.87379 8.6232ZM3.41748 0.48V2.5656H1.19417V0.48H3.41748ZM0.487864 3.2904C0.487864 3.156 0.599515 3.0456 0.735437 3.0456H0.951456C0.951456 3.0456 0.951456 3.0456 0.953883 3.0456C0.956311 3.0456 0.953883 3.0456 0.956311 3.0456H3.66262C3.66262 3.0456 3.66262 3.0456 3.66505 3.0456C3.66748 3.0456 3.66505 3.0456 3.66748 3.0456H3.88349C4.01942 3.0456 4.13107 3.156 4.13107 3.2904V4.092C4.13107 4.2264 4.01942 4.3368 3.88349 4.3368H3.66748C3.66748 4.3368 3.66748 4.3368 3.66505 4.3368C3.66262 4.3368 3.66505 4.3368 3.66262 4.3368H0.953883C0.953883 4.3368 0.953883 4.3368 0.951456 4.3368C0.949029 4.3368 0.951456 4.3368 0.949029 4.3368H0.73301C0.597087 4.3368 0.485437 4.2264 0.485437 4.092V3.2904H0.487864Z" fill="#F5F5F5"/>
</svg>
