<svg width="29" height="29" viewBox="0 0 29 29" fill="none" xmlns="http://www.w3.org/2000/svg">
<path d="M0 14.0833C0 6.30532 6.30532 0 14.0833 0C21.8613 0 28.1667 6.30532 28.1667 14.0833C28.1667 21.8613 21.8613 28.1667 14.0833 28.1667C6.30532 28.1667 0 21.8613 0 14.0833Z" fill="#C49A6C"/>
<path d="M10.2494 7.00003V9.68611L11.6406 11.4239V16.886L11.896 17.092L13.4372 12.0188L15.2241 17.474L17.0263 15.2176L17.862 17.5987V11.4239L19.253 9.68608V7H17.7076V8.26705H16.767V7.00003H15.2047V8.26705H14.2808V7.00003H12.7186V8.26705H11.7947V7.00003H10.2494ZM13.4531 13.9621L12.195 18.1036L9.843 16.2075L10.8106 19.0547L8 19.1834L9.28475 20.478L8.01564 22H10.9004L11.4762 21.4529L10.9388 19.9484L12.7272 20.6042L13.6331 17.9317L14.6671 20.8972L16.4715 19.5265L16.5364 21.6135L18.5571 21.3865L18.1239 22H21L18.9564 20.417L20.4008 18.3713L17.7585 19.0563L16.8311 16.4141L15.0053 18.7004L13.4531 13.9621Z" fill="#F5F5F5"/>
</svg>
