<svg width="29" height="29" viewBox="0 0 29 29" fill="none" xmlns="http://www.w3.org/2000/svg">
<path d="M0.0839844 14.0833C0.0839844 6.30532 6.38931 0 14.1673 0C21.9453 0 28.2507 6.30532 28.2507 14.0833C28.2507 21.8613 21.9453 28.1667 14.1673 28.1667C6.38931 28.1667 0.0839844 21.8613 0.0839844 14.0833Z" fill="#C49A6C"/>
<path d="M22.0915 17.7947C21.2521 16.9546 20.0111 16.6806 18.898 17.0824L16.3249 14.4889L18.9162 11.8954C20.0294 12.2972 21.2703 12.0415 22.1098 11.1831C22.931 10.3612 23.2229 9.10095 22.8215 8.0051C22.785 7.91378 22.712 7.85898 22.6207 7.82246C22.5295 7.80419 22.4382 7.82246 22.3653 7.89551L20.7959 9.46623L19.5002 8.16948L21.0696 6.63528C21.1426 6.56223 21.1608 6.47091 21.1426 6.37958C21.1243 6.28826 21.0513 6.21521 20.9601 6.17868C19.8652 5.77687 18.606 6.06909 17.7848 6.89098C16.9453 7.73114 16.6716 8.9731 17.0731 10.0872L14.5 12.6807L11.9087 10.0872C12.3284 8.9731 12.0547 7.7494 11.2152 6.89098C10.394 6.06909 9.13484 5.77687 8.03991 6.17868C7.94867 6.21521 7.89392 6.28826 7.85742 6.37958C7.82092 6.47091 7.85742 6.56223 7.93042 6.63528L9.49982 8.206L8.20415 9.50276L6.63475 7.93204C6.56175 7.85898 6.47051 7.84072 6.37927 7.85898C6.28802 7.87725 6.21503 7.95031 6.17853 8.04163C5.77705 9.13748 6.06904 10.3977 6.89023 11.2196C7.72968 12.0597 8.9706 12.3337 10.0838 11.9319L12.6751 14.4889L10.102 17.0824C8.98885 16.6806 7.74793 16.9363 6.90848 17.7947C6.08728 18.6166 5.7953 19.8768 6.19678 20.9727C6.23327 21.064 6.30627 21.1188 6.39751 21.1553C6.48876 21.1736 6.58 21.1553 6.653 21.0823L8.2224 19.5115L9.51807 20.8083L7.93042 22.3608C7.85742 22.4338 7.83917 22.5251 7.85742 22.6165C7.87567 22.7078 7.94867 22.7808 8.03991 22.8174C8.36839 22.9269 8.71512 23 9.06185 23C9.86479 23 10.6495 22.6895 11.2152 22.1051C12.0547 21.2649 12.3284 20.0229 11.9269 18.9088L14.5 16.3153L17.0913 18.9088C16.6899 20.0229 16.9453 21.2649 17.803 22.1051C18.387 22.6895 19.1717 23 19.9564 23C20.3031 23 20.6499 22.9452 20.9783 22.8174C21.0696 22.7808 21.1243 22.7078 21.1608 22.6165C21.1791 22.5251 21.1608 22.4338 21.0878 22.3608L19.5184 20.79L20.8141 19.4933L22.3835 21.064C22.4565 21.1371 22.5477 21.1553 22.639 21.1371C22.7302 21.1188 22.8032 21.0457 22.8397 20.9544C23.2047 19.8586 22.931 18.6166 22.0915 17.7947ZM10.3575 11.4022C10.3028 11.3474 10.2298 11.3292 10.1568 11.3292C10.1203 11.3292 10.0838 11.3292 10.0473 11.3474C9.09834 11.7675 8.02166 11.5484 7.29171 10.8178C6.72599 10.2516 6.47051 9.42971 6.59825 8.64434L8.02166 10.069C8.13115 10.1785 8.29539 10.1785 8.40489 10.069L10.0838 8.38865C10.1933 8.27906 10.1933 8.11468 10.0838 8.0051L8.66037 6.58049C9.44507 6.45264 10.248 6.70834 10.832 7.27453C11.5619 8.0051 11.7627 9.08269 11.3612 10.0324C11.3247 10.142 11.343 10.2516 11.4159 10.3429L14.135 13.0643L13.0948 14.1053L10.3575 11.4022ZM11.343 18.9453C11.7627 19.8951 11.5437 20.9727 10.8137 21.7032C10.248 22.2694 9.42682 22.5251 8.64212 22.3973L10.0655 20.9727C10.175 20.8631 10.175 20.6987 10.0655 20.5891L8.38664 18.9088C8.27715 18.7992 8.09466 18.7992 8.00341 18.9088L6.58 20.3334C6.47051 19.5663 6.72599 18.7444 7.29171 18.1783C8.02166 17.4477 9.09834 17.2468 10.0473 17.6486C10.1568 17.6851 10.2663 17.6669 10.3575 17.5938L17.6023 10.3429C17.6753 10.2699 17.7118 10.142 17.6571 10.0324C17.2373 9.08269 17.4563 8.0051 18.1863 7.27453C18.752 6.70834 19.5732 6.45264 20.3579 6.58049L18.9345 8.0051C18.825 8.11468 18.825 8.27906 18.9345 8.38865L20.6134 10.069C20.7229 10.1785 20.8871 10.1785 20.9966 10.069L22.42 8.64434C22.5477 9.42971 22.2923 10.2333 21.7265 10.8178C20.9966 11.5484 19.9199 11.7493 18.971 11.3474C18.8615 11.3109 18.752 11.3292 18.6607 11.4022L11.3977 18.6349C11.3247 18.7262 11.3065 18.8358 11.343 18.9453ZM22.4017 20.3517L20.9783 18.9271C20.8688 18.8175 20.6864 18.8175 20.5951 18.9271L18.9162 20.6074C18.8067 20.717 18.8067 20.8814 18.9162 20.9909L20.3396 22.4155C19.5549 22.5434 18.752 22.2877 18.168 21.7215C17.4381 20.9909 17.2373 19.9134 17.6388 18.9636C17.6753 18.854 17.657 18.7444 17.5841 18.6531L14.8832 15.9318L15.9234 14.8907L18.6425 17.6121C18.7155 17.6851 18.8432 17.7216 18.9527 17.6669C19.9017 17.2468 20.9783 17.4659 21.7083 18.1965C22.274 18.7444 22.5295 19.5663 22.4017 20.3517Z" fill="#F5F5F5"/>
</svg>
