<svg width="29" height="29" viewBox="0 0 29 29" fill="none" xmlns="http://www.w3.org/2000/svg">
<path d="M0.0839844 14.0833C0.0839844 6.30532 6.38931 0 14.1673 0C21.9453 0 28.2507 6.30532 28.2507 14.0833C28.2507 21.8613 21.9453 28.1667 14.1673 28.1667C6.38931 28.1667 0.0839844 21.8613 0.0839844 14.0833Z" fill="#C49A6C"/>
<path fill-rule="evenodd" clip-rule="evenodd" d="M12.7158 7V12.833L11.0833 12.8338L11.083 9.71309C9.60217 10.7672 8.63332 12.5184 8.63332 14.5004C8.63332 15.4957 8.87763 16.4328 9.30837 17.2526L9.86696 18.311L9.98804 18.2406L10.8831 17.7115L11.7344 18.3109C11.9345 18.4517 12.1455 18.5756 12.3652 18.6816L13.3001 19.1328L13.2994 20.3334H15.3238L15.3246 19.1328L16.2595 18.6816C16.4793 18.5756 16.6902 18.4517 16.8903 18.3109L17.7428 17.7107L18.6385 18.2416L18.757 18.3119L19.7681 16.5211L19.653 16.4544L18.7459 15.9244L18.8376 14.8619C18.8482 14.7399 18.8534 14.6199 18.8534 14.5004C18.8534 14.3809 18.8482 14.261 18.8376 14.1389L18.7459 13.0765L19.653 12.5465L19.7689 12.4788L18.757 10.6889L18.6385 10.7592L17.7428 11.2902L16.8903 10.6899C16.6902 10.5492 16.4793 10.4252 16.2595 10.3192L15.3246 9.86801L15.3238 8.66741H13.5333V7.00082H16.958V8.81271C17.2575 8.95719 17.5451 9.12624 17.8179 9.31819L18.081 9.16219L19.3548 8.41301L20.0898 9.71118L21.265 11.7901L22 13.089L20.7277 13.839L20.4646 13.9927C20.4793 14.1629 20.4866 14.3317 20.4866 14.5004C20.4866 14.6692 20.4793 14.8379 20.4646 15.0082L20.7277 15.1619L22 15.9118L21.265 17.2108L20.0898 19.2896L19.3548 20.5878L18.081 19.8386L17.8179 19.6826C17.5451 19.8746 17.2575 20.0436 16.958 20.1881V22H11.6668V20.1881C11.3672 20.0436 11.0796 19.8746 10.8068 19.6826L10.543 19.8386L9.26997 20.5878L8.53498 19.2896L7.87054 18.036C7.31398 16.9844 7 15.7798 7 14.5004C7 12.1441 8.06497 10.0416 9.7306 8.66674L7 8.66741V7.00082L12.7158 7ZM14.3499 12.8338C15.2519 12.8338 15.9832 13.58 15.9832 14.5004C15.9832 15.4208 15.2519 16.167 14.3499 16.167C13.4479 16.167 12.7166 15.4208 12.7166 14.5004C12.7166 13.58 13.4479 12.8338 14.3499 12.8338Z" fill="white"/>
</svg>
