<svg width="17" height="17" viewBox="0 0 17 17" fill="none" xmlns="http://www.w3.org/2000/svg">
<path d="M16.0915 11.7947C15.2521 10.9546 14.0111 10.6806 12.898 11.0824L10.3249 8.48889L12.9162 5.89537C14.0294 6.29718 15.2703 6.04148 16.1098 5.18307C16.931 4.36118 17.2229 3.10095 16.8215 2.0051C16.785 1.91378 16.712 1.85898 16.6207 1.82246C16.5295 1.80419 16.4382 1.82246 16.3653 1.89551L14.7959 3.46623L13.5002 2.16948L15.0696 0.635283C15.1426 0.562227 15.1608 0.470906 15.1426 0.379585C15.1243 0.288264 15.0513 0.215207 14.9601 0.178679C13.8652 -0.223134 12.606 0.0690936 11.7848 0.890982C10.9453 1.73114 10.6716 2.9731 11.0731 4.08722L8.5 6.68073L5.90866 4.08722C6.32839 2.9731 6.05466 1.7494 5.21521 0.890982C4.39401 0.0690936 3.13484 -0.223134 2.03991 0.178679C1.94867 0.215207 1.89392 0.288264 1.85742 0.379585C1.82092 0.470906 1.85742 0.562227 1.93042 0.635283L3.49982 2.206L2.20415 3.50276L0.634749 1.93204C0.561754 1.85898 0.47051 1.84072 0.379266 1.85898C0.288021 1.87725 0.215026 1.95031 0.178528 2.04163C-0.222946 3.13748 0.0690354 4.39771 0.890233 5.2196C1.72968 6.05975 2.9706 6.33371 4.08378 5.9319L6.67512 8.48889L4.10203 11.0824C2.98885 10.6806 1.74793 10.9363 0.908482 11.7947C0.0872841 12.6166 -0.204697 13.8768 0.196777 14.9727C0.233275 15.064 0.30627 15.1188 0.397514 15.1553C0.488759 15.1736 0.580003 15.1553 0.652998 15.0823L2.2224 13.5115L3.51807 14.8083L1.93042 16.3608C1.85742 16.4338 1.83917 16.5251 1.85742 16.6165C1.87567 16.7078 1.94867 16.7808 2.03991 16.8174C2.36839 16.9269 2.71512 17 3.06185 17C3.86479 17 4.64949 16.6895 5.21521 16.1051C6.05466 15.2649 6.32839 14.0229 5.92691 12.9088L8.5 10.3153L11.0913 12.9088C10.6899 14.0229 10.9453 15.2649 11.803 16.1051C12.387 16.6895 13.1717 17 13.9564 17C14.3031 17 14.6499 16.9452 14.9783 16.8174C15.0696 16.7808 15.1243 16.7078 15.1608 16.6165C15.1791 16.5251 15.1608 16.4338 15.0878 16.3608L13.5184 14.79L14.8141 13.4933L16.3835 15.064C16.4565 15.1371 16.5477 15.1553 16.639 15.1371C16.7302 15.1188 16.8032 15.0457 16.8397 14.9544C17.2047 13.8586 16.931 12.6166 16.0915 11.7947ZM4.35751 5.40224C4.30277 5.34745 4.22977 5.32918 4.15678 5.32918C4.12028 5.32918 4.08378 5.32918 4.04728 5.34745C3.09834 5.76752 2.02166 5.54835 1.29171 4.81778C0.725994 4.25159 0.47051 3.42971 0.598252 2.64434L2.02166 4.06895C2.13115 4.17854 2.29539 4.17854 2.40489 4.06895L4.08378 2.38865C4.19327 2.27906 4.19327 2.11468 4.08378 2.0051L2.66037 0.580491C3.44507 0.452642 4.24802 0.70834 4.83198 1.27453C5.56194 2.0051 5.76267 3.08269 5.3612 4.03242C5.3247 4.14201 5.34295 4.25159 5.41595 4.34291L8.13502 7.06428L7.09484 8.10534L4.35751 5.40224ZM5.34295 12.9453C5.76267 13.8951 5.54369 14.9727 4.81373 15.7032C4.24802 16.2694 3.42682 16.5251 2.64212 16.3973L4.06553 14.9727C4.17502 14.8631 4.17502 14.6987 4.06553 14.5891L2.38664 12.9088C2.27715 12.7992 2.09466 12.7992 2.00341 12.9088L0.580003 14.3334C0.47051 13.5663 0.725994 12.7444 1.29171 12.1783C2.02166 11.4477 3.09834 11.2468 4.04728 11.6486C4.15678 11.6851 4.26627 11.6669 4.35751 11.5938L11.6023 4.34291C11.6753 4.26986 11.7118 4.14201 11.6571 4.03242C11.2373 3.08269 11.4563 2.0051 12.1863 1.27453C12.752 0.70834 13.5732 0.452642 14.3579 0.580491L12.9345 2.0051C12.825 2.11468 12.825 2.27906 12.9345 2.38865L14.6134 4.06895C14.7229 4.17854 14.8871 4.17854 14.9966 4.06895L16.42 2.64434C16.5477 3.42971 16.2923 4.23333 15.7265 4.81778C14.9966 5.54835 13.9199 5.74926 12.971 5.34745C12.8615 5.31092 12.752 5.32918 12.6607 5.40224L5.3977 12.6349C5.3247 12.7262 5.30645 12.8358 5.34295 12.9453ZM16.4017 14.3517L14.9783 12.9271C14.8688 12.8175 14.6864 12.8175 14.5951 12.9271L12.9162 14.6074C12.8067 14.717 12.8067 14.8814 12.9162 14.9909L14.3396 16.4155C13.5549 16.5434 12.752 16.2877 12.168 15.7215C11.4381 14.9909 11.2373 13.9134 11.6388 12.9636C11.6753 12.854 11.657 12.7444 11.5841 12.6531L8.88323 9.93176L9.92341 8.8907L12.6425 11.6121C12.7155 11.6851 12.8432 11.7216 12.9527 11.6669C13.9017 11.2468 14.9783 11.4659 15.7083 12.1965C16.274 12.7444 16.5295 13.5663 16.4017 14.3517Z" fill="#F5F5F5"/>
</svg>
