<svg width="17" height="17" viewBox="0 0 17 17" fill="none" xmlns="http://www.w3.org/2000/svg">
<path d="M8.02344 0C12.4541 0.000259864 16.0459 3.59266 16.0459 8.02344C16.0456 12.454 12.454 16.0456 8.02344 16.0459C3.59266 16.0459 0.000259863 12.4541 0 8.02344C0 3.5925 3.5925 0 8.02344 0ZM9.25195 12.4941C8.92796 12.583 8.59039 12.6391 8.24219 12.6553C8.23912 12.6609 8.23695 12.6674 8.2334 12.6729L6.46582 15.3818C6.96839 15.4877 7.48938 15.5449 8.02344 15.5449C8.20112 15.5449 8.37716 15.5356 8.55176 15.5234L9.25195 12.4941ZM10.7051 11.8057C10.4275 12.0029 10.1278 12.1707 9.80957 12.3037C9.80883 12.3079 9.80955 12.3123 9.80859 12.3164L9.07812 15.4688C9.78158 15.37 10.4531 15.1739 11.0801 14.8945L10.7051 11.8057ZM6.63184 12.46L4.04004 14.4023C4.62768 14.7701 5.2695 15.0579 5.95117 15.2529L7.65137 12.6445C7.30182 12.6168 6.96309 12.5521 6.63965 12.4512L6.63184 12.46ZM11.8418 10.6533C11.645 10.9386 11.4173 11.2005 11.1631 11.4346L11.168 11.4531L11.5566 14.6631C12.1778 14.3318 12.7462 13.9157 13.248 13.4307L11.8418 10.6533ZM5.2002 11.7236L2.10645 12.6641C2.53583 13.2107 3.0391 13.6958 3.60156 14.1055L6.09082 12.2393C5.77951 12.0964 5.48643 11.921 5.2168 11.7158L5.2002 11.7236ZM12.5117 9.19141C12.4249 9.52616 12.3008 9.84561 12.1455 10.1465L12.1582 10.167L13.6172 13.0488C14.0824 12.5314 14.4767 11.9494 14.7852 11.3174L12.5117 9.19141ZM0.871094 10.3525C1.09056 11.0268 1.40123 11.6598 1.79102 12.2354L4.77051 11.3291C4.52533 11.0879 4.30705 10.8197 4.12012 10.5293L4.09766 10.5303L0.871094 10.3525ZM8.02344 3.88672C5.73875 3.88672 3.88673 5.73875 3.88672 8.02344C3.88681 10.3081 5.73879 12.1602 8.02344 12.1602C10.3079 12.1599 12.1601 10.3079 12.1602 8.02344C12.1601 5.7389 10.3079 3.88696 8.02344 3.88672ZM9.85059 9.18066C9.95668 9.13235 10.0859 9.16389 10.1572 9.26172L10.6729 9.97266L10.6982 10.0156C10.7467 10.1218 10.7153 10.251 10.6172 10.3223L9.40039 11.2061C9.2885 11.2873 9.13225 11.2631 9.05078 11.1514L8.53418 10.4414L8.50879 10.3975C8.46067 10.2914 8.49201 10.162 8.58984 10.0908L9.80664 9.20703L9.85059 9.18066ZM5.92188 9.21875C6.00786 9.1399 6.14018 9.13009 6.23828 9.20117L7.45508 10.085C7.56687 10.1662 7.59252 10.3226 7.51172 10.4346L6.99512 11.1455C6.91365 11.2572 6.75642 11.2815 6.64453 11.2002L5.42773 10.3164L5.38965 10.2832C5.31106 10.1971 5.30186 10.0638 5.37305 9.96582L5.88867 9.25586L5.92188 9.21875ZM12.6387 7.57617C12.6528 7.72339 12.6611 7.87253 12.6611 8.02344C12.6611 8.22265 12.6464 8.41873 12.6221 8.61133L12.6445 8.62891L15 10.8311C15.2568 10.1936 15.4307 9.51376 15.5039 8.80371L12.6387 7.57617ZM9.08789 10.3496L9.30957 10.6533L10.1201 10.0635L9.89941 9.75977L9.08789 10.3496ZM5.92676 10.0586L6.7373 10.6475L6.95898 10.3438L6.14746 9.75391L5.92676 10.0586ZM0.501953 8.02344C0.501992 8.6508 0.578866 9.26017 0.723633 9.84277L3.83203 10.0127C3.6875 9.70885 3.576 9.38666 3.5 9.05078L3.47461 9.04297L0.507812 7.77148C0.505063 7.85508 0.501953 7.93917 0.501953 8.02344ZM8.02344 6.76953C8.71558 6.76976 9.27734 7.33125 9.27734 8.02344C9.27711 8.71543 8.71543 9.27711 8.02344 9.27734C7.33125 9.27734 6.76976 8.71558 6.76953 8.02344C6.76953 7.3311 7.3311 6.76953 8.02344 6.76953ZM8.02344 7.27148C7.60804 7.27148 7.27148 7.60804 7.27148 8.02344C7.27171 8.43864 7.60818 8.77539 8.02344 8.77539C8.4385 8.77516 8.77516 8.4385 8.77539 8.02344C8.77539 7.60818 8.43864 7.27171 8.02344 7.27148ZM1.04492 5.21387C0.788117 5.85116 0.615321 6.53137 0.541992 7.24121L3.40527 8.46777C3.39137 8.32155 3.38477 8.1733 3.38477 8.02344C3.38477 7.82328 3.39727 7.6261 3.42188 7.43262C3.4151 7.42747 3.40772 7.42293 3.40137 7.41699L1.04492 5.21387ZM10.7393 6.09766C10.8551 6.08441 10.9683 6.1544 11.0059 6.26953L11.4707 7.7002C11.5134 7.83176 11.442 7.97366 11.3105 8.0166L10.4756 8.28711C10.3439 8.3299 10.202 8.25767 10.1592 8.12598L9.69434 6.69629L9.68359 6.64648C9.67061 6.53073 9.74043 6.41738 9.85547 6.37988L10.6904 6.1084L10.7393 6.09766ZM5.06348 6.21094C5.12094 6.10941 5.24411 6.05931 5.35938 6.09668L6.19434 6.36816L6.24023 6.3877C6.34182 6.44515 6.39189 6.56829 6.35449 6.68359L5.88965 8.11426C5.84687 8.24559 5.70662 8.31766 5.5752 8.27539L4.74023 8.00391L4.69336 7.98438C4.59215 7.92689 4.541 7.80352 4.57812 7.68848L5.04297 6.25781L5.06348 6.21094ZM12.2119 6.03223C12.3564 6.3358 12.4678 6.6576 12.5439 6.99316L12.5723 7.00293L15.5381 8.27344C15.5408 8.19041 15.5449 8.10712 15.5449 8.02344C15.5449 7.39568 15.4662 6.78605 15.3213 6.20312L12.2119 6.03223ZM10.249 6.7793L10.5596 7.7334L10.917 7.61719L10.6074 6.66309L10.249 6.7793ZM5.13379 7.60449L5.49121 7.7207L5.80078 6.7666L5.44336 6.65039L5.13379 7.60449ZM2.42871 2.99609C1.96324 3.51376 1.56836 4.0962 1.25977 4.72852L3.5332 6.85352C3.62028 6.51846 3.74478 6.19857 3.90039 5.89746L3.88867 5.87988L2.42871 2.99609ZM8.8252 4.64355C8.93955 4.66685 9.02539 4.76841 9.02539 4.88965V5.76758L9.02051 5.81738C8.99714 5.93164 8.89558 6.01758 8.77441 6.01758H7.27051C7.13237 6.01745 7.01989 5.90566 7.01953 5.76758V4.88965L7.02441 4.83887C7.04783 4.72477 7.14951 4.63879 7.27051 4.63867H8.77441L8.8252 4.64355ZM11.2754 4.7168C11.5204 4.95786 11.738 5.22633 11.9248 5.5166C11.9324 5.51632 11.9405 5.51618 11.9482 5.5166L15.1738 5.69238C14.9543 5.01836 14.6437 4.38591 14.2539 3.81055L11.2754 4.7168ZM7.52148 5.5166H8.52441V5.14062H7.52148V5.5166ZM4.48828 1.38281C3.8675 1.71397 3.29949 2.13043 2.79785 2.61523L4.20312 5.3916C4.39995 5.10648 4.62773 4.84435 4.88184 4.61035L4.87891 4.59277L4.48828 1.38281ZM9.9541 3.80566C10.2656 3.94856 10.5584 4.12481 10.8281 4.33008C10.8339 4.32784 10.8397 4.32508 10.8457 4.32324L13.9395 3.38184C13.5097 2.83485 13.0063 2.34918 12.4434 1.93945L9.9541 3.80566ZM6.96582 0.577148C6.26324 0.67602 5.59207 0.871382 4.96582 1.15039L5.33984 4.24023C5.61748 4.04295 5.91709 3.87426 6.23535 3.74121C6.23606 3.73733 6.23641 3.73338 6.2373 3.72949L6.96582 0.577148ZM8.39258 3.40039C8.7421 3.42796 9.08088 3.49297 9.4043 3.59375C9.40748 3.5911 9.41072 3.58846 9.41406 3.58594L12.0039 1.64258C11.4164 1.27528 10.7751 0.986747 10.0938 0.791992L8.39258 3.40039ZM8.02344 0.501953C7.84518 0.501953 7.66832 0.510263 7.49316 0.522461L6.79297 3.55078C7.11717 3.4618 7.45528 3.40588 7.80371 3.38965C7.8067 3.38423 7.80907 3.37831 7.8125 3.37305L9.5791 0.663086C9.07714 0.557488 8.55679 0.501986 8.02344 0.501953Z" fill="#F5F5F5"/>
</svg>
