<svg width="29" height="29" viewBox="0 0 29 29" fill="none" xmlns="http://www.w3.org/2000/svg">
<path d="M0.0839844 14.0833C0.0839844 6.30532 6.38931 0 14.1673 0C21.9453 0 28.2507 6.30532 28.2507 14.0833C28.2507 21.8613 21.9453 28.1667 14.1673 28.1667C6.38931 28.1667 0.0839844 21.8613 0.0839844 14.0833Z" fill="#C49A6C"/>
<path d="M20.72 13.8713H18.9112C18.7572 13.8713 18.6312 13.9965 18.6312 14.1495V14.7253H16.3436C16.1616 14.7253 16.016 14.5779 16.016 14.3998V13.4095H16.4472C16.6012 13.4095 16.7272 13.2843 16.7272 13.1313V11.8126C16.7272 11.6596 16.6012 11.5344 16.4472 11.5344H14.28V10.263H16.4472C16.6012 10.263 16.7272 10.1378 16.7272 9.98483C16.7272 9.83182 16.6012 9.70663 16.4472 9.70663H14.28V9.2782C14.28 9.12519 14.154 9 14 9C13.846 9 13.72 9.12519 13.72 9.2782V9.70663H11.5528C11.3988 9.70663 11.2728 9.83182 11.2728 9.98483C11.2728 10.1378 11.3988 10.263 11.5528 10.263H13.72V11.5344H11.5528C11.3988 11.5344 11.2728 11.6596 11.2728 11.8126V13.1313C11.2728 13.2843 11.3988 13.4095 11.5528 13.4095H11.984V14.3998C11.984 14.5807 11.8356 14.7253 11.6564 14.7253H9.3688V14.1495C9.3688 13.9965 9.2428 13.8713 9.0888 13.8713H7.28C7.126 13.8713 7 13.9965 7 14.1495V19.3963C7 19.5493 7.126 19.6745 7.28 19.6745H9.0888C9.2428 19.6745 9.3688 19.5493 9.3688 19.3963V18.8204H11.1076C11.508 18.8204 11.8832 18.9651 12.1296 19.2183C12.6252 19.7218 13.2888 20 13.9972 20C14.7056 20 15.3692 19.7218 15.8648 19.2183C16.114 18.9651 16.4864 18.8204 16.8868 18.8204H18.6256V19.3963C18.6256 19.5493 18.7516 19.6745 18.9056 19.6745H20.72C20.874 19.6745 21 19.5493 21 19.3963V14.1495C21 13.9965 20.874 13.8713 20.72 13.8713ZM11.8328 12.0908H16.1672V12.8531H15.736H12.264H11.8328V12.0908ZM8.8088 19.1181H7.56V14.4277H8.8088V15.0035V18.5422V19.1181ZM16.8924 18.264C16.3408 18.264 15.8228 18.4699 15.47 18.8288C15.0808 19.2238 14.56 19.4436 14.0028 19.4436C13.4456 19.4436 12.9248 19.2266 12.5356 18.8288C12.1828 18.4699 11.662 18.264 11.1132 18.264H9.3744V15.2845H11.662C12.152 15.2845 12.5496 14.8895 12.5496 14.4026V13.4122H15.4616V14.4026C15.4616 14.8895 15.8592 15.2845 16.3492 15.2845H18.6368V18.2668H16.8924V18.264ZM20.44 19.1181H19.1912V18.5422V15.0063V14.4305H20.44V19.1181Z" fill="#F5F5F5"/>
</svg>
