<svg width="29" height="29" viewBox="0 0 29 29" fill="none" xmlns="http://www.w3.org/2000/svg">
<path d="M0 14.0833C0 6.30532 6.30532 0 14.0833 0C21.8613 0 28.1667 6.30532 28.1667 14.0833C28.1667 21.8613 21.8613 28.1667 14.0833 28.1667C6.30532 28.1667 0 21.8613 0 14.0833Z" fill="#C49A6C"/>
<path d="M14.0234 6C18.4541 6.00026 22.0459 9.59266 22.0459 14.0234C22.0456 18.454 18.454 22.0456 14.0234 22.0459C9.59266 22.0459 6.00026 18.4541 6 14.0234C6 9.5925 9.5925 6 14.0234 6ZM15.252 18.4941C14.928 18.583 14.5904 18.6391 14.2422 18.6553C14.2391 18.6609 14.2369 18.6674 14.2334 18.6729L12.4658 21.3818C12.9684 21.4877 13.4894 21.5449 14.0234 21.5449C14.2011 21.5449 14.3772 21.5356 14.5518 21.5234L15.252 18.4941ZM16.7051 17.8057C16.4275 18.0029 16.1278 18.1707 15.8096 18.3037C15.8088 18.3079 15.8095 18.3123 15.8086 18.3164L15.0781 21.4688C15.7816 21.37 16.4531 21.1739 17.0801 20.8945L16.7051 17.8057ZM12.6318 18.46L10.04 20.4023C10.6277 20.7701 11.2695 21.0579 11.9512 21.2529L13.6514 18.6445C13.3018 18.6168 12.9631 18.5521 12.6396 18.4512L12.6318 18.46ZM17.8418 16.6533C17.645 16.9386 17.4173 17.2005 17.1631 17.4346L17.168 17.4531L17.5566 20.6631C18.1778 20.3318 18.7462 19.9157 19.248 19.4307L17.8418 16.6533ZM11.2002 17.7236L8.10645 18.6641C8.53583 19.2107 9.0391 19.6958 9.60156 20.1055L12.0908 18.2393C11.7795 18.0964 11.4864 17.921 11.2168 17.7158L11.2002 17.7236ZM18.5117 15.1914C18.4249 15.5262 18.3008 15.8456 18.1455 16.1465L18.1582 16.167L19.6172 19.0488C20.0824 18.5314 20.4767 17.9494 20.7852 17.3174L18.5117 15.1914ZM6.87109 16.3525C7.09056 17.0268 7.40123 17.6598 7.79102 18.2354L10.7705 17.3291C10.5253 17.0879 10.3071 16.8197 10.1201 16.5293L10.0977 16.5303L6.87109 16.3525ZM14.0234 9.88672C11.7387 9.88672 9.88673 11.7388 9.88672 14.0234C9.88681 16.3081 11.7388 18.1602 14.0234 18.1602C16.3079 18.1599 18.1601 16.3079 18.1602 14.0234C18.1601 11.7389 16.3079 9.88696 14.0234 9.88672ZM15.8506 15.1807C15.9567 15.1324 16.0859 15.1639 16.1572 15.2617L16.6729 15.9727L16.6982 16.0156C16.7467 16.1218 16.7153 16.251 16.6172 16.3223L15.4004 17.2061C15.2885 17.2873 15.1322 17.2631 15.0508 17.1514L14.5342 16.4414L14.5088 16.3975C14.4607 16.2914 14.492 16.162 14.5898 16.0908L15.8066 15.207L15.8506 15.1807ZM11.9219 15.2188C12.0079 15.1399 12.1402 15.1301 12.2383 15.2012L13.4551 16.085C13.5669 16.1662 13.5925 16.3226 13.5117 16.4346L12.9951 17.1455C12.9136 17.2572 12.7564 17.2815 12.6445 17.2002L11.4277 16.3164L11.3896 16.2832C11.3111 16.1971 11.3019 16.0638 11.373 15.9658L11.8887 15.2559L11.9219 15.2188ZM18.6387 13.5762C18.6528 13.7234 18.6611 13.8725 18.6611 14.0234C18.6611 14.2227 18.6464 14.4187 18.6221 14.6113L18.6445 14.6289L21 16.8311C21.2568 16.1936 21.4307 15.5138 21.5039 14.8037L18.6387 13.5762ZM15.0879 16.3496L15.3096 16.6533L16.1201 16.0635L15.8994 15.7598L15.0879 16.3496ZM11.9268 16.0586L12.7373 16.6475L12.959 16.3438L12.1475 15.7539L11.9268 16.0586ZM6.50195 14.0234C6.50199 14.6508 6.57887 15.2602 6.72363 15.8428L9.83203 16.0127C9.6875 15.7089 9.576 15.3867 9.5 15.0508L9.47461 15.043L6.50781 13.7715C6.50506 13.8551 6.50195 13.9392 6.50195 14.0234ZM14.0234 12.7695C14.7156 12.7698 15.2773 13.3312 15.2773 14.0234C15.2771 14.7154 14.7154 15.2771 14.0234 15.2773C13.3312 15.2773 12.7698 14.7156 12.7695 14.0234C12.7695 13.3311 13.3311 12.7695 14.0234 12.7695ZM14.0234 13.2715C13.608 13.2715 13.2715 13.608 13.2715 14.0234C13.2717 14.4386 13.6082 14.7754 14.0234 14.7754C14.4385 14.7752 14.7752 14.4385 14.7754 14.0234C14.7754 13.6082 14.4386 13.2717 14.0234 13.2715ZM7.04492 11.2139C6.78812 11.8512 6.61532 12.5314 6.54199 13.2412L9.40527 14.4678C9.39137 14.3216 9.38477 14.1733 9.38477 14.0234C9.38477 13.8233 9.39727 13.6261 9.42188 13.4326C9.4151 13.4275 9.40772 13.4229 9.40137 13.417L7.04492 11.2139ZM16.7393 12.0977C16.8551 12.0844 16.9683 12.1544 17.0059 12.2695L17.4707 13.7002C17.5134 13.8318 17.442 13.9737 17.3105 14.0166L16.4756 14.2871C16.3439 14.3299 16.202 14.2577 16.1592 14.126L15.6943 12.6963L15.6836 12.6465C15.6706 12.5307 15.7404 12.4174 15.8555 12.3799L16.6904 12.1084L16.7393 12.0977ZM11.0635 12.2109C11.1209 12.1094 11.2441 12.0593 11.3594 12.0967L12.1943 12.3682L12.2402 12.3877C12.3418 12.4451 12.3919 12.5683 12.3545 12.6836L11.8896 14.1143C11.8469 14.2456 11.7066 14.3177 11.5752 14.2754L10.7402 14.0039L10.6934 13.9844C10.5922 13.9269 10.541 13.8035 10.5781 13.6885L11.043 12.2578L11.0635 12.2109ZM18.2119 12.0322C18.3564 12.3358 18.4678 12.6576 18.5439 12.9932L18.5723 13.0029L21.5381 14.2734C21.5408 14.1904 21.5449 14.1071 21.5449 14.0234C21.5449 13.3957 21.4662 12.7861 21.3213 12.2031L18.2119 12.0322ZM16.249 12.7793L16.5596 13.7334L16.917 13.6172L16.6074 12.6631L16.249 12.7793ZM11.1338 13.6045L11.4912 13.7207L11.8008 12.7666L11.4434 12.6504L11.1338 13.6045ZM8.42871 8.99609C7.96324 9.51376 7.56836 10.0962 7.25977 10.7285L9.5332 12.8535C9.62028 12.5185 9.74478 12.1986 9.90039 11.8975L9.88867 11.8799L8.42871 8.99609ZM14.8252 10.6436C14.9396 10.6668 15.0254 10.7684 15.0254 10.8896V11.7676L15.0205 11.8174C14.9971 11.9316 14.8956 12.0176 14.7744 12.0176H13.2705C13.1324 12.0174 13.0199 11.9057 13.0195 11.7676V10.8896L13.0244 10.8389C13.0478 10.7248 13.1495 10.6388 13.2705 10.6387H14.7744L14.8252 10.6436ZM17.2754 10.7168C17.5204 10.9579 17.738 11.2263 17.9248 11.5166C17.9324 11.5163 17.9405 11.5162 17.9482 11.5166L21.1738 11.6924C20.9543 11.0184 20.6437 10.3859 20.2539 9.81055L17.2754 10.7168ZM13.5215 11.5166H14.5244V11.1406H13.5215V11.5166ZM10.4883 7.38281C9.8675 7.71397 9.29949 8.13043 8.79785 8.61523L10.2031 11.3916C10.3999 11.1065 10.6277 10.8444 10.8818 10.6104L10.8789 10.5928L10.4883 7.38281ZM15.9541 9.80566C16.2656 9.94856 16.5584 10.1248 16.8281 10.3301C16.8339 10.3278 16.8397 10.3251 16.8457 10.3232L19.9395 9.38184C19.5097 8.83485 19.0063 8.34918 18.4434 7.93945L15.9541 9.80566ZM12.9658 6.57715C12.2632 6.67602 11.5921 6.87138 10.9658 7.15039L11.3398 10.2402C11.6175 10.0429 11.9171 9.87426 12.2354 9.74121C12.2361 9.73733 12.2364 9.73338 12.2373 9.72949L12.9658 6.57715ZM14.3926 9.40039C14.7421 9.42796 15.0809 9.49297 15.4043 9.59375C15.4075 9.5911 15.4107 9.58846 15.4141 9.58594L18.0039 7.64258C17.4164 7.27528 16.7751 6.98675 16.0938 6.79199L14.3926 9.40039ZM14.0234 6.50195C13.8452 6.50195 13.6683 6.51026 13.4932 6.52246L12.793 9.55078C13.1172 9.4618 13.4553 9.40588 13.8037 9.38965C13.8067 9.38423 13.8091 9.37831 13.8125 9.37305L15.5791 6.66309C15.0771 6.55749 14.5568 6.50199 14.0234 6.50195Z" fill="#F5F5F5"/>
</svg>
