<svg width="29" height="29" viewBox="0 0 29 29" fill="none" xmlns="http://www.w3.org/2000/svg">
<path d="M0.0839844 14.0833C0.0839844 6.30532 6.38931 0 14.1673 0C21.9453 0 28.2507 6.30532 28.2507 14.0833C28.2507 21.8613 21.9453 28.1667 14.1673 28.1667C6.38931 28.1667 0.0839844 21.8613 0.0839844 14.0833Z" fill="#C49A6C"/>
<path d="M8.70874 12.8144V13.2032C8.70874 16.5656 11.4733 19.3016 14.8738 19.3016H15.5218C15.5364 19.688 15.8568 20 16.2524 20H17.0631C17.4587 20 17.7791 19.688 17.7937 19.3016H19.7573C19.8908 19.3016 20 19.1936 20 19.0616V16.3832C20 16.2512 19.8908 16.1432 19.7573 16.1432H17.7937C17.7791 15.7568 17.4587 15.4448 17.0631 15.4448H16.2524C15.8568 15.4448 15.5364 15.7568 15.5218 16.1432H14.8738C13.2354 16.1432 11.9029 14.8256 11.9029 13.2032V12.8144C12.2937 12.8 12.6092 12.4832 12.6092 12.092V11.2904C12.6092 10.8992 12.2937 10.5824 11.9029 10.5704V8.24C11.9029 8.108 11.7937 8 11.6602 8H8.95146C8.81796 8 8.70874 8.108 8.70874 8.24V10.568C8.31553 10.58 8 10.8992 8 11.2904V12.092C8.00243 12.4832 8.31796 12.8 8.70874 12.8144ZM19.5121 18.8216H17.7937V16.6232H19.5121V18.8216ZM16.0049 16.1672C16.0049 16.0328 16.1165 15.9224 16.2524 15.9224H17.0631C17.199 15.9224 17.3107 16.0328 17.3107 16.1672V19.2776C17.3107 19.412 17.199 19.5224 17.0631 19.5224H16.2524C16.1165 19.5224 16.0049 19.412 16.0049 19.2776V16.1672ZM14.8738 16.6232H15.5194V18.8216H14.8738C11.7427 18.8216 9.19417 16.3016 9.19417 13.2032V12.8168H11.4175V13.2032C11.4175 15.0872 12.9684 16.6232 14.8738 16.6232ZM11.4175 8.48V10.5656H9.19417V8.48H11.4175ZM8.48786 11.2904C8.48786 11.156 8.59951 11.0456 8.73544 11.0456H8.95146C8.95146 11.0456 8.95146 11.0456 8.95388 11.0456C8.95631 11.0456 8.95388 11.0456 8.95631 11.0456H11.6626C11.6626 11.0456 11.6626 11.0456 11.665 11.0456C11.6675 11.0456 11.665 11.0456 11.6675 11.0456H11.8835C12.0194 11.0456 12.1311 11.156 12.1311 11.2904V12.092C12.1311 12.2264 12.0194 12.3368 11.8835 12.3368H11.6675C11.6675 12.3368 11.6675 12.3368 11.665 12.3368C11.6626 12.3368 11.665 12.3368 11.6626 12.3368H8.95388C8.95388 12.3368 8.95388 12.3368 8.95146 12.3368C8.94903 12.3368 8.95146 12.3368 8.94903 12.3368H8.73301C8.59709 12.3368 8.48544 12.2264 8.48544 12.092V11.2904H8.48786Z" fill="#F5F5F5"/>
</svg>
