<svg width="392" height="419" viewBox="0 0 392 419" fill="none" xmlns="http://www.w3.org/2000/svg">
<path d="M354.992 234.795C352.053 232.96 348.082 232.823 344.73 232.724C340.772 232.607 336.818 232.877 332.862 232.647C325.26 232.203 317.75 230.56 310.386 228.704C303.68 227.013 296.944 225.276 290.41 222.995C283.862 220.709 277.588 217.688 271.77 213.909C266.825 210.696 259.914 206.639 258.282 200.58C258.098 199.899 257.05 200.187 257.227 200.871C258.594 206.139 263.424 209.487 267.612 212.497C273.199 216.514 279.017 219.848 285.378 222.49C291.945 225.219 298.804 226.971 305.647 228.838C312.815 230.793 320.055 232.482 327.424 233.465C332.355 234.122 337.195 234.086 342.146 234.057C346.144 234.034 350.715 233.959 354.304 235.972C359.234 238.735 356.246 245.489 354.371 249.216C351.387 255.147 346.694 260.137 341.936 264.683C332.112 274.07 320.974 281.962 310.941 291.106C306.089 295.528 301.632 300.384 298.451 306.159C295.556 311.413 293.882 317.273 293.005 323.181C291.226 335.165 293.055 347.546 296.366 359.103C298.929 368.046 301.893 376.581 302.86 385.907C303.669 393.71 303.478 402.51 299.072 409.303C293.61 417.724 282.379 418.048 273.535 416.187C266.194 414.641 259.431 410.983 252.753 407.708C245.86 404.328 238.947 400.932 231.912 397.854C218.361 391.923 204.098 387.486 189.653 384.357C160.429 378.027 130.404 376.764 101.018 371.398C73.8182 366.431 46.7832 357.852 26.8772 337.771C7.35817 318.08 -0.503828 290.213 1.69917 262.961C2.89917 248.116 7.34017 233.899 14.5662 220.905C22.0992 207.357 31.6692 194.966 40.4142 182.197C49.1342 169.466 57.2472 156.29 64.0012 142.401C70.5852 128.861 75.7712 114.697 81.8672 100.94C87.7432 87.6828 94.9712 75.1988 103.063 63.1778C110.927 51.4968 119.808 40.4578 130.176 30.8988C150.895 11.7958 178.775 0.660824 207.066 1.44782C230.43 2.09682 257.972 13.5408 264.994 37.9708C272.097 62.6898 250.914 82.2998 244.614 104.449C241.24 116.312 243.484 128.167 248.049 139.356C248.775 141.132 249.462 143.013 249.571 144.944C249.776 148.611 245.157 146.96 243.297 146.001C240.608 144.613 238.4 142.302 236.284 140.185C234.104 138.004 231.817 135.967 229.567 133.861C225.76 130.298 221.78 126.295 216.377 125.57C211.375 124.899 206.234 125.853 201.533 127.581C197.537 129.05 193.347 131.381 191.047 135.091C188.681 138.906 189.421 143.759 191.174 147.646C195.686 157.651 204.657 165.563 213.218 172.066C220.851 177.864 231.681 183.625 241.465 181.315C242.965 181.778 244.494 182.132 246.062 182.32C249.77 182.765 254.588 183.172 257.654 180.596C259.373 179.151 260.021 174.422 257.361 173.525C254.626 172.604 251.272 174.822 249.057 176.18C247.761 176.975 246.549 177.851 245.201 178.563C244.014 179.189 242.723 179.633 241.391 179.95C237.32 178.635 233.44 176.535 229.583 174.716C226.558 173.289 223.451 172.038 220.406 170.653C213.829 167.661 207.429 163.825 204.239 157.052C203.891 156.314 202.801 156.957 203.146 157.691C207.974 167.941 219.401 171.408 228.936 175.823C232.19 177.329 235.454 179.069 238.84 180.392C236.71 180.614 234.541 180.524 232.516 180.19C225.595 179.049 219.37 175.115 213.84 171C208.985 167.387 204.487 163.406 200.435 158.914C196.597 154.659 192.867 149.827 191.28 144.235C187.767 131.853 204.107 126.664 213.517 126.671C220.206 126.676 224.607 131.042 229.217 135.363C233.326 139.216 237.255 143.792 242.021 146.83C244.39 148.34 249.314 150.093 250.745 146.552C251.919 143.645 249.595 139.416 248.473 136.817C243.083 124.328 243.199 110.801 248.19 98.2808C252.535 87.3818 259.396 77.6918 263.768 66.7948C268.005 56.2338 269.187 44.6848 265.056 33.9088C261.264 24.0168 253.436 16.2478 244.593 10.7088C222.611 -3.05818 194.173 -2.18918 170.277 5.64982C144.11 14.2348 123.817 32.4848 107.66 54.2968C99.2412 65.6628 91.5732 77.8318 85.2582 90.4928C78.5532 103.935 73.3632 118.069 67.3612 131.824C61.2192 145.899 53.7952 159.377 45.4482 172.263C37.0062 185.297 27.6602 197.719 19.2092 210.745C11.2762 222.972 5.22017 235.819 2.23817 250.138C-0.568826 263.618 -0.715828 277.648 1.68617 291.197C6.11517 316.181 20.5582 337.415 41.5112 351.523C64.7402 367.165 93.9662 372.208 121.202 375.858C150.973 379.849 181.244 381.902 210.029 391.072C224.888 395.806 238.911 402.331 252.879 409.199C263.783 414.56 275.311 420.167 287.809 417.94C305.073 414.864 305.697 394.837 303.557 381.072C302.061 371.444 298.391 362.494 296.156 353.057C293.204 340.597 292.463 327.224 296.254 314.864C300.47 301.121 311.58 291.985 322.333 283.242C332.264 275.167 343.152 267.054 351.02 256.854C354.916 251.804 363.047 239.823 354.992 234.795ZM247.642 178.596C249.351 177.437 257.228 171.923 257.792 176.168C258.65 182.622 248.88 181.73 243.781 180.602C245.098 180.102 246.39 179.446 247.642 178.596Z" fill="#9F83AD"/>
<path d="M252.644 164.469C250.248 159.781 244.801 157.579 242.015 153.153C240.208 150.282 238.923 144.44 234.539 145.979C231.472 136.273 222.19 128.143 211.766 128.649C206.478 128.905 201.5 131.55 197.906 135.346C193.774 139.711 192.396 145.716 192.742 151.576C193.482 164.12 201.794 175.145 207.694 185.708C211.338 192.232 213.354 198.956 213.466 206.454C213.578 213.834 211.785 221.056 210.412 228.255C210.311 228.785 211.064 229.005 211.226 228.48C213.417 221.352 214.781 213.927 214.8 206.454C214.818 199.371 212.882 192.795 209.645 186.548C203.004 173.734 191.363 160.125 194.457 144.656C195.771 138.089 200.961 133.018 207.153 130.871C213.486 128.675 220.217 130.493 225.294 134.629C228.89 137.559 231.91 141.918 233.361 146.534C230.125 148.515 228.023 153.678 227.2 157.072C226.679 159.22 226.936 161.183 228.371 162.885C229.361 164.059 231.446 164.219 232.507 163.048C235.891 159.316 236.103 151.907 234.932 147.294C234.921 147.252 234.906 147.211 234.895 147.17C238.136 145.69 239.769 151.784 240.869 153.823C243.378 158.477 248.773 160.62 251.468 165.157C252.366 166.67 252.475 168.491 250.947 169.65C249.774 170.54 247.758 169.874 246.522 169.518C243.699 168.703 241.227 167.35 238.292 166.867C234.962 166.32 231.526 166.672 228.177 166.79C225.227 166.894 221.865 166.951 219.471 164.953C216.484 162.461 217.178 157.779 218.57 154.685C219.934 151.654 222.333 149.272 224.011 146.437C226.374 142.446 225.134 138.97 220.912 137.203C213.591 134.139 202.529 136.094 200.544 144.886C200.005 147.273 200.398 149.852 200.946 152.198C201.586 154.936 203.157 157.062 204.229 159.586C204.467 160.146 205.396 159.744 205.207 159.174C204.287 156.41 202.743 153.984 202.085 151.091C201.38 147.989 201.481 144.734 203.187 141.987C205.914 137.597 212.135 136.759 216.794 137.466C219.366 137.856 223.032 138.821 223.865 141.597C224.701 144.391 221.547 147.668 220.055 149.675C216.819 154.029 214.12 160.036 217.697 165.021C220.541 168.985 226.742 168.195 230.896 168.002C234.472 167.836 238.151 167.799 241.556 169.06C243.949 169.946 246.202 171.039 248.762 171.364C253.022 171.904 254.265 167.639 252.644 164.469ZM232.365 161.257C231.512 163.264 229.479 162.562 228.597 161.101C227.942 160.011 228.183 158.557 228.398 157.403C228.671 155.936 229.283 154.575 229.947 153.252C230.904 151.343 232.049 149.282 233.74 147.91C233.997 148.969 234.174 150.034 234.247 151.094C234.482 154.531 233.706 158.102 232.365 161.257Z" fill="#9F83AD"/>
<path d="M382.898 196.139C380.186 194.156 376.524 192.275 378.838 188.44C379.201 187.837 379.652 187.296 380.149 186.788C379.818 186.455 379.566 186.059 379.394 185.623C377.266 187.595 375.577 189.882 376.828 192.462C377.825 194.519 379.792 195.774 381.612 197.043C384.564 199.101 387.118 201.832 388.784 205.029C392.335 211.842 386.899 218.018 381.88 222.101C377.137 225.96 371.467 228.675 365.889 231.089C360.01 233.634 353.963 236.044 347.747 237.611C341.151 239.272 333.664 240.082 328.018 244.175C323.861 247.191 321.51 251.959 319.795 256.66C317.419 263.171 315.485 269.836 313.086 276.341C310.582 283.125 307.572 289.725 303.544 295.748C299.827 301.305 295.292 306.287 290.82 311.234C282.434 320.512 273.725 330.167 270.136 342.44C269.606 344.254 269.299 346.092 269.167 347.939C259.789 337.816 248.795 329.128 237.822 320.845C227.414 312.988 215.762 303.901 201.976 304.877C199.964 305.02 197.99 305.382 196.045 305.876C194.582 304.436 193.132 302.983 191.729 301.481C186.136 295.494 182.999 288.859 185.225 280.66C187.186 273.437 191.88 266.688 195.619 260.279C198.34 255.615 201.052 250.947 203.529 246.148C205.687 241.97 207.348 237.63 209.19 233.317C210.508 230.231 211.903 227.177 212.891 223.966C213.6 221.666 214.511 218.6 213.362 216.295C213.14 215.851 212.518 216.24 212.708 216.678C213.564 218.653 212.603 221.19 211.969 223.097C211.103 225.7 209.971 228.237 208.857 230.742C206.43 236.199 204.232 241.712 201.448 247.01C197.959 253.649 193.994 260.025 190.294 266.545C186.99 272.368 183.486 278.362 182.909 285.168C182.184 293.729 187.918 300.387 194.217 306.377C190.357 307.55 186.638 309.253 183.082 311.09C176.451 314.517 170.074 318.453 163.546 322.07C149.865 329.65 135.649 336.213 122.178 344.182C116.305 347.657 110.553 351.441 105.023 355.441C100.147 358.967 95.4033 362.929 91.7483 367.747C85.9273 375.418 81.7883 387.825 90.9803 394.842C96.0883 398.74 102.57 400.342 108.827 401.156C116.056 402.097 123.506 402.263 130.787 402.451C163.33 403.292 195.734 398.381 228.241 397.606C235.867 397.424 243.475 398.233 251.087 397.997C256.317 397.834 262.48 396.783 266.613 393.313C271.869 388.901 267.395 381.911 264.109 377.886C259.063 371.707 252.591 366.78 246.444 361.766C242.559 358.599 239.167 354.892 235.716 351.267C230.211 345.486 224.92 339.541 220.073 333.197C215.681 327.45 211.415 321.608 206.495 316.292C203.531 313.088 200.37 310.09 197.249 307.051C203.352 305.71 209.44 306.166 215.43 308.453C221.95 310.941 227.848 315.186 233.412 319.319C239.798 324.063 246.101 328.917 252.19 334.038C258.017 338.939 263.716 344.101 268.87 349.713C268.945 349.794 269.016 349.878 269.091 349.96C269.078 354.345 269.998 358.741 271.355 362.918C273.422 369.281 276.441 375.421 280.555 380.708C283.174 384.074 286.916 387.76 291.179 388.865C295.311 389.936 296.298 385.531 295.363 382.481C293.685 377.012 289.695 372.299 286.118 367.986C281.334 362.218 276.623 356.355 271.695 350.707C271.341 350.301 270.963 349.913 270.604 349.512C270.711 346.169 271.346 342.831 272.588 339.515C277.279 326.988 287.285 317.453 295.943 307.63C300.188 302.814 304.193 297.769 307.424 292.207C310.843 286.322 313.344 279.928 315.615 273.53C317.782 267.427 319.514 261.143 321.906 255.124C324.306 249.081 328.286 244.707 334.475 242.524C341.447 240.065 348.873 239.272 355.796 236.63C360.769 234.733 365.735 232.827 370.558 230.567C378.766 226.718 391.973 219.522 391.368 208.808C391.081 203.656 386.844 199.025 382.898 196.139ZM204.859 316.669C209.912 322.518 214.663 328.497 219.356 334.644C223.905 340.604 228.893 346.17 234.033 351.623C237.592 355.4 241.115 359.282 245.132 362.581C248.002 364.937 250.907 367.249 253.72 369.674C256.922 372.436 260.022 375.34 262.768 378.56C264.968 381.139 267.382 384.378 267.573 387.896C267.824 392.496 262.428 394.345 258.917 395.389C251.494 397.596 243.533 396.256 235.942 396.119C219.778 395.828 203.491 397.276 187.386 398.488C171.125 399.712 154.858 401.026 138.541 401.109C130.883 401.148 123.245 400.754 115.602 400.319C108.012 399.886 100.855 398.753 94.0623 395.197C88.2263 392.141 86.0783 385.999 87.2893 379.771C88.5303 373.385 92.9093 367.883 97.4433 363.453C102.197 358.807 107.775 355.067 113.309 351.429C119.631 347.271 126.097 343.416 132.753 339.815C146.491 332.38 160.489 325.511 174.063 317.764C180.463 314.112 186.806 310.303 193.842 307.984C194.369 307.81 194.895 307.654 195.422 307.507C198.811 310.666 202.258 313.658 204.859 316.669ZM283.375 367.004C287.619 371.827 292.22 377.193 294.14 383.46C294.568 384.857 294.55 386.905 292.897 387.478C291.793 387.86 290.294 387.083 289.354 386.612C287.207 385.532 285.388 383.89 283.707 382.201C278.407 376.875 275.096 369.56 272.699 362.551C271.463 358.934 270.741 355.298 270.616 351.663C274.999 356.666 278.98 362.009 283.375 367.004Z" fill="#9F83AD"/>
<path d="M335.205 111.581C333.114 111.435 331.01 111.862 329.246 112.994C329.167 112.925 329.086 112.858 329.007 112.789C329.016 112.749 329.027 112.71 329.029 112.669L329.047 112.23C329.068 111.707 328.35 111.395 327.995 111.794C327.98 111.811 327.964 111.825 327.949 111.842C327.249 111.202 326.554 110.556 325.847 109.931C323.317 107.694 320.677 105.624 317.654 104.093C312.515 101.492 307.209 101.314 301.624 102.201C298.715 102.663 293.534 103.406 292.21 106.575C290.717 110.15 294.721 111.721 297.44 112.429C298.174 112.62 298.918 112.773 299.665 112.909C297.418 113.739 298.869 116.613 300.696 117.917C303.995 120.271 308.443 120.784 312.395 120.81C315.703 120.831 318.982 120.412 322.173 119.549C324.359 118.959 326.097 117.482 327.73 115.978C329.018 116.146 330.312 116.254 331.614 116.236C332.429 116.686 333.293 117.055 334.237 117.29C334.832 117.438 335.03 116.609 334.485 116.394C334.238 116.296 334.006 116.177 333.768 116.066C335.244 115.82 337.407 115.19 337.659 113.865C337.942 112.378 336.541 111.674 335.205 111.581ZM328.037 113.605C328.097 113.658 328.157 113.71 328.217 113.763C327.871 114.045 327.533 114.325 327.205 114.604C327.114 114.59 327.023 114.575 326.932 114.561C327.316 114.276 327.685 113.959 328.037 113.605ZM296.223 110.788C293.426 109.901 291.983 107.462 294.94 105.567C297.081 104.195 299.933 103.805 302.398 103.414C306.376 102.782 310.229 102.787 314.104 104.009C318.486 105.392 322.162 108.424 325.56 111.391C326.063 111.83 326.559 112.281 327.055 112.73C326.384 113.336 325.686 113.829 324.96 114.216C324.022 114.044 323.09 113.868 322.167 113.724C315.777 112.726 309.314 112.682 302.895 112.052C300.639 111.832 298.389 111.475 296.223 110.788ZM312.944 114.037C316.141 114.308 319.345 114.643 322.517 115.145C318.436 116.142 313.799 114.865 309.284 113.8C310.513 113.865 311.735 113.935 312.944 114.037ZM320.346 118.618C315.131 119.684 309.682 119.896 304.538 118.33C303.557 118.032 302.649 117.592 301.781 117.055C301.376 116.804 299.168 114.917 299.728 114.267C300.757 113.072 304.666 114.197 305.862 114.437C311.518 115.576 319.501 118.189 325.185 115.588C325.421 115.629 325.658 115.668 325.894 115.707C324.293 117.024 322.667 118.143 320.346 118.618ZM334.667 114.432C333.878 114.725 332.99 114.808 332.164 114.876C332.011 114.889 331.856 114.887 331.703 114.895C331.246 114.588 330.803 114.263 330.37 113.921C331.439 113.328 332.607 112.968 333.922 112.898C334.484 112.867 337.851 113.248 334.667 114.432Z" fill="#9F83AD"/>
<path d="M381.245 179.77C380.887 175.417 377.392 172.157 373.664 170.281C373.703 170.265 373.743 170.254 373.781 170.237C377.94 168.426 377.246 162.192 375.975 158.821C374.032 153.667 369.326 153.511 364.553 154.192C359.472 154.917 350.97 155.406 347.667 150.555C346.916 149.451 346.638 148.365 346.676 147.294C346.922 147.654 347.181 148.008 347.46 148.351C348.661 149.822 350.688 151.335 352.658 151.443C355.038 151.573 356.906 150.412 358.54 148.863C360.307 150.099 362.956 150.355 364.969 150.006C373.14 148.588 377.753 135.959 371.374 130.145C368.389 127.424 363.994 126.384 360.165 125.556C355.631 124.576 351.117 123.876 346.667 122.51C346.281 122.391 345.899 122.265 345.517 122.138C345.343 119.287 344.445 116.525 343.882 113.736C343.037 109.554 342.454 105.291 342.013 101.05C341.239 93.6158 340.849 86.1538 338.876 78.9068C335.578 66.7938 328.284 56.1758 319.093 47.7698C303.062 33.1078 280.223 23.4178 258.199 26.4478C253.757 27.0588 248.622 28.3518 246.146 32.4648C243.406 37.0168 246.107 42.7458 249.511 46.0438C254.031 50.4218 260.477 52.5878 266.263 54.6998C272.628 57.0238 284.496 63.1848 284.467 63.2538C285.267 63.7938 286.06 64.3218 286.853 64.8058C291.694 67.7608 296.182 71.2098 300.749 74.5598C305.09 77.7448 309.021 81.2298 313.02 84.8128C315.497 87.0318 318.063 89.1598 320.092 91.8178C320.414 92.2398 322.455 96.2618 321.41 95.9648C321.267 95.9248 321.129 95.8658 320.987 95.8218C319.384 92.8548 317.178 90.5438 314.24 88.7258C307.91 84.8078 299.25 83.2168 291.929 84.3478C287.948 84.9628 284.267 86.3118 280.871 88.4848C278.063 90.2818 275.175 92.5508 274.666 96.0238C274.605 96.4398 274.829 96.7968 275.273 96.8208C278.204 96.9828 280.742 95.0228 283.019 93.4258C286.869 90.7238 290.545 89.4688 295.321 89.6628C299.887 89.8488 304.563 91.1708 308.943 92.4018C312.767 93.4768 316.223 95.4858 319.936 96.8528C321.79 100.363 322.961 104.363 324.779 107.95C327.257 112.839 331.782 116.77 336.408 119.541C341.193 122.407 346.681 124.119 352.088 125.354C356.237 126.302 360.459 126.793 364.533 128.076C368.954 129.467 373.192 132.118 373.014 137.267C372.805 143.328 368.759 149.354 362.216 148.827C361.171 148.743 360.212 148.442 359.476 147.942C361.001 146.455 362.672 146.533 364.34 145.513C364.995 145.112 365.691 144.663 365.984 143.908C366.689 142.097 365.688 140.618 364.086 139.768C360.455 137.843 356.045 142.541 356.716 146.112C356.855 146.847 357.162 147.461 357.579 147.977C355.778 149.592 353.88 150.88 351.164 149.732C349.387 148.981 347.943 147.406 346.983 145.61C348.156 141.984 352.259 138.565 353.402 135.393C353.742 134.449 353.151 133.458 352.153 133.349C349.696 133.082 347.845 134.625 346.4 136.444C344.013 139.448 344.252 142.889 345.859 145.943C345.384 148.084 345.651 150.257 347.353 152.298C350.058 155.542 355.466 155.69 359.311 155.903C361.136 156.005 362.933 155.755 364.733 155.511C362.498 156.237 360.385 157.804 358.932 159.324C355.973 162.418 357.827 165.374 361.054 167.205C362.113 167.806 363.217 168.263 364.34 168.656C362.212 168.026 360.144 167.195 358.085 166.37C357.366 165.521 356.621 164.697 355.708 164.041C354.023 162.831 352.216 162.339 350.175 162.097C349.83 162.056 349.513 162.424 349.525 162.747C349.579 164.253 350.626 165.085 351.981 165.593C353.743 166.253 355.517 166.868 357.286 167.507C357.364 167.597 357.442 167.679 357.52 167.771C359.488 170.099 361.673 172.151 364.105 173.996C367.82 176.814 371.88 179.845 376.104 181.891C377.194 182.419 378.404 182.744 379.379 182.624C379.399 182.679 379.423 182.732 379.442 182.788C379.694 183.539 379.676 186.451 378.511 186.461C377.65 186.469 377.65 187.789 378.511 187.797C379.963 187.81 380.837 185.843 380.952 184.566C381.033 183.664 380.907 182.832 380.648 182.054C381.096 181.603 381.336 180.871 381.245 179.77ZM313.576 92.6918C308.902 90.6378 303.741 89.6138 298.731 88.7578C294.464 88.0288 290.155 88.1868 286.155 89.9288C282.783 91.3978 279.887 95.2578 276.06 95.5528C276.954 92.3888 280.173 90.3678 282.886 88.7658C286.148 86.8378 289.904 85.8488 293.65 85.4718C300.409 84.7918 307.699 86.5108 313.572 89.8738C315.912 91.2138 317.575 93.0238 318.895 95.0768C317.096 94.3458 315.343 93.4688 313.576 92.6918ZM327.123 109.184C324.663 105.639 323.515 101.386 321.781 97.4678C321.815 97.4778 321.849 97.4908 321.884 97.5008C322.157 97.5788 322.513 97.4578 322.644 97.1908C324.246 93.9348 320.936 90.4978 318.866 88.3258C315.293 84.5768 311.211 81.0318 307.205 77.7728C301.765 73.3458 296.025 69.1478 290.17 65.2878C290.146 65.1848 279.129 58.6418 273.321 56.2598C268.214 54.1648 262.954 52.1398 257.95 49.7788C253.342 47.6038 248.477 44.5038 246.914 39.3688C245.568 34.9488 247.801 31.4228 251.744 29.5698C258.95 26.1838 268.497 27.1768 276.148 28.2268C290.395 30.1818 303.459 36.7798 314.574 45.7268C324.919 54.0548 332.868 64.8138 336.986 77.4888C339.459 85.1008 339.837 93.1428 340.625 101.05C340.968 104.489 341.503 107.895 342.053 111.306C342.607 114.747 343.845 118.197 344.183 121.671C337.395 119.192 331.316 115.229 327.123 109.184ZM358.266 144.029C359.034 141.644 361.545 139.898 363.973 141.181C366.638 142.589 363.616 144.445 362.198 144.884C361.706 145.036 360.818 145.191 360.398 145.5C359.769 145.963 359.171 146.511 358.577 147.064C358.037 146.288 357.866 145.27 358.266 144.029ZM345.776 141.982C345.378 139.007 347.887 135.648 350.627 134.694C353.162 133.812 351.558 136.271 350.927 137.056C350.35 137.773 349.785 138.424 349.254 139.187C348.154 140.765 347.062 142.496 346.37 144.278C346.08 143.513 345.877 142.735 345.776 141.982ZM351.24 163.586C352.808 163.932 354.081 164.578 355.235 165.497C353.684 165.016 351.996 164.389 351.24 163.586ZM375.098 160.366C375.883 162.805 376.032 166.19 374.287 168.254C373.698 168.951 372.909 169.349 372.03 169.553C372.004 169.544 371.978 169.534 371.952 169.525C371.942 167.867 372.299 166.167 372.427 164.556C372.664 161.542 372.536 156.441 368.916 155.343C368.669 155.268 368.418 155.215 368.166 155.174C371.764 155.081 373.993 156.934 375.098 160.366ZM358.721 161.885C359.368 159.646 362.225 158.087 364.161 157.167C366.806 155.91 369.628 156.065 370.72 159.155C371.868 162.406 370.79 165.809 370.699 169.152C366.327 167.981 357.417 166.393 358.721 161.885ZM373.805 179.046C368.943 175.976 364.121 172.649 360.038 168.586C360.014 168.562 359.993 168.535 359.97 168.511C360.038 168.538 360.107 168.562 360.175 168.589C363.332 169.832 367.198 171.25 370.771 170.961C370.827 171.459 370.913 171.954 371.05 172.446C371.6 174.411 373.06 175.987 374.533 177.319C375.599 178.283 376.8 179.075 377.833 180.078C378.268 180.502 378.605 180.981 378.884 181.496C377.252 181.522 374.903 179.739 373.805 179.046ZM380 180.657C379.413 179.691 378.612 178.828 377.691 178.068C375.561 176.31 373.342 174.794 372.358 172.086C372.24 171.76 372.156 171.429 372.091 171.094C373.562 171.678 374.978 172.416 376.28 173.485C377.423 174.423 378.288 175.617 378.983 176.91C379.27 177.444 380.188 179.504 380 180.657Z" fill="#9F83AD"/>
</svg>
