<svg width="62" height="62" viewBox="0 0 62 62" fill="none" xmlns="http://www.w3.org/2000/svg">
<path d="M39.0249 61.7668C28.1668 62.9294 18.0224 59.6963 9.5177 53.1622C4.9411 49.6491 2.21383 44.965 1.33589 39.1098C0.22006 31.7102 1.3812 25.1224 4.81932 19.3464C10.8969 9.1295 19.7754 2.77082 31.4548 0.270347C33.0464 -0.0690844 34.6862 -0.0888908 36.3741 0.21094C46.4081 1.99295 53.8167 6.90623 58.2262 15.8587C62.3554 24.2342 63.3494 33.611 59.4242 42.1901C57.4276 46.5518 54.5729 51.1256 51.6587 54.9951C48.6001 59.0429 44.0971 61.2237 39.0249 61.7668Z" fill="#F3E2C8"/>
<path d="M30.6875 24.9828C34.1797 24.9828 37.0621 27.8652 37.0621 31.3573C37.0621 34.9049 34.1797 37.7318 30.6875 37.7318C27.14 37.7318 24.313 34.9049 24.313 31.3573C24.313 27.8652 27.14 24.9828 30.6875 24.9828ZM30.6875 35.5146C32.9602 35.5146 34.7894 33.6854 34.7894 31.3573C34.7894 29.0846 32.9602 27.2554 30.6875 27.2554C28.3594 27.2554 26.5302 29.0846 26.5302 31.3573C26.5302 33.6854 28.4149 35.5146 30.6875 35.5146ZM38.7804 24.761C38.7804 25.5925 38.1152 26.2577 37.2838 26.2577C36.4523 26.2577 35.7871 25.5925 35.7871 24.761C35.7871 23.9296 36.4523 23.2644 37.2838 23.2644C38.1152 23.2644 38.7804 23.9296 38.7804 24.761ZM42.9931 26.2577C43.104 28.3086 43.104 34.4614 42.9931 36.5124C42.8823 38.5079 42.4388 40.2262 40.9976 41.7228C39.5564 43.164 37.7827 43.6075 35.7871 43.7184C33.7362 43.8292 27.5834 43.8292 25.5325 43.7184C23.537 43.6075 21.8186 43.164 20.322 41.7228C18.8808 40.2262 18.4373 38.5079 18.3265 36.5124C18.2156 34.4614 18.2156 28.3086 18.3265 26.2577C18.4373 24.2622 18.8808 22.4884 20.322 21.0472C21.8186 19.606 23.537 19.1625 25.5325 19.0517C27.5834 18.9408 33.7362 18.9408 35.7871 19.0517C37.7827 19.1625 39.5564 19.606 40.9976 21.0472C42.4388 22.4884 42.8823 24.2622 42.9931 26.2577ZM40.3325 38.6742C40.9976 37.0667 40.8313 33.1865 40.8313 31.3573C40.8313 29.5835 40.9976 25.7034 40.3325 24.0404C39.889 22.9873 39.0576 22.1004 38.0044 21.7124C36.3415 21.0472 32.4613 21.2135 30.6875 21.2135C28.8583 21.2135 24.9782 21.0472 23.3707 21.7124C22.262 22.1558 21.4306 22.9873 20.9871 24.0404C20.322 25.7034 20.4883 29.5835 20.4883 31.3573C20.4883 33.1865 20.322 37.0667 20.9871 38.6742C21.4306 39.7828 22.262 40.6142 23.3707 41.0577C24.9782 41.7228 28.8583 41.5566 30.6875 41.5566C32.4613 41.5566 36.3415 41.7228 38.0044 41.0577C39.0576 40.6142 39.9445 39.7828 40.3325 38.6742Z" fill="#4B2C5E"/>
</svg>
