<svg width="62" height="62" viewBox="0 0 62 62" fill="none" xmlns="http://www.w3.org/2000/svg">
<path d="M39.0522 61.7668C28.1941 62.9294 18.0497 59.6963 9.54505 53.1622C4.96844 49.6491 2.24117 44.965 1.36323 39.1098C0.247404 31.7102 1.40855 25.1224 4.84666 19.3464C10.9243 9.1295 19.8028 2.77082 31.4822 0.270347C33.0738 -0.0690844 34.7135 -0.0888908 36.4014 0.21094C46.4354 1.99295 53.8441 6.90623 58.2536 15.8587C62.3827 24.2342 63.3768 33.611 59.4515 42.1901C57.4549 46.5518 54.6002 51.1256 51.686 54.9951C48.6274 59.0429 44.1245 61.2237 39.0522 61.7668Z" fill="#F3E2C8"/>
<path d="M24.4743 42.2188H19.3192V25.645H24.4743V42.2188ZM21.869 23.4277C20.2615 23.4277 18.9312 22.042 18.9312 20.379C18.9312 18.7716 20.2615 17.4412 21.869 17.4412C23.5319 17.4412 24.8623 18.7716 24.8623 20.379C24.8623 22.042 23.5319 23.4277 21.869 23.4277ZM43.7087 42.2188H38.6091V34.1813C38.6091 32.2412 38.5537 29.8023 35.893 29.8023C33.2323 29.8023 32.8443 31.8532 32.8443 34.015V42.2188H27.6892V25.645H32.6226V27.9176H32.678C33.3986 26.6427 35.0615 25.2569 37.5559 25.2569C42.7664 25.2569 43.7642 28.6937 43.7642 33.1281V42.2188H43.7087Z" fill="#4B2C5E"/>
</svg>
