<svg width="219" height="223" viewBox="0 0 219 223" fill="none" xmlns="http://www.w3.org/2000/svg">
<path d="M136.838 221.843C97.8395 226.019 61.4045 214.407 30.859 190.939C14.4215 178.321 4.62618 161.497 1.47296 140.468C-2.53468 113.891 1.6357 90.2301 13.9841 69.4849C35.8126 32.7897 67.7008 9.95176 109.649 0.970984C115.365 -0.248125 121.255 -0.319262 127.317 0.757618C163.355 7.15794 189.964 24.8046 205.802 56.9586C220.632 87.0401 224.202 120.718 210.104 151.531C202.933 167.197 192.68 183.624 182.214 197.522C171.228 212.06 155.055 219.893 136.838 221.843Z" fill="#F3E2C8"/>
<path d="M92.4889 115.669L91.9677 123H72.7024V121.767C72.9804 121.743 73.3799 121.703 73.9011 121.645C74.4338 121.587 74.8044 121.512 75.0129 121.419C75.3603 121.269 75.6093 121.049 75.7599 120.759C75.922 120.47 76.0031 120.099 76.0031 119.647V101.998C76.0031 101.604 75.9336 101.256 75.7946 100.955C75.6672 100.654 75.4066 100.411 75.0129 100.226C74.7465 100.087 74.3701 99.9535 73.8837 99.8261C73.4089 99.6871 73.0151 99.606 72.7024 99.5829V98.3495H83.1081V99.5829C82.7838 99.5944 82.3611 99.6523 81.84 99.7566C81.3304 99.8608 80.9598 99.9535 80.7282 100.035C80.3344 100.174 80.0623 100.411 79.9117 100.747C79.7727 101.083 79.7033 101.442 79.7033 101.824V118.379C79.7033 119.143 79.738 119.74 79.8075 120.168C79.8886 120.585 80.0681 120.91 80.346 121.141C80.6124 121.35 81.0061 121.489 81.5273 121.558C82.06 121.616 82.8012 121.645 83.7509 121.645C84.1794 121.645 84.6253 121.633 85.0885 121.61C85.5517 121.587 85.9918 121.541 86.4088 121.471C86.8141 121.402 87.1847 121.309 87.5205 121.193C87.868 121.066 88.1228 120.91 88.2849 120.724C88.7597 120.192 89.3098 119.387 89.9352 118.31C90.5722 117.221 91.0123 116.341 91.2555 115.669H92.4889ZM110.417 114.262C110.417 115.466 110.225 116.654 109.843 117.823C109.461 118.981 108.917 119.966 108.21 120.776C107.411 121.703 106.485 122.392 105.431 122.844C104.377 123.295 103.196 123.521 101.887 123.521C100.798 123.521 99.7619 123.318 98.7775 122.913C97.7931 122.496 96.9187 121.894 96.1543 121.106C95.4015 120.331 94.7993 119.387 94.3477 118.275C93.9076 117.152 93.6875 115.895 93.6875 114.505C93.6875 111.83 94.4635 109.641 96.0153 107.939C97.5788 106.236 99.6229 105.385 102.148 105.385C104.545 105.385 106.519 106.196 108.071 107.817C109.635 109.427 110.417 111.575 110.417 114.262ZM106.821 114.297C106.821 113.428 106.734 112.513 106.56 111.552C106.386 110.579 106.126 109.757 105.778 109.085C105.408 108.367 104.921 107.794 104.319 107.365C103.717 106.925 102.981 106.705 102.113 106.705C101.221 106.705 100.457 106.925 99.8198 107.365C99.1944 107.805 98.6848 108.408 98.291 109.172C97.9204 109.879 97.6599 110.683 97.5093 111.587C97.3588 112.49 97.2835 113.364 97.2835 114.21C97.2835 115.322 97.3703 116.352 97.5441 117.302C97.7294 118.24 98.0189 119.08 98.4126 119.821C98.8064 120.562 99.2986 121.147 99.8892 121.576C100.491 121.992 101.233 122.201 102.113 122.201C103.56 122.201 104.707 121.5 105.552 120.099C106.398 118.698 106.821 116.764 106.821 114.297ZM127.58 121.228C128.043 121.668 128.408 122.166 128.674 122.722C128.941 123.278 129.074 123.967 129.074 124.789C129.074 125.612 128.894 126.382 128.535 127.1C128.176 127.829 127.632 128.461 126.902 128.993C126.126 129.538 125.2 129.96 124.123 130.261C123.046 130.563 121.714 130.713 120.127 130.713C117.533 130.713 115.593 130.331 114.308 129.567C113.022 128.814 112.38 127.708 112.38 126.249C112.38 125.067 112.843 124.135 113.769 123.452C114.696 122.768 115.877 122.398 117.313 122.34V122.097C116.966 121.992 116.607 121.865 116.236 121.714C115.865 121.552 115.547 121.367 115.281 121.159C114.98 120.915 114.736 120.632 114.551 120.307C114.366 119.972 114.273 119.56 114.273 119.074C114.273 118.46 114.487 117.898 114.916 117.389C115.356 116.868 116.016 116.422 116.896 116.051V115.791C115.784 115.27 114.922 114.604 114.308 113.793C113.694 112.971 113.387 112.021 113.387 110.944C113.387 109.323 113.989 107.991 115.194 106.948C116.41 105.906 117.962 105.385 119.849 105.385C120.371 105.385 120.886 105.437 121.395 105.541C121.917 105.646 122.444 105.779 122.976 105.941H128.952V107.609H124.922V107.713C125.35 108.211 125.669 108.761 125.877 109.363C126.086 109.965 126.19 110.556 126.19 111.135C126.19 112.641 125.576 113.915 124.349 114.957C123.133 115.999 121.714 116.52 120.093 116.52H117.991C117.724 116.613 117.446 116.781 117.157 117.024C116.867 117.267 116.722 117.597 116.722 118.014C116.722 118.443 116.844 118.773 117.087 119.004C117.33 119.225 117.626 119.375 117.973 119.456C118.309 119.549 118.697 119.607 119.137 119.63C119.589 119.653 120.052 119.67 120.527 119.682C121.036 119.694 121.731 119.728 122.612 119.786C123.503 119.844 124.134 119.879 124.505 119.89C125.038 119.914 125.571 120.041 126.103 120.273C126.648 120.504 127.14 120.823 127.58 121.228ZM122.889 111.066C122.889 109.711 122.612 108.634 122.056 107.834C121.511 107.024 120.741 106.618 119.745 106.618C119.201 106.618 118.732 106.734 118.338 106.966C117.956 107.186 117.643 107.504 117.4 107.921C117.168 108.303 117 108.767 116.896 109.311C116.804 109.844 116.757 110.394 116.757 110.961C116.757 112.247 117.035 113.295 117.591 114.106C118.159 114.916 118.888 115.322 119.78 115.322C120.776 115.322 121.54 114.922 122.073 114.123C122.617 113.312 122.889 112.293 122.889 111.066ZM126.225 125.432C126.225 124.784 126.074 124.251 125.773 123.834C125.472 123.417 125.015 123.133 124.401 122.983C124.077 122.936 123.411 122.884 122.403 122.826C121.395 122.768 120.226 122.739 118.894 122.739C117.643 122.983 116.751 123.388 116.219 123.955C115.698 124.535 115.437 125.276 115.437 126.179C115.437 126.584 115.524 126.972 115.698 127.343C115.871 127.714 116.172 128.055 116.601 128.368C117.006 128.669 117.551 128.912 118.234 129.097C118.917 129.294 119.751 129.393 120.735 129.393C122.438 129.393 123.775 129.063 124.748 128.403C125.733 127.754 126.225 126.764 126.225 125.432ZM147.731 114.262C147.731 115.466 147.54 116.654 147.158 117.823C146.776 118.981 146.231 119.966 145.525 120.776C144.726 121.703 143.799 122.392 142.745 122.844C141.691 123.295 140.51 123.521 139.202 123.521C138.113 123.521 137.076 123.318 136.092 122.913C135.108 122.496 134.233 121.894 133.469 121.106C132.716 120.331 132.114 119.387 131.662 118.275C131.222 117.152 131.002 115.895 131.002 114.505C131.002 111.83 131.778 109.641 133.33 107.939C134.893 106.236 136.937 105.385 139.462 105.385C141.859 105.385 143.834 106.196 145.386 107.817C146.949 109.427 147.731 111.575 147.731 114.262ZM144.135 114.297C144.135 113.428 144.048 112.513 143.875 111.552C143.701 110.579 143.44 109.757 143.093 109.085C142.722 108.367 142.236 107.794 141.634 107.365C141.031 106.925 140.296 106.705 139.427 106.705C138.536 106.705 137.771 106.925 137.134 107.365C136.509 107.805 135.999 108.408 135.606 109.172C135.235 109.879 134.974 110.683 134.824 111.587C134.673 112.49 134.598 113.364 134.598 114.21C134.598 115.322 134.685 116.352 134.859 117.302C135.044 118.24 135.333 119.08 135.727 119.821C136.121 120.562 136.613 121.147 137.204 121.576C137.806 121.992 138.547 122.201 139.427 122.201C140.875 122.201 142.022 121.5 142.867 120.099C143.712 118.698 144.135 116.764 144.135 114.297Z" fill="#4B2C5E"/>
</svg>
