<svg width="156" height="231" viewBox="0 0 156 231" fill="none" xmlns="http://www.w3.org/2000/svg">
<path d="M0.0238641 220.297C2.34946 200.338 14.8866 182.151 29.6013 168.015C38.6923 159.295 49.6226 153.028 62.3922 149.216C81.9836 143.365 100.884 145.531 119.095 155.715C135.395 164.829 145.691 177.066 150.828 195.464C154.141 207.279 155.684 218.286 155.458 228.483C155.449 229.069 155.218 229.63 154.811 230.056C154.404 230.482 153.85 230.741 153.26 230.783C150.483 230.98 147.643 231.043 144.74 230.973C94.112 229.623 55.796 228.399 29.7915 227.302C21.4194 226.936 12.4905 225.93 3.00487 224.285C2.09352 224.129 1.27665 223.63 0.722193 222.888C0.167738 222.146 -0.0821732 221.219 0.0238641 220.297Z" fill="#4B2C5E" fill-opacity="0.6"/>
<path d="M24.9453 91.8586C24.9453 102.662 28.3773 112.07 33.5335 121.686C43.3327 136.665 61.0567 146.029 78.9142 146.029C109.482 146.029 130.529 118.962 130.529 102.664C130.529 99.0997 129.535 95.7335 126.953 93.3023C123.046 89.6242 36.2271 62.4043 35.2733 62.4043C25.8285 62.4044 24.9453 84.4799 24.9453 91.8586Z" fill="#2E4A7D"/>
<path d="M113.891 62.2378C104.372 67.4336 91.9141 69.5307 79.9798 70.7911C70.1908 71.8322 59.2616 71.0899 50.2561 66.3254C34.028 57.7396 29.724 42.7789 37.2063 30.7457C48.218 13.0379 81.6767 8.97526 105.122 18.6978C113.692 22.2451 121.491 28.8168 124.766 36.1522C129.618 46.9887 124.016 56.7002 113.891 62.2378Z" fill="#C49A6C" fill-opacity="0.54"/>
<path d="M110.588 64.4746C105.804 64.4746 102.43 69.4353 102.43 74.698C102.43 79.6817 106.65 87.9338 116.508 87.9338C120.061 87.9338 127.574 85.9819 127.574 81.5644C127.574 77.6724 118.287 64.4746 110.588 64.4746Z" fill="#C49A6C"/>
<path d="M48.5459 137.525C45.4467 137.525 43.2812 140.726 43.2812 144.122C43.2812 146.315 45.1965 152.687 52.3854 152.687C54.8324 152.687 59.6189 151.328 59.6189 148.513C59.619 145.998 53.5326 137.525 48.5459 137.525Z" fill="#C49A6C"/>
</svg>
