<svg width="84" height="66" viewBox="0 0 84 66" fill="none" xmlns="http://www.w3.org/2000/svg">
<path d="M81.6667 29.1833H70.9C69.9833 29.1833 69.2333 29.9333 69.2333 30.85V34.3H55.6167C54.5333 34.3 53.6667 33.4167 53.6667 32.35V26.4167H56.2333C57.15 26.4167 57.9 25.6667 57.9 24.75V16.85C57.9 15.9333 57.15 15.1833 56.2333 15.1833H43.3333V7.56667H56.2333C57.15 7.56667 57.9 6.81667 57.9 5.9C57.9 4.98333 57.15 4.23333 56.2333 4.23333H43.3333V1.66667C43.3333 0.75 42.5833 0 41.6667 0C40.75 0 40 0.75 40 1.66667V4.23333H27.1C26.1833 4.23333 25.4333 4.98333 25.4333 5.9C25.4333 6.81667 26.1833 7.56667 27.1 7.56667H40V15.1833H27.1C26.1833 15.1833 25.4333 15.9333 25.4333 16.85V24.75C25.4333 25.6667 26.1833 26.4167 27.1 26.4167H29.6667V32.35C29.6667 33.4333 28.7833 34.3 27.7167 34.3H14.1V30.85C14.1 29.9333 13.35 29.1833 12.4333 29.1833H1.66667C0.75 29.1833 0 29.9333 0 30.85V62.2833C0 63.2 0.75 63.95 1.66667 63.95H12.4333C13.35 63.95 14.1 63.2 14.1 62.2833V58.8333H24.45C26.8333 58.8333 29.0667 59.7 30.5333 61.2167C33.4833 64.2333 37.4333 65.9 41.65 65.9C45.8667 65.9 49.8167 64.2333 52.7667 61.2167C54.25 59.7 56.4667 58.8333 58.85 58.8333H69.2V62.2833C69.2 63.2 69.95 63.95 70.8667 63.95H81.6667C82.5833 63.95 83.3333 63.2 83.3333 62.2833V30.85C83.3333 29.9333 82.5833 29.1833 81.6667 29.1833ZM28.7667 18.5167H54.5667V23.0833H52H31.3333H28.7667V18.5167ZM10.7667 60.6167H3.33333V32.5167H10.7667V35.9667V57.1667V60.6167ZM58.8833 55.5C55.6 55.5 52.5167 56.7333 50.4167 58.8833C48.1 61.25 45 62.5667 41.6833 62.5667C38.3667 62.5667 35.2667 61.2667 32.95 58.8833C30.85 56.7333 27.75 55.5 24.4833 55.5H14.1333V37.65H27.75C30.6667 37.65 33.0333 35.2833 33.0333 32.3667V26.4333H50.3667V32.3667C50.3667 35.2833 52.7333 37.65 55.65 37.65H69.2667V55.5167H58.8833V55.5ZM80 60.6167H72.5667V57.1667V35.9833V32.5333H80V60.6167Z" fill="#C49A6C"/>
</svg>
