<svg width="66" height="84" viewBox="0 0 66 84" fill="none" xmlns="http://www.w3.org/2000/svg">
<path d="M54.1765 60.5333C56.7598 57.9833 58.8598 55.05 60.3764 51.75C60.3764 51.7333 60.3931 51.7167 60.3931 51.7167C60.3931 51.7167 60.3931 51.7 60.4098 51.7C62.2098 47.75 63.1431 43.55 63.1431 39.1833C63.1431 34.8167 62.2265 30.6167 60.4098 26.6667C60.4098 26.65 60.4098 26.65 60.3931 26.6333C60.3931 26.6167 60.3764 26.6167 60.3764 26.6C56.5098 18.1833 48.9765 12.1167 40.2098 9.95V5.71667C40.2098 4.8 39.4598 4.05 38.5431 4.05C37.6265 4.05 36.8765 4.8 36.8765 5.71667V9.3C36.1431 9.2 35.4098 9.13333 34.6765 9.1V1.66667C34.6765 0.75 33.9265 0 33.0098 0C32.0931 0 31.3431 0.75 31.3431 1.66667V9.1C30.6098 9.13333 29.8765 9.21667 29.1431 9.3V5.71667C29.1431 4.8 28.3931 4.05 27.4765 4.05C26.5598 4.05 25.8098 4.8 25.8098 5.71667V9.93333C17.0431 12.1167 9.52646 18.1667 5.65979 26.5833C5.65979 26.6 5.64313 26.6167 5.64313 26.6167C5.64313 26.6167 5.64313 26.6333 5.62646 26.6333C3.82646 30.5833 2.89313 34.7833 2.89313 39.15C2.89313 43.5167 3.80979 47.7167 5.62646 51.6667C5.62646 51.6833 5.62646 51.6833 5.64313 51.7C5.64313 51.7167 5.65979 51.7167 5.65979 51.7333C7.17646 55.0333 9.27646 57.9667 11.8598 60.5167L0.543127 80.8333C0.0931269 81.6333 0.393126 82.65 1.19313 83.1C1.44313 83.25 1.72646 83.3167 2.00979 83.3167C2.59313 83.3167 3.15979 83 3.47646 82.4667L14.4098 62.8167C17.2265 65.0333 20.4265 66.75 23.8265 67.8333L19.7598 81.1667C19.4931 82.05 19.9931 82.9833 20.8598 83.25C21.0265 83.3 21.1931 83.3167 21.3431 83.3167C22.0598 83.3167 22.7265 82.85 22.9431 82.1333L27.0598 68.6667C29.0265 69.0667 31.0265 69.2667 33.0431 69.2667C35.0598 69.2667 37.0598 69.05 39.0265 68.6667L43.1431 82.1333C43.3598 82.85 44.0265 83.3167 44.7431 83.3167C44.9098 83.3167 45.0598 83.3 45.2265 83.25C46.1098 82.9833 46.6098 82.05 46.3265 81.1667L42.2598 67.8333C45.6598 66.7333 48.8598 65.0333 51.6765 62.8167L62.6098 82.4667C62.9098 83.0167 63.4765 83.3167 64.0765 83.3167C64.3431 83.3167 64.6265 83.25 64.8931 83.1C65.6931 82.65 65.9931 81.6333 65.5431 80.8333L54.1765 60.5333ZM8.29313 49.3833C6.94313 46.1333 6.22646 42.7167 6.22646 39.1667C6.22646 35.6167 6.94313 32.2 8.29313 28.95H57.7431C59.0931 32.2 59.8098 35.6167 59.8098 39.1667C59.8098 42.7167 59.0931 46.1333 57.7431 49.3833H8.29313ZM32.9765 12.3833C32.9931 12.3833 32.9931 12.3833 33.0098 12.3833C33.0265 12.3833 33.0265 12.3833 33.0431 12.3833C42.5598 12.4 51.3265 17.5167 56.0931 25.6333H9.92646C14.6931 17.5167 23.4765 12.3833 32.9765 12.3833ZM26.3098 65.1167C22.1431 64.05 18.2431 61.9333 15.0265 59.0333C12.9931 57.1833 11.2765 55.0833 9.90979 52.7333H56.1098C54.7431 55.0833 53.0265 57.1833 50.9931 59.0333C47.7765 61.95 43.8765 64.05 39.7098 65.1167C35.3431 66.2333 30.6765 66.2333 26.3098 65.1167Z" fill="#C49A6C"/>
<path d="M34.4265 32.3C33.8265 31.3167 32.1932 31.3167 31.5932 32.3C30.6432 33.8333 27.5599 38.9833 27.5599 41.3667C27.5599 44.3667 30.0099 46.8167 33.0099 46.8167C36.0099 46.8167 38.4599 44.3667 38.4599 41.3667C38.4599 39 35.3765 33.8333 34.4265 32.3ZM33.0099 43.4833C31.8432 43.4833 30.8932 42.5333 30.8932 41.3667C30.8932 40.6667 31.8432 38.6167 33.0099 36.4833C34.1765 38.6167 35.1265 40.6667 35.1265 41.3667C35.1265 42.5333 34.1765 43.4833 33.0099 43.4833Z" fill="#C49A6C"/>
</svg>
