<svg width="76" height="76" viewBox="0 0 76 76" fill="none" xmlns="http://www.w3.org/2000/svg">
<path d="M45.7382 33.581L66.4039 21.791C67.2348 21.3174 68.2217 21.1889 69.1484 21.4335C70.075 21.6781 70.8658 22.276 71.3473 23.096L71.7888 23.852C73.1889 26.2511 73.9489 28.9627 73.9975 31.732C74.0461 34.5013 73.3816 37.2374 72.0664 39.683C70.4968 42.6013 67.8665 44.823 64.7057 45.9002C61.5449 46.9775 58.0885 46.8301 55.0332 45.488L46.1661 41.591C45.3988 41.2535 44.7409 40.7128 44.2651 40.0286C43.7894 39.3444 43.5144 38.5434 43.4706 37.7143C43.4268 36.8852 43.6158 36.0602 44.0169 35.3308C44.4179 34.6013 45.0152 33.9957 45.7428 33.581H45.7382ZM38 46.838V70.418C38 72.398 36.3795 74 34.3767 74H33.4982C30.6971 73.9996 27.9422 73.2952 25.4921 71.9531C23.0421 70.611 20.9774 68.6752 19.492 66.3275C17.7185 63.5239 17.0866 60.1597 17.7235 56.9135C18.3605 53.6674 20.2189 50.7808 22.9241 48.836L30.7716 43.1975C31.4507 42.7094 32.2532 42.4166 33.0902 42.3513C33.9272 42.286 34.7662 42.4509 35.5144 42.8277C36.2625 43.2045 36.8906 43.7785 37.3293 44.4863C37.768 45.194 38.0001 46.0079 38 46.838ZM45.7382 42.419L66.4039 54.209C68.1336 55.199 68.7254 57.386 67.7239 59.1005L67.287 59.852C65.8855 62.2503 63.8903 64.2569 61.4888 65.6833C59.0873 67.1096 56.3583 67.9089 53.5584 68.006C50.217 68.1211 46.9556 66.9797 44.4317 64.8119C41.9077 62.6441 40.3089 59.611 39.9573 56.324L38.9377 46.784C38.8502 45.9585 38.9953 45.1252 39.357 44.3762C39.7187 43.6272 40.2829 42.9917 40.9872 42.5399C41.6915 42.0882 42.5085 41.8378 43.3477 41.8164C44.187 41.7951 45.0159 42.0036 45.7428 42.419H45.7382ZM30.2618 42.419L9.59612 54.209C8.76521 54.6826 7.77826 54.8111 6.85161 54.5665C5.92497 54.3219 5.13424 53.724 4.65275 52.904L4.21122 52.148C2.81111 49.7489 2.05106 47.0373 2.00248 44.268C1.95391 41.4987 2.61842 38.7626 3.93355 36.317C5.50318 33.3987 8.13346 31.177 11.2943 30.0998C14.4551 29.0225 17.9115 29.1699 20.9668 30.512L29.8339 34.409C30.6012 34.7465 31.2591 35.2872 31.7349 35.9714C32.2106 36.6556 32.4856 37.4566 32.5294 38.2857C32.5732 39.1148 32.3842 39.9398 31.9831 40.6692C31.5821 41.3987 30.9848 42.0043 30.2572 42.419H30.2618ZM30.2618 33.581L9.59612 21.791C9.18433 21.5557 8.8235 21.2425 8.53425 20.8693C8.245 20.496 8.03302 20.0701 7.91042 19.6158C7.78782 19.1615 7.75701 18.6877 7.81975 18.2217C7.88249 17.7556 8.03755 17.3063 8.27607 16.8995L8.71305 16.148C10.1129 13.7487 12.107 11.7407 14.5077 10.3127C16.9084 8.88476 19.637 8.08376 22.437 7.985C25.78 7.86883 29.043 9.01031 31.5681 11.1792C34.0931 13.348 35.6922 16.3829 36.0427 19.6715L37.0578 29.207C37.1456 30.0322 37.001 30.8653 36.6399 31.6143C36.2787 32.3633 35.7151 32.999 35.0114 33.4512C34.3077 33.9033 33.4912 34.1544 32.6522 34.1765C31.8132 34.1986 30.9843 33.9909 30.2572 33.5765L30.2618 33.581ZM38 29.162V5.582C38 3.602 39.6205 2 41.6233 2H42.5018C48.1963 2 53.4901 4.898 56.508 9.6725C58.2815 12.4761 58.9134 15.8403 58.2765 19.0865C57.6395 22.3326 55.7811 25.2192 53.0759 27.164L45.2284 32.8025C44.5493 33.2906 43.7468 33.5834 42.9098 33.6487C42.0728 33.714 41.2338 33.5491 40.4856 33.1723C39.7375 32.7955 39.1094 32.2215 38.6707 31.5137C38.232 30.806 37.9999 29.9921 38 29.162Z" stroke="#C49A6C" stroke-width="2.2"/>
</svg>
