<svg width="156" height="40" viewBox="0 0 156 40" fill="none" xmlns="http://www.w3.org/2000/svg">
<path d="M26.2669 1.07175C26.4294 1.09598 26.5369 1.18104 26.6689 1.27411C26.7196 1.30906 26.7703 1.34393 26.8211 1.37872C26.8434 1.39431 26.8656 1.40989 26.8885 1.42595C26.9601 1.4722 27.0335 1.50951 27.1106 1.54592C27.1106 1.5711 27.1106 1.59628 27.1106 1.62222C27.1383 1.62557 27.166 1.62891 27.1945 1.63236C27.3256 1.66599 27.3998 1.72146 27.5065 1.80343C27.6892 1.93939 27.874 2.05147 28.0761 2.15631C28.1944 2.22068 28.1944 2.22068 28.2692 2.27075C28.2692 2.29593 28.2692 2.32111 28.2692 2.34705C28.3062 2.36003 28.3062 2.36003 28.344 2.37328C28.506 2.44188 28.6569 2.52784 28.8099 2.61409C28.8099 2.63927 28.8099 2.66445 28.8099 2.69039C28.8314 2.69968 28.8529 2.70898 28.875 2.71856C29.1389 2.86078 29.3993 3.09702 29.505 3.37707C29.5483 3.66569 29.5039 3.88368 29.3689 4.14053C29.3127 4.25287 29.2664 4.36513 29.2217 4.48235C29.205 4.52582 29.1883 4.56929 29.1711 4.61409C29.1452 4.68158 29.1452 4.68158 29.1188 4.75043C29.0493 4.92864 28.9791 5.10659 28.9088 5.28451C28.8914 5.32907 28.8739 5.37362 28.8559 5.41953C28.769 5.63925 28.6783 5.85541 28.5768 6.06895C28.4414 6.35425 28.3304 6.64681 28.2199 6.94222C28.1693 7.07733 28.1179 7.21214 28.0664 7.34694C28.05 7.39181 28.0335 7.43669 28.0165 7.48292C27.8785 7.84023 27.6821 8.23907 27.3423 8.45087C27.3168 8.45087 27.2914 8.45087 27.2651 8.45087C27.2698 8.48574 27.2744 8.52061 27.2793 8.55653C27.3209 8.87896 27.3514 9.2012 27.3742 9.52545C27.4096 10.012 27.4496 10.4981 27.4906 10.9842C27.4939 11.0226 27.4971 11.061 27.5004 11.1006C27.5207 11.3404 27.541 11.5802 27.5613 11.82C27.575 11.981 27.5886 12.142 27.6022 12.303C27.6189 12.5008 27.6356 12.6986 27.6523 12.8964C27.6556 12.9348 27.6588 12.9733 27.6622 13.0129C27.6956 13.408 27.7294 13.8031 27.7641 14.1981C27.7669 14.2296 27.7697 14.261 27.7725 14.2934C27.7853 14.4388 27.7981 14.5842 27.8112 14.7296C27.8178 14.8047 27.8178 14.8047 27.8245 14.8813C27.8284 14.9244 27.8323 14.9676 27.8362 15.0121C27.8434 15.1137 27.8444 15.2158 27.8444 15.3177C32.1774 15.3177 36.5105 15.3177 40.9749 15.3177C40.8474 15.2799 40.72 15.2421 40.5887 15.2032C40.5241 15.1792 40.46 15.1539 40.3969 15.1263C40.3655 15.1126 40.3341 15.0988 40.3017 15.0847C40.2697 15.0703 40.2378 15.0559 40.2049 15.0411C40.1711 15.0259 40.1373 15.0107 40.1025 14.995C39.8508 14.8798 39.6166 14.7539 39.3915 14.5928C39.353 14.566 39.3145 14.5392 39.2749 14.5116C38.0875 13.6627 37.3278 12.3803 37.092 10.9566C37.0403 10.6018 37.0217 10.2519 37.0237 9.89338C37.0237 9.86596 37.0238 9.83855 37.0239 9.8103C37.0307 8.40387 37.4593 6.93789 38.4818 5.91487C38.5307 5.86721 38.5307 5.86721 38.5805 5.8186C38.6128 5.78624 38.6451 5.75388 38.6784 5.72054C38.7106 5.68838 38.7428 5.65622 38.776 5.62309C38.8083 5.59073 38.8406 5.55837 38.8739 5.52503C39.0874 5.32266 39.0874 5.32266 39.1984 5.32266C39.1984 5.29749 39.1984 5.27231 39.1984 5.24637C39.4028 5.09377 39.4028 5.09377 39.546 5.09377C39.546 5.06859 39.546 5.04341 39.546 5.01747C40.0827 4.72473 40.6073 4.4724 41.2066 4.33079C41.2358 4.32327 41.265 4.31574 41.2951 4.30799C41.5127 4.25527 41.7277 4.23838 41.9511 4.22573C42.0548 4.22284 42.0548 4.22284 42.1334 4.1782C42.234 4.17443 42.3334 4.17286 42.434 4.17313C42.4785 4.17308 42.4785 4.17308 42.524 4.17302C42.5868 4.17299 42.6497 4.17306 42.7125 4.17322C42.8089 4.17343 42.9053 4.17323 43.0016 4.17298C43.0626 4.17301 43.1236 4.17306 43.1846 4.17313C43.228 4.17301 43.228 4.17301 43.2723 4.1729C43.4762 4.17381 43.4762 4.17381 43.5624 4.21635C43.6149 4.22418 43.6677 4.23031 43.7206 4.23542C43.7515 4.23857 43.7825 4.24171 43.8144 4.24496C43.8798 4.25133 43.9453 4.25769 44.0108 4.26403C44.2536 4.28877 44.2536 4.28877 44.2961 4.33079C44.3547 4.34046 44.4135 4.34897 44.4723 4.35702C44.9727 4.4441 45.4338 4.67048 45.8795 4.90303C45.8795 4.9282 45.8795 4.95338 45.8795 4.97932C45.9141 4.98759 45.9141 4.98759 45.9495 4.99601C46.017 5.01317 46.0837 5.03384 46.1498 5.05562C46.1498 5.0808 46.1498 5.10598 46.1498 5.13192C46.1705 5.14136 46.1913 5.1508 46.2126 5.16053C46.3268 5.21991 46.4316 5.28583 46.536 5.36081C46.536 5.38599 46.536 5.41117 46.536 5.43711C46.5671 5.44813 46.5982 5.45914 46.6302 5.47049C46.7291 5.51341 46.7291 5.51341 46.7677 5.58971C46.806 5.61488 46.8442 5.64006 46.8836 5.666C46.9361 5.72814 46.9361 5.72815 46.9898 5.80191C47.0745 5.91667 47.1611 6.02919 47.2505 6.14048C47.6292 6.62375 48.053 7.2833 48.0422 7.91679C47.6471 7.92032 47.2519 7.92303 46.8568 7.92469C46.6733 7.92549 46.4899 7.92657 46.3064 7.9283C46.1294 7.92996 45.9523 7.93087 45.7753 7.93127C45.7077 7.93155 45.6402 7.9321 45.5726 7.93292C45.478 7.93403 45.3835 7.93418 45.2889 7.93411C45.2469 7.93493 45.2469 7.93493 45.2041 7.93577C45.0715 7.9347 45.004 7.92682 44.8989 7.84392C44.8411 7.76976 44.7845 7.69567 44.7306 7.61875C44.3882 7.1653 43.8796 6.92347 43.3223 6.82716C42.8926 6.7781 42.4375 6.77936 42.0176 6.88677C41.9862 6.89419 41.9549 6.90162 41.9225 6.90927C41.5543 7.00623 41.2202 7.16993 40.9363 7.42085C40.9108 7.42085 40.8853 7.42085 40.859 7.42085C40.859 7.44603 40.859 7.47121 40.859 7.49715C40.8307 7.51879 40.8025 7.54043 40.7733 7.56272C40.6524 7.66067 40.574 7.76827 40.4921 7.89771C40.4771 7.92143 40.462 7.94514 40.4465 7.96958C39.9492 8.77073 39.8396 9.74966 40.0094 10.6635C40.014 10.6885 40.0186 10.7135 40.0234 10.7393C40.1187 11.2309 40.3075 11.6836 40.6273 12.075C40.6273 12.1002 40.6273 12.1254 40.6273 12.1513C40.6528 12.1513 40.6783 12.1513 40.7045 12.1513C40.7866 12.2228 40.7866 12.2228 40.859 12.3039C40.859 12.3291 40.859 12.3543 40.859 12.3802C40.8811 12.3906 40.9031 12.4011 40.9258 12.4118C41.0145 12.457 41.0961 12.5082 41.18 12.5614C42.0237 13.0576 43.0032 13.1357 43.9485 12.9143C44.0721 12.8739 44.1825 12.8239 44.2961 12.7617C44.3257 12.7467 44.3554 12.7317 44.3859 12.7162C44.5273 12.6426 44.655 12.5667 44.7764 12.4637C44.8754 12.3802 44.8754 12.3802 44.9526 12.3802C44.9619 12.3594 44.9713 12.3386 44.9809 12.3172C45.0416 12.2063 45.1172 12.1142 45.1964 12.0154C45.3846 11.775 45.5121 11.5234 45.6092 11.2357C44.4877 11.2232 43.3662 11.2106 42.2107 11.1976C42.1634 11.1041 42.1672 11.0433 42.1671 10.9387C42.1669 10.8818 42.1669 10.8818 42.1667 10.8238C42.1668 10.7827 42.1669 10.7416 42.1669 10.6993C42.1669 10.6572 42.1669 10.6152 42.1668 10.5719C42.1668 10.4828 42.1669 10.3938 42.167 10.3048C42.1672 10.1681 42.167 10.0315 42.1668 9.89487C42.1668 9.80854 42.1669 9.7222 42.1669 9.63587C42.1669 9.59478 42.1668 9.55369 42.1667 9.51136C42.1668 9.47342 42.1669 9.43548 42.1671 9.3964C42.1671 9.34617 42.1671 9.34617 42.1672 9.29493C42.1721 9.21385 42.1721 9.21385 42.2107 9.13755C44.1988 9.13755 46.1869 9.13755 48.2353 9.13755C48.2353 11.9764 48.2353 11.9764 47.878 12.6282C47.8632 12.6554 47.8484 12.6827 47.8332 12.7108C47.537 13.2451 47.1683 13.747 46.6905 14.1351C46.6406 14.1795 46.5907 14.224 46.5409 14.2686C46.0196 14.7167 45.3947 15.0393 44.7463 15.266C44.7214 15.2747 44.6966 15.2834 44.671 15.2923C44.6104 15.3135 44.5498 15.3347 44.4892 15.3558C44.5135 15.3559 44.5378 15.356 44.5628 15.356C46.0037 15.36 47.4446 15.3641 48.8855 15.3685C49.0588 15.369 49.232 15.3695 49.4052 15.37C49.457 15.3702 49.457 15.3702 49.5097 15.3703C50.0672 15.372 50.6247 15.3736 51.1822 15.3751C51.7547 15.3766 52.3273 15.3783 52.8999 15.3801C53.2528 15.3812 53.6057 15.3822 53.9587 15.3831C54.2011 15.3837 54.4436 15.3845 54.686 15.3853C54.8256 15.3858 54.9652 15.3862 55.1048 15.3865C55.2568 15.3868 55.4088 15.3873 55.5608 15.3879C55.6041 15.388 55.6474 15.388 55.6919 15.388C56.0281 15.3897 56.3556 15.4113 56.6928 15.4321C56.6928 11.7813 56.6928 8.13042 56.6928 4.36894C57.6232 4.36894 58.5535 4.36894 59.512 4.36894C59.512 5.79151 59.512 7.21409 59.512 8.67977C60.8884 8.67977 62.2648 8.67977 63.6829 8.67977C63.6829 7.25719 63.6829 5.83462 63.6829 4.36894C64.6132 4.36894 65.5436 4.36894 66.5021 4.36894C66.5021 8.01979 66.5021 11.6706 66.5021 15.4321C69.5995 15.4306 69.5995 15.4306 72.6969 15.4287C73.3017 15.4285 73.3017 15.4285 73.5866 15.4285C73.7817 15.4284 73.9769 15.4283 74.172 15.4281C74.4235 15.4278 74.6751 15.4278 74.9266 15.4278C75.0173 15.4278 75.108 15.4277 75.1986 15.4276C76.1108 15.4261 77.0209 15.4507 77.9334 15.4703C77.9334 12.537 77.9334 9.60373 77.9334 6.58158C76.952 6.58158 75.9707 6.58158 74.9597 6.58158C74.9597 5.83882 74.9597 5.09606 74.9597 4.33079C77.8654 4.34338 80.7711 4.35597 83.7648 4.36894C83.7648 5.08652 83.7648 5.8041 83.7648 6.54343C83.7521 6.55602 83.7394 6.56861 83.7262 6.58158C82.7449 6.58158 81.7636 6.58158 80.7526 6.58158C80.7526 9.51484 80.7526 12.4481 80.7526 15.4703C81.7339 15.4703 82.7152 15.4703 83.7262 15.4703C83.7262 15.508 83.7262 15.5458 83.7262 15.5847C80.5979 15.6118 77.4698 15.6292 74.3413 15.6329C73.9277 15.6334 73.514 15.634 73.1003 15.6346C73.0577 15.6347 73.0577 15.6347 73.0142 15.6347C72.8694 15.635 72.7245 15.6352 72.5797 15.6354C72.2847 15.6359 71.9896 15.6363 71.6946 15.6368C71.665 15.6368 71.6354 15.6369 71.605 15.6369C70.9376 15.6379 70.2703 15.6388 69.603 15.6397C68.054 15.6418 66.505 15.6442 64.956 15.6466C64.8919 15.6467 64.8278 15.6468 64.7636 15.6469C64.0267 15.6481 63.2898 15.6492 62.5529 15.6504C62.1049 15.6511 61.6569 15.6518 61.2089 15.6525C57.7141 15.658 54.2194 15.6641 47.4732 15.6798C47.3517 15.6801 47.2302 15.6804 47.1087 15.6807C44.7786 15.6864 42.4484 15.6925 40.1183 15.6989C40.0092 15.6992 39.9002 15.6995 39.7912 15.6998C36.5236 15.7087 33.256 15.7179 22.6118 15.7632C19.7266 15.7799 16.8418 15.7749 13.9566 15.7594C13.8343 15.7588 13.7121 15.7581 13.5898 15.7575C12.5019 15.7517 11.4141 15.7456 10.3262 15.7392C10.0859 15.7378 9.8457 15.7364 9.60547 15.7351C8.94789 15.7314 8.29031 15.7274 7.63274 15.7226C7.44749 15.7213 7.26224 15.7201 7.07699 15.719C6.8654 15.7179 6.65381 15.7163 6.44223 15.7145C6.36751 15.7139 6.29279 15.7135 6.21807 15.7131C5.24227 15.7086 5.24227 15.7086 4.86601 15.5847C4.86601 11.8835 4.86601 8.1823 4.86601 4.36894C7.31291 4.36894 9.75982 4.36894 12.2809 4.36894C12.2809 5.09911 12.2809 5.82928 12.2809 6.58158C10.7643 6.58158 9.24773 6.58158 7.6852 6.58158C7.69795 7.31175 7.71069 8.04192 7.72382 8.79421C7.96591 8.79377 8.208 8.79333 8.45743 8.79287C8.61038 8.79268 8.76332 8.79249 8.91626 8.79235C9.15927 8.79212 9.40228 8.79185 9.64528 8.79134C9.8411 8.79092 10.0369 8.79069 10.2327 8.79059C10.3076 8.79052 10.3825 8.79038 10.4574 8.79018C10.5619 8.7899 10.6664 8.78986 10.7709 8.78988C10.8022 8.78974 10.8334 8.78961 10.8657 8.78947C11.0793 8.78986 11.0793 8.78986 11.1223 8.83236C11.1261 8.90005 11.1272 8.9679 11.1273 9.0357C11.1274 9.07911 11.1275 9.12252 11.1277 9.16724C11.1276 9.23811 11.1276 9.23811 11.1274 9.31041C11.1275 9.35853 11.1275 9.40666 11.1275 9.45623C11.1276 9.55822 11.1275 9.6602 11.1273 9.76218C11.1271 9.89317 11.1272 10.0242 11.1275 10.1551C11.1276 10.2797 11.1275 10.4042 11.1274 10.5288C11.1275 10.576 11.1276 10.6233 11.1277 10.672C11.1275 10.7371 11.1275 10.7371 11.1273 10.8035C11.1273 10.8419 11.1272 10.8804 11.1272 10.92C11.1223 11.0068 11.1223 11.0068 11.0837 11.045C10.9791 11.0486 10.8755 11.0498 10.7709 11.0493C10.7376 11.0493 10.7043 11.0493 10.6699 11.0493C10.5616 11.0493 10.4533 11.049 10.3449 11.0487C10.2783 11.0487 10.2116 11.0486 10.1449 11.0486C9.89705 11.0484 9.6492 11.0479 9.40134 11.0474C8.84776 11.0466 8.29418 11.0458 7.72382 11.045C7.71108 12.4676 7.69833 13.8901 7.6852 15.3558C8.05583 15.3503 8.42646 15.3448 8.80832 15.3391C9.0581 15.3356 9.30788 15.3321 9.55765 15.3287C9.58995 15.3282 9.62224 15.3278 9.65552 15.3274C9.89744 15.3241 10.1394 15.3209 10.3813 15.3177C10.4156 15.3172 10.4499 15.3168 10.4853 15.3163C12.985 15.2833 15.4845 15.2727 17.9844 15.2748C18.0451 15.2748 18.0451 15.2748 18.1071 15.2749C19.1387 15.2757 20.1703 15.2772 21.2019 15.2795C21.2274 15.1569 21.2474 15.038 21.2571 14.9131C21.2612 14.861 21.2612 14.861 21.2654 14.8079C21.2684 14.7696 21.2713 14.7314 21.2743 14.6919C21.2776 14.6502 21.2809 14.6085 21.2843 14.5656C21.2996 14.3726 21.3145 14.1797 21.3293 13.9867C21.342 13.8217 21.3549 13.6567 21.3678 13.4917C21.3702 13.4621 21.3725 13.4325 21.3749 13.402C21.4147 12.8958 21.4601 12.3901 21.5069 11.8845C21.5378 11.5501 21.5677 11.2156 21.5974 10.8812C21.6189 10.6407 21.6409 10.4004 21.664 10.1601C21.6861 9.93043 21.7069 9.70069 21.7268 9.47083C21.7344 9.38489 21.7426 9.29899 21.7513 9.21314C21.7632 9.09475 21.7733 8.97633 21.783 8.85775C21.7869 8.82297 21.7909 8.78819 21.7949 8.75235C21.8016 8.65732 21.8046 8.58148 21.7812 8.48902C21.7016 8.40318 21.6129 8.35422 21.5108 8.29828C21.1577 7.94422 21.0944 7.54728 21.0675 7.06586C21.066 7.0394 21.0644 7.01293 21.0629 6.98566C21.058 6.89891 21.0532 6.81214 21.0485 6.72538C21.0451 6.66442 21.0417 6.60346 21.0382 6.5425C21.0311 6.41492 21.0241 6.28733 21.0171 6.15973C21.0082 5.9974 20.9991 5.83507 20.99 5.67275C20.9829 5.54685 20.9759 5.42093 20.969 5.29502C20.9657 5.23523 20.9624 5.17545 20.959 5.11567C20.9399 4.77754 20.9266 4.4407 20.9316 4.1019C21.0474 4.1019 21.0474 4.1019 21.1299 4.15778C21.2815 4.23808 21.4112 4.23827 21.5808 4.2378C21.6119 4.2378 21.643 4.23779 21.6751 4.23778C21.8887 4.23166 22.029 4.2008 22.1864 4.0487C22.2056 4.02849 22.2248 4.00828 22.2446 3.98745C22.2955 3.94854 22.3469 3.91018 22.3991 3.87301C22.5922 4.06375 22.5922 4.06375 22.6646 4.14482C22.9223 4.36945 23.2291 4.35589 23.5577 4.36894C23.5577 4.34376 23.5577 4.31858 23.5577 4.29264C23.6341 4.28005 23.7106 4.26747 23.7894 4.2545C23.7894 4.22932 23.7894 4.20414 23.7894 4.1782C23.8276 4.1782 23.8658 4.1782 23.9052 4.1782C23.9052 4.15302 23.9052 4.12784 23.9052 4.1019C23.9921 4.00176 23.9921 4.00176 24.0983 3.91115C24.2528 3.91115 24.2528 3.91115 24.3216 3.97523C24.3544 4.01669 24.3544 4.01669 24.388 4.05898C24.4768 4.17025 24.5443 4.23777 24.6776 4.29264C24.6776 4.31782 24.6776 4.343 24.6776 4.36894C24.9707 4.36894 25.2638 4.36894 25.5658 4.36894C25.5658 4.34376 25.5658 4.31858 25.5658 4.29264C25.6215 4.25685 25.6772 4.22121 25.7336 4.18654C25.803 4.13613 25.8488 4.08318 25.9014 4.01606C25.9308 3.98144 25.9603 3.94682 25.9907 3.91115C26.0289 3.91115 26.0671 3.91115 26.1065 3.91115C26.1617 3.97389 26.1617 3.97389 26.2175 4.0566C26.31 4.18599 26.3893 4.25462 26.5313 4.33079C26.5441 4.36856 26.5568 4.40633 26.5699 4.44524C26.5227 4.51111 26.5227 4.51111 26.4517 4.58353C26.1553 4.90242 25.9522 5.27974 25.7589 5.666C25.8099 5.666 25.8609 5.666 25.9134 5.666C25.9266 5.63783 25.9397 5.60965 25.9532 5.58062C26.093 5.2916 26.2583 5.043 26.4541 4.78858C26.4889 4.73863 26.5235 4.68858 26.5579 4.63837C26.6441 4.52561 26.7278 4.45445 26.8403 4.36894C26.8682 4.33432 26.896 4.2997 26.9248 4.26403C26.9479 4.23571 26.971 4.20738 26.9948 4.1782C27.0202 4.1782 27.0457 4.1782 27.072 4.1782C27.072 4.15302 27.072 4.12784 27.072 4.1019C27.1475 4.0486 27.2252 3.99816 27.3037 3.9493C27.3472 3.92083 27.3907 3.89222 27.434 3.86347C27.4675 3.84144 27.501 3.81941 27.5354 3.79671C27.3955 3.62709 27.2463 3.47086 27.0878 3.31806C27.0681 3.29897 27.0484 3.27989 27.0281 3.26023C26.9458 3.18066 26.8634 3.10117 26.7805 3.02226C26.3744 2.63508 25.9963 2.2214 25.9762 1.63653C25.9821 1.42938 26.0207 1.1203 26.2669 1.07175ZM22.206 4.90303C22.1932 4.96597 22.1805 5.02892 22.1674 5.09377C22.194 5.09795 22.2206 5.10213 22.2481 5.10644C22.9113 5.21698 23.61 5.51725 24.1474 5.92291C24.2108 5.9787 24.2108 5.9787 24.2914 5.97119C24.2914 5.99637 24.2914 6.02155 24.2914 6.04749C24.3488 6.0994 24.3488 6.0994 24.4218 6.14763C24.446 6.16465 24.4701 6.18166 24.4951 6.19919C24.5599 6.24472 24.5599 6.24472 24.639 6.23824C24.6509 6.2701 24.6509 6.2701 24.6631 6.30261C24.7222 6.40079 24.7938 6.45454 24.884 6.5242C24.9827 6.61279 25.0543 6.71853 25.1296 6.82671C25.1461 6.84653 25.1626 6.86635 25.1797 6.88677C25.2051 6.88677 25.2306 6.88677 25.2569 6.88677C25.2712 6.91745 25.2712 6.91745 25.2859 6.94876C25.3456 7.06089 25.4164 7.16364 25.4886 7.26826C25.5396 7.23049 25.5906 7.19272 25.6431 7.15381C24.827 6.02398 23.7324 5.24959 22.3605 4.90303C22.3095 4.90303 22.2585 4.90303 22.206 4.90303ZM23.7121 8.37457C23.7121 8.42493 23.7121 8.47529 23.7121 8.52717C24.6807 8.52717 25.6493 8.52717 26.6472 8.52717C26.6472 8.47681 26.6472 8.42646 26.6472 8.37457C25.6786 8.37457 24.71 8.37457 23.7121 8.37457ZM59.512 10.9687C59.5083 11.0266 59.5073 11.0847 59.5074 11.1427C59.5073 11.1803 59.5073 11.218 59.5072 11.2567C59.5074 11.2983 59.5075 11.3399 59.5077 11.3828C59.5077 11.4263 59.5076 11.4698 59.5076 11.5147C59.5077 11.6594 59.508 11.8041 59.5083 11.9488C59.5083 12.0488 59.5084 12.1488 59.5084 12.2488C59.5086 12.4857 59.5089 12.7225 59.5093 12.9594C59.5097 13.2554 59.5099 13.5514 59.5102 13.8474C59.5105 14.3756 59.5113 14.9039 59.512 15.4321C60.8884 15.4321 62.2648 15.4321 63.6829 15.4321C63.6829 13.9466 63.6829 12.4611 63.6829 10.9306C63.0019 10.9298 62.3209 10.929 61.6192 10.9282C61.4038 10.9278 61.1884 10.9275 60.9665 10.9271C60.7742 10.927 60.7742 10.927 60.5819 10.9269C60.4959 10.9268 60.4099 10.9267 60.324 10.9265C60.1941 10.9262 60.0642 10.9262 59.9344 10.9262C59.8958 10.9261 59.8572 10.9259 59.8175 10.9258C59.7654 10.9259 59.7654 10.9259 59.7122 10.926C59.6665 10.9259 59.6665 10.9259 59.62 10.9259C59.5498 10.9231 59.5498 10.9231 59.512 10.9687Z" fill="#FEFEFE"/>
<path d="M25.7999 0.0914669C25.851 0.117646 25.9018 0.144634 25.952 0.172533C26.0034 0.198142 26.0548 0.223626 26.1065 0.248831C26.1065 0.274009 26.1065 0.299188 26.1065 0.325129C26.1447 0.337718 26.1829 0.350307 26.2223 0.363278C26.3066 0.503481 26.3247 0.655693 26.3223 0.816445C26.2995 0.897362 26.2995 0.897362 26.2345 0.948476C26.1787 0.976901 26.1229 1.00531 26.0671 1.03371C25.9438 1.12141 25.9228 1.22822 25.8901 1.3702C25.8383 1.7049 25.8781 2.03997 26.052 2.33763C26.1158 2.48282 26.111 2.55838 26.088 2.71376C26.0812 2.76138 26.0744 2.80901 26.0674 2.85808C26.0596 2.90738 26.0517 2.95668 26.0437 3.00747C26.0368 3.05633 26.0299 3.10519 26.0227 3.15552C25.9136 3.88815 25.9136 3.88815 25.611 4.12318C25.3847 4.27155 25.1419 4.34172 24.8706 4.29261C24.7357 4.23891 24.61 4.17436 24.4844 4.10187C24.4844 4.07669 24.4844 4.05151 24.4844 4.02557C24.459 4.02557 24.4335 4.02557 24.4072 4.02557C24.2772 3.88179 24.2479 3.75192 24.2476 3.56316C24.2475 3.53134 24.2474 3.49951 24.2474 3.46672C24.2475 3.43162 24.2477 3.39652 24.2479 3.36035C24.248 3.32291 24.2481 3.28547 24.2482 3.2469C24.2517 2.6673 24.2701 2.08789 24.2889 1.50862C24.2911 1.43837 24.2931 1.36812 24.2951 1.29787C24.2981 1.19136 24.3018 1.0849 24.3058 0.978428C24.3066 0.949725 24.3073 0.921021 24.308 0.891448C24.3176 0.675683 24.3645 0.497656 24.5068 0.329301C24.8699 0.0376037 25.3515 -0.106787 25.7999 0.0914669Z" fill="#FEFEFE"/>
<path d="M23.9438 0.210704C24.0908 0.318688 24.1628 0.458632 24.2142 0.630341C24.225 0.749974 24.218 0.866658 24.2099 0.986348C24.2073 1.03772 24.2073 1.03772 24.2046 1.09012C24.1987 1.20156 24.192 1.31293 24.1852 1.42431C24.1767 1.57923 24.1685 1.73417 24.1603 1.88911C24.1582 1.92782 24.1561 1.96654 24.1539 2.00643C24.1409 2.25074 24.1317 2.4948 24.1268 2.73941C24.1259 2.78427 24.1259 2.78427 24.1249 2.83004C24.1226 2.94255 24.1204 3.05505 24.1192 3.16758C24.1129 3.75389 24.1129 3.75389 23.9215 3.98461C23.6947 4.17049 23.4761 4.2338 23.1819 4.22587C22.929 4.19835 22.756 4.10537 22.5922 3.91115C22.4718 3.75087 22.4595 3.61363 22.4607 3.41993C22.4604 3.39026 22.4602 3.36058 22.4599 3.33C22.4592 3.23218 22.4593 3.13438 22.4596 3.03655C22.4594 2.96828 22.4592 2.9 22.459 2.83172C22.4586 2.68867 22.4587 2.54562 22.4591 2.40256C22.4595 2.21976 22.4587 2.037 22.4576 1.85421C22.4569 1.71318 22.4569 1.57216 22.4571 1.43113C22.4571 1.36377 22.4569 1.2964 22.4564 1.22905C22.4559 1.13455 22.4563 1.04011 22.4569 0.945619C22.4566 0.918122 22.4562 0.890624 22.4558 0.862294C22.4588 0.653295 22.5243 0.50428 22.6308 0.32515C22.6563 0.32515 22.6818 0.32515 22.708 0.32515C22.708 0.299972 22.708 0.274794 22.708 0.248852C23.1186 0.00704021 23.5112 -0.0197108 23.9438 0.210704Z" fill="#FEFEFE"/>
<path d="M22.0901 0.363323C22.0901 0.388501 22.0901 0.41368 22.0901 0.439621C22.1283 0.45221 22.1665 0.464799 22.2059 0.47777C22.3545 0.684904 22.3363 0.892794 22.3314 1.13584C22.3309 1.1802 22.3304 1.22456 22.3299 1.27026C22.3285 1.37492 22.3269 1.47954 22.325 1.58418C22.3217 1.76748 22.3199 1.95078 22.3181 2.1341C22.3163 2.30706 22.314 2.48001 22.3115 2.65297C22.3103 2.73981 22.3093 2.82665 22.3084 2.9135C22.3072 3.037 22.3051 3.16046 22.3029 3.28395C22.3027 3.3213 22.3024 3.35865 22.3022 3.39714C22.2965 3.65346 22.2494 3.78125 22.0756 3.97555C21.911 4.11875 21.7773 4.15672 21.5563 4.1493C21.3234 4.12374 21.146 4.0673 20.9894 3.88971C20.8555 3.71886 20.8411 3.57562 20.8251 3.36323C20.8226 3.33074 20.8201 3.29825 20.8175 3.26478C20.7713 2.66084 20.727 2.05635 20.7191 1.45057C20.7179 1.40728 20.7167 1.36399 20.7155 1.31938C20.7154 1.00183 20.7892 0.749323 21.0066 0.509222C21.3295 0.197534 21.6917 0.200502 22.0901 0.363323Z" fill="#FEFEFE"/>
<path d="M27.9988 0.363302C28.2987 0.673346 28.3532 0.953223 28.3503 1.36605C28.3437 1.60458 28.3264 1.84211 28.3078 2.08C28.1377 2.06032 28.0266 2.0234 27.8849 1.92905C27.8493 1.90569 27.8137 1.88233 27.777 1.85827C27.7207 1.8205 27.7207 1.8205 27.6633 1.78196C27.3197 1.55364 27.3197 1.55364 26.9663 1.34057C26.9154 1.3109 26.9154 1.3109 26.8634 1.28064C26.7994 1.24368 26.7349 1.20757 26.6699 1.17243C26.466 1.05285 26.466 1.05285 26.432 0.936364C26.4225 0.658032 26.5716 0.493741 26.7389 0.289388C27.0573 0.0422507 27.6765 0.160676 27.9988 0.363302Z" fill="#FEFEFE"/>
<path d="M41.168 15.3177C41.168 15.3428 41.168 15.368 41.168 15.394C41.2146 15.3833 41.2146 15.3833 41.2621 15.3725C41.4299 15.3522 41.5808 15.3702 41.7473 15.394C41.7473 15.4066 41.7473 15.4191 41.7473 15.4321C37.1466 15.4321 32.5459 15.4321 27.8058 15.4321C27.8058 15.4069 27.8058 15.3818 27.8058 15.3558C29.4913 15.351 31.1768 15.3461 32.8624 15.3412C33.0612 15.3407 33.26 15.3401 33.4588 15.3395C33.4984 15.3394 33.538 15.3393 33.5788 15.3392C34.2204 15.3373 34.862 15.3355 35.5036 15.3336C36.1616 15.3317 36.8195 15.3298 37.4775 15.3279C37.8838 15.3268 38.29 15.3256 38.6963 15.3244C38.9746 15.3236 39.2528 15.3228 39.5311 15.322C39.6919 15.3216 39.8526 15.3211 40.0134 15.3206C40.1604 15.3202 40.3074 15.3198 40.4544 15.3194C40.5077 15.3192 40.561 15.319 40.6144 15.3189C40.6866 15.3187 40.7588 15.3185 40.831 15.3183C40.8913 15.3181 40.8913 15.3181 40.9528 15.3179C41.0245 15.3177 41.0962 15.3177 41.168 15.3177Z" fill="#FEFEFE"/>
<path d="M26.261 2.72854C26.2865 2.72854 26.312 2.72854 26.3382 2.72854C26.3981 2.78859 26.3981 2.78859 26.4662 2.86921C26.5482 2.96499 26.63 3.05693 26.722 3.14341C26.8017 3.22448 26.8017 3.22448 26.8017 3.30077C26.8399 3.31336 26.8781 3.32595 26.9175 3.33892C26.9175 3.3641 26.9175 3.38928 26.9175 3.41522C26.9558 3.42781 26.994 3.4404 27.0334 3.45337C27.0334 3.47855 27.0334 3.50372 27.0334 3.52967C27.0565 3.53832 27.0796 3.54698 27.1034 3.55589C27.2096 3.61885 27.2437 3.69149 27.3037 3.79671C27.2362 3.85159 27.1686 3.90642 27.101 3.96123C27.0633 3.99176 27.0257 4.0223 26.9869 4.05377C26.9335 4.09648 26.9335 4.09648 26.8789 4.14005C26.852 4.16341 26.8251 4.18677 26.7975 4.21083C26.7244 4.2545 26.7244 4.25449 26.6472 4.24988C26.4264 4.15403 26.2255 3.95727 26.1278 3.73948C26.0583 3.42798 26.1249 3.06753 26.2224 2.76669C26.2351 2.7541 26.2479 2.74151 26.261 2.72854Z" fill="#FEFEFE"/>
<path d="M27.072 4.1019C27.0975 4.1019 27.123 4.1019 27.1492 4.1019C27.1283 4.25472 27.0529 4.32689 26.9441 4.43332C26.9139 4.46336 26.8838 4.49341 26.8528 4.52437C26.7663 4.59515 26.718 4.62138 26.6086 4.63598C26.6568 4.49292 26.7218 4.46145 26.8403 4.36894C26.8682 4.33432 26.896 4.2997 26.9248 4.26403C26.9479 4.23571 26.971 4.20738 26.9948 4.1782C27.0202 4.1782 27.0457 4.1782 27.072 4.1782C27.072 4.15302 27.072 4.12784 27.072 4.1019Z" fill="#FEFEFE"/>
<path d="M20.9702 4.06375C21.0084 4.10152 21.0466 4.13929 21.086 4.1782C21.0605 4.1782 21.0351 4.1782 21.0088 4.1782C21.0215 4.34186 21.0343 4.50551 21.0474 4.67413C21.0219 4.68672 20.9964 4.69931 20.9702 4.71228C20.9297 4.58125 20.9264 4.46023 20.9267 4.32364C20.9266 4.28297 20.9265 4.2423 20.9264 4.2004C20.9316 4.1019 20.9316 4.1019 20.9702 4.06375Z" fill="#FEFEFE"/>
<path d="M21.8729 0.286992C21.8936 0.299581 21.9143 0.31217 21.9357 0.325141C21.9357 0.350319 21.9357 0.375498 21.9357 0.401439C21.7445 0.401439 21.5533 0.401439 21.3564 0.401439C21.3564 0.376261 21.3564 0.351082 21.3564 0.325141C21.5335 0.242819 21.6877 0.209964 21.8729 0.286992Z" fill="#FEFEFE"/>
<path d="M22.9011 0.134415C22.9266 0.147004 22.9521 0.159594 22.9784 0.172564C22.8709 0.28461 22.7513 0.379871 22.6308 0.477755C22.6308 0.427399 22.6308 0.377033 22.6308 0.32515C22.6563 0.32515 22.6818 0.32515 22.708 0.32515C22.708 0.299972 22.708 0.274794 22.708 0.248852C22.7997 0.184476 22.7998 0.184486 22.9011 0.134415Z" fill="#FEFEFE"/>
<path d="M25.281 0.0175988C25.3284 0.0181151 25.3284 0.0181151 25.3767 0.0186419C25.413 0.0193058 25.413 0.0193058 25.45 0.0199831C25.4372 0.0451613 25.4245 0.0703396 25.4114 0.0962808C25.3231 0.112077 25.3231 0.112077 25.2159 0.120124C25.1804 0.122976 25.1449 0.125828 25.1083 0.128767C25.0809 0.130636 25.0534 0.132504 25.0252 0.13443C25.0252 0.109251 25.0252 0.0840732 25.0252 0.0581319C25.1181 0.0122492 25.1777 0.0161409 25.281 0.0175988Z" fill="#FEFEFE"/>
<path d="M26.261 2.72854C26.3382 2.72854 26.3382 2.72854 26.3965 2.78427C26.4171 2.80837 26.4377 2.83247 26.4589 2.85729C26.4797 2.88119 26.5005 2.90509 26.522 2.92972C26.5699 2.99558 26.5699 2.99558 26.5699 3.07188C26.4253 3.02424 26.361 2.95513 26.261 2.84299C26.261 2.80522 26.261 2.76745 26.261 2.72854Z" fill="#FEFEFE"/>
<path d="M25.9907 2.3852C26.0161 2.3852 26.0416 2.3852 26.0679 2.3852C26.1246 2.53073 26.0846 2.62516 26.0293 2.76669C26.0165 2.76669 26.0038 2.76669 25.9907 2.76669C25.9907 2.6408 25.9907 2.51491 25.9907 2.3852Z" fill="#FEFEFE"/>
<path d="M24.6776 6.35268C24.7957 6.41889 24.8952 6.48181 24.9866 6.58158C24.9738 6.60676 24.9611 6.63193 24.9479 6.65787C24.9225 6.64529 24.897 6.6327 24.8707 6.61973C24.8707 6.59455 24.8707 6.56937 24.8707 6.54343C24.846 6.5332 24.8213 6.52297 24.7959 6.51243C24.7162 6.46713 24.7162 6.46713 24.6776 6.35268Z" fill="#FEFEFE"/>
<path d="M24.0597 3.9493C24.0979 3.97448 24.1362 3.99966 24.1756 4.0256C24.0609 4.12002 24.0609 4.12002 23.9438 4.21635C23.9311 4.17858 23.9184 4.14081 23.9052 4.1019C23.9562 4.05154 24.0072 4.00119 24.0597 3.9493Z" fill="#FEFEFE"/>
<path d="M27.0334 3.52967C27.1813 3.58508 27.2311 3.66048 27.3037 3.79671C27.193 3.74768 27.1115 3.69862 27.0334 3.60596C27.0334 3.58079 27.0334 3.55561 27.0334 3.52967Z" fill="#FEFEFE"/>
<path d="M23.1328 5.36081C23.2475 5.39858 23.3622 5.43635 23.4804 5.47526C23.4804 5.50044 23.4804 5.52562 23.4804 5.55156C23.2197 5.48956 23.2197 5.48956 23.1328 5.36081Z" fill="#FEFEFE"/>
<path d="M26.1838 1.08814C26.2475 1.08814 26.3112 1.08814 26.3769 1.08814C26.3769 1.11332 26.3769 1.13849 26.3769 1.16444C26.2876 1.18961 26.1984 1.21479 26.1065 1.24073C26.132 1.19038 26.1575 1.14002 26.1838 1.08814Z" fill="#FEFEFE"/>
<path d="M0 20.1626C51.4105 20.1626 102.821 20.1626 155.789 20.1626C155.789 26.7089 155.789 33.2553 155.789 40C104.379 40 52.9684 40 0 40C0 33.4537 0 26.9073 0 20.1626Z" fill="#4B2C5E"/>
<path d="M114.853 24.2445C114.904 24.2556 114.904 24.2556 114.956 24.2669C115.517 24.3901 116.034 24.5738 116.552 24.8167C116.579 24.8289 116.605 24.8411 116.632 24.8537C117.155 25.1025 117.634 25.4582 118.059 25.8468C118.08 25.8667 118.102 25.8867 118.125 25.9072C118.642 26.3846 119.047 26.9175 119.376 27.5363C119.405 27.5919 119.436 27.647 119.466 27.7019C119.764 28.2524 119.905 28.8635 120.028 29.4709C120.038 29.5175 120.047 29.5641 120.057 29.6122C120.131 30.0316 120.116 30.4584 120.105 30.8824C120.105 30.9137 120.104 30.9451 120.103 30.9773C120.053 32.7056 119.341 34.2397 118.131 35.4746C118.02 35.5747 118.02 35.5747 117.943 35.5747C117.943 35.5999 117.943 35.6251 117.943 35.651C117.872 35.7127 117.801 35.7691 117.726 35.8251C117.703 35.842 117.68 35.8589 117.657 35.8763C116.921 36.4189 116.067 36.8764 115.162 37.0625C115.124 37.0712 115.124 37.0712 115.085 37.0801C114.183 37.2848 113.217 37.3485 112.304 37.177C112.235 37.1652 112.235 37.1652 112.164 37.1531C111.531 37.0383 110.952 36.8432 110.373 36.5666C110.33 36.5458 110.286 36.5251 110.241 36.5037C109.668 36.2146 109.171 35.827 108.713 35.384C108.682 35.3551 108.65 35.3262 108.618 35.2964C107.386 34.1322 106.804 32.3911 106.766 30.74C106.761 30.1886 106.821 29.6663 106.936 29.1276C106.949 29.0631 106.949 29.0631 106.961 28.9973C107.305 27.4239 108.385 26.0351 109.728 25.1635C110.42 24.7261 111.188 24.4031 111.995 24.2445C112.021 24.2393 112.046 24.2342 112.073 24.2289C112.96 24.0565 113.97 24.0413 114.853 24.2445Z" fill="#FDFDFE"/>
<path d="M54.5229 25.5606C54.6033 25.6298 54.6826 25.7 54.7619 25.7705C54.8002 25.8037 54.8385 25.8369 54.8779 25.8711C55.0872 26.0547 55.2831 26.2402 55.457 26.4571C55.4887 26.4965 55.5204 26.5359 55.553 26.5765C56.7135 28.0595 57.086 29.9622 56.8581 31.8025C56.652 33.1098 56.016 34.3436 55.0876 35.2894C55.0361 35.3419 54.9853 35.395 54.9346 35.4482C54.5285 35.865 54.07 36.1665 53.5623 36.4484C53.5132 36.4759 53.4643 36.5039 53.4157 36.5325C53.2769 36.6138 53.1445 36.6729 52.9902 36.7192C52.8502 36.763 52.7173 36.8093 52.5847 36.8718C51.8693 37.192 51.0559 37.2677 50.2797 37.2676C50.2532 37.2677 50.2268 37.2677 50.1996 37.2678C49.2682 37.2675 49.2682 37.2675 49.0076 37.1388C48.9353 37.1285 48.8629 37.1191 48.7904 37.1102C47.8155 36.9652 46.83 36.4941 46.0726 35.8799C46.0407 35.8544 46.0407 35.8544 46.0081 35.8284C45.2823 35.2461 44.7278 34.5622 44.2961 33.7436C44.2805 33.7143 44.2649 33.6851 44.2488 33.655C44.1286 33.4249 44.0318 33.1918 43.9461 32.9472C43.9329 32.9095 43.9196 32.8717 43.9059 32.8328C43.71 32.2569 43.5954 31.6574 43.5945 31.0492C43.5944 31.0189 43.5942 30.9887 43.5941 30.9575C43.5939 30.8939 43.5938 30.8303 43.5938 30.7666C43.5937 30.6714 43.593 30.5761 43.5923 30.4809C43.5871 29.0452 44.0661 27.5894 45.0299 26.4953C45.0564 26.465 45.0828 26.4346 45.1101 26.4034C45.1976 26.3053 45.287 26.2093 45.3774 26.1138C45.4115 26.0776 45.4457 26.0414 45.4808 26.0041C45.9215 25.5469 46.4325 25.183 46.9994 24.893C47.0333 24.8755 47.0672 24.8579 47.1021 24.8398C47.3746 24.7013 47.6489 24.5866 47.9384 24.4877C47.9814 24.473 48.0244 24.4583 48.0688 24.4431C48.4904 24.3042 48.9151 24.2241 49.3552 24.1682C49.3827 24.1644 49.4102 24.1605 49.4386 24.1565C51.2029 23.9299 53.1559 24.4115 54.5229 25.5606Z" fill="#FDFDFE"/>
<path d="M121.843 24.3208C123.079 24.3208 124.316 24.3208 125.589 24.3208C125.762 24.661 125.762 24.661 125.826 24.8334C125.971 25.2129 126.125 25.5885 126.278 25.9648C126.317 26.0597 126.355 26.1546 126.393 26.2497C126.489 26.4909 126.591 26.7282 126.701 26.9635C126.771 27.118 126.83 27.2758 126.891 27.4338C127.17 28.1577 127.469 28.8759 127.781 29.5864C127.849 29.7458 127.911 29.9072 127.973 30.0689C128.123 30.4563 128.283 30.8394 128.448 31.2206C128.52 31.389 128.589 31.5584 128.655 31.7294C128.777 32.0445 128.908 32.3556 129.039 32.6668C129.058 32.7106 129.076 32.7545 129.095 32.7997C129.111 32.8391 129.128 32.8785 129.145 32.9191C129.181 33.0188 129.181 33.0188 129.181 33.1332C129.206 33.1332 129.232 33.1332 129.258 33.1332C129.262 33.1009 129.267 33.0687 129.271 33.0354C129.299 32.8945 129.342 32.7717 129.395 32.638C129.405 32.6131 129.415 32.5882 129.425 32.5625C129.445 32.5099 129.466 32.4573 129.487 32.4048C129.518 32.3259 129.549 32.2469 129.58 32.1678C129.684 31.9047 129.793 31.6452 129.913 31.3891C129.962 31.2822 130.006 31.1738 130.047 31.0636C130.116 30.8856 130.186 30.7085 130.257 30.5319C130.357 30.2873 130.454 30.0418 130.551 29.7958C130.62 29.6176 130.692 29.44 130.764 29.2627C130.802 29.1673 130.841 29.0718 130.879 28.9763C131.108 28.406 131.108 28.406 131.213 28.1858C131.294 28.0154 131.357 27.8414 131.418 27.6636C131.503 27.4203 131.601 27.1892 131.713 26.9568C131.807 26.7563 131.884 26.5497 131.961 26.3427C132.113 25.9384 132.27 25.5381 132.444 25.1424C132.464 25.0971 132.484 25.0518 132.505 25.0051C132.523 24.9645 132.541 24.924 132.559 24.8822C132.636 24.6973 132.703 24.5087 132.772 24.3208C134.009 24.3208 135.245 24.3208 136.519 24.3208C136.519 28.5508 136.519 32.7807 136.519 37.1388C135.474 37.1388 134.428 37.1388 133.352 37.1388C133.339 34.6588 133.326 32.1787 133.313 29.6235C133.249 29.8123 133.186 30.0012 133.12 30.1957C133.021 30.4318 133.021 30.4318 132.973 30.5431C132.926 30.655 132.887 30.7674 132.85 30.8824C132.801 31.0305 132.748 31.1734 132.686 31.3164C132.577 31.5688 132.484 31.8263 132.39 32.0845C132.307 32.3122 132.22 32.5384 132.13 32.7636C132.03 33.0143 131.938 33.2667 131.848 33.5211C131.788 33.6912 131.723 33.8588 131.654 34.0255C131.593 34.1764 131.536 34.3289 131.479 34.4812C131.421 34.6333 131.363 34.7852 131.304 34.9368C131.18 35.2553 131.058 35.5729 130.952 35.8977C130.909 36.023 130.859 36.1448 130.808 36.2671C130.74 36.4352 130.677 36.6052 130.614 36.7752C130.567 36.9009 130.516 37.0186 130.455 37.1388C129.614 37.1388 128.773 37.1388 127.906 37.1388C127.647 36.4974 127.647 36.4974 127.549 36.2113C127.431 35.8704 127.301 35.5343 127.169 35.1983C127.051 34.8971 126.936 34.595 126.823 34.292C126.807 34.2493 126.791 34.2067 126.774 34.1627C126.743 34.0775 126.711 33.9924 126.679 33.9072C126.604 33.7054 126.527 33.5039 126.451 33.3025C126.437 33.2647 126.422 33.2269 126.408 33.1879C126.322 32.9623 126.234 32.7376 126.144 32.5133C126.036 32.2407 125.937 31.9653 125.84 31.6885C125.739 31.4002 125.632 31.1148 125.514 30.8325C125.406 30.5724 125.313 30.3074 125.221 30.0414C125.21 30.0094 125.199 29.9774 125.187 29.9445C125.177 29.9158 125.167 29.887 125.157 29.8574C125.122 29.7625 125.122 29.7625 125.049 29.6235C125.036 32.1036 125.023 34.5836 125.01 37.1388C123.965 37.1388 122.92 37.1388 121.843 37.1388C121.843 32.9089 121.843 28.6789 121.843 24.3208Z" fill="#FDFDFE"/>
<path d="M5.83149 24.3208C7.06768 24.3208 8.30388 24.3208 9.57754 24.3208C9.86857 25.019 9.86857 25.019 9.96677 25.263C10.0345 25.4302 10.1043 25.5967 10.1737 25.7633C10.286 26.0334 10.3956 26.3041 10.5003 26.5771C10.5439 26.6883 10.5901 26.798 10.6372 26.9078C10.7132 27.0857 10.7822 27.2654 10.8496 27.4466C10.9189 27.6325 10.9929 27.8134 11.0789 27.9926C11.3011 28.4564 11.4877 28.9381 11.6551 29.4237C11.7034 29.5522 11.7584 29.676 11.8154 29.8009C11.8812 29.9459 11.9434 30.0922 12.0057 30.2387C12.0257 30.2856 12.0257 30.2856 12.0461 30.3335C12.1664 30.6169 12.2822 30.9019 12.3967 31.1876C12.4225 31.2504 12.4482 31.3132 12.474 31.376C12.5295 31.5124 12.5814 31.6498 12.6327 31.7878C12.7294 32.0473 12.8341 32.2987 12.957 32.5474C13.0376 32.7265 13.103 32.9104 13.1691 33.0951C13.2941 32.7967 13.4191 32.4984 13.544 32.2C13.6015 32.0628 13.6591 31.9255 13.7167 31.7883C13.8689 31.4256 14.0152 31.0612 14.1525 30.6927C14.2509 30.4295 14.3531 30.1719 14.4737 29.9177C14.5453 29.7603 14.6062 29.5992 14.668 29.4378C14.7325 29.2699 14.8005 29.1034 14.8684 28.9368C14.8867 28.8912 14.8867 28.8912 14.9055 28.8446C14.9736 28.6752 15.0432 28.5065 15.1146 28.3384C15.3228 27.8462 15.5177 27.349 15.7112 26.8511C15.8224 26.5652 15.9357 26.2806 16.056 25.9983C16.1444 25.7903 16.2303 25.5812 16.3166 25.3723C16.3343 25.3294 16.3521 25.2865 16.3704 25.2423C16.4785 24.9805 16.5829 24.7177 16.6835 24.453C16.7221 24.359 16.7221 24.359 16.7607 24.3208C17.9969 24.3208 19.2331 24.3208 20.5067 24.3208C20.5067 28.5508 20.5067 32.7807 20.5067 37.1388C19.4617 37.1388 18.4167 37.1388 17.34 37.1388C17.3209 33.3999 17.3209 33.3999 17.3014 29.5854C17.0541 30.2265 16.8078 30.8672 16.5716 31.5123C16.4697 31.7897 16.3635 32.0653 16.2562 32.3407C16.1664 32.5724 16.0822 32.8057 16.0004 33.0402C15.9187 33.2742 15.8312 33.5029 15.7322 33.7303C15.6456 33.9396 15.5699 34.1527 15.4923 34.3654C15.401 34.6153 15.3073 34.8641 15.2111 35.1122C15.1916 35.1625 15.1916 35.1625 15.1717 35.2138C15.1465 35.2788 15.1213 35.3439 15.0961 35.4089C14.8737 35.9837 14.6599 36.5618 14.4435 37.1388C13.6024 37.1388 12.7613 37.1388 11.8947 37.1388C11.6625 36.5884 11.6625 36.5884 11.5712 36.3568C11.56 36.3283 11.5488 36.2998 11.5372 36.2704C11.437 36.0139 11.3452 35.7548 11.2543 35.495C11.1894 35.3103 11.1217 35.1278 11.0461 34.9471C10.9917 34.8139 10.9413 34.6793 10.8906 34.5447C10.8283 34.3793 10.7653 34.2145 10.6975 34.0512C10.6181 33.8576 10.5491 33.6607 10.4794 33.4637C10.3854 33.1989 10.286 32.9364 10.1854 32.6741C10.1572 32.6002 10.1294 32.5261 10.1016 32.452C9.99492 32.1678 9.88354 31.8858 9.76822 31.6049C9.65627 31.3317 9.5563 31.0574 9.46455 30.7771C9.41888 30.6411 9.36659 30.5092 9.31143 30.3768C9.25392 30.2362 9.1996 30.0945 9.14549 29.9525C9.13536 29.9262 9.12523 29.8998 9.1148 29.8727C9.06883 29.7518 9.03002 29.6346 8.99825 29.5091C8.98551 32.0143 8.97276 34.5195 8.95963 37.1007C7.92734 37.1007 6.89506 37.1007 5.83149 37.1007C5.83149 32.8833 5.83149 28.666 5.83149 24.3208Z" fill="#FEFDFE"/>
<path d="M142.62 24.3208C143.844 24.3208 145.067 24.3208 146.328 24.3208C146.558 24.9124 146.781 25.5048 146.996 26.1019C147.102 26.3946 147.21 26.6861 147.322 26.9762C147.358 27.0713 147.391 27.166 147.423 27.2623C147.5 27.4938 147.588 27.7214 147.675 27.9497C147.796 28.2701 147.912 28.5905 148.019 28.9158C148.086 29.1105 148.162 29.3017 148.24 29.4928C148.293 29.6249 148.343 29.7569 148.388 29.892C148.468 30.1329 148.557 30.3703 148.645 30.6083C148.92 31.3502 148.92 31.3502 149.05 31.7193C149.117 31.9071 149.186 32.0927 149.265 32.276C149.296 32.3571 149.324 32.4379 149.352 32.5204C149.431 32.7589 149.521 32.9934 149.61 33.2286C149.707 33.4846 149.804 33.7402 149.89 34C149.952 34.1835 150.019 34.3651 150.086 34.5471C150.101 34.5892 150.117 34.6314 150.133 34.6748C150.226 34.9296 150.321 35.1836 150.418 35.4369C150.516 35.6951 150.608 35.9554 150.701 36.2159C150.732 36.3033 150.763 36.3907 150.795 36.4779C150.806 36.5071 150.816 36.5364 150.827 36.5665C150.847 36.6222 150.868 36.678 150.888 36.7337C150.937 36.8698 150.972 36.9963 151.001 37.1388C149.892 37.1388 148.783 37.1388 147.641 37.1388C147.539 36.8367 147.437 36.5346 147.332 36.2233C147.179 35.7826 147.026 35.342 146.868 34.8881C145.275 34.8755 143.682 34.8629 142.041 34.8499C142.003 34.9758 141.965 35.1017 141.925 35.2314C141.89 35.3379 141.855 35.4442 141.819 35.5503C141.81 35.579 141.8 35.6076 141.79 35.6372C141.77 35.6973 141.749 35.7575 141.729 35.8176C141.699 35.9078 141.668 35.998 141.638 36.0883C141.618 36.1474 141.598 36.2065 141.578 36.2656C141.569 36.2917 141.56 36.3178 141.551 36.3446C141.461 36.6109 141.364 36.8742 141.269 37.1388C140.173 37.1388 139.077 37.1388 137.947 37.1388C137.973 37.0117 137.996 36.9116 138.041 36.7937C138.057 36.7506 138.057 36.7506 138.074 36.7066C138.085 36.6761 138.097 36.6457 138.109 36.6143C138.134 36.549 138.159 36.4837 138.183 36.4183C138.202 36.3692 138.202 36.3692 138.221 36.319C138.273 36.1788 138.323 36.0378 138.372 35.8966C138.463 35.6384 138.562 35.3834 138.664 35.1294C138.741 34.9366 138.81 34.742 138.874 34.5447C139.054 33.9965 139.054 33.9965 139.164 33.7436C139.256 33.5313 139.33 33.3148 139.403 33.0954C139.523 32.7312 139.652 32.3697 139.799 32.0151C139.908 31.7407 140.002 31.4606 140.1 31.1823C140.208 30.875 140.32 30.5699 140.441 30.2673C140.541 30.0155 140.631 29.7627 140.716 29.5053C140.784 29.3036 140.859 29.105 140.934 28.9059C141.009 28.7063 141.082 28.5061 141.153 28.305C141.242 28.0534 141.337 27.805 141.438 27.5579C141.518 27.3583 141.587 27.1559 141.655 26.952C141.739 26.7026 141.827 26.4547 141.915 26.2072C141.942 26.1329 141.969 26.0586 141.995 25.9843C142.094 25.7088 142.198 25.4365 142.309 25.1657C142.379 24.9961 142.441 24.8263 142.497 24.6522C142.579 24.4032 142.579 24.4032 142.62 24.3208Z" fill="#FDFDFD"/>
<path d="M69.553 24.3208C70.598 24.3208 71.6431 24.3208 72.7198 24.3208C72.7198 25.9826 72.7198 27.6443 72.7198 29.3565C74.3383 29.3565 75.9568 29.3565 77.6244 29.3565C77.6244 27.6947 77.6244 26.0329 77.6244 24.3208C78.6694 24.3208 79.7145 24.3208 80.7912 24.3208C80.7912 28.5382 80.7912 32.7555 80.7912 37.1007C79.7589 37.1007 78.7266 37.1007 77.663 37.1007C77.663 35.3634 77.663 33.6261 77.663 31.8361C76.0318 31.8361 74.4005 31.8361 72.7198 31.8361C72.7198 33.586 72.7198 35.3359 72.7198 37.1388C71.6747 37.1388 70.6297 37.1388 69.553 37.1388C69.553 32.9089 69.553 28.6789 69.553 24.3208Z" fill="#FEFDFE"/>
<path d="M37.084 24.1158C37.1235 24.1158 37.1235 24.1158 37.1639 24.1158C38.5728 24.1209 39.9747 24.4807 40.9972 25.4863C41.6655 26.1585 42.0176 27.042 42.0176 27.9831C40.8833 27.9831 39.7491 27.9831 38.5805 27.9831C38.555 27.8572 38.5295 27.7313 38.5033 27.6016C38.368 27.2373 38.1576 26.9686 37.7995 26.7977C37.5428 26.7005 37.3196 26.6771 37.0478 26.6741C37.0146 26.673 36.9813 26.6719 36.9471 26.6708C36.6143 26.6675 36.3284 26.7826 36.0702 26.9912C35.8209 27.3143 35.8094 27.6248 35.8385 28.0213C35.9267 28.3843 36.1888 28.6317 36.4975 28.8271C36.9472 29.0992 37.4474 29.2549 37.9475 29.4091C39.0423 29.7481 40.1962 30.1086 41.0907 30.8443C41.1214 30.8684 41.1522 30.8926 41.1838 30.9174C41.5495 31.2179 41.8079 31.5903 41.979 32.0269C41.9884 32.0494 41.9978 32.0719 42.0075 32.095C42.3722 32.9954 42.2658 34.1627 41.8956 35.0431C41.4995 35.9193 40.7435 36.5435 39.8555 36.9028C39.4215 37.0639 38.9594 37.1419 38.5033 37.2151C38.4403 37.2253 38.4403 37.2253 38.376 37.2356C38.2248 37.2543 38.076 37.2601 37.9238 37.261C37.8948 37.2613 37.8657 37.2616 37.8358 37.2618C37.7421 37.2625 37.6484 37.2627 37.5547 37.2628C37.5228 37.2629 37.4908 37.2629 37.458 37.263C36.949 37.2631 36.4552 37.2346 35.9544 37.1388C35.9222 37.1329 35.89 37.127 35.8568 37.1209C34.7641 36.9141 33.7134 36.416 33.0651 35.4924C32.8686 35.1952 32.7243 34.8748 32.5945 34.5447C32.5781 34.5044 32.5618 34.4642 32.5449 34.4227C32.4028 34.0297 32.4242 33.7357 32.4014 33.2858C33.5102 33.2858 34.6189 33.2858 35.7613 33.2858C35.8123 33.4746 35.8632 33.6635 35.9158 33.858C36.12 34.2616 36.3694 34.5041 36.804 34.6592C37.3113 34.7552 37.8505 34.7596 38.3102 34.5066C38.3746 34.4558 38.439 34.405 38.5033 34.354C38.5287 34.354 38.5542 34.354 38.5805 34.354C38.5916 34.3319 38.6027 34.3098 38.6141 34.2871C38.6415 34.2333 38.6693 34.1797 38.6977 34.1264C38.7108 34.1016 38.7239 34.0767 38.7374 34.0512C38.7506 34.0264 38.7638 34.0017 38.7774 33.9762C38.8825 33.7348 38.8982 33.4344 38.8185 33.1845C38.6456 32.813 38.3688 32.5832 38.0012 32.4084C38.0012 32.3832 38.0012 32.358 38.0012 32.3321C37.9704 32.3287 37.9397 32.3254 37.908 32.3219C37.7305 32.286 37.574 32.22 37.4074 32.1509C37.0248 31.9956 36.64 31.8715 36.2422 31.7594C35.9232 31.6692 35.6066 31.5751 35.2979 31.4547C35.2568 31.4395 35.2157 31.4244 35.1734 31.4088C34.1459 31.0202 33.2624 30.4702 32.7418 29.4828C32.7294 29.46 32.717 29.4372 32.7042 29.4137C32.469 28.95 32.413 28.4782 32.4207 27.9688C32.4209 27.9413 32.4211 27.9138 32.4213 27.8855C32.4249 27.469 32.4528 27.0818 32.5945 26.686C32.609 26.6447 32.6234 26.6033 32.6383 26.5607C32.9669 25.7105 33.6936 25.0372 34.5069 24.6351C34.8142 24.4999 35.1272 24.404 35.4523 24.3208C35.4908 24.3102 35.5293 24.2997 35.569 24.2888C36.0683 24.156 36.5684 24.1151 37.084 24.1158Z" fill="#FDFDFD"/>
<path d="M42.434 4.17313C42.4785 4.17308 42.4785 4.17308 42.524 4.17302C42.5868 4.17299 42.6497 4.17306 42.7125 4.17322C42.8089 4.17343 42.9053 4.17323 43.0016 4.17298C43.0626 4.17301 43.1236 4.17306 43.1846 4.17313C43.228 4.17301 43.228 4.17301 43.2723 4.1729C43.4762 4.17381 43.4762 4.17381 43.5624 4.21635C43.6149 4.22418 43.6677 4.23031 43.7206 4.23542C43.7515 4.23857 43.7825 4.24171 43.8144 4.24496C43.8798 4.25133 43.9453 4.25769 44.0108 4.26403C44.2536 4.28877 44.2536 4.28877 44.2961 4.33079C44.3547 4.34046 44.4135 4.34897 44.4723 4.35702C44.9727 4.4441 45.4338 4.67048 45.8795 4.90303C45.8795 4.9282 45.8795 4.95338 45.8795 4.97932C45.9026 4.98483 45.9257 4.99034 45.9495 4.99601C46.017 5.01317 46.0837 5.03384 46.1498 5.05562C46.1498 5.0808 46.1498 5.10598 46.1498 5.13192C46.1809 5.14608 46.1809 5.14608 46.2126 5.16053C46.3268 5.21991 46.4316 5.28583 46.536 5.36081C46.536 5.38599 46.536 5.41117 46.536 5.43711C46.5826 5.45363 46.5826 5.45363 46.6302 5.47049C46.7291 5.51341 46.7291 5.51341 46.7677 5.58971C46.806 5.61488 46.8442 5.64006 46.8836 5.666C46.9361 5.72814 46.9361 5.72815 46.9898 5.80191C47.0745 5.91667 47.1611 6.02919 47.2505 6.14048C47.6292 6.62375 48.053 7.2833 48.0422 7.91679C47.6471 7.92032 47.2519 7.92303 46.8568 7.92469C46.6733 7.92549 46.4899 7.92657 46.3064 7.9283C46.1294 7.92996 45.9523 7.93087 45.7753 7.93127C45.7077 7.93155 45.6402 7.9321 45.5726 7.93292C45.478 7.93403 45.3835 7.93418 45.2889 7.93411C45.2609 7.93466 45.2329 7.93521 45.2041 7.93577C45.0715 7.9347 45.004 7.92682 44.8989 7.84392C44.8411 7.76976 44.7845 7.69567 44.7306 7.61875C44.3882 7.1653 43.8796 6.92347 43.3223 6.82716C42.8926 6.7781 42.4375 6.77936 42.0176 6.88677C41.9862 6.89419 41.9549 6.90162 41.9225 6.90927C41.5543 7.00623 41.2202 7.16993 40.9363 7.42085C40.9108 7.42085 40.8853 7.42085 40.859 7.42085C40.859 7.44603 40.859 7.47121 40.859 7.49715C40.8307 7.51879 40.8025 7.54043 40.7733 7.56272C40.6524 7.66067 40.574 7.76827 40.4921 7.89771C40.4771 7.92143 40.462 7.94514 40.4465 7.96958C39.9492 8.77073 39.8396 9.74966 40.0094 10.6635C40.014 10.6885 40.0186 10.7135 40.0234 10.7393C40.1187 11.2309 40.3075 11.6836 40.6273 12.075C40.6273 12.1002 40.6273 12.1254 40.6273 12.1513C40.6528 12.1513 40.6783 12.1513 40.7045 12.1513C40.7866 12.2228 40.7866 12.2228 40.859 12.3039C40.859 12.3291 40.859 12.3543 40.859 12.3802C40.8921 12.3958 40.8921 12.3958 40.9258 12.4118C41.0145 12.457 41.0961 12.5082 41.18 12.5614C42.0237 13.0576 43.0032 13.1357 43.9485 12.9143C44.0721 12.8739 44.1825 12.8239 44.2961 12.7617C44.3257 12.7467 44.3554 12.7317 44.3859 12.7162C44.5273 12.6426 44.655 12.5667 44.7764 12.4637C44.8754 12.3802 44.8754 12.3802 44.9526 12.3802C44.9619 12.3594 44.9713 12.3386 44.9809 12.3172C45.0416 12.2063 45.1172 12.1142 45.1964 12.0154C45.3846 11.775 45.5121 11.5234 45.6092 11.2357C44.4877 11.2232 43.3662 11.2106 42.2107 11.1976C42.1634 11.1041 42.1672 11.0433 42.1671 10.9387C42.1669 10.9008 42.1668 10.8629 42.1667 10.8238C42.1668 10.7622 42.1668 10.7622 42.1669 10.6993C42.1669 10.6572 42.1669 10.6152 42.1668 10.5719C42.1668 10.4828 42.1669 10.3938 42.167 10.3048C42.1672 10.1681 42.167 10.0315 42.1668 9.89487C42.1668 9.80854 42.1669 9.7222 42.1669 9.63587C42.1669 9.59478 42.1668 9.55369 42.1667 9.51136C42.1669 9.45445 42.1669 9.45445 42.1671 9.3964C42.1671 9.36291 42.1671 9.32943 42.1672 9.29493C42.1721 9.21385 42.1721 9.21385 42.2107 9.13755C44.1988 9.13755 46.1869 9.13755 48.2353 9.13755C48.2353 11.9764 48.2353 11.9764 47.878 12.6282C47.8558 12.6691 47.8558 12.6691 47.8332 12.7108C47.537 13.2451 47.1683 13.747 46.6905 14.1351C46.6406 14.1795 46.5907 14.224 46.5409 14.2686C45.6842 15.0049 44.6095 15.4445 43.4753 15.4436C43.4281 15.4438 43.381 15.4439 43.3324 15.4441C43.2331 15.4443 43.1339 15.4443 43.0347 15.4442C42.8854 15.444 42.7361 15.4449 42.5868 15.4459C41.7452 15.4481 40.9771 15.389 40.2049 15.0411C40.1711 15.0259 40.1373 15.0107 40.1025 14.995C39.8508 14.8798 39.6166 14.7539 39.3915 14.5928C39.353 14.566 39.3145 14.5392 39.2749 14.5116C38.0875 13.6627 37.3278 12.3803 37.092 10.9566C37.0403 10.6018 37.0217 10.2519 37.0237 9.89338C37.0238 9.85226 37.0238 9.85226 37.0239 9.8103C37.0307 8.40387 37.4593 6.93789 38.4818 5.91487C38.5144 5.8831 38.5469 5.85133 38.5805 5.8186C38.6128 5.78624 38.6451 5.75388 38.6784 5.72054C38.7267 5.6723 38.7267 5.6723 38.776 5.62309C38.8083 5.59073 38.8406 5.55837 38.8739 5.52503C39.0874 5.32266 39.0874 5.32266 39.1984 5.32266C39.1984 5.29749 39.1984 5.27231 39.1984 5.24637C39.4028 5.09377 39.4028 5.09377 39.546 5.09377C39.546 5.06859 39.546 5.04341 39.546 5.01747C40.0827 4.72473 40.6073 4.4724 41.2066 4.33079C41.2358 4.32327 41.265 4.31574 41.2951 4.30799C41.5127 4.25527 41.7277 4.23838 41.9511 4.22573C42.1162 4.21099 42.2615 4.17267 42.434 4.17313Z" fill="#FEFEFE"/>
<path d="M125.732 4.15435C125.77 4.156 125.808 4.15764 125.848 4.15933C126.125 4.17323 126.125 4.17323 126.169 4.21635C126.293 4.22732 126.418 4.23347 126.543 4.24004C126.666 4.25394 126.751 4.28352 126.864 4.33079C126.929 4.34355 126.994 4.35462 127.059 4.36417C127.485 4.43742 127.867 4.60338 128.254 4.78858C128.254 4.81376 128.254 4.83894 128.254 4.86488C128.331 4.87747 128.407 4.89006 128.486 4.90303C128.486 4.9282 128.486 4.95338 128.486 4.97932C128.52 4.98877 128.554 4.99821 128.59 5.00794C128.722 5.05735 128.804 5.11757 128.911 5.20822C128.936 5.22081 128.962 5.2334 128.988 5.24637C128.988 5.27154 128.988 5.29672 128.988 5.32266C129.024 5.33289 129.059 5.34312 129.096 5.35366C129.21 5.39552 129.264 5.41932 129.335 5.51341C129.335 5.53859 129.335 5.56376 129.335 5.58971C129.374 5.60229 129.412 5.61488 129.451 5.62785C129.451 5.65303 129.451 5.67821 129.451 5.70415C129.487 5.71832 129.487 5.71832 129.524 5.73276C129.621 5.78914 129.635 5.83537 129.683 5.93305C129.721 5.94563 129.759 5.95822 129.799 5.97119C129.867 6.04359 129.928 6.11524 129.99 6.19293C130.017 6.22798 130.017 6.22798 130.045 6.26373C130.413 6.74355 130.729 7.26698 130.919 7.84049C130.934 7.88356 130.934 7.88356 130.949 7.9275C131.46 9.44526 131.365 11.1329 130.648 12.571C129.968 13.856 128.803 14.8871 127.398 15.3325C125.777 15.8267 124.057 15.6869 122.55 14.9084C122.301 14.7719 122.071 14.6088 121.843 14.4402C121.822 14.4247 121.801 14.4092 121.779 14.3932C121.549 14.2221 121.549 14.2221 121.457 14.1351C121.457 14.1099 121.457 14.0847 121.457 14.0588C121.421 14.0446 121.421 14.0446 121.385 14.0301C121.288 13.9738 121.273 13.9275 121.225 13.8299C121.187 13.8173 121.149 13.8047 121.11 13.7917C121.037 13.7088 120.969 13.6261 120.902 13.539C120.884 13.5159 120.866 13.4929 120.847 13.4691C120.622 13.1815 120.428 12.8947 120.26 12.571C120.227 12.5085 120.227 12.5085 120.193 12.4449C119.543 11.1524 119.436 9.53692 119.868 8.16192C119.89 8.09723 119.89 8.09723 119.912 8.03123C119.921 8.00686 119.929 7.98249 119.938 7.95738C120.05 7.6334 120.181 7.33281 120.352 7.0343C120.415 6.92322 120.473 6.8104 120.53 6.69602C120.556 6.69602 120.581 6.69602 120.607 6.69602C120.617 6.66883 120.626 6.64163 120.636 6.61362C120.692 6.48936 120.762 6.40176 120.851 6.29784C120.883 6.26111 120.914 6.22437 120.946 6.18653C120.989 6.13659 120.989 6.13659 121.032 6.08564C121.065 6.04434 121.098 6.00301 121.131 5.96166C121.234 5.84724 121.344 5.74989 121.462 5.65125C121.533 5.59249 121.533 5.59249 121.589 5.5343C121.688 5.4386 121.803 5.36331 121.916 5.28451C121.951 5.25943 121.951 5.25943 121.987 5.23385C122.35 4.97932 122.35 4.97932 122.461 4.97932C122.461 4.95415 122.461 4.92897 122.461 4.90303C123.366 4.48188 123.366 4.48188 123.813 4.36894C123.871 4.35271 123.871 4.35271 123.93 4.33616C124.169 4.2716 124.399 4.23789 124.647 4.22439C124.74 4.22195 124.74 4.22195 124.817 4.1782C125.12 4.12671 125.426 4.14095 125.732 4.15435ZM123.311 7.57345C122.84 8.11706 122.556 8.8771 122.538 9.59534C122.536 9.6364 122.535 9.67746 122.533 9.71977C122.509 10.5813 122.712 11.4717 123.272 12.1513C123.298 12.1513 123.323 12.1513 123.349 12.1513C123.358 12.173 123.366 12.1948 123.375 12.2172C123.594 12.586 124.184 12.8341 124.578 12.9453C125.339 13.1377 126.201 13.0795 126.902 12.7235C127.038 12.6422 127.164 12.5529 127.289 12.4565C127.315 12.437 127.342 12.4176 127.369 12.3975C127.912 11.9699 128.229 11.2515 128.331 10.5872C128.447 9.55089 128.338 8.54764 127.693 7.69058C127.248 7.14212 126.603 6.81387 125.898 6.73417C124.907 6.68958 124.027 6.83916 123.311 7.57345Z" fill="#FCFCFC"/>
<path d="M83.0697 24.3208C85.695 24.3208 88.3204 24.3208 91.0252 24.3208C91.0252 25.1517 91.0252 25.9826 91.0252 26.8386C89.4449 26.8386 87.8646 26.8386 86.2365 26.8386C86.2365 27.6821 86.2365 28.5256 86.2365 29.3946C87.6383 29.3946 89.0402 29.3946 90.4846 29.3946C90.4846 30.2003 90.4846 31.006 90.4846 31.8361C89.0827 31.8361 87.6808 31.8361 86.2365 31.8361C86.2365 32.7551 86.2365 33.6742 86.2365 34.621C87.8168 34.621 89.3971 34.621 91.0252 34.621C91.0252 35.4519 91.0252 36.2828 91.0252 37.1388C88.3999 37.1388 85.7746 37.1388 83.0697 37.1388C83.0697 32.9089 83.0697 28.6789 83.0697 24.3208Z" fill="#FDFDFD"/>
<path d="M22.7853 24.3208C25.4106 24.3208 28.0359 24.3208 30.7408 24.3208C30.7408 25.1517 30.7408 25.9826 30.7408 26.8386C29.1605 26.8386 27.5802 26.8386 25.952 26.8386C25.952 27.6821 25.952 28.5256 25.952 29.3946C27.3412 29.3946 28.7303 29.3946 30.1615 29.3946C30.1615 30.2003 30.1615 31.006 30.1615 31.8361C28.7596 31.8361 27.3578 31.8361 25.9134 31.8361C25.9134 32.7551 25.9134 33.6742 25.9134 34.621C27.4937 34.621 29.074 34.621 30.7022 34.621C30.7022 35.4393 30.7022 36.2576 30.7022 37.1007C28.0896 37.1007 25.477 37.1007 22.7853 37.1007C22.7853 32.8833 22.7853 28.666 22.7853 24.3208Z" fill="#FEFDFE"/>
<path d="M140.998 4.36894C141.716 4.36536 142.435 4.36268 143.153 4.36104C143.486 4.36025 143.82 4.35918 144.153 4.35743C144.444 4.3559 144.735 4.35492 145.026 4.35458C145.18 4.35439 145.334 4.35393 145.488 4.35281C146.716 4.34419 146.716 4.34419 147.293 4.52154C147.333 4.53342 147.373 4.5453 147.415 4.55754C147.803 4.67913 148.2 4.89323 148.529 5.13192C148.529 5.1571 148.529 5.18228 148.529 5.20822C148.56 5.2212 148.56 5.2212 148.592 5.23444C149.17 5.55029 149.524 6.26714 149.705 6.87008C149.875 7.4975 149.884 8.24786 149.688 8.87051C149.674 8.91536 149.66 8.96021 149.646 9.00642C149.393 9.77268 148.829 10.4346 148.1 10.8015C148.063 10.8189 148.026 10.8363 147.988 10.8543C147.944 10.8756 147.9 10.8969 147.854 10.9189C147.505 11.0831 147.505 11.0831 147.371 11.0831C147.385 11.107 147.399 11.1309 147.413 11.1555C147.476 11.2632 147.539 11.3711 147.602 11.4789C147.624 11.5165 147.646 11.5541 147.669 11.5928C147.701 11.6466 147.701 11.6466 147.733 11.7016C147.752 11.7347 147.771 11.7679 147.791 11.8021C147.834 11.8843 147.834 11.8843 147.834 11.9606C147.859 11.9606 147.885 11.9606 147.911 11.9606C147.922 11.9837 147.934 12.0068 147.945 12.0306C148.051 12.2431 148.165 12.4457 148.292 12.6461C148.336 12.7235 148.336 12.7235 148.336 12.7998C148.361 12.7998 148.387 12.7998 148.413 12.7998C148.428 12.8309 148.443 12.8619 148.459 12.8939C148.628 13.2362 148.816 13.5637 149.014 13.8903C149.201 14.1999 149.387 14.5106 149.572 14.8217C149.591 14.8533 149.609 14.8848 149.629 14.9173C149.679 15.0029 149.729 15.0887 149.779 15.1746C149.802 15.2125 149.802 15.2125 149.825 15.2511C149.859 15.3101 149.889 15.371 149.919 15.4321C149.907 15.4573 149.894 15.4825 149.881 15.5084C149.48 15.5102 149.079 15.5115 148.678 15.5124C148.492 15.5128 148.306 15.5133 148.12 15.5142C147.94 15.515 147.761 15.5155 147.581 15.5157C147.513 15.5158 147.444 15.5161 147.376 15.5165C147.28 15.517 147.184 15.5171 147.088 15.5171C147.06 15.5174 147.031 15.5176 147.002 15.5179C146.858 15.5173 146.798 15.5128 146.675 15.4321C146.63 15.351 146.588 15.268 146.547 15.1842C146.453 14.9882 146.349 14.8043 146.235 14.619C146.127 14.4402 146.029 14.2565 145.93 14.0731C145.788 13.8127 145.645 13.5528 145.497 13.2958C145.33 13.0042 145.169 12.7092 145.008 12.4141C144.867 12.1568 144.724 11.9012 144.576 11.6485C144.509 11.5336 144.468 11.4423 144.435 11.312C144.244 11.312 144.053 11.312 143.856 11.312C143.856 11.364 143.856 11.4161 143.856 11.4696C143.857 11.9586 143.858 12.4476 143.858 12.9366C143.858 13.188 143.859 13.4394 143.859 13.6908C143.86 13.9332 143.86 14.1756 143.86 14.418C143.86 14.5107 143.86 14.6034 143.86 14.6961C143.861 14.8255 143.861 14.9549 143.861 15.0842C143.861 15.123 143.861 15.1617 143.861 15.2016C143.861 15.2367 143.861 15.2717 143.861 15.3078C143.861 15.3384 143.861 15.3691 143.861 15.4006C143.856 15.4703 143.856 15.4703 143.818 15.5084C143.731 15.5122 143.645 15.5133 143.559 15.5134C143.531 15.5134 143.504 15.5135 143.477 15.5136C143.387 15.5137 143.297 15.5136 143.207 15.5135C143.145 15.5135 143.083 15.5135 143.02 15.5136C142.89 15.5137 142.759 15.5136 142.629 15.5134C142.461 15.5132 142.293 15.5133 142.126 15.5135C141.997 15.5137 141.869 15.5136 141.74 15.5135C141.679 15.5135 141.617 15.5135 141.555 15.5136C141.469 15.5137 141.382 15.5136 141.296 15.5134C141.222 15.5133 141.222 15.5133 141.147 15.5133C141.037 15.5084 141.037 15.5084 140.998 15.4703C140.995 15.411 140.994 15.3516 140.994 15.2922C140.994 15.2535 140.993 15.2147 140.993 15.1748C140.993 15.1317 140.994 15.0886 140.994 15.0442C140.994 14.9989 140.994 14.9535 140.994 14.9068C140.994 14.7803 140.994 14.6538 140.994 14.5273C140.994 14.3911 140.994 14.2549 140.994 14.1187C140.994 13.8826 140.994 13.6465 140.994 13.4103C140.995 13.0689 140.995 12.7275 140.995 12.386C140.995 11.8322 140.995 11.2783 140.995 10.7244C140.996 10.1862 140.996 9.64803 140.996 9.10984C140.996 9.07669 140.996 9.04354 140.996 9.00939C140.996 8.8431 140.996 8.6768 140.996 8.51051C140.997 7.12999 140.997 5.74946 140.998 4.36894ZM143.856 6.65788C143.856 7.52653 143.856 8.39517 143.856 9.29015C144.186 9.29251 144.516 9.29487 144.855 9.2973C145.01 9.29886 145.01 9.29886 145.169 9.30046C145.252 9.30079 145.335 9.30108 145.418 9.30132C145.46 9.30191 145.502 9.3025 145.545 9.3031C145.874 9.30321 146.213 9.26551 146.482 9.06125C146.482 9.03608 146.482 9.0109 146.482 8.98496C146.521 8.97237 146.559 8.95978 146.598 8.94681C146.598 8.92163 146.598 8.89645 146.598 8.87051C146.636 8.85792 146.675 8.84533 146.714 8.83236C146.973 8.43274 146.973 7.9666 146.889 7.51578C146.809 7.22047 146.602 7.01339 146.359 6.83431C145.859 6.59512 145.291 6.64462 144.752 6.65072C144.456 6.65308 144.161 6.65544 143.856 6.65788Z" fill="#FBFBFB"/>
<path d="M56.6928 4.36894C57.6232 4.36894 58.5535 4.36894 59.512 4.36894C59.512 5.79151 59.512 7.21409 59.512 8.67977C60.8884 8.67977 62.2648 8.67977 63.6829 8.67977C63.6829 7.25719 63.6829 5.83462 63.6829 4.36894C64.6005 4.36894 65.5181 4.36894 66.4635 4.36894C66.4635 8.03238 66.4635 11.6958 66.4635 15.4703C65.5459 15.4703 64.6283 15.4703 63.6829 15.4703C63.6829 13.9722 63.6829 12.4741 63.6829 10.9306C62.3193 10.9431 60.9556 10.9557 59.5507 10.9687C59.5379 12.4416 59.5252 13.9146 59.512 15.4321C58.5817 15.4321 57.6514 15.4321 56.6928 15.4321C56.6928 11.7813 56.6928 8.13042 56.6928 4.36894Z" fill="#FEFEFE"/>
<path d="M57.9287 24.3208C61.2422 24.3208 64.5557 24.3208 67.9696 24.3208C67.9696 25.1391 67.9696 25.9574 67.9696 26.8005C66.8354 26.8005 65.7011 26.8005 64.5325 26.8005C64.5325 30.1996 64.5325 33.5986 64.5325 37.1007C63.5002 37.1007 62.4679 37.1007 61.4044 37.1007C61.4044 33.7142 61.4044 30.3277 61.4044 26.8386C60.2574 26.8386 59.1104 26.8386 57.9287 26.8386C57.9287 26.0078 57.9287 25.1769 57.9287 24.3208Z" fill="#FEFEFE"/>
<path d="M93.072 24.3208C94.1171 24.3208 95.1621 24.3208 96.2388 24.3208C96.2388 27.7451 96.2388 31.1693 96.2388 34.6973C97.6025 34.6973 98.9661 34.6973 100.371 34.6973C100.371 35.503 100.371 36.3087 100.371 37.1388C97.9624 37.1388 95.5537 37.1388 93.072 37.1388C93.072 32.9089 93.072 28.6789 93.072 24.3208Z" fill="#FDFDFD"/>
<path d="M102.379 4.36894C104.826 4.36894 107.273 4.36894 109.794 4.36894C109.794 5.09911 109.794 5.82928 109.794 6.58158C108.29 6.59417 106.786 6.60675 105.237 6.61973C105.237 7.33731 105.237 8.05489 105.237 8.79421C105.479 8.79377 105.721 8.79333 105.971 8.79287C106.124 8.79268 106.277 8.79249 106.43 8.79235C106.673 8.79212 106.916 8.79185 107.159 8.79133C107.354 8.79092 107.55 8.79069 107.746 8.79059C107.821 8.79052 107.896 8.79038 107.971 8.79018C108.075 8.7899 108.18 8.78986 108.284 8.78988C108.331 8.78967 108.331 8.78968 108.379 8.78947C108.593 8.78986 108.593 8.78986 108.636 8.83236C108.639 8.90005 108.64 8.9679 108.641 9.0357C108.641 9.07911 108.641 9.12251 108.641 9.16724C108.641 9.23811 108.641 9.23811 108.641 9.31041C108.641 9.35853 108.641 9.40665 108.641 9.45623C108.641 9.55822 108.641 9.6602 108.641 9.76218C108.64 9.89317 108.64 10.0242 108.641 10.1551C108.641 10.2797 108.641 10.4042 108.641 10.5288C108.641 10.576 108.641 10.6233 108.641 10.672C108.641 10.7371 108.641 10.7371 108.641 10.8035C108.641 10.8419 108.64 10.8804 108.64 10.92C108.636 11.0068 108.636 11.0068 108.597 11.045C108.492 11.0486 108.389 11.0498 108.284 11.0493C108.251 11.0493 108.218 11.0493 108.183 11.0493C108.075 11.0493 107.967 11.049 107.858 11.0487C107.792 11.0487 107.725 11.0486 107.658 11.0486C107.41 11.0484 107.162 11.0479 106.915 11.0474C106.361 11.0466 105.807 11.0458 105.237 11.045C105.237 12.5053 105.237 13.9657 105.237 15.4703C105.124 15.5259 105.026 15.5133 104.9 15.5134C104.86 15.5135 104.86 15.5135 104.819 15.5136C104.731 15.5137 104.642 15.5136 104.554 15.5135C104.493 15.5135 104.431 15.5135 104.37 15.5136C104.242 15.5136 104.113 15.5136 103.985 15.5134C103.82 15.5132 103.655 15.5133 103.49 15.5135C103.363 15.5137 103.237 15.5136 103.11 15.5135C103.049 15.5135 102.988 15.5135 102.927 15.5136C102.843 15.5137 102.758 15.5136 102.673 15.5134C102.624 15.5133 102.576 15.5133 102.526 15.5133C102.418 15.5084 102.418 15.5084 102.379 15.4703C102.376 15.411 102.374 15.3516 102.375 15.2922C102.374 15.2535 102.374 15.2147 102.374 15.1748C102.374 15.1317 102.374 15.0886 102.375 15.0442C102.375 14.9989 102.375 14.9535 102.375 14.9068C102.374 14.7803 102.375 14.6538 102.375 14.5273C102.375 14.3911 102.375 14.2549 102.375 14.1187C102.375 13.8826 102.375 13.6465 102.375 13.4103C102.375 13.0689 102.376 12.7275 102.376 12.386C102.376 11.8322 102.376 11.2783 102.376 10.7244C102.377 10.1862 102.377 9.64803 102.377 9.10984C102.377 9.07635 102.377 9.04287 102.377 9.00836C102.377 8.74648 102.377 8.4846 102.377 8.22272C102.378 6.93813 102.379 5.65353 102.379 4.36894Z" fill="#FEFEFE"/>
<path d="M4.86601 4.36894C7.31291 4.36894 9.75982 4.36894 12.2809 4.36894C12.2809 5.09911 12.2809 5.82928 12.2809 6.58158C10.7643 6.58158 9.24773 6.58158 7.6852 6.58158C7.69795 7.31175 7.71069 8.04192 7.72382 8.79421C7.96591 8.79377 8.208 8.79333 8.45743 8.79287C8.61038 8.79268 8.76332 8.79249 8.91626 8.79235C9.15927 8.79212 9.40228 8.79185 9.64528 8.79134C9.8411 8.79092 10.0369 8.79069 10.2327 8.79059C10.3076 8.79052 10.3825 8.79038 10.4574 8.79018C10.5619 8.7899 10.6664 8.78986 10.7709 8.78988C10.8178 8.78968 10.8178 8.78968 10.8657 8.78947C11.0793 8.78986 11.0793 8.78986 11.1223 8.83236C11.1261 8.90005 11.1272 8.9679 11.1273 9.0357C11.1274 9.07911 11.1275 9.12252 11.1277 9.16724C11.1276 9.23811 11.1276 9.23811 11.1274 9.31041C11.1275 9.35853 11.1275 9.40666 11.1275 9.45623C11.1276 9.55822 11.1275 9.6602 11.1273 9.76218C11.1271 9.89317 11.1272 10.0242 11.1275 10.1551C11.1276 10.2797 11.1275 10.4042 11.1274 10.5288C11.1275 10.576 11.1276 10.6233 11.1277 10.672C11.1275 10.7371 11.1275 10.7371 11.1273 10.8035C11.1273 10.8419 11.1272 10.8804 11.1272 10.92C11.1223 11.0068 11.1223 11.0068 11.0837 11.045C10.9791 11.0486 10.8755 11.0498 10.7709 11.0493C10.7381 11.0493 10.7053 11.0493 10.6716 11.0493C10.5627 11.0493 10.4538 11.049 10.3449 11.0487C10.2697 11.0487 10.1944 11.0486 10.1191 11.0486C9.92059 11.0484 9.72206 11.048 9.52353 11.0476C9.32111 11.0472 9.11868 11.0471 8.91626 11.0469C8.51878 11.0464 8.1213 11.0458 7.72382 11.045C7.72366 11.0674 7.7235 11.0898 7.72333 11.1128C7.71934 11.6566 7.71515 12.2004 7.71072 12.7441C7.70858 13.0071 7.70651 13.27 7.70462 13.533C7.70279 13.7865 7.70076 14.0401 7.69861 14.2936C7.69782 14.3906 7.69709 14.4876 7.69644 14.5845C7.69551 14.7198 7.69435 14.8551 7.69313 14.9904C7.69291 15.0309 7.69269 15.0715 7.69246 15.1132C7.69208 15.1499 7.6917 15.1865 7.69131 15.2243C7.69106 15.2563 7.69081 15.2883 7.69056 15.3214C7.6852 15.394 7.6852 15.394 7.64658 15.4321C7.56825 15.4366 7.48975 15.4385 7.41129 15.4393C7.36088 15.44 7.31048 15.4406 7.25855 15.4413C7.23143 15.4415 7.20431 15.4418 7.17636 15.4421C7.09162 15.4429 7.00689 15.4439 6.92215 15.445C6.74204 15.4473 6.56192 15.4492 6.38181 15.4512C6.17364 15.4535 5.96548 15.4558 5.75732 15.4585C5.67395 15.4595 5.59059 15.4603 5.50722 15.4611C5.45633 15.4617 5.40544 15.4624 5.35301 15.463C5.28591 15.4638 5.28591 15.4638 5.21745 15.4645C5.09861 15.4673 5.09861 15.4673 4.98763 15.4922C4.94655 15.5002 4.94655 15.5002 4.90463 15.5084C4.86601 15.4703 4.86601 15.4703 4.86121 15.3943C4.86123 15.3606 4.86124 15.3269 4.86126 15.2922C4.86118 15.2535 4.8611 15.2147 4.86102 15.1748C4.86114 15.1317 4.86125 15.0886 4.86136 15.0442C4.86133 14.9989 4.8613 14.9535 4.86126 14.9068C4.86121 14.7803 4.86133 14.6538 4.86153 14.5273C4.86169 14.3911 4.86164 14.2549 4.86161 14.1187C4.86159 13.8826 4.86171 13.6465 4.86192 13.4103C4.86224 13.0689 4.86234 12.7275 4.86239 12.386C4.86247 11.8322 4.86273 11.2783 4.86309 10.7244C4.86345 10.1862 4.86372 9.64803 4.86389 9.10984C4.8639 9.07636 4.86391 9.04287 4.86392 9.00836C4.864 8.74648 4.86407 8.4846 4.86415 8.22272C4.86451 6.93813 4.86529 5.65353 4.86601 4.36894Z" fill="#FEFEFE"/>
<path d="M74.9597 4.33079C77.8654 4.34338 80.7711 4.35597 83.7648 4.36894C83.7648 5.08652 83.7648 5.8041 83.7648 6.54343C83.7521 6.55602 83.7394 6.56861 83.7262 6.58158C82.7449 6.58158 81.7636 6.58158 80.7526 6.58158C80.7526 9.51484 80.7526 12.4481 80.7526 15.4703C81.7339 15.4703 82.7152 15.4703 83.7262 15.4703C83.7135 15.4954 83.7007 15.5206 83.6876 15.5466C81.2025 15.534 78.7173 15.5214 76.1569 15.5084C76.1569 15.4958 76.1569 15.4832 76.1569 15.4703C76.7431 15.4703 77.3294 15.4703 77.9334 15.4703C77.9334 12.537 77.9334 9.60373 77.9334 6.58158C76.952 6.58158 75.9707 6.58158 74.9597 6.58158C74.9597 5.83882 74.9597 5.09606 74.9597 4.33079Z" fill="#FEFEFE"/>
<path d="M113.37 26.9771C113.45 26.9769 113.53 26.9755 113.609 26.9741C113.983 26.971 114.304 27.0322 114.66 27.1438C114.69 27.1527 114.72 27.1616 114.75 27.1708C115.49 27.4009 116.078 27.9776 116.438 28.6373C116.776 29.2808 116.87 29.9222 116.871 30.6368C116.871 30.6641 116.871 30.6913 116.871 30.7194C116.871 31.1168 116.852 31.489 116.746 31.8743C116.735 31.9187 116.725 31.9631 116.714 32.0089C116.59 32.5027 116.347 32.9387 116.012 33.3239C115.991 33.3501 115.97 33.3762 115.948 33.4031C115.777 33.6105 115.582 33.7523 115.355 33.8962C115.313 33.9256 115.313 33.9256 115.269 33.9556C114.531 34.4386 113.489 34.5171 112.633 34.3602C112.112 34.2382 111.582 33.9855 111.184 33.6291C111.156 33.6046 111.128 33.5802 111.099 33.5549C110.585 33.083 110.314 32.4584 110.142 31.798C110.13 31.7595 110.118 31.7211 110.106 31.6815C109.842 30.7022 110.005 29.4957 110.486 28.6039C110.873 27.9528 111.437 27.4427 112.15 27.1724C112.175 27.163 112.199 27.1536 112.225 27.1439C112.602 27.0078 112.97 26.977 113.37 26.9771Z" fill="#4B2C5E"/>
<path d="M50.1953 26.9771C50.2744 26.9769 50.3534 26.9755 50.4324 26.9741C50.9254 26.9699 51.3773 27.0721 51.822 27.2893C51.8497 27.3025 51.8773 27.3158 51.9058 27.3295C52.1205 27.4355 52.3069 27.5541 52.4834 27.7161C52.5173 27.7462 52.5513 27.7763 52.5863 27.8073C53.311 28.4818 53.6403 29.395 53.685 30.3677C53.7186 31.4907 53.4984 32.6159 52.6929 33.461C51.9996 34.1404 51.173 34.4019 50.2106 34.4016C49.2908 34.3929 48.474 34.1129 47.8056 33.4745C47.0947 32.7256 46.8383 31.7549 46.8357 30.7563C46.8353 30.6713 46.8341 30.5864 46.8329 30.5014C46.8265 29.634 47.0835 28.7586 47.6388 28.0749C47.6946 28.0212 47.6946 28.0213 47.7718 28.0213C47.7865 27.9878 47.7865 27.9878 47.8016 27.9537C48.0274 27.5494 48.6583 27.2314 49.0918 27.0974C49.4549 26.9979 49.8202 26.977 50.1953 26.9771Z" fill="#4B2C5E"/>
<path d="M101.877 24.3208C102.922 24.3208 103.967 24.3208 105.044 24.3208C105.044 28.5508 105.044 32.7807 105.044 37.1388C103.999 37.1388 102.954 37.1388 101.877 37.1388C101.877 32.9089 101.877 28.6789 101.877 24.3208Z" fill="#FEFEFE"/>
<path d="M144.435 27.8305C144.546 27.8849 144.553 27.9643 144.591 28.0744C144.601 28.1038 144.611 28.1333 144.621 28.1636C144.631 28.1943 144.642 28.225 144.653 28.2567C144.688 28.3586 144.722 28.4605 144.756 28.5625C144.781 28.6333 144.805 28.704 144.829 28.7748C144.879 28.9212 144.929 29.0677 144.979 29.2142C145.049 29.4214 145.121 29.6283 145.193 29.8351C145.204 29.8671 145.215 29.8991 145.226 29.9321C145.259 30.0256 145.291 30.119 145.324 30.2124C145.454 30.5873 145.583 30.9624 145.709 31.3387C145.772 31.5261 145.839 31.7118 145.908 31.8971C145.942 31.9909 145.976 32.085 146.009 32.1795C146.019 32.2062 146.028 32.233 146.038 32.2605C146.057 32.3321 146.057 32.3321 146.057 32.4465C145.012 32.4465 143.967 32.4465 142.891 32.4465C142.916 32.296 142.937 32.1818 142.987 32.0431C142.998 32.0116 143.009 31.98 143.021 31.9475C143.033 31.9147 143.045 31.8819 143.057 31.8481C143.069 31.814 143.082 31.7798 143.094 31.7447C143.156 31.5728 143.219 31.4014 143.284 31.2305C143.34 31.0797 143.386 30.9277 143.429 30.7727C143.478 30.5973 143.534 30.4291 143.603 30.2601C143.691 30.0419 143.76 29.8217 143.822 29.5954C143.873 29.416 143.938 29.2463 144.01 29.074C144.076 28.909 144.131 28.7406 144.187 28.572C144.198 28.5384 144.209 28.5048 144.221 28.4702C144.243 28.4038 144.265 28.3375 144.287 28.2711C144.336 28.1241 144.386 27.9773 144.435 27.8305Z" fill="#4D2F60"/>
<path d="M66.4635 4.36894C66.4762 4.36894 66.489 4.36894 66.5021 4.36894C66.5021 8.01979 66.5021 11.6706 66.5021 15.4321C69.6882 15.4321 72.8743 15.4321 76.1569 15.4321C76.1569 15.4573 76.1569 15.4825 76.1569 15.5084C78.642 15.5084 81.1272 15.5084 83.6876 15.5084C83.7003 15.5336 83.7131 15.5588 83.7262 15.5847C83.11 15.5898 82.4937 15.5948 81.8774 15.5996C81.5909 15.6019 81.3045 15.6042 81.018 15.6066C80.7668 15.6087 80.5156 15.6107 80.2644 15.6126C80.1327 15.6136 80.0011 15.6147 79.8695 15.6158C77.7431 15.6339 75.6165 15.6224 73.4902 15.6155C73.1504 15.6144 72.8105 15.6133 72.4707 15.6123C71.8653 15.6104 71.2599 15.6085 70.6546 15.6066C70.0686 15.6047 69.4826 15.6028 68.8966 15.601C68.8419 15.6008 68.8419 15.6008 68.786 15.6007C68.6029 15.6001 68.4197 15.5995 68.2366 15.599C66.7316 15.5943 65.2266 15.5895 63.7215 15.5847C63.7215 15.5721 63.7215 15.5595 63.7215 15.5466C64.6264 15.5466 65.5312 15.5466 66.4635 15.5466C66.4635 11.8579 66.4635 8.16933 66.4635 4.36894Z" fill="#FEFEFE"/>
<path d="M65.1469 15.4498C65.2978 15.4523 65.4487 15.4545 65.5995 15.4567C65.8875 15.461 66.1755 15.4655 66.4635 15.4703C66.4635 15.4954 66.4635 15.5206 66.4635 15.5466C71.2617 15.5654 71.2617 15.5654 76.1569 15.5847C76.1569 15.5973 76.1569 15.6099 76.1569 15.6229C69.5298 15.6229 62.9028 15.6229 56.0749 15.6229C56.0749 15.5851 56.0749 15.5473 56.0749 15.5084C56.0495 15.4958 56.024 15.4832 55.9977 15.4703C56.6234 15.4652 57.2491 15.4602 57.8747 15.4553C58.1656 15.4531 58.4564 15.4508 58.7473 15.4484C60.8804 15.431 63.0139 15.4145 65.1469 15.4498Z" fill="#FEFEFE"/>
<path d="M44.333 15.3517C44.3718 15.3518 44.4105 15.3518 44.4505 15.3519C44.4931 15.3522 44.5356 15.3524 44.5795 15.3527C44.6248 15.3528 44.6701 15.3529 44.7168 15.3531C44.8428 15.3534 44.9688 15.354 45.0948 15.3546C45.231 15.3553 45.3671 15.3557 45.5033 15.3561C45.7404 15.3569 45.9774 15.3578 46.2145 15.3589C46.5628 15.3604 46.911 15.3616 47.2592 15.3628C47.8315 15.3648 48.4037 15.367 48.976 15.3692C49.0103 15.3694 49.0445 15.3695 49.0799 15.3697C49.1142 15.3698 49.1484 15.3699 49.1838 15.3701C50.3507 15.3747 51.5176 15.379 52.6844 15.3832C52.8484 15.3838 53.0124 15.3844 53.1764 15.385C55.8161 15.3946 58.4557 15.3965 61.0954 15.394C61.1082 15.4191 61.1209 15.4443 61.134 15.4703C54.7364 15.4703 48.3388 15.4703 41.7473 15.4703C41.7473 15.4577 41.7473 15.4451 41.7473 15.4321C41.775 15.4317 41.8027 15.4313 41.8313 15.4309C42.0926 15.4272 42.354 15.4233 42.6154 15.4192C42.7498 15.4171 42.8841 15.415 43.0185 15.4131C43.173 15.411 43.3276 15.4085 43.4821 15.406C43.5303 15.4054 43.5785 15.4048 43.6282 15.4041C43.6954 15.403 43.6954 15.403 43.764 15.4018C43.8232 15.4009 43.8232 15.4009 43.8835 15.4C43.9828 15.3977 43.9828 15.3977 44.0589 15.3748C44.1529 15.3532 44.2365 15.3513 44.333 15.3517Z" fill="#FEFEFE"/>
<path d="M17.3014 29.5091C17.3141 29.5091 17.3268 29.5091 17.34 29.5091C17.34 32.0269 17.34 34.5447 17.34 37.1388C17.3272 37.1388 17.3145 37.1388 17.3014 37.1388C17.2886 34.7343 17.2759 32.3298 17.2627 29.8524C17.25 29.8524 17.2373 29.8524 17.2241 29.8524C17.2579 29.5949 17.2579 29.5949 17.3014 29.5091Z" fill="#6A527B"/>
<path d="M7.72382 8.79421C8.16123 8.79333 8.59863 8.79265 9.03604 8.79224C9.23912 8.79204 9.4422 8.79177 9.64528 8.79134C9.8411 8.79092 10.0369 8.79069 10.2327 8.79059C10.3076 8.79052 10.3825 8.79038 10.4574 8.79018C10.5619 8.7899 10.6664 8.78986 10.7709 8.78988C10.8178 8.78968 10.8178 8.78968 10.8657 8.78947C11.0793 8.78986 11.0793 8.78986 11.1223 8.83236C11.1259 8.90026 11.1268 8.96831 11.1267 9.0363C11.1267 9.1016 11.1267 9.1016 11.1267 9.16822C11.1265 9.21559 11.1263 9.26295 11.1261 9.31176C11.126 9.35997 11.126 9.40818 11.1259 9.45785C11.1257 9.58623 11.1254 9.71461 11.125 9.84299C11.1246 9.97391 11.1244 10.1048 11.1242 10.2357C11.1238 10.4928 11.1231 10.7498 11.1223 11.0068C11.0451 10.9305 11.0451 10.9306 11.0358 10.8432C11.0359 10.8067 11.0361 10.7703 11.0363 10.7328C11.0363 10.691 11.0363 10.6492 11.0363 10.6061C11.0367 10.562 11.0371 10.5179 11.0375 10.4725C11.0376 10.432 11.0377 10.3916 11.0378 10.35C11.0382 10.1986 11.0392 10.0472 11.0402 9.89576C11.0418 9.55743 11.0434 9.2191 11.0451 8.87051C9.94905 8.85792 8.85304 8.84533 7.72382 8.83236C7.72382 8.81977 7.72382 8.80718 7.72382 8.79421Z" fill="#FEFEFE"/>
<path d="M7.87382 15.3511C7.90076 15.3512 7.92771 15.3513 7.95547 15.3515C7.99785 15.3515 7.99785 15.3515 8.04109 15.3515C8.13492 15.3515 8.22874 15.3518 8.32257 15.3521C8.38745 15.3522 8.45234 15.3522 8.51722 15.3523C8.68832 15.3524 8.85943 15.3528 9.03053 15.3532C9.205 15.3536 9.37946 15.3538 9.55393 15.354C9.8965 15.3544 10.2391 15.355 10.5816 15.3558C10.5816 15.3684 10.5816 15.381 10.5816 15.394C9.6513 15.394 8.72097 15.394 7.76244 15.394C7.76244 15.4191 7.76244 15.4443 7.76244 15.4703C6.88308 15.4703 6.00373 15.4703 5.09772 15.4703C5.09772 15.4577 5.09772 15.4451 5.09772 15.4321C5.12957 15.4317 5.16142 15.4313 5.19423 15.4309C5.49372 15.4272 5.79322 15.4233 6.09271 15.4192C6.2467 15.4171 6.40069 15.415 6.55468 15.4131C6.70317 15.4113 6.85166 15.4093 7.00014 15.4072C7.05691 15.4064 7.11369 15.4057 7.17046 15.4051C7.24972 15.4042 7.32897 15.403 7.40822 15.4018C7.45342 15.4012 7.49861 15.4006 7.54517 15.4C7.66418 15.3929 7.74473 15.3514 7.87382 15.3511Z" fill="#FEFEFE"/>
<path d="M16.7607 24.3208C17.9841 24.3208 19.2076 24.3208 20.4681 24.3208C20.4681 24.3334 20.4681 24.346 20.4681 24.359C20.4003 24.3595 20.4003 24.3595 20.3311 24.3602C19.9054 24.3639 19.4798 24.3678 19.0542 24.3719C18.8353 24.374 18.6165 24.376 18.3977 24.3779C18.1866 24.3797 17.9755 24.3817 17.7644 24.3839C17.6838 24.3846 17.6031 24.3854 17.5225 24.386C17.4098 24.3869 17.297 24.3881 17.1843 24.3893C17.1508 24.3895 17.1173 24.3897 17.0827 24.3899C16.9532 24.3915 16.8458 24.3945 16.7221 24.4353C16.7348 24.3975 16.7476 24.3597 16.7607 24.3208Z" fill="#ECEAEE"/>
</svg>
