<svg width="24" height="24" viewBox="0 0 24 24" fill="none" xmlns="http://www.w3.org/2000/svg">
<path d="M20.6104 22.7637H19.4123C19.2625 17.9713 17.4055 13.8379 14.7098 11.9809C17.3156 10.1238 19.2625 5.69092 19.4123 1.19809H20.6104C20.9398 1.19809 21.2094 0.928519 21.2094 0.599044C21.2094 0.26957 20.9398 0 20.6104 0H2.99846C2.66898 0 2.39941 0.26957 2.39941 0.599044C2.39941 0.928519 2.66898 1.19809 2.99846 1.19809H4.19655C4.34631 5.69092 6.26325 10.1238 8.89904 11.9809C6.20334 13.8379 4.34631 17.9713 4.19655 22.7637H2.99846C2.66898 22.7637 2.39941 23.0332 2.39941 23.3627C2.39941 23.6922 2.66898 23.9618 2.99846 23.9618H20.6403C20.9698 23.9618 21.2394 23.6922 21.2394 23.3627C21.2394 23.0332 20.9398 22.7637 20.6104 22.7637ZM5.09511 22.7637C5.24487 17.9713 7.19177 13.8978 9.94737 12.4302C10.0971 12.3403 10.187 12.1606 10.187 12.0108C10.187 11.8611 10.0971 11.6215 9.94737 11.5616C7.28162 10.1238 5.24487 5.69092 5.09511 1.19809H18.5137C18.3639 5.69092 16.3272 10.1238 13.6614 11.5316C13.5117 11.6215 13.4218 11.8012 13.4218 11.9509C13.4218 12.1007 13.5117 12.3403 13.6614 12.4002C16.417 13.8679 18.3639 17.9713 18.5137 22.7637H5.09511Z" fill="white"/>
<path d="M13.2419 13.1789C12.7926 12.9393 12.5231 12.49 12.5231 11.9808C12.5231 11.4716 12.7926 11.0223 13.2419 10.7827C14.9192 9.88416 16.3569 7.54788 17.1057 4.76233L7.76065 7.90731C8.47951 9.22521 9.37807 10.2735 10.3964 10.7827C10.8457 11.0223 11.1153 11.4716 11.1153 11.9808C11.1153 12.49 10.8757 12.9393 10.4264 13.1789C8.12008 14.377 6.4128 17.8814 6.11328 21.8051V21.865H17.585C17.2555 17.9114 15.5183 14.377 13.2419 13.1789Z" fill="white"/>
</svg>
