<svg width="100" height="100" viewBox="0 0 100 100" fill="none" xmlns="http://www.w3.org/2000/svg">
<path d="M88.249 6.13574V94.0088H41.79V6.13574H88.249ZM80.1699 91.7188H85.958L85.9551 8.42676H80.167L80.1699 91.7188ZM52.4365 91.7188H77.877V8.42676H52.4365V91.7188ZM44.0801 91.7188H50.1455V8.42676H44.0801V91.7188Z" fill="#C49A6C" stroke="#C49A6C" stroke-width="0.454545"/>
<path d="M34.9863 31.4727H34.7588C33.1089 31.4726 32.3156 30.6829 31.6758 30.1348L31.291 29.8125C30.9376 29.5281 30.6487 29.3604 30.1709 29.3604C29.537 29.3604 29.2328 29.6623 28.665 30.1348C28.0254 30.6828 27.2359 31.4725 25.583 31.4727C23.9333 31.4727 23.1398 30.6829 22.5 30.1348L22.1152 29.8125C21.7617 29.528 21.4722 29.3604 20.9941 29.3604C20.3614 29.3605 20.0564 29.6605 19.4902 30.1318L19.4912 30.1328C18.8511 30.6809 18.0614 31.4727 16.4062 31.4727C14.756 31.4726 13.9631 30.6819 13.3232 30.1338V30.1348C13.0267 29.8861 12.8502 29.7042 12.6279 29.5664C12.4256 29.441 12.1924 29.3604 11.8184 29.3604H11.5908V27.0693H11.8184C13.4684 27.0693 14.2615 27.8601 14.9014 28.4082L15.2861 28.7295C15.6397 29.014 15.9283 29.1826 16.4062 29.1826C17.0401 29.1826 17.3445 28.8806 17.9121 28.4082C18.5518 27.8602 19.3411 27.0695 20.9941 27.0693C22.6439 27.0693 23.4373 27.8601 24.0771 28.4082L24.4619 28.7295C24.8156 29.0142 25.1048 29.1826 25.583 29.1826C26.2157 29.1825 26.52 28.8814 27.0859 28.4102L27.3398 28.1943C27.9608 27.6741 28.8053 27.0693 30.1709 27.0693C31.7297 27.0694 32.6134 27.8566 33.2539 28.4082L33.6289 28.7334C33.738 28.8272 33.8379 28.9076 33.9492 28.9766C34.1515 29.1019 34.3849 29.1826 34.7588 29.1826H34.9863V31.4727Z" fill="#C49A6C" stroke="#C49A6C" stroke-width="0.454545"/>
<path d="M34.9863 51.6758H34.7588C33.1089 51.6758 32.3156 50.886 31.6758 50.3379L31.291 50.0156C30.9376 49.7312 30.6487 49.5635 30.1709 49.5635C29.537 49.5635 29.2328 49.8654 28.665 50.3379C28.0254 50.8859 27.2359 51.6757 25.583 51.6758C23.9333 51.6758 23.1398 50.886 22.5 50.3379L22.1152 50.0156C21.7617 49.7311 21.4722 49.5635 20.9941 49.5635C20.3614 49.5636 20.0564 49.8636 19.4902 50.335L19.4912 50.3359C18.8511 50.8841 18.0614 51.6758 16.4062 51.6758C14.756 51.6757 13.9631 50.8851 13.3232 50.3369V50.3379C13.0267 50.0892 12.8502 49.9074 12.6279 49.7695C12.4256 49.6441 12.1924 49.5635 11.8184 49.5635H11.5908V47.2725H11.8184C13.4684 47.2725 14.2615 48.0632 14.9014 48.6113L15.2861 48.9326C15.6397 49.2172 15.9283 49.3857 16.4062 49.3857C17.0401 49.3857 17.3445 49.0837 17.9121 48.6113C18.5518 48.0633 19.3411 47.2726 20.9941 47.2725C22.6439 47.2725 23.4373 48.0632 24.0771 48.6113L24.4619 48.9326C24.8156 49.2173 25.1048 49.3857 25.583 49.3857C26.2157 49.3856 26.52 49.0845 27.0859 48.6133L27.3398 48.3975C27.9608 47.8772 28.8053 47.2725 30.1709 47.2725C31.7297 47.2725 32.6134 48.0597 33.2539 48.6113L33.6289 48.9365C33.738 49.0303 33.8379 49.1107 33.9492 49.1797C34.1515 49.305 34.3849 49.3857 34.7588 49.3857H34.9863V51.6758Z" fill="#C49A6C" stroke="#C49A6C" stroke-width="0.454545"/>
<path d="M34.9863 71.8789H34.7588C33.1089 71.8789 32.3156 71.0892 31.6758 70.541L31.291 70.2188C30.9376 69.9344 30.6487 69.7666 30.1709 69.7666C29.537 69.7666 29.2328 70.0685 28.665 70.541C28.0254 71.089 27.2359 71.8788 25.583 71.8789C23.9333 71.8789 23.1398 71.0891 22.5 70.541L22.1152 70.2188C21.7617 69.9342 21.4722 69.7666 20.9941 69.7666C20.3614 69.7667 20.0564 70.0668 19.4902 70.5381L19.4912 70.5391C18.8511 71.0872 18.0614 71.8789 16.4062 71.8789C14.756 71.8788 13.9631 71.0882 13.3232 70.54V70.541C13.0267 70.2923 12.8503 70.1105 12.6279 69.9727C12.4256 69.8473 12.1924 69.7666 11.8184 69.7666H11.5908V67.4756H11.8184C13.4684 67.4756 14.2615 68.2663 14.9014 68.8145L15.2861 69.1357C15.6397 69.4203 15.9283 69.5888 16.4062 69.5889C17.0401 69.5889 17.3445 69.2869 17.9121 68.8145C18.5518 68.2664 19.3411 67.4757 20.9941 67.4756C22.6439 67.4756 23.4373 68.2663 24.0771 68.8145L24.4619 69.1357C24.8156 69.4204 25.1048 69.5889 25.583 69.5889C26.2157 69.5887 26.52 69.2876 27.0859 68.8164L27.3398 68.6006C27.9608 68.0804 28.8053 67.4756 30.1709 67.4756C31.7297 67.4756 32.6134 68.2628 33.2539 68.8145L33.6289 69.1396C33.738 69.2334 33.8379 69.3138 33.9492 69.3828C34.1515 69.5082 34.3849 69.5889 34.7588 69.5889H34.9863V71.8789Z" fill="#C49A6C" stroke="#C49A6C" stroke-width="0.454545"/>
<path d="M70.2109 10.6357C70.5394 10.6358 70.8301 10.7466 71.0391 10.9561C71.2481 11.1656 71.3574 11.4566 71.3574 11.7832C71.3574 13.5152 70.5838 14.7883 69.4824 15.7949C68.6626 16.5441 67.6542 17.1517 66.6416 17.6982L65.6348 18.2275C64.3874 18.8735 63.2174 19.4816 62.3564 20.1973C61.5015 20.9079 60.9814 21.7001 60.9814 22.71C60.9815 23.6706 61.4991 24.439 62.3457 25.1406C63.1963 25.8454 64.3427 26.4536 65.542 27.0996L66.5537 27.6328C67.5743 28.1872 68.5995 28.8117 69.4365 29.5781C70.5594 30.6064 71.3574 31.9028 71.3574 33.6367C71.3574 35.369 70.5839 36.6427 69.4824 37.6494C68.6625 38.3987 67.6542 39.0062 66.6416 39.5527L65.6348 40.0811C64.3873 40.727 63.2175 41.336 62.3564 42.0518C61.5016 42.7624 60.9815 43.5537 60.9814 44.5635C60.9814 45.5243 61.4989 46.2934 62.3457 46.9951C63.1963 47.6998 64.3428 48.3071 65.542 48.9531L66.5537 49.4873C67.5742 50.0416 68.5996 50.6663 69.4365 51.4326C70.5592 52.4608 71.3574 53.7567 71.3574 55.4902C71.3574 57.2225 70.5839 58.4963 69.4824 59.5029C68.6626 60.2522 67.6542 60.8597 66.6416 61.4062L65.6348 61.9355C64.3874 62.5815 63.2175 63.1896 62.3564 63.9053C61.5016 64.6159 60.9815 65.4072 60.9814 66.417C60.9814 67.3778 61.4989 68.147 62.3457 68.8486C63.1961 69.5532 64.342 70.1608 65.541 70.8066H65.542C66.8702 71.4938 68.3207 72.2643 69.4365 73.2861C70.5591 74.3143 71.3573 75.6103 71.3574 77.3438C71.3574 79.0759 70.5838 80.3498 69.4824 81.3564C68.6626 82.1057 67.6541 82.7133 66.6416 83.2598L65.6348 83.7891C64.3874 84.435 63.2174 85.0431 62.3564 85.7588C61.5015 86.4695 60.9805 87.2616 60.9805 88.2715C60.9804 88.6 60.8697 88.8906 60.6602 89.0996C60.4506 89.3084 60.1604 89.4179 59.834 89.418C59.5053 89.418 59.214 89.3073 59.0049 89.0977C58.7962 88.8882 58.6866 88.5978 58.6865 88.2715C58.6865 86.5375 59.4855 85.2412 60.6084 84.2129C61.4452 83.4466 62.4698 82.8218 63.4902 82.2676L64.502 81.7334C65.703 81.0873 66.8501 80.4802 67.7002 79.7754C68.5464 79.0738 69.0635 78.3046 69.0635 77.3438C69.0634 76.3372 68.5224 75.5458 67.6533 74.833C66.7787 74.1157 65.6083 73.5079 64.4062 72.8604V72.8594C63.1255 72.1748 61.6996 71.4058 60.5967 70.3965C59.487 69.3809 58.6865 68.1065 58.6865 66.417C58.6866 64.6832 59.4856 63.3876 60.6084 62.3594C61.4452 61.5931 62.4698 60.9683 63.4902 60.4141L64.502 59.8799C65.7011 59.2339 66.8475 58.6265 67.6982 57.9219C68.5452 57.2202 69.0635 56.451 69.0635 55.4902C69.0634 54.4836 68.5225 53.6923 67.6533 52.9795C66.9975 52.4417 66.1758 51.965 65.2988 51.4873L64.4072 51.0068C63.1262 50.3221 61.6998 49.5526 60.5967 48.543C59.487 47.5274 58.6875 46.253 58.6875 44.5635C58.6876 42.8296 59.4855 41.5331 60.6084 40.5049C61.7242 39.4831 63.1748 38.7135 64.5029 38.0264C65.7039 37.3804 66.8501 36.7721 67.7002 36.0674C68.5463 35.3658 69.0635 34.5976 69.0635 33.6367C69.0635 32.63 68.5226 31.8389 67.6533 31.126C66.9973 30.588 66.1751 30.1116 65.2979 29.6338L64.4072 29.1533C63.1261 28.4686 61.6999 27.6982 60.5967 26.6885C59.4872 25.6729 58.6875 24.3993 58.6875 22.71C58.6875 20.976 59.4855 19.6796 60.6084 18.6514C61.7242 17.6296 63.1747 16.86 64.5029 16.1729C65.7039 15.5269 66.8501 14.9186 67.7002 14.2139C68.5463 13.5124 69.0634 12.744 69.0635 11.7832C69.0635 11.4545 69.1741 11.1632 69.3838 10.9541C69.5933 10.7452 69.8844 10.6357 70.2109 10.6357Z" fill="#C49A6C" stroke="#C49A6C" stroke-width="0.454545"/>
</svg>
