<svg width="100" height="100" viewBox="0 0 100 100" fill="none" xmlns="http://www.w3.org/2000/svg">
<path d="M70.3125 39.8703V23.4375H75.4375L73.9813 17.6109C73.4609 15.5234 71.5891 14.0625 69.4344 14.0625H68.7391C65.6047 6.54531 58.2172 1.5625 50 1.5625C41.7828 1.5625 34.3953 6.54531 31.2609 14.0625H30.5656C28.4109 14.0625 26.5406 15.5234 26.0188 17.6125L24.5625 23.4375H29.6875V39.8719C21.7391 46.1391 17.1875 55.4734 17.1875 65.625V81.25C17.1875 83.7922 18.4266 86.0328 20.3125 87.4594V95.3125H27.4781L30.6031 98.4375H69.3969L72.5219 95.3125H79.6875V87.4594C81.5734 86.0312 82.8125 83.7906 82.8125 81.25V65.625C82.8125 55.4734 78.2609 46.1359 70.3125 39.8703ZM50 4.6875C56.5062 4.6875 62.3969 8.37813 65.3016 14.0625H34.6984C37.6031 8.37813 43.4937 4.6875 50 4.6875ZM29.0484 18.3719C29.2234 17.675 29.8469 17.1875 30.5656 17.1875H69.4359C70.1547 17.1875 70.7766 17.675 70.9531 18.3703L71.4375 20.3125H28.5625L29.0484 18.3719ZM39.0625 23.4375H60.9375V37.5C60.9375 40.0844 58.8344 42.1875 56.25 42.1875H43.75C41.1656 42.1875 39.0625 40.0844 39.0625 37.5V23.4375ZM35.9375 23.4375V37.5C35.9375 41.8078 39.4422 45.3125 43.75 45.3125H56.25C60.5578 45.3125 64.0625 41.8078 64.0625 37.5V23.4375H67.1875V43.0891C63.5094 46.5422 58.7312 48.4375 53.6609 48.4375H46.3391C41.2687 48.4375 36.4906 46.5422 32.8125 43.0891V23.4375H35.9375ZM46.875 54.6875C44.7078 54.6875 42.8969 53.2016 42.3625 51.2C43.6641 51.4266 44.9906 51.5625 46.3391 51.5625H53.6609C55.0094 51.5625 56.3359 51.4266 57.6375 51.2C57.1031 53.2016 55.2922 54.6875 53.125 54.6875H46.875ZM20.3125 65.625C20.3125 59.6344 22.0672 53.9562 25.2797 49.1562C26.1125 51.0078 26.5625 53.0109 26.5625 55.0656V85.9375H25C22.4156 85.9375 20.3125 83.8344 20.3125 81.25V65.625ZM23.4375 88.9047C23.9422 89.0078 24.4656 89.0625 25 89.0625H26.5625V92.1875H23.4375V88.9047ZM29.6875 93.1031V55.0656C29.6875 52.0047 28.8938 49.0266 27.3875 46.3797C28.1047 45.5422 28.8703 44.7391 29.6875 43.9766V44.3969L30.1453 44.8547C32.7031 47.4125 35.7656 49.2703 39.1016 50.3781C39.3031 54.5063 42.6969 57.8125 46.875 57.8125H48.4375V95.3125H31.8969L29.6875 93.1031ZM70.3125 93.1031L68.1031 95.3125H51.5625V57.8125H53.125C57.3031 57.8125 60.6969 54.5063 60.9 50.3781C64.2344 49.2703 67.2984 47.4125 69.8563 44.8547L70.3125 44.3969V43.975C71.1297 44.7375 71.8969 45.5422 72.6141 46.3812C71.1078 49.025 70.3125 52.0047 70.3125 55.0656V93.1031ZM76.5625 92.1875H73.4375V89.0625H75C75.5344 89.0625 76.0578 89.0078 76.5625 88.9047V92.1875ZM79.6875 81.25C79.6875 83.8344 77.5844 85.9375 75 85.9375H73.4375V55.0656C73.4375 53.0094 73.8844 51.0031 74.7188 49.1516C77.9328 53.9516 79.6875 59.6312 79.6875 65.625V81.25Z" fill="#C49A6C"/>
</svg>
