<svg width="103" height="104" viewBox="0 0 103 104" fill="none" xmlns="http://www.w3.org/2000/svg">
<path d="M3 78.95H32.1773M32.1773 93.65H3M71.0803 78.95H100.258M100.258 93.65H71.0803M58.9231 52H44.3345V71.6H58.9231V52Z" stroke="#C49A6C" stroke-width="5" stroke-linecap="round" stroke-linejoin="round"/>
<path d="M50 31L64 14.5M75.9432 27.5C75.9432 33.9978 73.3815 40.2295 68.8217 44.8241C64.2618 49.4188 58.0774 52 51.6288 52C45.1802 52 38.9957 49.4188 34.4359 44.8241C29.8761 40.2295 27.3144 33.9978 27.3144 27.5C27.3144 21.0022 29.8761 14.7705 34.4359 10.1759C38.9957 5.58124 45.1802 3 51.6288 3C58.0774 3 64.2618 5.58124 68.8217 10.1759C73.3815 14.7705 75.9432 21.0022 75.9432 27.5ZM61.3545 71.6H41.903C37.3173 71.6 35.0269 71.6 33.6021 73.0357C32.1773 74.4714 32.1773 76.7793 32.1773 81.4V91.2C32.1773 95.8207 32.1773 98.1286 33.6021 99.5643C35.0269 101 37.3173 101 41.903 101H61.3545C65.9402 101 68.2307 101 69.6555 99.5643C71.0803 98.1286 71.0803 95.8207 71.0803 91.2V81.4C71.0803 76.7793 71.0803 74.4714 69.6555 73.0357C68.2307 71.6 65.9402 71.6 61.3545 71.6Z" stroke="#C49A6C" stroke-width="5" stroke-linecap="round" stroke-linejoin="round"/>
</svg>
