<svg width="80" height="80" viewBox="0 0 80 80" fill="none" xmlns="http://www.w3.org/2000/svg">
<path d="M76.6999 28.0464H66.6313V7.90916H76.6999C77.3161 7.90916 77.9071 7.66436 78.3429 7.22861C78.7786 6.79287 79.0234 6.20187 79.0234 5.58563C79.0234 4.96939 78.7786 4.37839 78.3429 3.94265C77.9071 3.5069 77.3161 3.2621 76.6999 3.2621H66.1007C65.6616 2.33628 64.969 1.55386 64.1034 1.00555C63.2377 0.457228 62.2344 0.165462 61.2097 0.164062H55.0136C53.9889 0.165462 52.9856 0.457228 52.12 1.00555C51.2543 1.55386 50.5618 2.33628 50.1226 3.2621H42.6215C32.1492 3.2744 22.1094 7.43995 14.7043 14.845C7.29932 22.25 3.13378 32.2898 3.12148 42.7621V50.2632C2.19565 50.7024 1.41324 51.3949 0.86492 52.2606C0.316603 53.1262 0.0248367 54.1296 0.0234375 55.1543V61.3503C0.0248367 62.375 0.316603 63.3784 0.86492 64.244C1.41324 65.1097 2.19565 65.8022 3.12148 66.2414V76.8405C3.12148 77.4568 3.36628 78.0478 3.80202 78.4835C4.23777 78.9193 4.82877 79.1641 5.44501 79.1641C6.06124 79.1641 6.65224 78.9193 7.08799 78.4835C7.52374 78.0478 7.76854 77.4568 7.76854 76.8405V66.7719H27.9058V76.8405C27.9058 77.4568 28.1506 78.0478 28.5863 78.4835C29.0221 78.9193 29.6131 79.1641 30.2293 79.1641C30.8456 79.1641 31.4366 78.9193 31.8723 78.4835C32.308 78.0478 32.5528 77.4568 32.5528 76.8405V66.2414C33.4787 65.8022 34.2611 65.1097 34.8094 64.244C35.3577 63.3784 35.6495 62.375 35.6509 61.3503V55.1543C35.6495 54.1296 35.3577 53.1262 34.8094 52.2606C34.2611 51.3949 33.4787 50.7024 32.5528 50.2632V42.7621C32.5528 40.0917 33.6136 37.5307 35.5019 35.6425C37.3901 33.7543 39.9511 32.6935 42.6215 32.6935H50.1226C50.5618 33.6193 51.2543 34.4017 52.12 34.95C52.9856 35.4983 53.9889 35.7901 55.0136 35.7915H61.2097C62.2344 35.7901 63.2377 35.4983 64.1034 34.95C64.969 34.4017 65.6616 33.6193 66.1007 32.6935H76.6999C77.3161 32.6935 77.9071 32.4487 78.3429 32.0129C78.7786 31.5772 79.0234 30.9862 79.0234 30.3699C79.0234 29.7537 78.7786 29.1627 78.3429 28.727C77.9071 28.2912 77.3161 28.0464 76.6999 28.0464ZM30.2293 54.3797C30.4347 54.3797 30.6317 54.4613 30.777 54.6066C30.9222 54.7518 31.0038 54.9488 31.0038 55.1543V61.3503C31.0038 61.5557 30.9222 61.7527 30.777 61.898C30.6317 62.0432 30.4347 62.1248 30.2293 62.1248H5.44501C5.23959 62.1248 5.04259 62.0432 4.89734 61.898C4.7521 61.7527 4.6705 61.5557 4.6705 61.3503V55.1543C4.6705 54.9488 4.7521 54.7518 4.89734 54.6066C5.04259 54.4613 5.23959 54.3797 5.44501 54.3797H30.2293ZM27.9058 42.7621V49.7327H7.76854V42.7621C7.77879 33.5217 11.4541 24.6626 17.988 18.1287C24.522 11.5947 33.381 7.91941 42.6215 7.90916H49.5921V28.0464H42.6215C38.7186 28.0464 34.9756 29.5968 32.2159 32.3565C29.4562 35.1163 27.9058 38.8593 27.9058 42.7621ZM61.2097 31.1445H55.0136C54.8082 31.1445 54.6112 31.0629 54.466 30.9176C54.3207 30.7724 54.2391 30.5754 54.2391 30.3699V5.58563C54.2391 5.38022 54.3207 5.18322 54.466 5.03797C54.6112 4.89272 54.8082 4.81112 55.0136 4.81112H61.2097C61.4151 4.81112 61.6121 4.89272 61.7574 5.03797C61.9026 5.18322 61.9842 5.38022 61.9842 5.58563V30.3699C61.9842 30.5754 61.9026 30.7724 61.7574 30.9176C61.6121 31.0629 61.4151 31.1445 61.2097 31.1445Z" fill="#C49A6C"/>
</svg>
