<svg width="76" height="76" viewBox="0 0 76 76" fill="none" xmlns="http://www.w3.org/2000/svg">
<path d="M70.5714 0H5.42857C2.44286 0 0 2.44286 0 5.42857V70.5714C0 73.5571 2.44286 76 5.42857 76H46.1429V70.5714C46.1429 62.9714 52.1143 57 59.7143 57V51.5714C49.1286 51.5714 40.7143 59.9857 40.7143 70.5714H32.5714V59.7143H27.1429V70.5714H5.42857V5.42857H27.1429V43.4286H32.5714V29.8571H43.4286V24.4286H32.5714V5.42857H70.5714V24.4286H59.7143V29.8571H70.5714V70.5714H59.7143V76H70.5714C73.5571 76 76 73.5571 76 70.5714V5.42857C76 2.44286 73.5571 0 70.5714 0Z" fill="#C49A6C"/>
</svg>
