<svg width="115" height="66" viewBox="0 0 115 66" fill="none" xmlns="http://www.w3.org/2000/svg">
<path d="M49.5942 35.0441L52.6725 30.0898C54.7999 26.6546 55.8608 24.939 57.9057 23.981C59.9451 23.019 62.5232 23.019 67.6904 23.019H69.9716C75.1388 23.019 77.7224 23.019 79.7618 23.981C81.8067 24.943 82.8676 26.6546 85.0005 30.0898L88.0733 35.0441M96.3188 35.0441H44.8723C39.5072 35.0441 34.1201 38.4511 29.6895 40.291C27.8041 41.0726 26.8641 41.4614 25.9956 41.3412C25.1325 41.2209 24.231 40.4553 22.4225 38.9321C18.657 35.7415 14.5783 35.0441 8.36664 35.0441C5.33229 35.0441 2.86963 37.1364 2.86963 39.7218V58.4247C2.86963 61.0101 5.33229 63.1024 8.36664 63.1024C14.5728 63.1024 18.6515 62.405 22.428 59.2143C24.231 57.6912 25.1325 56.9296 26.0011 56.8093C26.8641 56.6851 27.8041 57.0779 29.684 57.8595C34.1256 59.6953 39.5127 63.1024 44.8778 63.1024H96.3188C105.427 63.1024 112.81 56.8214 112.81 49.0732C112.81 41.3251 105.427 35.0441 96.3188 35.0441Z" stroke="#C49A6C" stroke-width="4" stroke-linecap="round" stroke-linejoin="round"/>
<path d="M68.8339 23.0185V6.98514C68.8339 5.92207 69.413 4.90253 70.4439 4.15082C71.4748 3.39911 72.873 2.97681 74.3309 2.97681H79.8279" stroke="#C49A6C" stroke-width="4" stroke-linecap="round" stroke-linejoin="round"/>
</svg>
