<svg width="66" height="66" viewBox="0 0 66 66" fill="none" xmlns="http://www.w3.org/2000/svg">
<path d="M32.5489 5.69883C32.5701 5.63206 32.612 5.57377 32.6686 5.53241C32.7251 5.49105 32.7934 5.46875 32.8634 5.46875C32.9335 5.46875 33.0017 5.49105 33.0583 5.53241C33.1148 5.57377 33.1567 5.63206 33.178 5.69883L34.0787 8.47036C34.0997 8.53707 34.1414 8.59533 34.1978 8.63666C34.2543 8.67799 34.3224 8.70021 34.3923 8.7001H37.3079C37.627 8.7001 37.7601 9.11036 37.5012 9.29817L35.1436 11.0121C35.087 11.0528 35.0449 11.1104 35.0232 11.1766C35.0016 11.2429 35.0016 11.3142 35.0232 11.3805L35.924 14.152C35.9467 14.2186 35.9476 14.2907 35.9265 14.3579C35.9053 14.425 35.8633 14.4836 35.8065 14.5252C35.7496 14.5667 35.681 14.589 35.6107 14.5888C35.5403 14.5886 35.4718 14.5658 35.4152 14.524L33.0576 12.81C33.0013 12.7687 32.9333 12.7464 32.8634 12.7464C32.7936 12.7464 32.7255 12.7687 32.6692 12.81L30.3098 14.524C30.2534 14.5655 30.1852 14.588 30.1151 14.5882C30.045 14.5884 29.9767 14.5662 29.92 14.525C29.8633 14.4838 29.8213 14.4256 29.7999 14.3588C29.7785 14.2921 29.7789 14.2203 29.8011 14.1538L30.7018 11.3823C30.7241 11.316 30.7246 11.2444 30.7032 11.1778C30.6819 11.1112 30.6399 11.0532 30.5833 11.0121L28.2239 9.29817C28.1669 9.25729 28.1245 9.19936 28.1027 9.13277C28.0809 9.06618 28.0809 8.99438 28.1026 8.92777C28.1244 8.86116 28.1667 8.80319 28.2236 8.76226C28.2805 8.72133 28.3489 8.69956 28.419 8.7001H31.3327C31.4768 8.7001 31.6026 8.60893 31.6481 8.47218L32.5489 5.69883Z" fill="#C49A6C"/>
<path fill-rule="evenodd" clip-rule="evenodd" d="M18.3192 24.4259C17.3151 24.7298 16.2825 25.0641 15.2213 25.4287C14.8336 25.5614 14.4125 25.5597 14.026 25.4237C13.6394 25.2878 13.3099 25.0256 13.0906 24.6795C12.8713 24.3334 12.775 23.9235 12.8172 23.5159C12.8594 23.1083 13.0376 22.7268 13.3232 22.4329L13.3359 22.4184C13.464 22.2833 13.5869 22.1434 13.7043 21.999C13.9541 21.6981 14.2877 21.2696 14.6196 20.7591C15.3198 19.6797 15.8467 18.4817 15.8467 17.4515C15.8467 7.86238 23.4174 0 32.8642 0C42.3111 0 49.8818 7.86238 49.8818 17.4515C49.8818 18.4817 50.4105 19.6797 51.1089 20.7591C51.4702 21.3161 51.8744 21.844 52.3178 22.3381L52.3306 22.3509C52.3573 22.3825 52.378 22.405 52.3925 22.4184L52.4053 22.4329C52.6909 22.7268 52.8691 23.1083 52.9113 23.5159C52.9535 23.9235 52.8572 24.3334 52.6378 24.6795C52.4185 25.0256 52.089 25.2878 51.7025 25.4237C51.3159 25.5597 50.8949 25.5614 50.5072 25.4287C49.446 25.0641 48.4133 24.7298 47.4093 24.4259C47.4372 24.7893 47.4512 25.1565 47.4512 25.5272C47.4517 27.4895 47.0563 29.4318 46.2887 31.2377C45.521 33.0436 44.3969 34.6761 42.9835 36.0374C41.5702 37.3987 39.8967 38.4608 38.0633 39.1602C36.2298 39.8596 34.2741 40.1819 32.3132 40.1078C30.3523 40.0336 28.4265 39.5646 26.6511 38.7288C24.8757 37.893 23.2871 36.7075 21.9806 35.2434C20.6741 33.7793 19.6764 32.0666 19.0473 30.2078C18.4181 28.3491 18.1705 26.3826 18.3192 24.4259ZM19.4935 17.4515C19.4935 9.77874 25.5288 3.64674 32.8642 3.64674C40.2015 3.64674 46.235 9.77874 46.235 17.4515C46.235 18.5218 46.4939 19.5484 46.855 20.4655C42.5208 19.2493 38.5313 18.551 34.5654 18.3978C33.2377 18.3458 31.9083 18.3544 30.5814 18.4233C26.807 18.6221 22.9962 19.3095 18.8717 20.4655C19.2666 19.5089 19.4787 18.4863 19.4935 17.4515ZM22.1319 23.3811C21.8167 24.9675 21.8572 26.6041 22.2505 28.173C22.6438 29.7419 23.3801 31.2041 24.4064 32.4542C25.4326 33.7044 26.7233 34.7115 28.1855 35.4029C29.6477 36.0944 31.245 36.453 32.8624 36.453C34.4799 36.453 36.0772 36.0944 37.5394 35.4029C39.0015 34.7115 40.2922 33.7044 41.3185 32.4542C42.3447 31.2041 43.081 29.7419 43.4743 28.173C43.8676 26.6041 43.9081 24.9675 43.593 23.3811C40.6573 22.67 37.915 22.2397 35.2273 22.081C33.7597 21.9942 32.2885 21.9881 30.8202 22.0628C28.0305 22.205 25.186 22.6408 22.1319 23.3811ZM52.9213 32.8207L62.0382 27.6113V5.47012H65.6849V47.4077L52.9213 41.9376V32.8207ZM62.0382 31.8105L56.5681 34.9376V39.5325L62.0382 41.8774V31.8105Z" fill="#C49A6C"/>
<path d="M11.2427 42.5544C11.4623 42.4506 11.6589 42.3039 11.8211 42.1231C11.9832 41.9422 12.1076 41.7308 12.1869 41.5012C12.2662 41.2716 12.2988 41.0284 12.2829 40.7861C12.2669 40.5437 12.2027 40.3069 12.094 40.0897C11.9852 39.8725 11.8342 39.6792 11.6497 39.5212C11.4653 39.3631 11.2511 39.2436 11.0197 39.1695C10.7884 39.0953 10.5446 39.0682 10.3027 39.0896C10.0607 39.111 9.82546 39.1806 9.61075 39.2942L2.87339 42.6674C2.44492 42.8863 2.12033 43.2657 1.97036 43.7228C1.82039 44.18 1.85719 44.6779 2.07275 45.1081C2.2883 45.5382 2.66514 45.8658 3.12114 46.0193C3.57713 46.1728 4.07532 46.1398 4.50713 45.9276L11.2427 42.5544ZM11.177 53.8866C11.3934 53.4545 11.7724 53.1259 12.2309 52.973C12.6894 52.8202 13.1898 52.8557 13.6222 53.0716L16.4539 54.4865L19.2856 53.0716C19.5005 52.9557 19.7365 52.8841 19.9796 52.8612C20.2227 52.8382 20.468 52.8643 20.7008 52.938C20.9336 53.0116 21.1493 53.1313 21.335 53.2898C21.5207 53.4484 21.6727 53.6426 21.7819 53.861C21.8911 54.0795 21.9553 54.3176 21.9707 54.5613C21.9862 54.805 21.9525 55.0493 21.8717 55.2797C21.7909 55.5102 21.6646 55.722 21.5004 55.9028C21.3362 56.0835 21.1373 56.2294 20.9157 56.3318L17.2689 58.1551C17.0158 58.2816 16.7368 58.3474 16.4539 58.3474C16.1709 58.3474 15.8919 58.2816 15.6388 58.1551L11.9921 56.3318C11.5599 56.1154 11.2313 55.7364 11.0785 55.2779C10.9257 54.8194 10.9611 54.319 11.177 53.8866Z" fill="#C49A6C"/>
<path fill-rule="evenodd" clip-rule="evenodd" d="M65.6848 55.6129C65.6848 48.21 45.7663 43.5476 31.8978 43.7737C18.7494 43.9871 0.043457 48.21 0.043457 55.6129V65.6414H65.6848V55.6129ZM31.9579 47.4187C37.4554 47.3293 43.9922 48.0568 49.6811 49.4335L45.9122 61.9947H3.6902V55.6129C3.6902 55.4524 3.77772 54.7504 5.33123 53.6072C6.83552 52.5022 9.16031 51.4191 12.1434 50.4728C18.0693 48.5911 25.6728 47.5226 31.9579 47.4187ZM53.1966 50.4035L49.7194 61.9947H62.0381V55.6129C62.0381 55.5363 61.9797 54.8106 60.2512 53.5853C58.6594 52.4603 56.2452 51.3608 53.1966 50.4035Z" fill="#C49A6C"/>
</svg>
