<svg width="52" height="63" viewBox="0 0 52 63" fill="none" xmlns="http://www.w3.org/2000/svg">
<path d="M51.1304 28.6364C51.1304 44.5295 40.2504 59.3918 25.6304 63C11.0104 59.3918 0.130371 44.5295 0.130371 28.6364V11.4545L25.6304 0L51.1304 11.4545V28.6364ZM25.6304 57.2727C36.2554 54.4091 45.4637 41.6373 45.4637 29.2664V15.1773L25.6304 6.24273L5.79704 15.1773V29.2664C5.79704 41.6373 15.0054 54.4091 25.6304 57.2727ZM25.6304 13.4018C27.047 13.4018 28.322 14.6332 28.322 16.1223V26.0877L42.6304 35.1082V38.745L28.322 34.2205V44.1573L31.892 46.8777V49.5982L25.6304 47.7655L19.3687 49.5982V46.8777L22.9387 44.1573V34.2205L8.63037 38.745V35.1082L22.9387 26.0877V16.1223C22.9387 14.6332 24.2137 13.4018 25.6304 13.4018Z" fill="#C49A6C"/>
</svg>
