<svg width="195" height="50" viewBox="0 0 195 50" fill="none" xmlns="http://www.w3.org/2000/svg">
<path d="M32.8336 1.33968C33.0368 1.36997 33.1711 1.4763 33.3361 1.59264C33.3995 1.63632 33.4629 1.67991 33.5264 1.72341C33.5542 1.74288 33.582 1.76236 33.6106 1.78243C33.7001 1.84024 33.7918 1.88689 33.8883 1.9324C33.8883 1.96388 33.8883 1.99535 33.8883 2.02778C33.9229 2.03196 33.9575 2.03614 33.9931 2.04044C34.157 2.08249 34.2497 2.15183 34.3831 2.25429C34.6114 2.42424 34.8424 2.56433 35.0951 2.69538C35.243 2.77585 35.243 2.77585 35.3365 2.83844C35.3365 2.86991 35.3365 2.90139 35.3365 2.93381C35.3828 2.95004 35.3828 2.95004 35.43 2.9666C35.6326 3.05234 35.8211 3.1598 36.0123 3.26762C36.0123 3.29909 36.0123 3.33056 36.0123 3.36299C36.0392 3.37461 36.0661 3.38622 36.0938 3.39819C36.4236 3.57597 36.7491 3.87128 36.8812 4.22134C36.9354 4.58211 36.8799 4.85461 36.7111 5.17567C36.6409 5.31609 36.583 5.45641 36.5271 5.60293C36.5062 5.65728 36.4854 5.71162 36.4639 5.76761C36.4315 5.85197 36.4315 5.85197 36.3985 5.93804C36.3116 6.1608 36.2239 6.38324 36.136 6.60564C36.1142 6.66134 36.0924 6.71703 36.0699 6.77441C35.9613 7.04906 35.8479 7.31926 35.721 7.58619C35.5517 7.94281 35.413 8.30851 35.2749 8.67778C35.2116 8.84666 35.1474 9.01517 35.083 9.18367C35.0624 9.23977 35.0418 9.29586 35.0206 9.35365C34.8482 9.80029 34.6027 10.2988 34.1779 10.5636C34.146 10.5636 34.1142 10.5636 34.0814 10.5636C34.0872 10.6072 34.0931 10.6508 34.0991 10.6957C34.1511 11.0987 34.1892 11.5015 34.2177 11.9068C34.262 12.515 34.312 13.1226 34.3633 13.7302C34.3673 13.7783 34.3714 13.8263 34.3755 13.8757C34.4008 14.1755 34.4262 14.4753 34.4517 14.775C34.4687 14.9763 34.4857 15.1775 34.5027 15.3788C34.5236 15.626 34.5445 15.8733 34.5654 16.1205C34.5695 16.1686 34.5735 16.2166 34.5777 16.2661C34.6195 16.76 34.6617 17.2539 34.7052 17.7476C34.7086 17.7869 34.7121 17.8263 34.7156 17.8668C34.7316 18.0486 34.7477 18.2303 34.764 18.412C34.7722 18.5059 34.7722 18.5059 34.7807 18.6016C34.7855 18.6555 34.7903 18.7095 34.7953 18.7651C34.8043 18.8922 34.8055 19.0197 34.8055 19.1471C40.2218 19.1471 45.6381 19.1471 51.2186 19.1471C51.0593 19.0999 50.9 19.0527 50.7358 19.004C50.6552 18.974 50.575 18.9424 50.4962 18.9079C50.4569 18.8907 50.4176 18.8736 50.3771 18.8559C50.3372 18.8379 50.2973 18.8199 50.2561 18.8014C50.2139 18.7824 50.1716 18.7634 50.1281 18.7438C49.8135 18.5997 49.5207 18.4424 49.2394 18.2411C49.1913 18.2076 49.1432 18.1741 49.0936 18.1395C47.6094 17.0784 46.6597 15.4754 46.365 13.6958C46.3004 13.2522 46.2771 12.8149 46.2796 12.3667C46.2797 12.3325 46.2798 12.2982 46.2799 12.2629C46.2884 10.5048 46.8241 8.67237 48.1023 7.39358C48.1633 7.33402 48.1633 7.33402 48.2256 7.27325C48.266 7.2328 48.3064 7.19235 48.348 7.15068C48.3883 7.11048 48.4285 7.07028 48.47 7.02886C48.5104 6.98841 48.5508 6.94796 48.5924 6.90629C48.8593 6.65333 48.8593 6.65333 48.998 6.65333C48.998 6.62186 48.998 6.59038 48.998 6.55796C49.2536 6.36721 49.2536 6.36721 49.4325 6.36721C49.4325 6.33574 49.4325 6.30427 49.4325 6.27184C50.1034 5.90592 50.7592 5.5905 51.5082 5.41349C51.5448 5.40409 51.5813 5.39468 51.6189 5.38499C51.8908 5.31909 52.1596 5.29797 52.4388 5.28217C52.5685 5.27855 52.5685 5.27855 52.6668 5.22275C52.7925 5.21803 52.9168 5.21608 53.0424 5.21641C53.0981 5.21634 53.0981 5.21634 53.155 5.21628C53.2335 5.21624 53.3121 5.21633 53.3907 5.21653C53.5111 5.21678 53.6316 5.21653 53.752 5.21623C53.8283 5.21626 53.9045 5.21632 53.9808 5.21641C54.035 5.21627 54.035 5.21627 54.0903 5.21612C54.3453 5.21726 54.3453 5.21726 54.4529 5.27043C54.5186 5.28022 54.5846 5.28788 54.6507 5.29428C54.6894 5.29821 54.7281 5.30214 54.7679 5.3062C54.8498 5.31416 54.9316 5.32211 55.0135 5.33004C55.317 5.36096 55.317 5.36096 55.3701 5.41349C55.4434 5.42557 55.5168 5.43621 55.5904 5.44628C56.2159 5.55512 56.7922 5.83811 57.3494 6.12878C57.3494 6.16026 57.3494 6.19173 57.3494 6.22415C57.3927 6.23448 57.3927 6.23448 57.4369 6.24502C57.5213 6.26646 57.6046 6.29229 57.6873 6.31953C57.6873 6.351 57.6873 6.38247 57.6873 6.4149C57.7132 6.4267 57.7391 6.4385 57.7657 6.45066C57.9085 6.52489 58.0396 6.60728 58.17 6.70102C58.17 6.73249 58.17 6.76396 58.17 6.79639C58.2089 6.81016 58.2477 6.82393 58.2877 6.83811C58.4114 6.89176 58.4114 6.89176 58.4597 6.98713C58.5075 7.01861 58.5553 7.05008 58.6045 7.0825C58.6701 7.16018 58.6701 7.16018 58.7372 7.25239C58.8431 7.39584 58.9514 7.53649 59.0631 7.6756C59.5365 8.27969 60.0663 9.10412 60.0527 9.89599C59.5588 9.9004 59.0649 9.90379 58.571 9.90587C58.3417 9.90686 58.1123 9.90821 57.883 9.91037C57.6617 9.91245 57.4404 9.91359 57.2191 9.91408C57.1347 9.91444 57.0502 9.91512 56.9658 9.91615C56.8475 9.91754 56.7293 9.91773 56.6111 9.91764C56.5586 9.91867 56.5586 9.91867 56.5051 9.91972C56.3393 9.91837 56.255 9.90853 56.1236 9.80491C56.0514 9.7122 55.9806 9.61958 55.9132 9.52344C55.4853 8.95662 54.8495 8.65434 54.1529 8.53395C53.6158 8.47262 53.0468 8.4742 52.522 8.60846C52.4828 8.61774 52.4436 8.62702 52.4032 8.63659C51.9429 8.75778 51.5252 8.96241 51.1703 9.27607C51.1385 9.27607 51.1066 9.27607 51.0738 9.27607C51.0738 9.30754 51.0738 9.33901 51.0738 9.37144C51.0384 9.39849 51.0031 9.42553 50.9667 9.4534C50.8155 9.57584 50.7175 9.71034 50.6152 9.87214C50.5963 9.90179 50.5775 9.93143 50.5581 9.96197C49.9364 10.9634 49.7995 12.1871 50.0117 13.3294C50.0175 13.3607 50.0233 13.3919 50.0293 13.4241C50.1484 14.0386 50.3843 14.6045 50.7841 15.0938C50.7841 15.1252 50.7841 15.1567 50.7841 15.1891C50.816 15.1891 50.8478 15.1891 50.8807 15.1891C50.9833 15.2786 50.9833 15.2786 51.0738 15.3799C51.0738 15.4114 51.0738 15.4428 51.0738 15.4753C51.1013 15.4883 51.1289 15.5013 51.1573 15.5148C51.2681 15.5713 51.3701 15.6352 51.475 15.7018C52.5296 16.322 53.754 16.4196 54.9357 16.1429C55.0901 16.0924 55.2281 16.0299 55.3701 15.9521C55.4072 15.9334 55.4442 15.9146 55.4823 15.8953C55.6591 15.8033 55.8188 15.7084 55.9705 15.5796C56.0942 15.4753 56.0942 15.4753 56.1908 15.4753C56.2024 15.4493 56.2141 15.4233 56.2261 15.3965C56.3019 15.2579 56.3965 15.1428 56.4955 15.0193C56.7307 14.7187 56.8901 14.4043 57.0115 14.0447C55.6096 14.0289 54.2077 14.0132 52.7634 13.997C52.7042 13.8801 52.709 13.8041 52.7088 13.6734C52.7086 13.6023 52.7086 13.6023 52.7084 13.5297C52.7085 13.4784 52.7086 13.427 52.7087 13.3741C52.7086 13.3215 52.7086 13.269 52.7085 13.2148C52.7085 13.1035 52.7086 12.9923 52.7088 12.881C52.709 12.7102 52.7088 12.5394 52.7085 12.3686C52.7085 12.2607 52.7086 12.1528 52.7087 12.0448C52.7086 11.9935 52.7085 11.9421 52.7084 11.8892C52.7085 11.8418 52.7087 11.7944 52.7088 11.7455C52.7089 11.6827 52.7089 11.6827 52.709 11.6187C52.7151 11.5173 52.7151 11.5173 52.7634 11.4219C55.2485 11.4219 57.7336 11.4219 60.2941 11.4219C60.2941 14.9706 60.2941 14.9706 59.8475 15.7852C59.829 15.8193 59.8105 15.8533 59.7914 15.8884C59.4212 16.5564 58.9603 17.1837 58.3631 17.6688C58.3007 17.7244 58.2383 17.78 58.1761 17.8357C57.5244 18.3958 56.7434 18.7991 55.9328 19.0825C55.9018 19.0933 55.8708 19.1042 55.8388 19.1154C55.7631 19.1419 55.6873 19.1684 55.6115 19.1948C55.6419 19.1949 55.6722 19.1949 55.7035 19.195C57.5046 19.1999 59.3058 19.2051 61.1069 19.2106C61.3234 19.2112 61.54 19.2119 61.7565 19.2125C61.8212 19.2127 61.8212 19.2127 61.8872 19.2129C62.584 19.215 63.2809 19.217 63.9777 19.2188C64.6934 19.2208 65.4091 19.2229 66.1248 19.2251C66.566 19.2265 67.0072 19.2278 67.4484 19.2289C67.7514 19.2296 68.0545 19.2306 68.3575 19.2316C68.532 19.2322 68.7065 19.2328 68.881 19.2331C69.071 19.2334 69.261 19.2342 69.451 19.2349C69.5051 19.235 69.5592 19.235 69.6149 19.2351C70.0351 19.2372 70.4445 19.2641 70.8661 19.2901C70.8661 14.7266 70.8661 10.163 70.8661 5.46118C72.029 5.46118 73.1919 5.46118 74.3901 5.46118C74.3901 7.23939 74.3901 9.01761 74.3901 10.8497C76.1105 10.8497 77.831 10.8497 79.6036 10.8497C79.6036 9.07149 79.6036 7.29328 79.6036 5.46118C80.7665 5.46118 81.9295 5.46118 83.1276 5.46118C83.1276 10.0247 83.1276 14.5883 83.1276 19.2901C86.9994 19.2883 86.9994 19.2883 90.8711 19.2859C91.6271 19.2856 91.6271 19.2856 91.9832 19.2856C92.2272 19.2856 92.4711 19.2854 92.715 19.2851C93.0294 19.2848 93.3438 19.2847 93.6582 19.2848C93.7716 19.2847 93.8849 19.2847 93.9983 19.2845C95.1385 19.2826 96.2761 19.3133 97.4167 19.3378C97.4167 15.6712 97.4167 12.0047 97.4167 8.22697C96.1901 8.22697 94.9634 8.22697 93.6996 8.22697C93.6996 7.29852 93.6996 6.37007 93.6996 5.41349C97.3317 5.42923 100.964 5.44496 104.706 5.46118C104.706 6.35815 104.706 7.25513 104.706 8.17929C104.69 8.19502 104.674 8.21076 104.658 8.22697C103.431 8.22697 102.204 8.22697 100.941 8.22697C100.941 11.8936 100.941 15.5601 100.941 19.3378C102.167 19.3378 103.394 19.3378 104.658 19.3378C104.658 19.385 104.658 19.4323 104.658 19.4809C100.747 19.5148 96.8372 19.5365 92.9267 19.5411C92.4096 19.5417 91.8924 19.5424 91.3753 19.5432C91.3221 19.5433 91.3221 19.5433 91.2677 19.5434C91.0867 19.5437 90.9057 19.544 90.7246 19.5443C90.3558 19.5448 89.987 19.5454 89.6182 19.546C89.5812 19.546 89.5443 19.5461 89.5062 19.5461C88.672 19.5474 87.8379 19.5485 87.0037 19.5497C85.0675 19.5523 83.1313 19.5553 81.195 19.5583C81.1149 19.5584 81.0347 19.5585 80.9546 19.5587C80.0334 19.5601 79.1122 19.5616 78.1911 19.563C77.6311 19.5639 77.0711 19.5648 76.5111 19.5657C72.1426 19.5724 67.7742 19.5801 59.3415 19.5997C59.1896 19.6001 59.0378 19.6005 58.8859 19.6009C55.9732 19.608 53.0605 19.6156 50.1478 19.6236C50.0116 19.624 49.8753 19.6243 49.739 19.6247C45.6545 19.6359 41.57 19.6474 28.2648 19.704C24.6582 19.7249 21.0523 19.7187 17.4457 19.6993C17.2929 19.6985 17.1401 19.6976 16.9873 19.6968C15.6274 19.6896 14.2676 19.6819 12.9077 19.674C12.6074 19.6722 12.3071 19.6705 12.0068 19.6688C11.1849 19.6642 10.3629 19.6592 9.54092 19.6532C9.30936 19.6516 9.0778 19.6501 8.84624 19.6488C8.58175 19.6473 8.31727 19.6454 8.05278 19.6431C7.95938 19.6424 7.86599 19.6418 7.77258 19.6414C6.55283 19.6358 6.55283 19.6358 6.08251 19.4809C6.08251 14.8544 6.08251 10.2279 6.08251 5.46118C9.14114 5.46118 12.1998 5.46118 15.3511 5.46118C15.3511 6.37389 15.3511 7.2866 15.3511 8.22697C13.4554 8.22697 11.5597 8.22697 9.6065 8.22697C9.62243 9.13968 9.63836 10.0524 9.65478 10.9928C9.95739 10.9922 10.26 10.9917 10.5718 10.9911C10.763 10.9908 10.9541 10.9906 11.1453 10.9904C11.4491 10.9902 11.7528 10.9898 12.0566 10.9892C12.3014 10.9887 12.5461 10.9884 12.7909 10.9882C12.8845 10.9882 12.9781 10.988 13.0717 10.9877C13.2023 10.9874 13.333 10.9873 13.4636 10.9874C13.5027 10.9872 13.5418 10.987 13.5821 10.9868C13.8491 10.9873 13.8491 10.9873 13.9029 11.0405C13.9077 11.1251 13.9091 11.2099 13.9091 11.2946C13.9093 11.3489 13.9094 11.4031 13.9096 11.4591C13.9094 11.5476 13.9094 11.5476 13.9093 11.638C13.9093 11.6982 13.9094 11.7583 13.9094 11.8203C13.9095 11.9478 13.9094 12.0753 13.9092 12.2027C13.9089 12.3665 13.9091 12.5302 13.9093 12.6939C13.9096 12.8496 13.9094 13.0053 13.9093 13.161C13.9094 13.2201 13.9095 13.2791 13.9096 13.34C13.9094 13.4214 13.9094 13.4214 13.9091 13.5044C13.9091 13.5524 13.909 13.6005 13.909 13.65C13.9029 13.7586 13.9029 13.7586 13.8546 13.8062C13.7239 13.8108 13.5944 13.8122 13.4636 13.8117C13.422 13.8117 13.3803 13.8117 13.3374 13.8117C13.202 13.8116 13.0666 13.8113 12.9312 13.8109C12.8478 13.8108 12.7645 13.8108 12.6811 13.8108C12.3713 13.8105 12.0615 13.8098 11.7517 13.8092C11.0597 13.8082 10.3677 13.8073 9.65478 13.8062C9.63885 15.5845 9.62292 17.3627 9.6065 19.1948C10.0698 19.1879 10.5331 19.181 11.0104 19.1739C11.3226 19.1695 11.6348 19.1651 11.9471 19.1609C11.9874 19.1603 12.0278 19.1598 12.0694 19.1592C12.3718 19.1551 12.6742 19.1511 12.9766 19.1471C13.0195 19.1465 13.0624 19.146 13.1066 19.1454C16.2313 19.1041 19.3556 19.0909 22.4805 19.0934C22.5564 19.0935 22.5564 19.0935 22.6338 19.0936C23.9233 19.0946 25.2129 19.0965 26.5024 19.0994C26.5342 18.9461 26.5593 18.7975 26.5714 18.6414C26.5765 18.5763 26.5765 18.5763 26.5818 18.5099C26.5855 18.462 26.5891 18.4142 26.5929 18.3649C26.597 18.3128 26.6011 18.2607 26.6054 18.207C26.6244 17.9658 26.6431 17.7246 26.6617 17.4834C26.6775 17.2772 26.6936 17.0709 26.7098 16.8647C26.7127 16.8276 26.7156 16.7906 26.7186 16.7525C26.7684 16.1197 26.8251 15.4877 26.8836 14.8556C26.9222 14.4377 26.9596 14.0196 26.9968 13.6014C27.0236 13.3009 27.0511 13.0005 27.08 12.7001C27.1077 12.413 27.1337 12.1259 27.1585 11.8385C27.168 11.7311 27.1782 11.6237 27.1891 11.5164C27.204 11.3684 27.2166 11.2204 27.2288 11.0722C27.2337 11.0287 27.2386 10.9852 27.2436 10.9404C27.252 10.8216 27.2557 10.7269 27.2265 10.6113C27.1271 10.504 27.0161 10.4428 26.8886 10.3728C26.4471 9.93027 26.368 9.43409 26.3343 8.83233C26.3324 8.79924 26.3306 8.76616 26.3286 8.73208C26.3225 8.62363 26.3165 8.51518 26.3106 8.40673C26.3063 8.33053 26.3021 8.25433 26.2978 8.17813C26.2889 8.01865 26.2801 7.85916 26.2714 7.69967C26.2603 7.49675 26.2489 7.29384 26.2375 7.09094C26.2286 6.93356 26.2199 6.77616 26.2113 6.61877C26.2071 6.54404 26.203 6.46931 26.1987 6.39459C26.1749 5.97192 26.1582 5.55088 26.1644 5.12737C26.3093 5.12737 26.3093 5.12737 26.4124 5.19723C26.6019 5.2976 26.7639 5.29784 26.976 5.29726C27.0149 5.29724 27.0538 5.29723 27.0938 5.29722C27.3609 5.28957 27.5362 5.251 27.733 5.06087C27.757 5.03561 27.781 5.01035 27.8058 4.98432C27.8694 4.93567 27.9336 4.88773 27.9989 4.84126C28.2402 5.07969 28.2402 5.07969 28.3307 5.18102C28.6529 5.46181 29.0364 5.44486 29.4471 5.46118C29.4471 5.4297 29.4471 5.39823 29.4471 5.3658C29.5427 5.35007 29.6382 5.33433 29.7367 5.31812C29.7367 5.28665 29.7367 5.25517 29.7367 5.22275C29.7845 5.22275 29.8323 5.22275 29.8815 5.22275C29.8815 5.19127 29.8815 5.1598 29.8815 5.12737C29.9901 5.0022 29.9901 5.0022 30.1229 4.88894C30.316 4.88894 30.316 4.88894 30.402 4.96904C30.4431 5.02086 30.4431 5.02086 30.485 5.07373C30.596 5.21282 30.6803 5.29721 30.847 5.3658C30.847 5.39728 30.847 5.42875 30.847 5.46118C31.2134 5.46118 31.5798 5.46118 31.9573 5.46118C31.9573 5.4297 31.9573 5.39823 31.9573 5.3658C32.0269 5.32107 32.0965 5.27651 32.167 5.23318C32.2537 5.17017 32.311 5.10397 32.3767 5.02008C32.4135 4.97681 32.4504 4.93353 32.4883 4.88894C32.5361 4.88894 32.5839 4.88894 32.6331 4.88894C32.7022 4.96737 32.7022 4.96737 32.7719 5.07075C32.8875 5.23248 32.9866 5.31827 33.1642 5.41349C33.1801 5.4607 33.196 5.50791 33.2124 5.55655C33.1534 5.63888 33.1534 5.63888 33.0646 5.72941C32.6941 6.12802 32.4402 6.59968 32.1987 7.0825C32.2624 7.0825 32.3261 7.0825 32.3918 7.0825C32.4082 7.04728 32.4246 7.01206 32.4416 6.97577C32.6163 6.61451 32.8229 6.30374 33.0676 5.98572C33.1111 5.92329 33.1544 5.86072 33.1973 5.79796C33.3051 5.65702 33.4097 5.56806 33.5503 5.46118C33.5852 5.4179 33.62 5.37463 33.6559 5.33004C33.6848 5.29463 33.7137 5.25923 33.7434 5.22275C33.7753 5.22275 33.8072 5.22275 33.84 5.22275C33.84 5.19127 33.84 5.1598 33.84 5.12737C33.9344 5.06075 34.0314 4.9977 34.1296 4.93663C34.1841 4.90103 34.2384 4.86528 34.2926 4.82934C34.3344 4.8018 34.3762 4.77426 34.4193 4.74589C34.2444 4.53386 34.0578 4.33858 33.8598 4.14757C33.8351 4.12372 33.8105 4.09986 33.7851 4.07528C33.6822 3.97582 33.5793 3.87646 33.4756 3.77782C32.9679 3.29385 32.4954 2.77675 32.4702 2.04566C32.4776 1.78672 32.5258 1.40038 32.8336 1.33968ZM27.7575 6.12878C27.7416 6.20746 27.7256 6.28615 27.7092 6.36721C27.7425 6.37244 27.7758 6.37766 27.8101 6.38305C28.6391 6.52122 29.5125 6.89657 30.1842 7.40364C30.2635 7.47338 30.2635 7.47338 30.3643 7.46399C30.3643 7.49547 30.3643 7.52694 30.3643 7.55937C30.436 7.62425 30.436 7.62425 30.5272 7.68454C30.5574 7.70581 30.5877 7.72708 30.6188 7.74899C30.6999 7.8059 30.6999 7.8059 30.7987 7.7978C30.8137 7.83763 30.8137 7.83763 30.8289 7.87827C30.9028 8.00099 30.9922 8.06818 31.105 8.15526C31.2284 8.26598 31.3178 8.39816 31.412 8.53339C31.4326 8.55816 31.4533 8.58294 31.4746 8.60846C31.5064 8.60846 31.5383 8.60846 31.5711 8.60846C31.589 8.64682 31.589 8.64682 31.6073 8.68595C31.682 8.82611 31.7705 8.95454 31.8608 9.08532C31.9245 9.03811 31.9882 8.9909 32.0539 8.94226C31.0338 7.52998 29.6654 6.56198 27.9506 6.12878C27.8869 6.12878 27.8231 6.12878 27.7575 6.12878ZM29.6402 10.4682C29.6402 10.5312 29.6402 10.5941 29.6402 10.659C30.8509 10.659 32.0616 10.659 33.309 10.659C33.309 10.596 33.309 10.5331 33.309 10.4682C32.0983 10.4682 30.8876 10.4682 29.6402 10.4682ZM74.3901 13.7109C74.3854 13.7833 74.3842 13.8559 74.3842 13.9284C74.3842 13.9754 74.3841 14.0224 74.384 14.0709C74.3842 14.1229 74.3844 14.1749 74.3846 14.2284C74.3846 14.2829 74.3846 14.3373 74.3845 14.3934C74.3846 14.5742 74.385 14.7551 74.3853 14.936C74.3854 15.061 74.3855 15.186 74.3855 15.3111C74.3857 15.6071 74.3861 15.9032 74.3866 16.1992C74.3872 16.5692 74.3874 16.9392 74.3877 17.3092C74.3882 17.9695 74.3891 18.6298 74.3901 19.2901C76.1105 19.2901 77.831 19.2901 79.6036 19.2901C79.6036 17.4333 79.6036 15.5764 79.6036 13.6632C78.7523 13.6622 77.9011 13.6612 77.024 13.6602C76.7548 13.6598 76.4855 13.6593 76.2082 13.6589C75.9677 13.6587 75.9677 13.6587 75.7273 13.6586C75.6199 13.6586 75.5124 13.6584 75.405 13.6582C75.2426 13.6578 75.0803 13.6578 74.918 13.6578C74.8697 13.6576 74.8215 13.6574 74.7719 13.6573C74.7067 13.6574 74.7067 13.6574 74.6402 13.6575C74.5832 13.6574 74.5832 13.6574 74.5249 13.6573C74.4372 13.6539 74.4372 13.6539 74.3901 13.7109Z" fill="#FEFEFE"/>
<path d="M32.2499 0.114334C32.3138 0.147058 32.3772 0.180793 32.44 0.215667C32.5042 0.247678 32.5686 0.279532 32.6331 0.311039C32.6331 0.342512 32.6331 0.373985 32.6331 0.406411C32.6809 0.422148 32.7286 0.437884 32.7779 0.454097C32.8832 0.629351 32.9059 0.819616 32.9029 1.02056C32.8744 1.1217 32.8744 1.1217 32.7932 1.18559C32.7234 1.22113 32.6536 1.25664 32.5838 1.29214C32.4297 1.40177 32.4035 1.53527 32.3627 1.71275C32.2979 2.13113 32.3476 2.54997 32.5649 2.92204C32.6448 3.10353 32.6387 3.19798 32.6101 3.39219C32.6015 3.45173 32.593 3.51126 32.5842 3.5726C32.5745 3.63422 32.5647 3.69585 32.5546 3.75934C32.546 3.82041 32.5373 3.88148 32.5284 3.9444C32.3919 4.86018 32.3919 4.86018 32.0138 5.15397C31.7309 5.33944 31.4273 5.42715 31.0883 5.36577C30.9196 5.29864 30.7625 5.21795 30.6056 5.12734C30.6056 5.09586 30.6056 5.06439 30.6056 5.03196C30.5737 5.03196 30.5418 5.03196 30.509 5.03196C30.3466 4.85223 30.3099 4.68989 30.3095 4.45396C30.3094 4.41417 30.3093 4.37439 30.3092 4.3334C30.3094 4.28952 30.3097 4.24564 30.3099 4.20044C30.31 4.15364 30.3101 4.10684 30.3103 4.05862C30.3147 3.33413 30.3376 2.60986 30.3611 1.88577C30.3639 1.79797 30.3664 1.71015 30.3689 1.62234C30.3727 1.4892 30.3773 1.35613 30.3823 1.22304C30.3832 1.18716 30.3841 1.15128 30.385 1.11431C30.3971 0.844604 30.4556 0.62207 30.6335 0.411627C31.0874 0.0470047 31.6894 -0.133483 32.2499 0.114334Z" fill="#FEFEFE"/>
<path d="M29.9298 0.263379C30.1136 0.398361 30.2034 0.573289 30.2677 0.787927C30.2813 0.937468 30.2725 1.08332 30.2624 1.23293C30.2591 1.29714 30.2591 1.29714 30.2557 1.36265C30.2484 1.50195 30.24 1.64116 30.2315 1.78039C30.2208 1.97404 30.2106 2.16771 30.2004 2.36138C30.1978 2.40978 30.1951 2.45817 30.1924 2.50803C30.1761 2.81343 30.1646 3.11851 30.1585 3.42426C30.1573 3.48034 30.1573 3.48034 30.1561 3.53755C30.1532 3.67819 30.1505 3.81882 30.149 3.95948C30.1411 4.69236 30.1411 4.69236 29.9019 4.98077C29.6183 5.21311 29.3451 5.29224 28.9773 5.28234C28.6612 5.24794 28.445 5.13171 28.2402 4.88893C28.0897 4.68859 28.0744 4.51704 28.0759 4.27492C28.0756 4.23782 28.0752 4.20072 28.0749 4.1625C28.074 4.04022 28.0742 3.91797 28.0745 3.79569C28.0742 3.71035 28.074 3.625 28.0737 3.53966C28.0733 3.36083 28.0734 3.18202 28.0739 3.0032C28.0744 2.77471 28.0734 2.54625 28.072 2.31776C28.0711 2.14147 28.0712 1.9652 28.0714 1.78891C28.0714 1.70471 28.0711 1.62051 28.0705 1.53631C28.0698 1.41819 28.0703 1.30014 28.0712 1.18202C28.0707 1.14765 28.0702 1.11328 28.0698 1.07787C28.0735 0.816619 28.1553 0.63035 28.2885 0.406438C28.3203 0.406438 28.3522 0.406438 28.385 0.406438C28.385 0.374965 28.385 0.343492 28.385 0.311066C28.8983 0.00880027 29.389 -0.0246385 29.9298 0.263379Z" fill="#FEFEFE"/>
<path d="M27.6126 0.454154C27.6126 0.485627 27.6126 0.5171 27.6126 0.549526C27.6604 0.565263 27.7082 0.580999 27.7574 0.597212C27.9431 0.85613 27.9204 1.11599 27.9143 1.4198C27.9137 1.47525 27.913 1.5307 27.9124 1.58783C27.9107 1.71864 27.9086 1.84942 27.9062 1.98023C27.9021 2.20935 27.8999 2.43848 27.8977 2.66762C27.8954 2.88383 27.8925 3.10002 27.8894 3.31621C27.8879 3.42476 27.8866 3.53332 27.8856 3.64188C27.8839 3.79625 27.8814 3.95058 27.8787 4.10494C27.8783 4.15163 27.878 4.19832 27.8777 4.24642C27.8707 4.56682 27.8118 4.72656 27.5945 4.96943C27.3888 5.14844 27.2216 5.19589 26.9454 5.18663C26.6542 5.15467 26.4325 5.08412 26.2368 4.86214C26.0694 4.64857 26.0513 4.46952 26.0314 4.20403C26.0283 4.16342 26.0251 4.12282 26.0218 4.08098C25.9641 3.32606 25.9087 2.57044 25.8989 1.81321C25.8974 1.75909 25.8959 1.70498 25.8944 1.64923C25.8942 1.25228 25.9866 0.936654 26.2583 0.636528C26.6618 0.246918 27.1147 0.250627 27.6126 0.454154Z" fill="#FEFEFE"/>
<path d="M34.9985 0.454127C35.3734 0.841683 35.4415 1.19153 35.4379 1.70756C35.4296 2.00573 35.408 2.30264 35.3847 2.6C35.1721 2.5754 35.0333 2.52925 34.8561 2.41131C34.8116 2.38211 34.7671 2.35292 34.7212 2.32284C34.6509 2.27562 34.6509 2.27562 34.5791 2.22745C34.1496 1.94205 34.1496 1.94205 33.7079 1.67571C33.6442 1.63863 33.6442 1.63863 33.5793 1.60079C33.4993 1.5546 33.4186 1.50946 33.3374 1.46554C33.0825 1.31606 33.0825 1.31606 33.0401 1.17045C33.0282 0.82254 33.2145 0.617176 33.4236 0.361735C33.8216 0.0528133 34.5956 0.200845 34.9985 0.454127Z" fill="#FEFEFE"/>
<path d="M51.46 19.1471C51.46 19.1786 51.46 19.21 51.46 19.2425C51.5182 19.2292 51.5182 19.2292 51.5776 19.2156C51.7874 19.1902 51.976 19.2128 52.1841 19.2425C52.1841 19.2582 52.1841 19.2739 52.1841 19.2901C46.4332 19.2901 40.6823 19.2901 34.7572 19.2901C34.7572 19.2587 34.7572 19.2272 34.7572 19.1948C36.8641 19.1887 38.971 19.1826 41.0779 19.1765C41.3265 19.1758 41.575 19.1751 41.8236 19.1744C41.873 19.1743 41.9225 19.1741 41.9735 19.174C42.7755 19.1717 43.5775 19.1693 44.3795 19.167C45.202 19.1647 46.0244 19.1623 46.8469 19.1599C47.3547 19.1585 47.8625 19.157 48.3703 19.1555C48.7182 19.1545 49.066 19.1535 49.4139 19.1525C49.6148 19.1519 49.8158 19.1514 50.0167 19.1508C50.2005 19.1502 50.3842 19.1497 50.568 19.1492C50.6346 19.149 50.7013 19.1488 50.7679 19.1486C50.8582 19.1484 50.9485 19.1481 51.0387 19.1478C51.1141 19.1476 51.1141 19.1476 51.191 19.1474C51.2806 19.1472 51.3703 19.1471 51.46 19.1471Z" fill="#FEFEFE"/>
<path d="M32.8263 3.41067C32.8581 3.41067 32.89 3.41067 32.9228 3.41067C32.9977 3.48574 32.9977 3.48574 33.0827 3.58652C33.1852 3.70623 33.2875 3.82117 33.4025 3.92926C33.5021 4.03059 33.5021 4.03059 33.5021 4.12597C33.5499 4.1417 33.5977 4.15744 33.6469 4.17365C33.6469 4.20512 33.6469 4.2366 33.6469 4.26902C33.6947 4.28476 33.7425 4.3005 33.7917 4.31671C33.7917 4.34818 33.7917 4.37966 33.7917 4.41208C33.8206 4.4229 33.8495 4.43372 33.8792 4.44487C34.012 4.52356 34.0546 4.61436 34.1297 4.74589C34.0452 4.81448 33.9607 4.88302 33.8762 4.95153C33.8292 4.98971 33.7821 5.02788 33.7337 5.06721C33.6668 5.12059 33.6668 5.12059 33.5986 5.17506C33.565 5.20426 33.5314 5.23346 33.4968 5.26354C33.4055 5.31812 33.4055 5.31812 33.309 5.31234C33.033 5.19253 32.7819 4.94659 32.6598 4.67436C32.5729 4.28497 32.6562 3.83441 32.778 3.45836C32.7939 3.44262 32.8098 3.42689 32.8263 3.41067Z" fill="#FEFEFE"/>
<path d="M33.84 5.12737C33.8719 5.12737 33.9037 5.12737 33.9365 5.12737C33.9104 5.3184 33.8161 5.40861 33.6801 5.54165C33.6424 5.57921 33.6048 5.61676 33.566 5.65546C33.4579 5.74394 33.3976 5.77673 33.2607 5.79498C33.321 5.61615 33.4023 5.57681 33.5503 5.46118C33.5852 5.4179 33.62 5.37463 33.6559 5.33004C33.6848 5.29463 33.7137 5.25923 33.7434 5.22275C33.7753 5.22275 33.8072 5.22275 33.84 5.22275C33.84 5.19127 33.84 5.1598 33.84 5.12737Z" fill="#FEFEFE"/>
<path d="M26.2127 5.07969C26.2605 5.1269 26.3083 5.17411 26.3575 5.22275C26.3257 5.22275 26.2938 5.22275 26.261 5.22275C26.2769 5.42732 26.2929 5.63189 26.3093 5.84267C26.2774 5.8584 26.2455 5.87414 26.2127 5.89035C26.1621 5.72656 26.158 5.57528 26.1584 5.40455C26.1583 5.35371 26.1582 5.30288 26.158 5.2505C26.1644 5.12737 26.1644 5.12737 26.2127 5.07969Z" fill="#FEFEFE"/>
<path d="M27.3411 0.35874C27.367 0.374477 27.3929 0.390213 27.4196 0.406426C27.4196 0.437899 27.4196 0.469372 27.4196 0.501799C27.1806 0.501799 26.9417 0.501799 26.6955 0.501799C26.6955 0.470326 26.6955 0.438853 26.6955 0.406426C26.9168 0.303524 27.1096 0.262454 27.3411 0.35874Z" fill="#FEFEFE"/>
<path d="M28.6264 0.168019C28.6583 0.183756 28.6901 0.199492 28.723 0.215705C28.5886 0.355763 28.4391 0.474839 28.2885 0.597194C28.2885 0.534248 28.2885 0.471291 28.2885 0.406438C28.3203 0.406438 28.3522 0.406438 28.385 0.406438C28.385 0.374965 28.385 0.343492 28.385 0.311066C28.4997 0.230595 28.4997 0.230607 28.6264 0.168019Z" fill="#FEFEFE"/>
<path d="M31.6013 0.0219984C31.6605 0.0226439 31.6605 0.0226439 31.7208 0.0233024C31.7662 0.0241322 31.7662 0.0241322 31.8125 0.0249788C31.7966 0.0564517 31.7806 0.0879245 31.7642 0.120351C31.6539 0.140096 31.6539 0.140096 31.5198 0.150155C31.4755 0.15372 31.4311 0.157285 31.3854 0.160959C31.3511 0.163295 31.3168 0.165631 31.2815 0.168037C31.2815 0.136564 31.2815 0.105091 31.2815 0.0726649C31.3976 0.0153115 31.4722 0.0201761 31.6013 0.0219984Z" fill="#FEFEFE"/>
<path d="M32.8263 3.41067C32.9228 3.41067 32.9228 3.41067 32.9956 3.48034C33.0213 3.51046 33.0471 3.54058 33.0736 3.57162C33.0997 3.60149 33.1257 3.63136 33.1525 3.66214C33.2124 3.74448 33.2124 3.74448 33.2124 3.83985C33.0316 3.7803 32.9512 3.69391 32.8262 3.55373C32.8262 3.50652 32.8263 3.45931 32.8263 3.41067Z" fill="#FEFEFE"/>
<path d="M32.4883 2.9815C32.5202 2.9815 32.552 2.9815 32.5849 2.9815C32.6557 3.16342 32.6058 3.28145 32.5366 3.45836C32.5207 3.45836 32.5047 3.45836 32.4883 3.45836C32.4883 3.301 32.4883 3.14363 32.4883 2.9815Z" fill="#FEFEFE"/>
<path d="M30.847 7.94085C30.9946 8.02362 31.119 8.10226 31.2332 8.22697C31.2173 8.25844 31.2013 8.28992 31.1849 8.32234C31.1531 8.30661 31.1212 8.29087 31.0884 8.27466C31.0884 8.24318 31.0884 8.21171 31.0884 8.17929C31.0575 8.1665 31.0266 8.15371 30.9948 8.14054C30.8953 8.08391 30.8953 8.08391 30.847 7.94085Z" fill="#FEFEFE"/>
<path d="M30.0746 4.93663C30.1224 4.9681 30.1702 4.99958 30.2194 5.032C30.0761 5.15002 30.0761 5.15003 29.9298 5.27043C29.9139 5.22322 29.8979 5.17601 29.8815 5.12737C29.9453 5.06443 30.009 5.00148 30.0746 4.93663Z" fill="#FEFEFE"/>
<path d="M33.7917 4.41208C33.9766 4.48135 34.0389 4.5756 34.1297 4.74589C33.9913 4.6846 33.8894 4.62327 33.7917 4.50745C33.7917 4.47598 33.7917 4.44451 33.7917 4.41208Z" fill="#FEFEFE"/>
<path d="M28.9161 6.70102C29.0594 6.74822 29.2028 6.79543 29.3505 6.84407C29.3505 6.87555 29.3505 6.90702 29.3505 6.93945C29.0247 6.86196 29.0247 6.86196 28.9161 6.70102Z" fill="#FEFEFE"/>
<path d="M32.7297 1.36017C32.8093 1.36017 32.889 1.36017 32.9711 1.36017C32.9711 1.39164 32.9711 1.42312 32.9711 1.45554C32.8595 1.48702 32.748 1.51849 32.6331 1.55092C32.665 1.48797 32.6969 1.42502 32.7297 1.36017Z" fill="#FEFEFE"/>
<path d="M0 25.2032C64.2632 25.2032 128.526 25.2032 194.737 25.2032C194.737 33.3862 194.737 41.5691 194.737 50C130.474 50 66.2105 50 0 50C0 41.8171 0 33.6341 0 25.2032Z" fill="#4B2C5E"/>
<path d="M143.567 30.3056C143.63 30.3195 143.63 30.3195 143.695 30.3336C144.396 30.4876 145.043 30.7173 145.691 31.0209C145.723 31.0362 145.756 31.0514 145.79 31.0671C146.444 31.3781 147.043 31.8228 147.573 32.3085C147.601 32.3334 147.628 32.3583 147.656 32.384C148.303 32.9808 148.808 33.6469 149.219 34.4204C149.256 34.4899 149.295 34.5587 149.333 34.6274C149.705 35.3155 149.882 36.0794 150.035 36.8386C150.047 36.8969 150.059 36.9552 150.072 37.0152C150.163 37.5395 150.144 38.073 150.132 38.603C150.131 38.6422 150.13 38.6813 150.129 38.7217C150.066 40.8821 149.176 42.7996 147.664 44.3432C147.525 44.4684 147.525 44.4684 147.428 44.4684C147.428 44.4999 147.428 44.5314 147.428 44.5638C147.34 44.6408 147.251 44.7114 147.157 44.7814C147.129 44.8025 147.1 44.8236 147.071 44.8454C146.151 45.5237 145.083 46.0955 143.953 46.3282C143.905 46.339 143.905 46.339 143.856 46.3501C142.729 46.6059 141.521 46.6857 140.38 46.4712C140.294 46.4565 140.294 46.4565 140.205 46.4414C139.413 46.2978 138.69 46.054 137.967 45.7083C137.912 45.6823 137.858 45.6564 137.801 45.6296C137.085 45.2682 136.463 44.7838 135.891 44.23C135.852 44.1938 135.813 44.1577 135.773 44.1204C134.232 42.6653 133.505 40.4889 133.458 38.425C133.451 37.7358 133.526 37.0829 133.67 36.4095C133.686 36.3289 133.686 36.3289 133.702 36.2467C134.131 34.2799 135.481 32.5439 137.16 31.4544C138.025 30.9076 138.985 30.5039 139.994 30.3056C140.026 30.2992 140.058 30.2927 140.091 30.2861C141.2 30.0706 142.463 30.0516 143.567 30.3056Z" fill="#FDFDFE"/>
<path d="M68.1537 31.9508C68.2541 32.0372 68.3533 32.1251 68.4524 32.2131C68.5002 32.2546 68.5481 32.2961 68.5974 32.3388C68.859 32.5684 69.1039 32.8003 69.3213 33.0714C69.3609 33.1207 69.4004 33.1699 69.4412 33.2206C70.8918 35.0744 71.3575 37.4527 71.0726 39.7531C70.815 41.3872 70.02 42.9295 68.8595 44.1117C68.7951 44.1773 68.7317 44.2438 68.6683 44.3103C68.1606 44.8313 67.5875 45.2081 66.9529 45.5605C66.8915 45.5949 66.8304 45.6299 66.7697 45.6656C66.5962 45.7673 66.4306 45.8412 66.2378 45.899C66.0627 45.9538 65.8966 46.0116 65.7309 46.0897C64.8366 46.49 63.8198 46.5846 62.8496 46.5845C62.8166 46.5846 62.7835 46.5847 62.7495 46.5847C61.5852 46.5844 61.5852 46.5844 61.2595 46.4235C61.1692 46.4106 61.0786 46.3989 60.988 46.3878C59.7693 46.2065 58.5375 45.6176 57.5907 44.8499C57.5508 44.818 57.5508 44.818 57.5101 44.7855C56.6029 44.0577 55.9098 43.2028 55.3701 42.1795C55.3506 42.1429 55.3311 42.1064 55.311 42.0687C55.1608 41.7811 55.0398 41.4898 54.9327 41.184C54.9161 41.1368 54.8995 41.0896 54.8824 41.041C54.6375 40.3211 54.4943 39.5718 54.4931 38.8115C54.4929 38.7737 54.4928 38.7359 54.4926 38.6969C54.4924 38.6174 54.4923 38.5378 54.4923 38.4583C54.4922 38.3392 54.4913 38.2202 54.4904 38.1011C54.4839 36.3065 55.0826 34.4867 56.2873 33.1191C56.3204 33.0812 56.3535 33.0433 56.3877 33.0042C56.497 32.8816 56.6087 32.7616 56.7218 32.6423C56.7644 32.597 56.8071 32.5518 56.851 32.5052C57.4019 31.9336 58.0406 31.4787 58.7493 31.1163C58.7917 31.0943 58.834 31.0723 58.8777 31.0497C59.2182 30.8766 59.5611 30.7333 59.923 30.6096C59.9768 30.5912 60.0306 30.5728 60.086 30.5539C60.613 30.3803 61.1439 30.2801 61.694 30.2103C61.7284 30.2055 61.7628 30.2006 61.7982 30.1957C64.0036 29.9124 66.4449 30.5144 68.1537 31.9508Z" fill="#FDFDFE"/>
<path d="M152.304 30.401C153.849 30.401 155.395 30.401 156.987 30.401C157.202 30.8262 157.202 30.8262 157.282 31.0418C157.463 31.5161 157.657 31.9856 157.848 32.456C157.896 32.5746 157.944 32.6933 157.991 32.8121C158.112 33.1136 158.239 33.4103 158.376 33.7044C158.463 33.8975 158.538 34.0947 158.614 34.2923C158.962 35.1971 159.336 36.0949 159.726 36.983C159.811 37.1822 159.889 37.384 159.967 37.5862C160.154 38.0704 160.353 38.5492 160.56 39.0257C160.651 39.2362 160.736 39.448 160.819 39.6618C160.971 40.0556 161.135 40.4445 161.299 40.8335C161.322 40.8883 161.345 40.9431 161.368 40.9996C161.389 41.0489 161.41 41.0981 161.431 41.1488C161.476 41.2734 161.476 41.2734 161.476 41.4165C161.508 41.4165 161.54 41.4165 161.573 41.4165C161.578 41.3762 161.584 41.3358 161.589 41.2943C161.623 41.1181 161.678 40.9646 161.744 40.7975C161.756 40.7664 161.768 40.7352 161.781 40.7031C161.807 40.6373 161.833 40.5717 161.859 40.506C161.898 40.4074 161.937 40.3086 161.975 40.2097C162.105 39.8809 162.241 39.5565 162.391 39.2364C162.453 39.1028 162.507 38.9672 162.559 38.8295C162.644 38.607 162.732 38.3856 162.822 38.1649C162.946 37.8591 163.068 37.5522 163.188 37.2448C163.275 37.022 163.364 36.8 163.455 36.5784C163.503 36.4592 163.551 36.3398 163.598 36.2204C163.884 35.5075 163.884 35.5075 164.017 35.2322C164.118 35.0192 164.196 34.8018 164.273 34.5795C164.378 34.2754 164.501 33.9865 164.641 33.696C164.759 33.4454 164.855 33.1872 164.952 32.9284C165.142 32.423 165.338 31.9226 165.555 31.4279C165.58 31.3713 165.605 31.3147 165.631 31.2564C165.653 31.2057 165.676 31.155 165.699 31.1027C165.795 30.8716 165.879 30.6358 165.966 30.401C167.511 30.401 169.056 30.401 170.648 30.401C170.648 35.6884 170.648 40.9759 170.648 46.4235C169.342 46.4235 168.036 46.4235 166.69 46.4235C166.674 43.3235 166.658 40.2234 166.641 37.0294C166.562 37.2654 166.482 37.5015 166.4 37.7447C166.276 38.0397 166.276 38.0397 166.216 38.1789C166.158 38.3187 166.109 38.4593 166.062 38.603C166.001 38.7881 165.935 38.9668 165.857 39.1455C165.721 39.461 165.605 39.7829 165.487 40.1056C165.383 40.3903 165.275 40.673 165.163 40.9545C165.038 41.2678 164.922 41.5833 164.81 41.9013C164.735 42.114 164.654 42.3235 164.568 42.5319C164.491 42.7205 164.42 42.9111 164.348 43.1015C164.276 43.2917 164.204 43.4815 164.13 43.671C163.975 44.0691 163.822 44.4662 163.69 44.8721C163.636 45.0288 163.574 45.181 163.51 45.3338C163.425 45.544 163.346 45.7565 163.267 45.969C163.208 46.1261 163.145 46.2733 163.069 46.4235C162.018 46.4235 160.966 46.4235 159.883 46.4235C159.558 45.6217 159.558 45.6217 159.437 45.2642C159.288 44.838 159.126 44.4179 158.961 43.9979C158.814 43.6214 158.67 43.2437 158.528 42.865C158.508 42.8116 158.489 42.7583 158.468 42.7034C158.428 42.5969 158.389 42.4905 158.349 42.384C158.254 42.1318 158.159 41.8799 158.064 41.6281C158.046 41.5808 158.028 41.5336 158.009 41.4849C157.902 41.2028 157.792 40.9219 157.681 40.6416C157.545 40.3009 157.421 39.9567 157.3 39.6106C157.174 39.2503 157.039 38.8935 156.893 38.5406C156.757 38.2155 156.641 37.8843 156.526 37.5518C156.512 37.5118 156.498 37.4718 156.484 37.4306C156.472 37.3947 156.459 37.3588 156.446 37.3218C156.403 37.2031 156.403 37.2031 156.311 37.0294C156.295 40.1295 156.279 43.2295 156.263 46.4235C154.956 46.4235 153.65 46.4235 152.304 46.4235C152.304 41.1361 152.304 35.8487 152.304 30.401Z" fill="#FDFDFE"/>
<path d="M7.28936 30.401C8.8346 30.401 10.3799 30.401 11.9719 30.401C12.3357 31.2737 12.3357 31.2737 12.4585 31.5787C12.5431 31.7878 12.6304 31.9959 12.7172 32.2041C12.8574 32.5418 12.9944 32.8801 13.1254 33.2214C13.1799 33.3603 13.2376 33.4975 13.2964 33.6347C13.3915 33.8572 13.4778 34.0817 13.5619 34.3083C13.6486 34.5407 13.7411 34.7668 13.8486 34.9908C14.1263 35.5706 14.3597 36.1726 14.5689 36.7796C14.6293 36.9402 14.698 37.095 14.7693 37.2512C14.8514 37.4323 14.9293 37.6153 15.0071 37.7983C15.0321 37.857 15.0321 37.857 15.0576 37.9169C15.208 38.2711 15.3527 38.6274 15.4959 38.9845C15.5281 39.063 15.5603 39.1415 15.5925 39.22C15.6618 39.3904 15.7268 39.5623 15.7909 39.7348C15.9117 40.0591 16.0426 40.3733 16.1963 40.6843C16.297 40.9081 16.3788 41.138 16.4614 41.3688C16.6177 40.9959 16.7739 40.623 16.9301 40.2501C17.0019 40.0785 17.0738 39.9069 17.1459 39.7354C17.3361 39.282 17.519 38.8264 17.6907 38.3659C17.8136 38.0369 17.9414 37.7149 18.0921 37.3971C18.1817 37.2004 18.2578 36.999 18.335 36.7973C18.4156 36.5874 18.5006 36.3793 18.5854 36.171C18.6084 36.114 18.6084 36.114 18.6318 36.0557C18.717 35.844 18.804 35.6331 18.8932 35.423C19.1535 34.8078 19.3971 34.1862 19.639 33.5638C19.778 33.2065 19.9197 32.8508 20.0699 32.4979C20.1805 32.2379 20.2879 31.9765 20.3957 31.7154C20.4179 31.6617 20.4401 31.6081 20.463 31.5528C20.5981 31.2256 20.7286 30.8971 20.8544 30.5662C20.9026 30.4487 20.9026 30.4487 20.9509 30.401C22.4961 30.401 24.0414 30.401 25.6334 30.401C25.6334 35.6884 25.6334 40.9759 25.6334 46.4235C24.3271 46.4235 23.0208 46.4235 21.675 46.4235C21.6511 41.7498 21.6511 41.7498 21.6267 36.9817C21.3176 37.7831 21.0098 38.584 20.7145 39.3904C20.5871 39.7371 20.4544 40.0816 20.3203 40.4258C20.2081 40.7155 20.1028 41.0071 20.0005 41.3003C19.8984 41.5927 19.789 41.8786 19.6652 42.1629C19.557 42.4245 19.4623 42.6909 19.3654 42.9567C19.2513 43.2691 19.1341 43.5801 19.0139 43.8902C18.9895 43.9531 18.9895 43.9531 18.9647 44.0172C18.9332 44.0985 18.9016 44.1799 18.8701 44.2612C18.5921 44.9797 18.3249 45.7023 18.0544 46.4235C17.003 46.4235 15.9516 46.4235 14.8684 46.4235C14.5781 45.7355 14.5781 45.7355 14.4641 45.446C14.45 45.4104 14.436 45.3747 14.4215 45.338C14.2963 45.0174 14.1815 44.6935 14.0678 44.3687C13.9868 44.1378 13.9021 43.9097 13.8076 43.6838C13.7397 43.5173 13.6766 43.3491 13.6132 43.1809C13.5353 42.9741 13.4566 42.7681 13.3719 42.564C13.2726 42.322 13.1864 42.0759 13.0992 41.8296C12.9818 41.4987 12.8575 41.1706 12.7318 40.8427C12.6965 40.7502 12.6617 40.6577 12.627 40.565C12.4937 40.2097 12.3544 39.8573 12.2103 39.5061C12.0703 39.1646 11.9454 38.8217 11.8307 38.4713C11.7736 38.3013 11.7082 38.1365 11.6393 37.971C11.5674 37.7952 11.4995 37.6181 11.4319 37.4407C11.4192 37.4077 11.4065 37.3748 11.3935 37.3408C11.336 37.1897 11.2875 37.0432 11.2478 36.8863C11.2319 40.0179 11.216 43.1494 11.1995 46.3759C9.90918 46.3759 8.61882 46.3759 7.28936 46.3759C7.28936 41.1042 7.28936 35.8325 7.28936 30.401Z" fill="#FEFDFE"/>
<path d="M178.275 30.401C179.805 30.401 181.334 30.401 182.91 30.401C183.198 31.1404 183.477 31.881 183.745 32.6274C183.877 32.9932 184.012 33.3576 184.153 33.7202C184.197 33.8391 184.239 33.9575 184.279 34.0779C184.375 34.3673 184.485 34.6518 184.593 34.9372C184.745 35.3376 184.89 35.7382 185.023 36.1448C185.108 36.3882 185.203 36.6271 185.299 36.866C185.366 37.0311 185.429 37.1962 185.485 37.365C185.585 37.6661 185.697 37.9629 185.807 38.2603C186.15 39.1878 186.15 39.1878 186.313 39.6491C186.396 39.8838 186.483 40.1159 186.581 40.3451C186.62 40.4463 186.655 40.5474 186.69 40.6505C186.789 40.9486 186.902 41.2418 187.013 41.5357C187.134 41.8557 187.255 42.1752 187.363 42.4999C187.44 42.7294 187.524 42.9564 187.607 43.1839C187.627 43.2366 187.646 43.2892 187.666 43.3435C187.782 43.662 187.901 43.9795 188.022 44.2961C188.145 44.6189 188.26 44.9443 188.376 45.2698C188.415 45.3792 188.454 45.4883 188.494 45.5974C188.507 45.6339 188.52 45.6705 188.534 45.7081C188.559 45.7778 188.585 45.8475 188.61 45.9171C188.672 46.0872 188.715 46.2453 188.751 46.4235C187.365 46.4235 185.979 46.4235 184.551 46.4235C184.424 46.0459 184.296 45.6682 184.165 45.2791C183.974 44.7283 183.783 44.1775 183.586 43.6101C181.594 43.5943 179.603 43.5786 177.551 43.5624C177.504 43.7197 177.456 43.8771 177.407 44.0392C177.363 44.1724 177.319 44.3052 177.274 44.4379C177.262 44.4737 177.25 44.5096 177.238 44.5465C177.212 44.6217 177.187 44.6968 177.161 44.772C177.123 44.8847 177.085 44.9975 177.047 45.1103C177.022 45.1842 176.997 45.2581 176.972 45.332C176.961 45.3646 176.95 45.3972 176.939 45.4308C176.826 45.7636 176.705 46.0927 176.586 46.4235C175.216 46.4235 173.846 46.4235 172.434 46.4235C172.466 46.2646 172.495 46.1395 172.551 45.9921C172.571 45.9382 172.571 45.9382 172.592 45.8832C172.607 45.8452 172.621 45.8071 172.636 45.7679C172.667 45.6862 172.698 45.6046 172.729 45.5229C172.752 45.4615 172.752 45.4615 172.776 45.3988C172.841 45.2235 172.903 45.0472 172.965 44.8708C173.079 44.548 173.202 44.2293 173.33 43.9117C173.426 43.6707 173.512 43.4275 173.593 43.1809C173.818 42.4956 173.818 42.4956 173.955 42.1795C174.07 41.9141 174.163 41.6435 174.253 41.3692C174.404 40.914 174.565 40.4622 174.749 40.0189C174.885 39.6759 175.003 39.3258 175.125 38.9779C175.26 38.5937 175.4 38.2124 175.551 37.8341C175.677 37.5194 175.789 37.2034 175.895 36.8817C175.979 36.6295 176.074 36.3812 176.168 36.1324C176.262 35.8829 176.353 35.6326 176.441 35.3812C176.552 35.0668 176.671 34.7562 176.797 34.4473C176.898 34.1979 176.984 33.9449 177.069 33.69C177.174 33.3782 177.283 33.0684 177.394 32.759C177.428 32.6662 177.461 32.5733 177.494 32.4804C177.617 32.136 177.748 31.7957 177.887 31.4571C177.973 31.2452 178.051 31.0329 178.122 30.8153C178.223 30.504 178.223 30.504 178.275 30.401Z" fill="#FDFDFD"/>
<path d="M86.9413 30.401C88.2476 30.401 89.5538 30.401 90.8997 30.401C90.8997 32.4782 90.8997 34.5554 90.8997 36.6956C92.9229 36.6956 94.946 36.6956 97.0305 36.6956C97.0305 34.6184 97.0305 32.5412 97.0305 30.401C98.3368 30.401 99.6431 30.401 100.989 30.401C100.989 35.6727 100.989 40.9444 100.989 46.3759C99.6986 46.3759 98.4082 46.3759 97.0788 46.3759C97.0788 44.2042 97.0788 42.0326 97.0788 39.7952C95.0397 39.7952 93.0006 39.7952 90.8997 39.7952C90.8997 41.9825 90.8997 44.1699 90.8997 46.4235C89.5934 46.4235 88.2871 46.4235 86.9413 46.4235C86.9413 41.1361 86.9413 35.8487 86.9413 30.401Z" fill="#FEFDFE"/>
<path d="M46.355 30.1447C46.4044 30.1447 46.4044 30.1447 46.4549 30.1448C48.216 30.1511 49.9684 30.6009 51.2464 31.8579C52.0819 32.6982 52.522 33.8025 52.522 34.9789C51.1042 34.9789 49.6864 34.9789 48.2256 34.9789C48.1937 34.8215 48.1619 34.6642 48.1291 34.502C47.96 34.0467 47.697 33.7108 47.2494 33.4971C46.9285 33.3756 46.6495 33.3463 46.3097 33.3426C46.2682 33.3413 46.2267 33.3399 46.1839 33.3385C45.7679 33.3344 45.4104 33.4783 45.0878 33.739C44.7761 34.1429 44.7617 34.531 44.7982 35.0266C44.9084 35.4804 45.236 35.7896 45.6218 36.0339C46.1841 36.374 46.8093 36.5686 47.4344 36.7613C48.8028 37.1851 50.2452 37.6357 51.3634 38.5553C51.4018 38.5855 51.4402 38.6157 51.4798 38.6468C51.9368 39.0224 52.2599 39.4879 52.4737 40.0336C52.4855 40.0617 52.4972 40.0898 52.5094 40.1188C52.9653 41.2443 52.8323 42.7034 52.3695 43.8039C51.8743 44.8991 50.9293 45.6793 49.8194 46.1285C49.2769 46.3299 48.6993 46.4273 48.1291 46.5189C48.0503 46.5316 48.0503 46.5316 47.97 46.5445C47.781 46.5679 47.595 46.5751 47.4048 46.5763C47.3684 46.5766 47.3321 46.5769 47.2947 46.5773C47.1776 46.5781 47.0605 46.5784 46.9433 46.5785C46.9034 46.5786 46.8635 46.5787 46.8224 46.5788C46.1862 46.5788 45.569 46.5432 44.943 46.4235C44.9027 46.4161 44.8625 46.4087 44.821 46.4011C43.4551 46.1426 42.1417 45.52 41.3313 44.3655C41.0858 43.994 40.9053 43.5935 40.7432 43.1809C40.7227 43.1305 40.7022 43.0802 40.6811 43.0283C40.5035 42.5372 40.5303 42.1696 40.5018 41.6072C41.8877 41.6072 43.2737 41.6072 44.7016 41.6072C44.7653 41.8433 44.8291 42.0793 44.8947 42.3225C45.1501 42.827 45.4618 43.1301 46.005 43.3239C46.6392 43.444 47.3131 43.4494 47.8877 43.1332C47.9683 43.0698 48.0488 43.0062 48.1291 42.9425C48.1609 42.9425 48.1928 42.9425 48.2256 42.9425C48.2395 42.9149 48.2534 42.8873 48.2677 42.8588C48.3019 42.7916 48.3366 42.7246 48.3721 42.658C48.3885 42.627 48.4049 42.5959 48.4217 42.5639C48.4382 42.533 48.4547 42.5021 48.4717 42.4703C48.6031 42.1685 48.6227 41.793 48.5232 41.4806C48.307 41.0162 47.961 40.729 47.5015 40.5105C47.5015 40.479 47.5015 40.4475 47.5015 40.4151C47.463 40.4109 47.4246 40.4067 47.385 40.4024C47.1631 40.3576 46.9674 40.275 46.7593 40.1886C46.281 39.9945 45.8 39.8393 45.3028 39.6992C44.904 39.5865 44.5082 39.4689 44.1223 39.3183C44.071 39.2994 44.0196 39.2804 43.9668 39.2609C42.6823 38.7753 41.578 38.0877 40.9272 36.8535C40.9117 36.825 40.8962 36.7965 40.8802 36.7671C40.5863 36.1875 40.5163 35.5978 40.5259 34.961C40.5262 34.9266 40.5264 34.8923 40.5267 34.8569C40.5311 34.3363 40.566 33.8522 40.7432 33.3576C40.7612 33.3059 40.7792 33.2542 40.7978 33.2009C41.2086 32.1382 42.1171 31.2965 43.1337 30.7939C43.5177 30.6248 43.9089 30.505 44.3154 30.401C44.3635 30.3878 44.4116 30.3746 44.4612 30.361C45.0854 30.1951 45.7105 30.1438 46.355 30.1447Z" fill="#FDFDFD"/>
<path d="M53.0424 5.21641C53.0981 5.21634 53.0981 5.21634 53.155 5.21628C53.2335 5.21624 53.3121 5.21633 53.3907 5.21653C53.5111 5.21678 53.6316 5.21653 53.752 5.21623C53.8283 5.21626 53.9045 5.21632 53.9808 5.21641C54.035 5.21627 54.035 5.21627 54.0903 5.21612C54.3453 5.21726 54.3453 5.21726 54.4529 5.27043C54.5186 5.28022 54.5846 5.28788 54.6507 5.29428C54.6894 5.29821 54.7281 5.30214 54.7679 5.3062C54.8498 5.31416 54.9316 5.32211 55.0135 5.33004C55.317 5.36096 55.317 5.36096 55.3701 5.41349C55.4434 5.42557 55.5168 5.43621 55.5904 5.44628C56.2159 5.55512 56.7922 5.83811 57.3494 6.12878C57.3494 6.16026 57.3494 6.19173 57.3494 6.22415C57.3782 6.23104 57.4071 6.23792 57.4369 6.24502C57.5213 6.26646 57.6046 6.29229 57.6873 6.31953C57.6873 6.351 57.6873 6.38247 57.6873 6.4149C57.7261 6.4326 57.7261 6.4326 57.7657 6.45066C57.9085 6.52489 58.0396 6.60728 58.17 6.70102C58.17 6.73249 58.17 6.76396 58.17 6.79639C58.2283 6.81704 58.2283 6.81704 58.2877 6.83811C58.4114 6.89176 58.4114 6.89176 58.4597 6.98713C58.5075 7.01861 58.5553 7.05008 58.6045 7.0825C58.6701 7.16018 58.6701 7.16018 58.7372 7.25239C58.8431 7.39584 58.9514 7.53649 59.0631 7.6756C59.5365 8.27969 60.0663 9.10412 60.0527 9.89599C59.5588 9.9004 59.0649 9.90379 58.571 9.90587C58.3417 9.90686 58.1123 9.90821 57.883 9.91037C57.6617 9.91245 57.4404 9.91359 57.2191 9.91408C57.1347 9.91444 57.0502 9.91512 56.9658 9.91615C56.8475 9.91754 56.7293 9.91773 56.6111 9.91764C56.5761 9.91833 56.5411 9.91901 56.5051 9.91972C56.3393 9.91837 56.255 9.90853 56.1236 9.80491C56.0514 9.7122 55.9806 9.61958 55.9132 9.52344C55.4853 8.95662 54.8495 8.65434 54.1529 8.53395C53.6158 8.47262 53.0468 8.4742 52.522 8.60846C52.4828 8.61774 52.4436 8.62702 52.4032 8.63659C51.9429 8.75778 51.5252 8.96241 51.1703 9.27607C51.1385 9.27607 51.1066 9.27607 51.0738 9.27607C51.0738 9.30754 51.0738 9.33901 51.0738 9.37144C51.0384 9.39849 51.0031 9.42553 50.9667 9.4534C50.8155 9.57584 50.7175 9.71034 50.6152 9.87214C50.5963 9.90179 50.5775 9.93143 50.5581 9.96197C49.9364 10.9634 49.7995 12.1871 50.0117 13.3294C50.0175 13.3607 50.0233 13.3919 50.0293 13.4241C50.1484 14.0386 50.3843 14.6045 50.7841 15.0938C50.7841 15.1252 50.7841 15.1567 50.7841 15.1891C50.816 15.1891 50.8478 15.1891 50.8807 15.1891C50.9833 15.2786 50.9833 15.2786 51.0738 15.3799C51.0738 15.4114 51.0738 15.4428 51.0738 15.4753C51.1151 15.4948 51.1151 15.4948 51.1573 15.5148C51.2681 15.5713 51.3701 15.6352 51.475 15.7018C52.5296 16.322 53.754 16.4196 54.9357 16.1429C55.0901 16.0924 55.2281 16.0299 55.3701 15.9521C55.4072 15.9334 55.4442 15.9146 55.4823 15.8953C55.6591 15.8033 55.8188 15.7084 55.9705 15.5796C56.0942 15.4753 56.0942 15.4753 56.1908 15.4753C56.2024 15.4493 56.2141 15.4233 56.2261 15.3965C56.3019 15.2579 56.3965 15.1428 56.4955 15.0193C56.7307 14.7187 56.8901 14.4043 57.0115 14.0447C55.6096 14.0289 54.2077 14.0132 52.7634 13.997C52.7042 13.8801 52.709 13.8041 52.7088 13.6734C52.7087 13.626 52.7085 13.5786 52.7084 13.5297C52.7085 13.4527 52.7085 13.4527 52.7087 13.3741C52.7086 13.3215 52.7086 13.269 52.7085 13.2148C52.7085 13.1035 52.7086 12.9923 52.7088 12.881C52.709 12.7102 52.7088 12.5394 52.7085 12.3686C52.7085 12.2607 52.7086 12.1528 52.7087 12.0448C52.7086 11.9935 52.7085 11.9421 52.7084 11.8892C52.7086 11.8181 52.7086 11.8181 52.7088 11.7455C52.7089 11.7036 52.7089 11.6618 52.709 11.6187C52.7151 11.5173 52.7151 11.5173 52.7634 11.4219C55.2485 11.4219 57.7336 11.4219 60.2941 11.4219C60.2941 14.9706 60.2941 14.9706 59.8475 15.7852C59.8198 15.8363 59.8198 15.8363 59.7914 15.8884C59.4212 16.5564 58.9603 17.1837 58.3631 17.6688C58.3007 17.7244 58.2383 17.78 58.1761 17.8357C57.1053 18.7561 55.7619 19.3056 54.3441 19.3045C54.2852 19.3047 54.2262 19.3049 54.1654 19.3051C54.0414 19.3054 53.9174 19.3054 53.7934 19.3052C53.6068 19.3051 53.4202 19.3062 53.2336 19.3074C52.1814 19.3101 51.2214 19.2362 50.2561 18.8014C50.2139 18.7824 50.1716 18.7634 50.1281 18.7438C49.8135 18.5997 49.5207 18.4424 49.2394 18.2411C49.1913 18.2076 49.1432 18.1741 49.0936 18.1395C47.6094 17.0784 46.6597 15.4754 46.365 13.6958C46.3004 13.2522 46.2771 12.8149 46.2796 12.3667C46.2797 12.3153 46.2797 12.3153 46.2799 12.2629C46.2884 10.5048 46.8241 8.67237 48.1023 7.39358C48.143 7.35387 48.1837 7.31416 48.2256 7.27325C48.266 7.2328 48.3064 7.19235 48.348 7.15068C48.4084 7.09038 48.4084 7.09038 48.47 7.02886C48.5104 6.98841 48.5508 6.94796 48.5924 6.90629C48.8593 6.65333 48.8593 6.65333 48.998 6.65333C48.998 6.62186 48.998 6.59038 48.998 6.55796C49.2536 6.36721 49.2536 6.36721 49.4325 6.36721C49.4325 6.33574 49.4325 6.30427 49.4325 6.27184C50.1034 5.90592 50.7592 5.5905 51.5082 5.41349C51.5448 5.40409 51.5813 5.39468 51.6189 5.38499C51.8908 5.31909 52.1596 5.29797 52.4388 5.28217C52.6452 5.26374 52.8269 5.21584 53.0424 5.21641Z" fill="#FEFEFE"/>
<path d="M157.165 5.19294C157.213 5.19499 157.261 5.19705 157.31 5.19916C157.656 5.21654 157.656 5.21654 157.711 5.27043C157.867 5.28414 158.023 5.29184 158.179 5.30005C158.332 5.31743 158.439 5.3544 158.58 5.41349C158.661 5.42943 158.742 5.44327 158.824 5.45522C159.357 5.54678 159.833 5.75423 160.318 5.98572C160.318 6.0172 160.318 6.04867 160.318 6.0811C160.413 6.09683 160.509 6.11257 160.607 6.12878C160.607 6.16025 160.607 6.19173 160.607 6.22415C160.65 6.23596 160.693 6.24776 160.737 6.25992C160.903 6.32169 161.005 6.39697 161.138 6.51027C161.17 6.52601 161.202 6.54174 161.235 6.55796C161.235 6.58943 161.235 6.6209 161.235 6.65333C161.28 6.66612 161.324 6.6789 161.371 6.69207C161.513 6.7444 161.58 6.77415 161.669 6.89176C161.669 6.92323 161.669 6.95471 161.669 6.98713C161.717 7.00287 161.765 7.0186 161.814 7.03482C161.814 7.06629 161.814 7.09776 161.814 7.13019C161.859 7.14789 161.859 7.14789 161.905 7.16596C162.026 7.23642 162.044 7.29421 162.104 7.41631C162.151 7.43204 162.199 7.44778 162.249 7.46399C162.333 7.55448 162.41 7.64405 162.487 7.74117C162.521 7.78497 162.521 7.78497 162.557 7.82966C163.017 8.42943 163.411 9.08372 163.648 9.80061C163.667 9.85445 163.667 9.85445 163.686 9.90937C164.325 11.8066 164.207 13.9162 163.311 15.7137C162.461 17.32 161.004 18.6088 159.248 19.1656C157.222 19.7833 155.071 19.6087 153.187 18.6355C152.876 18.4648 152.588 18.261 152.304 18.0503C152.278 18.0309 152.251 18.0115 152.224 17.9914C151.936 17.7777 151.936 17.7777 151.821 17.6688C151.821 17.6373 151.821 17.6059 151.821 17.5734C151.777 17.5557 151.777 17.5557 151.731 17.5377C151.61 17.4672 151.592 17.4094 151.532 17.2873C151.484 17.2716 151.436 17.2559 151.387 17.2396C151.296 17.1361 151.211 17.0326 151.127 16.9237C151.105 16.8949 151.082 16.8661 151.059 16.8364C150.778 16.4769 150.535 16.1183 150.325 15.7137C150.284 15.6357 150.284 15.6357 150.242 15.5561C149.429 13.9405 149.295 11.9211 149.835 10.2024C149.862 10.1215 149.862 10.1215 149.89 10.039C149.901 10.0086 149.911 9.97811 149.922 9.94672C150.062 9.54175 150.227 9.16602 150.44 8.79287C150.519 8.65403 150.592 8.51301 150.663 8.37003C150.695 8.37003 150.727 8.37003 150.759 8.37003C150.771 8.33604 150.783 8.30204 150.795 8.26702C150.865 8.1117 150.953 8.0022 151.064 7.87231C151.103 7.82639 151.142 7.78047 151.182 7.73316C151.236 7.67074 151.236 7.67074 151.29 7.60705C151.332 7.55542 151.373 7.50377 151.414 7.45207C151.542 7.30905 151.68 7.18736 151.828 7.06406C151.916 6.99062 151.916 6.99062 151.986 6.91787C152.11 6.79825 152.254 6.70414 152.395 6.60564C152.439 6.57429 152.439 6.57429 152.484 6.54231C152.937 6.22415 152.937 6.22415 153.076 6.22415C153.076 6.19268 153.076 6.16121 153.076 6.12878C154.207 5.60235 154.207 5.60235 154.766 5.46118C154.838 5.44089 154.838 5.44089 154.912 5.4202C155.212 5.3395 155.499 5.29736 155.809 5.28049C155.925 5.27743 155.925 5.27743 156.021 5.22275C156.401 5.15838 156.782 5.17619 157.165 5.19294ZM154.139 9.46681C153.55 10.1463 153.194 11.0964 153.173 11.9942C153.171 12.0455 153.168 12.0968 153.166 12.1497C153.137 13.2266 153.39 14.3396 154.09 15.1891C154.122 15.1891 154.154 15.1891 154.187 15.1891C154.197 15.2163 154.208 15.2435 154.219 15.2715C154.493 15.7325 155.23 16.0427 155.722 16.1816C156.674 16.4221 157.751 16.3494 158.628 15.9044C158.797 15.8028 158.955 15.6911 159.111 15.5706C159.144 15.5463 159.177 15.5219 159.211 15.4969C159.89 14.9624 160.286 14.0644 160.414 13.234C160.559 11.9386 160.422 10.6846 159.616 9.61322C159.059 8.92765 158.254 8.51734 157.373 8.41772C156.133 8.36198 155.034 8.54895 154.139 9.46681Z" fill="#FCFCFC"/>
<path d="M103.837 30.401C107.119 30.401 110.4 30.401 113.782 30.401C113.782 31.4396 113.782 32.4782 113.782 33.5483C111.806 33.5483 109.831 33.5483 107.796 33.5483C107.796 34.6026 107.796 35.657 107.796 36.7433C109.548 36.7433 111.3 36.7433 113.106 36.7433C113.106 37.7504 113.106 38.7575 113.106 39.7952C111.353 39.7952 109.601 39.7952 107.796 39.7952C107.796 40.9439 107.796 42.0927 107.796 43.2763C109.771 43.2763 111.746 43.2763 113.782 43.2763C113.782 44.3149 113.782 45.3535 113.782 46.4235C110.5 46.4235 107.218 46.4235 103.837 46.4235C103.837 41.1361 103.837 35.8487 103.837 30.401Z" fill="#FDFDFD"/>
<path d="M28.4816 30.401C31.7632 30.401 35.0449 30.401 38.426 30.401C38.426 31.4396 38.426 32.4782 38.426 33.5483C36.4506 33.5483 34.4753 33.5483 32.44 33.5483C32.44 34.6026 32.44 35.657 32.44 36.7433C34.1765 36.7433 35.9129 36.7433 37.7019 36.7433C37.7019 37.7504 37.7019 38.7575 37.7019 39.7952C35.9496 39.7952 34.1972 39.7952 32.3918 39.7952C32.3918 40.9439 32.3918 42.0927 32.3918 43.2763C34.3671 43.2763 36.3425 43.2763 38.3777 43.2763C38.3777 44.2991 38.3777 45.322 38.3777 46.3759C35.112 46.3759 31.8463 46.3759 28.4816 46.3759C28.4816 41.1042 28.4816 35.8325 28.4816 30.401Z" fill="#FEFDFE"/>
<path d="M176.248 5.46118C177.146 5.4567 178.043 5.45335 178.941 5.45129C179.358 5.45031 179.775 5.44898 180.191 5.44679C180.555 5.44487 180.919 5.44365 181.283 5.44323C181.475 5.44298 181.667 5.44241 181.859 5.44101C183.396 5.43024 183.396 5.43024 184.117 5.65192C184.167 5.66677 184.217 5.68163 184.268 5.69693C184.754 5.84891 185.25 6.11653 185.661 6.4149C185.661 6.44637 185.661 6.47785 185.661 6.51027C185.7 6.5265 185.7 6.5265 185.74 6.54306C186.463 6.93786 186.905 7.83392 187.131 8.5876C187.343 9.37187 187.355 10.3098 187.11 11.0881C187.093 11.1442 187.076 11.2003 187.058 11.258C186.741 12.2158 186.036 13.0432 185.124 13.5019C185.079 13.5236 185.033 13.5454 184.986 13.5678C184.93 13.5945 184.875 13.6212 184.818 13.6487C184.381 13.8539 184.381 13.8539 184.213 13.8539C184.231 13.8838 184.248 13.9136 184.266 13.9443C184.345 14.079 184.424 14.2138 184.503 14.3487C184.53 14.3956 184.558 14.4426 184.587 14.491C184.626 14.5583 184.626 14.5583 184.666 14.627C184.69 14.6684 184.714 14.7099 184.739 14.7526C184.792 14.8553 184.792 14.8553 184.792 14.9507C184.824 14.9507 184.856 14.9507 184.889 14.9507C184.903 14.9796 184.917 15.0085 184.932 15.0383C185.063 15.3039 185.206 15.5572 185.365 15.8076C185.42 15.9044 185.42 15.9044 185.42 15.9998C185.452 15.9998 185.484 15.9998 185.517 15.9998C185.535 16.0386 185.554 16.0774 185.573 16.1173C185.785 16.5453 186.02 16.9546 186.267 17.3629C186.502 17.7499 186.734 18.1382 186.965 18.5272C186.988 18.5666 187.012 18.606 187.036 18.6466C187.099 18.7536 187.162 18.8608 187.224 18.9683C187.252 19.0156 187.252 19.0156 187.281 19.0638C187.323 19.1376 187.362 19.2137 187.399 19.2901C187.383 19.3216 187.367 19.3531 187.351 19.3855C186.85 19.3877 186.349 19.3894 185.848 19.3905C185.615 19.391 185.383 19.3916 185.15 19.3927C184.926 19.3937 184.701 19.3943 184.477 19.3946C184.391 19.3947 184.305 19.3951 184.22 19.3956C184.1 19.3963 183.98 19.3964 183.86 19.3963C183.824 19.3967 183.789 19.397 183.752 19.3974C183.573 19.3967 183.497 19.391 183.344 19.2901C183.287 19.1888 183.234 19.085 183.184 18.9802C183.067 18.7352 182.937 18.5054 182.794 18.2738C182.659 18.0503 182.536 17.8206 182.412 17.5913C182.235 17.2659 182.057 16.941 181.872 16.6197C181.662 16.2553 181.461 15.8865 181.26 15.5176C181.084 15.196 180.905 14.8765 180.719 14.5607C180.636 14.417 180.586 14.3029 180.544 14.14C180.305 14.14 180.066 14.14 179.82 14.14C179.82 14.2051 179.82 14.2701 179.821 14.3371C179.822 14.9483 179.822 15.5595 179.823 16.1707C179.823 16.485 179.823 16.7992 179.824 17.1135C179.824 17.4165 179.825 17.7195 179.825 18.0225C179.825 18.1384 179.825 18.2543 179.825 18.3702C179.826 18.5319 179.826 18.6936 179.826 18.8553C179.826 18.9037 179.826 18.9521 179.826 19.002C179.826 19.0458 179.826 19.0896 179.826 19.1348C179.826 19.1731 179.826 19.2113 179.826 19.2508C179.82 19.3378 179.82 19.3378 179.772 19.3855C179.664 19.3903 179.556 19.3916 179.448 19.3917C179.414 19.3918 179.381 19.3919 179.346 19.3919C179.233 19.3922 179.121 19.392 179.009 19.3919C178.931 19.3919 178.853 19.3919 178.775 19.392C178.612 19.3921 178.449 19.392 178.286 19.3917C178.076 19.3915 177.867 19.3916 177.657 19.3919C177.497 19.3921 177.336 19.392 177.175 19.3919C177.098 19.3919 177.021 19.3919 176.944 19.392C176.836 19.3921 176.728 19.392 176.62 19.3917C176.528 19.3916 176.528 19.3916 176.434 19.3916C176.296 19.3855 176.296 19.3855 176.248 19.3378C176.243 19.2638 176.242 19.1895 176.242 19.1152C176.242 19.0668 176.242 19.0184 176.242 18.9685C176.242 18.9146 176.242 18.8608 176.242 18.8053C176.242 18.7486 176.242 18.6919 176.242 18.6334C176.242 18.4753 176.242 18.3172 176.242 18.1591C176.243 17.9889 176.242 17.8187 176.242 17.6484C176.242 17.3532 176.243 17.0581 176.243 16.7629C176.243 16.3361 176.243 15.9093 176.243 15.4825C176.244 14.7902 176.244 14.0978 176.244 13.4055C176.245 12.7328 176.245 12.06 176.245 11.3873C176.245 11.3459 176.245 11.3044 176.245 11.2617C176.245 11.0539 176.245 10.846 176.246 10.6381C176.246 8.91248 176.247 7.18683 176.248 5.46118ZM179.82 8.32234C179.82 9.40816 179.82 10.494 179.82 11.6127C180.232 11.6156 180.645 11.6186 181.069 11.6216C181.263 11.6236 181.263 11.6236 181.461 11.6256C181.564 11.626 181.668 11.6264 181.772 11.6267C181.825 11.6274 181.877 11.6281 181.932 11.6289C182.343 11.629 182.766 11.5819 183.103 11.3266C183.103 11.2951 183.103 11.2636 183.103 11.2312C183.151 11.2155 183.198 11.1997 183.248 11.1835C183.248 11.152 183.248 11.1206 183.248 11.0881C183.295 11.0724 183.343 11.0567 183.392 11.0405C183.716 10.5409 183.716 9.95825 183.612 9.39472C183.511 9.02559 183.253 8.76674 182.949 8.54289C182.323 8.2439 181.614 8.30578 180.94 8.3134C180.57 8.31635 180.201 8.3193 179.82 8.32234Z" fill="#FBFBFB"/>
<path d="M70.8661 5.46118C72.029 5.46118 73.1919 5.46118 74.3901 5.46118C74.3901 7.23939 74.3901 9.01761 74.3901 10.8497C76.1105 10.8497 77.831 10.8497 79.6036 10.8497C79.6036 9.07149 79.6036 7.29328 79.6036 5.46118C80.7506 5.46118 81.8976 5.46118 83.0794 5.46118C83.0794 10.0405 83.0794 14.6198 83.0794 19.3378C81.9324 19.3378 80.7854 19.3378 79.6036 19.3378C79.6036 17.4652 79.6036 15.5926 79.6036 13.6632C77.8991 13.6789 76.1945 13.6947 74.4383 13.7109C74.4224 15.552 74.4065 17.3932 74.3901 19.2901C73.2271 19.2901 72.0642 19.2901 70.8661 19.2901C70.8661 14.7266 70.8661 10.163 70.8661 5.46118Z" fill="#FEFEFE"/>
<path d="M72.4108 30.401C76.5527 30.401 80.6946 30.401 84.962 30.401C84.962 31.4239 84.962 32.4467 84.962 33.5006C83.5442 33.5006 82.1264 33.5006 80.6657 33.5006C80.6657 37.7494 80.6657 41.9983 80.6657 46.3759C79.3753 46.3759 78.0849 46.3759 76.7555 46.3759C76.7555 42.1428 76.7555 37.9097 76.7555 33.5483C75.3217 33.5483 73.888 33.5483 72.4108 33.5483C72.4108 32.5097 72.4108 31.4711 72.4108 30.401Z" fill="#FEFEFE"/>
<path d="M116.34 30.401C117.646 30.401 118.953 30.401 120.299 30.401C120.299 34.6813 120.299 38.9616 120.299 43.3716C122.003 43.3716 123.708 43.3716 125.464 43.3716C125.464 44.3788 125.464 45.3859 125.464 46.4235C122.453 46.4235 119.442 46.4235 116.34 46.4235C116.34 41.1361 116.34 35.8487 116.34 30.401Z" fill="#FDFDFD"/>
<path d="M127.974 5.46118C131.033 5.46118 134.091 5.46118 137.243 5.46118C137.243 6.37389 137.243 7.2866 137.243 8.22697C135.363 8.24271 133.483 8.25844 131.546 8.27466C131.546 9.17163 131.546 10.0686 131.546 10.9928C131.849 10.9922 132.152 10.9917 132.463 10.9911C132.655 10.9908 132.846 10.9906 133.037 10.9904C133.341 10.9902 133.644 10.9898 133.948 10.9892C134.193 10.9887 134.438 10.9884 134.682 10.9882C134.776 10.9882 134.87 10.988 134.963 10.9877C135.094 10.9874 135.225 10.9873 135.355 10.9874C135.414 10.9871 135.414 10.9871 135.474 10.9868C135.741 10.9873 135.741 10.9873 135.794 11.0405C135.799 11.1251 135.801 11.2099 135.801 11.2946C135.801 11.3489 135.801 11.4031 135.801 11.459C135.801 11.5476 135.801 11.5476 135.801 11.638C135.801 11.6982 135.801 11.7583 135.801 11.8203C135.801 11.9478 135.801 12.0752 135.801 12.2027C135.8 12.3665 135.801 12.5302 135.801 12.6939C135.801 12.8496 135.801 13.0053 135.801 13.161C135.801 13.2201 135.801 13.2791 135.801 13.34C135.801 13.4214 135.801 13.4214 135.801 13.5044C135.801 13.5524 135.801 13.6005 135.801 13.65C135.794 13.7586 135.794 13.7586 135.746 13.8062C135.615 13.8108 135.486 13.8122 135.355 13.8117C135.314 13.8117 135.272 13.8117 135.229 13.8117C135.094 13.8116 134.958 13.8113 134.823 13.8109C134.739 13.8108 134.656 13.8108 134.573 13.8108C134.263 13.8105 133.953 13.8098 133.643 13.8092C132.951 13.8082 132.259 13.8073 131.546 13.8062C131.546 15.6317 131.546 17.4571 131.546 19.3378C131.406 19.4073 131.282 19.3916 131.125 19.3917C131.075 19.3918 131.075 19.3918 131.024 19.3919C130.913 19.3922 130.803 19.392 130.692 19.3919C130.616 19.3919 130.539 19.3919 130.463 19.392C130.302 19.3921 130.141 19.392 129.981 19.3917C129.775 19.3915 129.568 19.3916 129.362 19.3919C129.204 19.3921 129.046 19.392 128.887 19.3919C128.811 19.3919 128.735 19.3919 128.659 19.392C128.553 19.3921 128.447 19.392 128.341 19.3917C128.28 19.3917 128.22 19.3916 128.158 19.3916C128.022 19.3855 128.022 19.3855 127.974 19.3378C127.969 19.2638 127.968 19.1895 127.968 19.1152C127.968 19.0668 127.968 19.0184 127.968 18.9685C127.968 18.9146 127.968 18.8608 127.968 18.8053C127.968 18.7486 127.968 18.6919 127.968 18.6334C127.968 18.4753 127.968 18.3172 127.968 18.1591C127.969 17.9889 127.969 17.8187 127.969 17.6484C127.969 17.3532 127.969 17.0581 127.969 16.7629C127.969 16.3361 127.969 15.9093 127.97 15.4825C127.97 14.7902 127.97 14.0978 127.97 13.4055C127.971 12.7328 127.971 12.06 127.971 11.3873C127.971 11.3454 127.971 11.3036 127.971 11.2605C127.972 10.9331 127.972 10.6058 127.972 10.2784C127.972 8.67266 127.973 7.06692 127.974 5.46118Z" fill="#FEFEFE"/>
<path d="M6.08251 5.46118C9.14114 5.46118 12.1998 5.46118 15.3511 5.46118C15.3511 6.37389 15.3511 7.2866 15.3511 8.22697C13.4554 8.22697 11.5597 8.22697 9.6065 8.22697C9.62243 9.13968 9.63836 10.0524 9.65478 10.9928C9.95739 10.9922 10.26 10.9917 10.5718 10.9911C10.763 10.9908 10.9541 10.9906 11.1453 10.9904C11.4491 10.9902 11.7528 10.9898 12.0566 10.9892C12.3014 10.9887 12.5461 10.9884 12.7909 10.9882C12.8845 10.9882 12.9781 10.988 13.0717 10.9877C13.2023 10.9874 13.333 10.9873 13.4636 10.9874C13.5222 10.9871 13.5222 10.9871 13.5821 10.9868C13.8491 10.9873 13.8491 10.9873 13.9029 11.0405C13.9077 11.1251 13.9091 11.2099 13.9091 11.2946C13.9093 11.3489 13.9094 11.4031 13.9096 11.4591C13.9094 11.5476 13.9094 11.5476 13.9093 11.638C13.9093 11.6982 13.9094 11.7583 13.9094 11.8203C13.9095 11.9478 13.9094 12.0753 13.9092 12.2027C13.9089 12.3665 13.9091 12.5302 13.9093 12.6939C13.9096 12.8496 13.9094 13.0053 13.9093 13.161C13.9094 13.2201 13.9095 13.2791 13.9096 13.34C13.9094 13.4214 13.9094 13.4214 13.9091 13.5044C13.9091 13.5524 13.909 13.6005 13.909 13.65C13.9029 13.7586 13.9029 13.7586 13.8546 13.8062C13.7239 13.8108 13.5944 13.8122 13.4636 13.8117C13.4226 13.8117 13.3817 13.8117 13.3394 13.8117C13.2034 13.8116 13.0673 13.8113 12.9312 13.8109C12.8371 13.8108 12.743 13.8107 12.6489 13.8107C12.4007 13.8105 12.1526 13.81 11.9044 13.8095C11.6514 13.809 11.3984 13.8088 11.1453 13.8086C10.6485 13.8081 10.1516 13.8072 9.65478 13.8062C9.65457 13.8342 9.65437 13.8622 9.65416 13.891C9.64918 14.5707 9.64393 15.2504 9.6384 15.9302C9.63572 16.2589 9.63314 16.5876 9.63077 16.9163C9.62848 17.2332 9.62595 17.5501 9.62326 17.867C9.62227 17.9882 9.62137 18.1094 9.62055 18.2307C9.61939 18.3998 9.61794 18.5689 9.61642 18.738C9.61614 18.7887 9.61586 18.8393 9.61557 18.8915C9.6151 18.9373 9.61463 18.9832 9.61414 19.0303C9.61383 19.0704 9.61352 19.1104 9.6132 19.1517C9.6065 19.2425 9.6065 19.2425 9.55823 19.2901C9.46031 19.2958 9.36219 19.2981 9.26411 19.2992C9.2011 19.3 9.1381 19.3008 9.07318 19.3016C9.03928 19.3019 9.00538 19.3022 8.97045 19.3026C8.86453 19.3036 8.75861 19.3049 8.65269 19.3062C8.42755 19.3091 8.2024 19.3116 7.97726 19.314C7.71705 19.3168 7.45685 19.3198 7.19664 19.3231C7.09244 19.3244 6.98824 19.3254 6.88403 19.3264C6.82042 19.3272 6.7568 19.328 6.69126 19.3288C6.60738 19.3297 6.60738 19.3297 6.52181 19.3306C6.37327 19.3341 6.37326 19.3341 6.23454 19.3652C6.18318 19.3753 6.18318 19.3753 6.13078 19.3855C6.08251 19.3378 6.08251 19.3378 6.07651 19.2429C6.07653 19.2008 6.07655 19.1587 6.07657 19.1152C6.07647 19.0668 6.07638 19.0184 6.07628 18.9685C6.07642 18.9146 6.07656 18.8608 6.0767 18.8053C6.07666 18.7486 6.07662 18.6919 6.07658 18.6334C6.07651 18.4753 6.07666 18.3172 6.07691 18.1591C6.07711 17.9889 6.07704 17.8187 6.07701 17.6484C6.07698 17.3532 6.07713 17.0581 6.07741 16.7629C6.0778 16.3361 6.07792 15.9093 6.07798 15.4825C6.07809 14.7902 6.07841 14.0978 6.07887 13.4055C6.07931 12.7328 6.07965 12.06 6.07986 11.3873C6.07987 11.3454 6.07988 11.3036 6.0799 11.2605C6.08 10.9331 6.08009 10.6058 6.08018 10.2784C6.08064 8.67266 6.08161 7.06692 6.08251 5.46118Z" fill="#FEFEFE"/>
<path d="M93.6996 5.41349C97.3317 5.42923 100.964 5.44496 104.706 5.46118C104.706 6.35815 104.706 7.25513 104.706 8.17929C104.69 8.19502 104.674 8.21076 104.658 8.22697C103.431 8.22697 102.204 8.22697 100.941 8.22697C100.941 11.8936 100.941 15.5601 100.941 19.3378C102.167 19.3378 103.394 19.3378 104.658 19.3378C104.642 19.3693 104.626 19.4008 104.609 19.4332C101.503 19.4175 98.3967 19.4017 95.1961 19.3855C95.1961 19.3698 95.1961 19.354 95.1961 19.3378C95.9289 19.3378 96.6617 19.3378 97.4167 19.3378C97.4167 15.6712 97.4167 12.0047 97.4167 8.22697C96.1901 8.22697 94.9634 8.22697 93.6996 8.22697C93.6996 7.29852 93.6996 6.37007 93.6996 5.41349Z" fill="#FEFEFE"/>
<path d="M141.713 33.7214C141.813 33.7212 141.912 33.7194 142.012 33.7176C142.479 33.7138 142.879 33.7903 143.325 33.9298C143.362 33.9409 143.4 33.952 143.438 33.9635C144.362 34.2511 145.098 34.972 145.548 35.7966C145.969 36.601 146.088 37.4028 146.089 38.296C146.089 38.3301 146.089 38.3641 146.089 38.3992C146.089 38.896 146.065 39.3613 145.932 39.8429C145.919 39.8984 145.906 39.9539 145.893 40.0111C145.738 40.6284 145.434 41.1733 145.015 41.6549C144.989 41.6876 144.962 41.7202 144.936 41.7538C144.722 42.0131 144.478 42.1903 144.194 42.3702C144.141 42.407 144.141 42.407 144.086 42.4445C143.164 43.0483 141.861 43.1464 140.792 42.9503C140.14 42.7978 139.477 42.4819 138.98 42.0364C138.945 42.0058 138.91 41.9752 138.873 41.9437C138.231 41.3537 137.892 40.573 137.677 39.7475C137.663 39.6994 137.648 39.6513 137.633 39.6018C137.302 38.3778 137.506 36.8696 138.108 35.7549C138.591 34.941 139.296 34.3034 140.187 33.9655C140.218 33.9538 140.249 33.942 140.281 33.9299C140.753 33.7597 141.213 33.7212 141.713 33.7214Z" fill="#4B2C5E"/>
<path d="M62.7441 33.7214C62.843 33.7212 62.9417 33.7194 63.0405 33.7176C63.6567 33.7124 64.2216 33.8401 64.7775 34.1116C64.8121 34.1282 64.8466 34.1447 64.8822 34.1618C65.1507 34.2944 65.3837 34.4426 65.6042 34.6451C65.6466 34.6827 65.6891 34.7203 65.7328 34.7591C66.6388 35.6022 67.0504 36.7437 67.1062 37.9597C67.1483 39.3634 66.873 40.7698 65.8661 41.8263C64.9995 42.6755 63.9662 43.0024 62.7633 43.002C61.6135 42.9911 60.5925 42.6411 59.757 41.8431C58.8684 40.907 58.5479 39.6937 58.5446 38.4454C58.5442 38.3392 58.5427 38.233 58.5411 38.1268C58.5331 37.0425 58.8544 35.9482 59.5485 35.0936C59.6182 35.0266 59.6182 35.0266 59.7148 35.0266C59.7332 34.9848 59.7332 34.9848 59.7519 34.9422C60.0342 34.4368 60.8229 34.0393 61.3647 33.8717C61.8186 33.7473 62.2752 33.7213 62.7441 33.7214Z" fill="#4B2C5E"/>
<path d="M127.346 30.401C128.653 30.401 129.959 30.401 131.305 30.401C131.305 35.6884 131.305 40.9759 131.305 46.4235C129.999 46.4235 128.692 46.4235 127.346 46.4235C127.346 41.1361 127.346 35.8487 127.346 30.401Z" fill="#FEFEFE"/>
<path d="M180.544 34.7881C180.682 34.8562 180.691 34.9554 180.739 35.093C180.751 35.1298 180.763 35.1666 180.776 35.2045C180.789 35.2429 180.802 35.2813 180.816 35.3209C180.86 35.4482 180.903 35.5756 180.946 35.7031C180.976 35.7916 181.006 35.88 181.036 35.9685C181.099 36.1515 181.161 36.3346 181.223 36.5178C181.312 36.7768 181.401 37.0354 181.491 37.2939C181.505 37.3339 181.519 37.3739 181.533 37.4152C181.573 37.532 181.614 37.6488 181.655 37.7655C181.817 38.2341 181.979 38.703 182.136 39.1734C182.215 39.4076 182.298 39.6398 182.385 39.8714C182.428 39.9887 182.47 40.1062 182.511 40.2243C182.523 40.2578 182.535 40.2912 182.547 40.3257C182.572 40.4151 182.572 40.4151 182.572 40.5582C181.266 40.5582 179.959 40.5582 178.613 40.5582C178.645 40.37 178.671 40.2272 178.733 40.0539C178.748 40.0145 178.762 39.9751 178.776 39.9344C178.791 39.8934 178.806 39.8524 178.822 39.8101C178.837 39.7674 178.852 39.7248 178.868 39.6809C178.945 39.466 179.024 39.2518 179.105 39.0382C179.176 38.8496 179.232 38.6596 179.286 38.4659C179.348 38.2467 179.418 38.0364 179.503 37.8251C179.613 37.5524 179.699 37.2771 179.778 36.9942C179.841 36.77 179.923 36.5578 180.012 36.3425C180.095 36.1362 180.164 35.9258 180.234 35.715C180.248 35.673 180.262 35.631 180.276 35.5877C180.304 35.5048 180.331 35.4219 180.359 35.3389C180.42 35.1551 180.482 34.9716 180.544 34.7881Z" fill="#4D2F60"/>
<path d="M83.0794 5.46118C83.0953 5.46118 83.1112 5.46118 83.1276 5.46118C83.1276 10.0247 83.1276 14.5883 83.1276 19.2901C87.1102 19.2901 91.0928 19.2901 95.1961 19.2901C95.1961 19.3216 95.1961 19.3531 95.1961 19.3855C98.3025 19.3855 101.409 19.3855 104.609 19.3855C104.625 19.417 104.641 19.4485 104.658 19.4809C103.887 19.4873 103.117 19.4935 102.347 19.4995C101.989 19.5024 101.631 19.5052 101.272 19.5082C100.958 19.5108 100.644 19.5133 100.33 19.5157C100.166 19.517 100.001 19.5183 99.8368 19.5197C97.1789 19.5424 94.5207 19.528 91.8627 19.5194C91.438 19.518 91.0132 19.5167 90.5884 19.5153C89.8317 19.513 89.0749 19.5106 88.3182 19.5082C87.5857 19.5059 86.8532 19.5036 86.1207 19.5013C86.0523 19.5011 86.0523 19.5011 85.9825 19.5008C85.7536 19.5001 85.5247 19.4994 85.2957 19.4987C83.4145 19.4928 81.5332 19.4869 79.6519 19.4809C79.6519 19.4652 79.6519 19.4494 79.6519 19.4332C80.783 19.4332 81.914 19.4332 83.0794 19.4332C83.0794 14.8224 83.0794 10.2117 83.0794 5.46118Z" fill="#FEFEFE"/>
<path d="M81.4336 19.3123C81.6222 19.3153 81.8108 19.3181 81.9994 19.3209C82.3594 19.3263 82.7194 19.3319 83.0794 19.3378C83.0794 19.3693 83.0794 19.4008 83.0794 19.4332C89.0771 19.4568 89.0771 19.4568 95.1961 19.4809C95.1961 19.4966 95.1961 19.5124 95.1961 19.5286C86.9123 19.5286 78.6285 19.5286 70.0937 19.5286C70.0937 19.4814 70.0937 19.4342 70.0937 19.3855C70.0618 19.3698 70.03 19.354 69.9971 19.3378C70.7792 19.3315 71.5613 19.3252 72.3434 19.3192C72.707 19.3164 73.0705 19.3135 73.4341 19.3105C76.1005 19.2887 78.7674 19.2681 81.4336 19.3123Z" fill="#FEFEFE"/>
<path d="M55.4162 19.1897C55.4647 19.1897 55.5132 19.1898 55.5631 19.1899C55.6163 19.1902 55.6695 19.1905 55.7243 19.1909C55.781 19.191 55.8376 19.1912 55.896 19.1913C56.0535 19.1918 56.211 19.1925 56.3686 19.1933C56.5387 19.1941 56.7089 19.1946 56.8791 19.1951C57.1754 19.1961 57.4718 19.1973 57.7681 19.1986C58.2034 19.2004 58.6387 19.202 59.0741 19.2035C59.7894 19.206 60.5047 19.2087 61.22 19.2116C61.2628 19.2117 61.3057 19.2119 61.3498 19.2121C61.3927 19.2122 61.4356 19.2124 61.4797 19.2126C62.9383 19.2184 64.3969 19.2238 65.8556 19.229C66.0605 19.2298 66.2655 19.2305 66.4705 19.2312C69.7701 19.2433 73.0697 19.2457 76.3693 19.2425C76.3852 19.2739 76.4011 19.3054 76.4176 19.3378C68.4205 19.3378 60.4235 19.3378 52.1841 19.3378C52.1841 19.3221 52.1841 19.3064 52.1841 19.2901C52.2187 19.2897 52.2534 19.2892 52.2891 19.2887C52.6158 19.284 52.9425 19.2791 53.2692 19.274C53.4372 19.2713 53.6052 19.2688 53.7731 19.2664C53.9663 19.2637 54.1595 19.2606 54.3526 19.2575C54.4129 19.2568 54.4731 19.256 54.5352 19.2551C54.6192 19.2537 54.6193 19.2537 54.705 19.2523C54.779 19.2511 54.779 19.2511 54.8544 19.25C54.9785 19.2471 54.9785 19.2471 55.0736 19.2185C55.1912 19.1915 55.2956 19.1892 55.4162 19.1897Z" fill="#FEFEFE"/>
<path d="M21.6267 36.8863C21.6426 36.8863 21.6586 36.8863 21.675 36.8863C21.675 40.0336 21.675 43.1809 21.675 46.4235C21.659 46.4235 21.6431 46.4235 21.6267 46.4235C21.6108 43.4179 21.5948 40.4122 21.5784 37.3155C21.5625 37.3155 21.5466 37.3155 21.5302 37.3155C21.5724 36.9936 21.5724 36.9936 21.6267 36.8863Z" fill="#6A527B"/>
<path d="M9.65478 10.9928C10.2015 10.9917 10.7483 10.9908 11.295 10.9903C11.5489 10.99 11.8027 10.9897 12.0566 10.9892C12.3014 10.9887 12.5461 10.9884 12.7909 10.9882C12.8845 10.9882 12.9781 10.988 13.0717 10.9877C13.2023 10.9874 13.333 10.9873 13.4636 10.9874C13.5222 10.9871 13.5222 10.9871 13.5821 10.9868C13.8491 10.9873 13.8491 10.9873 13.9029 11.0405C13.9074 11.1253 13.9085 11.2104 13.9084 11.2954C13.9084 11.377 13.9084 11.377 13.9083 11.4603C13.9081 11.5195 13.9078 11.5787 13.9076 11.6397C13.9075 11.7 13.9075 11.7602 13.9074 11.8223C13.9072 11.9828 13.9067 12.1433 13.9062 12.3037C13.9057 12.4674 13.9055 12.631 13.9052 12.7947C13.9047 13.116 13.9039 13.4373 13.9029 13.7586C13.8063 13.6632 13.8063 13.6632 13.7947 13.554C13.7949 13.5084 13.7951 13.4629 13.7954 13.416C13.7954 13.3637 13.7954 13.3114 13.7954 13.2576C13.7959 13.2025 13.7964 13.1474 13.7969 13.0906C13.797 13.0401 13.7971 12.9895 13.7972 12.9375C13.7977 12.7482 13.7991 12.559 13.8003 12.3697C13.8023 11.9468 13.8043 11.5239 13.8063 11.0881C12.4363 11.0724 11.0663 11.0567 9.65478 11.0405C9.65478 11.0247 9.65478 11.009 9.65478 10.9928Z" fill="#FEFEFE"/>
<path d="M9.84227 19.1888C9.87595 19.189 9.90964 19.1892 9.94434 19.1894C9.99732 19.1894 9.99732 19.1894 10.0514 19.1893C10.1686 19.1894 10.2859 19.1897 10.4032 19.1901C10.4843 19.1902 10.5654 19.1903 10.6465 19.1903C10.8604 19.1905 11.0743 19.191 11.2882 19.1915C11.5062 19.192 11.7243 19.1922 11.9424 19.1924C12.3706 19.193 12.7988 19.1938 13.227 19.1948C13.227 19.2105 13.227 19.2262 13.227 19.2425C12.0641 19.2425 10.9012 19.2425 9.70305 19.2425C9.70305 19.2739 9.70305 19.3054 9.70305 19.3378C8.60385 19.3378 7.50466 19.3378 6.37215 19.3378C6.37215 19.3221 6.37215 19.3064 6.37215 19.2901C6.41196 19.2897 6.45177 19.2892 6.49278 19.2887C6.86716 19.284 7.24152 19.2791 7.61589 19.274C7.80837 19.2713 8.00086 19.2688 8.19335 19.2664C8.37896 19.2642 8.56457 19.2617 8.75018 19.259C8.82114 19.258 8.89211 19.2571 8.96308 19.2563C9.06215 19.2552 9.16121 19.2538 9.26028 19.2523C9.31677 19.2515 9.37326 19.2508 9.43147 19.25C9.58023 19.2412 9.68091 19.1892 9.84227 19.1888Z" fill="#FEFEFE"/>
<path d="M20.9509 30.401C22.4802 30.401 24.0095 30.401 25.5852 30.401C25.5852 30.4167 25.5852 30.4325 25.5852 30.4487C25.5004 30.4494 25.5004 30.4494 25.4139 30.4502C24.8818 30.4548 24.3498 30.4597 23.8177 30.4649C23.5442 30.4675 23.2706 30.4701 22.9971 30.4724C22.7332 30.4747 22.4693 30.4772 22.2055 30.4798C22.1047 30.4808 22.0039 30.4817 21.9031 30.4825C21.7622 30.4837 21.6213 30.4851 21.4804 30.4866C21.4385 30.4869 21.3966 30.4871 21.3534 30.4874C21.1915 30.4894 21.0572 30.4932 20.9026 30.5441C20.9185 30.4969 20.9345 30.4497 20.9509 30.401Z" fill="#ECEAEE"/>
</svg>
